M48
; DRILL file KiCad 10.0.4 date 2026-09-18T15:19:49
; FORMAT={-:-/ absolute / metric / decimal}
; #@! TF.CreationDate,2026-09-18T15:19:49-07:00
; #@! TF.GenerationSoftware,Kicad,Pcbnew,10.0.4
; #@! TF.FileFunction,Plated,1,2,PTH
FMAT,2
METRIC
; #@! TA.AperFunction,Plated,PTH,ViaDrill
T1C0.300
; #@! TA.AperFunction,Plated,PTH,ComponentDrill
T2C0.900
; #@! TA.AperFunction,Plated,PTH,ComponentDrill
T3C1.000
; #@! TA.AperFunction,Plated,PTH,ComponentDrill
T4C1.100
; #@! TA.AperFunction,Plated,PTH,ComponentDrill
T5C1.220
; #@! TA.AperFunction,Plated,PTH,ComponentDrill
T6C1.420
; #@! TA.AperFunction,Plated,PTH,ComponentDrill
T7C1.430
%
G90
G05
T1
X114.4Y-52.2
X116.2Y-54.0
X127.1Y-79.9
X127.1Y-85.6
X127.1Y-93.4
X128.1Y-97.0
X128.2Y-76.9
X129.2Y-85.9
X129.2Y-88.5
X130.2Y-82.0
X131.6Y-81.3
X132.1Y-87.0
X132.2Y-91.8
X132.4Y-95.6
X132.9Y-73.5
X132.9Y-82.1
X132.9Y-83.3
X133.2Y-85.4
X133.5Y-89.0
X133.8Y-76.6
X133.8Y-92.5
X133.9Y-82.1
X134.3Y-93.2
X135.2Y-92.3
X135.4Y-76.3
X135.4Y-81.3
X135.8Y-73.5
X136.0Y-70.5
X136.1Y-82.8
X136.7Y-72.6
X137.5Y-94.6
X137.6Y-81.6
X138.5Y-86.2
X139.1Y-76.7
X139.1Y-96.2
X139.8Y-85.5
X139.8Y-91.3
X140.0Y-75.8
X140.2Y-83.5
T2
X117.43Y-50.1
X119.97Y-50.1
T3
X103.0Y-56.5
X103.0Y-59.04
X103.0Y-61.58
X103.0Y-64.12
X103.0Y-66.66
X103.0Y-69.2
X103.0Y-71.74
X108.65Y-46.365
X108.65Y-65.485
X108.65Y-84.605
X108.65Y-103.725
X111.15Y-46.365
X111.15Y-65.485
X111.15Y-84.605
X111.15Y-103.725
X113.65Y-46.365
X113.65Y-65.485
X113.65Y-84.605
X113.65Y-103.725
X119.5Y-89.76
X119.5Y-92.3
X119.5Y-94.84
X119.5Y-97.38
X119.5Y-99.92
X119.5Y-102.46
X119.5Y-105.0
X125.5Y-56.515
X125.5Y-59.055
X125.5Y-61.595
X125.5Y-64.135
X125.5Y-66.675
X125.5Y-69.215
X125.5Y-71.755
X132.5Y-114.34
X132.5Y-116.88
X132.5Y-119.42
X132.5Y-121.96
X132.5Y-124.5
X135.04Y-114.34
X135.04Y-116.88
X135.04Y-119.42
X135.04Y-121.96
X135.04Y-124.5
X142.0Y-89.75
X142.0Y-92.29
X142.0Y-94.83
X142.0Y-97.37
X142.0Y-99.91
X142.0Y-102.45
X142.0Y-104.99
T5
X104.52Y-121.23
X107.5Y-122.97
X115.68Y-121.38
T6
X106.0Y-118.3
X106.0Y-125.82
X116.3Y-118.28
T7
X106.0Y-110.0
X106.0Y-134.12
X116.3Y-109.98
T4
G00X106.35Y-39.215
M15
G01X106.35Y-38.515
M16
G05
G00X106.35Y-58.335
M15
G01X106.35Y-57.635
M16
G05
G00X106.35Y-77.455
M15
G01X106.35Y-76.755
M16
G05
G00X106.35Y-96.575
M15
G01X106.35Y-95.875
M16
G05
G00X115.95Y-39.215
M15
G01X115.95Y-38.515
M16
G05
G00X115.95Y-58.335
M15
G01X115.95Y-57.635
M16
G05
G00X115.95Y-77.455
M15
G01X115.95Y-76.755
M16
G05
G00X115.95Y-96.575
M15
G01X115.95Y-95.875
M16
G05
M30
