%TF.GenerationSoftware,KiCad,Pcbnew,10.0.4*%
%TF.CreationDate,2026-09-18T15:20:02-07:00*%
%TF.ProjectId,Euro-LFO,4575726f-2d4c-4464-9f2e-6b696361645f,rev?*%
%TF.SameCoordinates,Original*%
%TF.FileFunction,Copper,L2,Bot*%
%TF.FilePolarity,Positive*%
%FSLAX46Y46*%
G04 Gerber Fmt 4.6, Leading zero omitted, Abs format (unit mm)*
G04 Created by KiCad (PCBNEW 10.0.4) date 2026-09-18 15:20:02*
%MOMM*%
%LPD*%
G01*
G04 APERTURE LIST*
G04 Aperture macros list*
%AMRoundRect*
0 Rectangle with rounded corners*
0 $1 Rounding radius*
0 $2 $3 $4 $5 $6 $7 $8 $9 X,Y pos of 4 corners*
0 Add a 4 corners polygon primitive as box body*
4,1,4,$2,$3,$4,$5,$6,$7,$8,$9,$2,$3,0*
0 Add four circle primitives for the rounded corners*
1,1,$1+$1,$2,$3*
1,1,$1+$1,$4,$5*
1,1,$1+$1,$6,$7*
1,1,$1+$1,$8,$9*
0 Add four rect primitives between the rounded corners*
20,1,$1+$1,$2,$3,$4,$5,0*
20,1,$1+$1,$4,$5,$6,$7,0*
20,1,$1+$1,$6,$7,$8,$9,0*
20,1,$1+$1,$8,$9,$2,$3,0*%
G04 Aperture macros list end*
%TA.AperFunction,ComponentPad*%
%ADD10R,1.700000X1.700000*%
%TD*%
%TA.AperFunction,ComponentPad*%
%ADD11C,1.700000*%
%TD*%
%TA.AperFunction,ComponentPad*%
%ADD12O,2.720000X3.240000*%
%TD*%
%TA.AperFunction,ComponentPad*%
%ADD13R,1.800000X1.800000*%
%TD*%
%TA.AperFunction,ComponentPad*%
%ADD14C,1.800000*%
%TD*%
%TA.AperFunction,ComponentPad*%
%ADD15R,1.930000X1.830000*%
%TD*%
%TA.AperFunction,ComponentPad*%
%ADD16C,2.130000*%
%TD*%
%TA.AperFunction,ComponentPad*%
%ADD17RoundRect,0.250000X-0.600000X-0.600000X0.600000X-0.600000X0.600000X0.600000X-0.600000X0.600000X0*%
%TD*%
%TA.AperFunction,ViaPad*%
%ADD18C,0.600000*%
%TD*%
%TA.AperFunction,Conductor*%
%ADD19C,0.200000*%
%TD*%
G04 APERTURE END LIST*
D10*
%TO.P,J3,1,Pin_1_1*%
%TO.N,/LED_I*%
X125500000Y-56515000D03*
D11*
%TO.P,J3,2,Pin_2_2*%
%TO.N,/INV_I*%
X125500000Y-59055000D03*
%TO.P,J3,3,Pin_3_3*%
%TO.N,GND*%
X125500000Y-61595000D03*
%TO.P,J3,4,Pin_4_4*%
X125500000Y-64135000D03*
%TO.P,J3,5,Pin_5_5*%
%TO.N,/RNG_2_I*%
X125500000Y-66675000D03*
%TO.P,J3,6,Pin_6_6*%
%TO.N,/RNG_3_I*%
X125500000Y-69215000D03*
%TO.P,J3,7,Pin_7_7*%
%TO.N,/SHP_I*%
X125500000Y-71755000D03*
%TD*%
D12*
%TO.P,RATE1,*%
%TO.N,*%
X106350000Y-38865000D03*
X115950000Y-38865000D03*
D13*
%TO.P,RATE1,1,1_1*%
%TO.N,/U1A_O*%
X108650000Y-46365000D03*
D14*
%TO.P,RATE1,2,2_2*%
%TO.N,Net-(D1-K)*%
X111150000Y-46365000D03*
%TO.P,RATE1,3,3_3*%
%TO.N,Net-(R4-Pad2)*%
X113650000Y-46365000D03*
%TD*%
D12*
%TO.P,RANGE1,*%
%TO.N,*%
X106350000Y-57985000D03*
X115950000Y-57985000D03*
D13*
%TO.P,RANGE1,1,1_1*%
%TO.N,/GND_O*%
X108650000Y-65485000D03*
D14*
%TO.P,RANGE1,2,2_2*%
%TO.N,/RNG_2_O*%
X111150000Y-65485000D03*
%TO.P,RANGE1,3,3_3*%
%TO.N,/RNG_3_O*%
X113650000Y-65485000D03*
%TD*%
D10*
%TO.P,J5,1,Pin_1_1*%
%TO.N,/U1A_I*%
X142000000Y-89750000D03*
D11*
%TO.P,J5,2,Pin_2_2*%
%TO.N,+12V*%
X142000000Y-92290000D03*
%TO.P,J5,3,Pin_3_3*%
%TO.N,/OFF_I*%
X142000000Y-94830000D03*
%TO.P,J5,4,Pin_4_4*%
%TO.N,-12V*%
X142000000Y-97370000D03*
%TO.P,J5,5,Pin_5_5*%
X142000000Y-99910000D03*
%TO.P,J5,6,Pin_6_6*%
%TO.N,/TRI_I*%
X142000000Y-102450000D03*
%TO.P,J5,7,Pin_7_7*%
%TO.N,/PWM_I*%
X142000000Y-104990000D03*
%TD*%
D15*
%TO.P,INV-OUT1,S*%
%TO.N,/GND_O*%
X107500000Y-122970000D03*
D16*
%TO.P,INV-OUT1,T*%
%TO.N,/INV_O*%
X106000000Y-134120000D03*
%TO.P,INV-OUT1,TN*%
%TO.N,N/C*%
X106000000Y-125820000D03*
%TD*%
D15*
%TO.P,TRI-OUT1,S*%
%TO.N,/GND_O*%
X104520000Y-121230000D03*
D16*
%TO.P,TRI-OUT1,T*%
%TO.N,/TRI_O*%
X106000000Y-110000000D03*
%TO.P,TRI-OUT1,TN*%
%TO.N,N/C*%
X106000000Y-118300000D03*
%TD*%
D13*
%TO.P,D3,1,K_1*%
%TO.N,/GND_O*%
X119970000Y-50100000D03*
D14*
%TO.P,D3,2,A_2*%
%TO.N,/LED_O*%
X117430000Y-50100000D03*
%TD*%
D12*
%TO.P,SHAPE1,*%
%TO.N,*%
X106350000Y-77105000D03*
X115950000Y-77105000D03*
D13*
%TO.P,SHAPE1,1,1_1*%
%TO.N,Net-(D1-A)*%
X108650000Y-84605000D03*
D14*
%TO.P,SHAPE1,2,2_2*%
%TO.N,/SHP_O*%
X111150000Y-84605000D03*
%TO.P,SHAPE1,3,3_3*%
%TO.N,Net-(D2-K)*%
X113650000Y-84605000D03*
%TD*%
D12*
%TO.P,OFFSET1,*%
%TO.N,*%
X106350000Y-96225000D03*
X115950000Y-96225000D03*
D13*
%TO.P,OFFSET1,1,1_1*%
%TO.N,/+12_O*%
X108650000Y-103725000D03*
D14*
%TO.P,OFFSET1,2,2_2*%
%TO.N,/OFF_O*%
X111150000Y-103725000D03*
%TO.P,OFFSET1,3,3_3*%
%TO.N,/-12_O*%
X113650000Y-103725000D03*
%TD*%
D15*
%TO.P,PWM-OUT1,S*%
%TO.N,/GND_O*%
X115680000Y-121380000D03*
D16*
%TO.P,PWM-OUT1,T*%
%TO.N,/PWM_O*%
X116300000Y-109980000D03*
%TO.P,PWM-OUT1,TN*%
%TO.N,N/C*%
X116300000Y-118280000D03*
%TD*%
D10*
%TO.P,J6,1,Pin_1_1*%
%TO.N,/U1A_O*%
X119500000Y-89760000D03*
D11*
%TO.P,J6,2,Pin_2_2*%
%TO.N,/+12_O*%
X119500000Y-92300000D03*
%TO.P,J6,3,Pin_3_3*%
%TO.N,/OFF_O*%
X119500000Y-94840000D03*
%TO.P,J6,4,Pin_4_4*%
%TO.N,/-12_O*%
X119500000Y-97380000D03*
%TO.P,J6,5,Pin_5_5*%
X119500000Y-99920000D03*
%TO.P,J6,6,Pin_6_6*%
%TO.N,/TRI_O*%
X119500000Y-102460000D03*
%TO.P,J6,7,Pin_7_7*%
%TO.N,/PWM_O*%
X119500000Y-105000000D03*
%TD*%
D17*
%TO.P,J1,1,Pin_1_1*%
%TO.N,Net-(D5-K)*%
X132500000Y-124500000D03*
D11*
%TO.P,J1,2,Pin_2_2*%
X135040000Y-124500000D03*
%TO.P,J1,3,Pin_3_3*%
%TO.N,GND*%
X132500000Y-121960000D03*
%TO.P,J1,4,Pin_4_4*%
X135040000Y-121960000D03*
%TO.P,J1,5,Pin_5_5*%
X132500000Y-119420000D03*
%TO.P,J1,6,Pin_6_6*%
X135040000Y-119420000D03*
%TO.P,J1,7,Pin_7_7*%
X132500000Y-116880000D03*
%TO.P,J1,8,Pin_8_8*%
X135040000Y-116880000D03*
%TO.P,J1,9,Pin_9_9*%
%TO.N,Net-(D4-A)*%
X132500000Y-114340000D03*
%TO.P,J1,10,Pin_10_10*%
X135040000Y-114340000D03*
%TD*%
D10*
%TO.P,J4,1,Pin_1_1*%
%TO.N,/LED_O*%
X103000000Y-56500000D03*
D11*
%TO.P,J4,2,Pin_2_2*%
%TO.N,/INV_O*%
X103000000Y-59040000D03*
%TO.P,J4,3,Pin_3_3*%
%TO.N,/GND_O*%
X103000000Y-61580000D03*
%TO.P,J4,4,Pin_4_4*%
X103000000Y-64120000D03*
%TO.P,J4,5,Pin_5_5*%
%TO.N,/RNG_2_O*%
X103000000Y-66660000D03*
%TO.P,J4,6,Pin_6_6*%
%TO.N,/RNG_3_O*%
X103000000Y-69200000D03*
%TO.P,J4,7,Pin_7_7*%
%TO.N,/SHP_O*%
X103000000Y-71740000D03*
%TD*%
D18*
%TO.N,Net-(R17-Pad2)*%
X140000000Y-75800000D03*
X139100000Y-76700000D03*
%TO.N,GND*%
X135400000Y-76300000D03*
X140200000Y-83500000D03*
X135400000Y-81300000D03*
X128100000Y-97000000D03*
X132200000Y-91800000D03*
X132100000Y-87000000D03*
X131600000Y-81300000D03*
X127100000Y-79900000D03*
%TO.N,/RNG_3_I*%
X132400000Y-95600000D03*
X137500000Y-94600000D03*
X137600000Y-81600000D03*
X136100000Y-82800000D03*
%TO.N,Net-(R20-Pad2)*%
X136000000Y-70500000D03*
X132900000Y-73500000D03*
%TO.N,/U1A_I*%
X130200000Y-82000000D03*
X129200000Y-85900000D03*
X129200000Y-88500000D03*
X133500000Y-89000000D03*
%TO.N,+12V*%
X133900000Y-82100000D03*
X133200000Y-85400000D03*
X139800000Y-85500000D03*
X138500000Y-86200000D03*
X139800000Y-91300000D03*
X133800000Y-92500000D03*
%TO.N,Net-(U1D--)*%
X136700000Y-72600000D03*
X135800000Y-73500000D03*
%TO.N,-12V*%
X133800000Y-76600000D03*
X128200000Y-76900000D03*
X127100000Y-85600000D03*
X127100000Y-93400000D03*
%TO.N,Net-(U1B--)*%
X134300000Y-93200000D03*
X135200000Y-92300000D03*
%TO.N,Net-(U1A-+)*%
X132900000Y-82100000D03*
X132900000Y-83300000D03*
%TO.N,/U1A_O*%
X116200000Y-54000000D03*
X114400000Y-52200000D03*
%TO.N,/TRI_I*%
X139100000Y-96200000D03*
%TD*%
%TO.N,Net-(R17-Pad2)*%
D19*
X139100000Y-76700000D02*
X140000000Y-75800000D01*
%TO.N,GND*%
X135420000Y-76280000D02*
X135400000Y-76300000D01*
X140220000Y-83480000D02*
X140200000Y-83500000D01*
X135420000Y-81320000D02*
X135400000Y-81300000D01*
X128060000Y-97000000D02*
X128100000Y-97000000D01*
X132220000Y-91800000D02*
X132200000Y-91800000D01*
X132140000Y-87000000D02*
X132100000Y-87000000D01*
X131580000Y-81320000D02*
X131600000Y-81300000D01*
X127100000Y-79880000D02*
X127100000Y-79900000D01*
%TO.N,/RNG_3_I*%
X133400000Y-94600000D02*
X132400000Y-95600000D01*
X137500000Y-94600000D02*
X133400000Y-94600000D01*
X136400000Y-82800000D02*
X137600000Y-81600000D01*
%TO.N,Net-(R20-Pad2)*%
X132900000Y-73500000D02*
X135900000Y-70500000D01*
%TO.N,/U1A_I*%
X134300000Y-89800000D02*
X141800000Y-89800000D01*
X133500000Y-89000000D02*
X134300000Y-89800000D01*
X130200000Y-84900000D02*
X130200000Y-82000000D01*
X129200000Y-85900000D02*
X130200000Y-84900000D01*
X129200000Y-88500000D02*
X129200000Y-85900000D01*
%TO.N,+12V*%
X133900000Y-84700000D02*
X133900000Y-82200000D01*
X133200000Y-85400000D02*
X133900000Y-84700000D01*
X135000000Y-91300000D02*
X140000000Y-91300000D01*
X133800000Y-92500000D02*
X135000000Y-91300000D01*
X134000000Y-86200000D02*
X133200000Y-85400000D01*
X138500000Y-86200000D02*
X134000000Y-86200000D01*
X139200000Y-85500000D02*
X139800000Y-85500000D01*
X138500000Y-86200000D02*
X139200000Y-85500000D01*
X141000000Y-92300000D02*
X142000000Y-92300000D01*
X140000000Y-91300000D02*
X141000000Y-92300000D01*
%TO.N,Net-(U1D--)*%
X135800000Y-73500000D02*
X136700000Y-72600000D01*
%TO.N,-12V*%
X139400000Y-94000000D02*
X142000000Y-96600000D01*
X127700000Y-94000000D02*
X139400000Y-94000000D01*
X127100000Y-93400000D02*
X127700000Y-94000000D01*
X133500000Y-76900000D02*
X133800000Y-76600000D01*
X128200000Y-76900000D02*
X133500000Y-76900000D01*
X142000000Y-96600000D02*
X142000000Y-97400000D01*
X127100000Y-93400000D02*
X127100000Y-85600000D01*
%TO.N,Net-(U1B--)*%
X135200000Y-92300000D02*
X134300000Y-93200000D01*
%TO.N,Net-(U1A-+)*%
X132900000Y-83300000D02*
X132900000Y-82100000D01*
%TO.N,/U1A_O*%
X114400000Y-52200000D02*
X116200000Y-54000000D01*
%TO.N,/TRI_I*%
X139100000Y-98800000D02*
X142000000Y-101700000D01*
X139100000Y-96300000D02*
X139100000Y-98800000D01*
X142000000Y-101700000D02*
X142000000Y-102400000D01*
%TD*%
%TA.AperFunction,Conductor*%
%TO.N,GND*%
G36*
X134574075Y-122152993D02*
G01*
X134639901Y-122267007D01*
X134732993Y-122360099D01*
X134847007Y-122425925D01*
X134910590Y-122442962D01*
X134278282Y-123075269D01*
X134278282Y-123075270D01*
X134332452Y-123114626D01*
X134332451Y-123114626D01*
X134341495Y-123119234D01*
X134392292Y-123167208D01*
X134409087Y-123235029D01*
X134386550Y-123301164D01*
X134341499Y-123340202D01*
X134332182Y-123344949D01*
X134160213Y-123469890D01*
X134009894Y-123620209D01*
X134009885Y-123620219D01*
X134006330Y-123625113D01*
X133950997Y-123667775D01*
X133881383Y-123673748D01*
X133819591Y-123641137D01*
X133788312Y-123591223D01*
X133784815Y-123580670D01*
X133784814Y-123580666D01*
X133692712Y-123431344D01*
X133568656Y-123307288D01*
X133451505Y-123235029D01*
X133419336Y-123215187D01*
X133419331Y-123215185D01*
X133417820Y-123214684D01*
X133347228Y-123191292D01*
X133289784Y-123151520D01*
X133262961Y-123087004D01*
X133262801Y-123076354D01*
X132629408Y-122442962D01*
X132692993Y-122425925D01*
X132807007Y-122360099D01*
X132900099Y-122267007D01*
X132965925Y-122152993D01*
X132982962Y-122089408D01*
X133615270Y-122721717D01*
X133615270Y-122721716D01*
X133654622Y-122667554D01*
X133659514Y-122657954D01*
X133707488Y-122607157D01*
X133775308Y-122590361D01*
X133841444Y-122612897D01*
X133880486Y-122657954D01*
X133885375Y-122667550D01*
X133924728Y-122721716D01*
X134557037Y-122089408D01*
X134574075Y-122152993D01*
G37*
%TD.AperFunction*%
%TA.AperFunction,Conductor*%
G36*
X134574075Y-119612993D02*
G01*
X134639901Y-119727007D01*
X134732993Y-119820099D01*
X134847007Y-119885925D01*
X134910590Y-119902962D01*
X134278282Y-120535269D01*
X134278282Y-120535270D01*
X134332452Y-120574626D01*
X134342048Y-120579516D01*
X134392844Y-120627491D01*
X134409638Y-120695312D01*
X134387100Y-120761447D01*
X134342051Y-120800483D01*
X134332440Y-120805380D01*
X134278282Y-120844727D01*
X134278282Y-120844728D01*
X134910591Y-121477037D01*
X134847007Y-121494075D01*
X134732993Y-121559901D01*
X134639901Y-121652993D01*
X134574075Y-121767007D01*
X134557037Y-121830591D01*
X133924728Y-121198282D01*
X133924727Y-121198282D01*
X133885380Y-121252440D01*
X133880483Y-121262051D01*
X133832506Y-121312845D01*
X133764684Y-121329638D01*
X133698550Y-121307098D01*
X133659516Y-121262048D01*
X133654626Y-121252452D01*
X133615270Y-121198282D01*
X133615269Y-121198282D01*
X132982962Y-121830590D01*
X132965925Y-121767007D01*
X132900099Y-121652993D01*
X132807007Y-121559901D01*
X132692993Y-121494075D01*
X132629409Y-121477037D01*
X133261716Y-120844728D01*
X133207550Y-120805375D01*
X133197954Y-120800486D01*
X133147157Y-120752512D01*
X133130361Y-120684692D01*
X133151288Y-120620895D01*
X133230027Y-120503581D01*
X132629408Y-119902962D01*
X132692993Y-119885925D01*
X132807007Y-119820099D01*
X132900099Y-119727007D01*
X132965925Y-119612993D01*
X132982962Y-119549408D01*
X133615270Y-120181717D01*
X133615270Y-120181716D01*
X133654622Y-120127554D01*
X133659514Y-120117954D01*
X133707488Y-120067157D01*
X133775308Y-120050361D01*
X133841444Y-120072897D01*
X133880486Y-120117954D01*
X133885375Y-120127550D01*
X133924728Y-120181716D01*
X134557037Y-119549408D01*
X134574075Y-119612993D01*
G37*
%TD.AperFunction*%
%TA.AperFunction,Conductor*%
G36*
X134574075Y-117072993D02*
G01*
X134639901Y-117187007D01*
X134732993Y-117280099D01*
X134847007Y-117345925D01*
X134910590Y-117362962D01*
X134278282Y-117995269D01*
X134278282Y-117995270D01*
X134332452Y-118034626D01*
X134342048Y-118039516D01*
X134392844Y-118087491D01*
X134409638Y-118155312D01*
X134387100Y-118221447D01*
X134342051Y-118260483D01*
X134332440Y-118265380D01*
X134278282Y-118304727D01*
X134278282Y-118304728D01*
X134910591Y-118937037D01*
X134847007Y-118954075D01*
X134732993Y-119019901D01*
X134639901Y-119112993D01*
X134574075Y-119227007D01*
X134557037Y-119290591D01*
X133924728Y-118658282D01*
X133924727Y-118658282D01*
X133885380Y-118712440D01*
X133880483Y-118722051D01*
X133832506Y-118772845D01*
X133764684Y-118789638D01*
X133698550Y-118767098D01*
X133659516Y-118722048D01*
X133654626Y-118712452D01*
X133615270Y-118658282D01*
X133615269Y-118658282D01*
X132982962Y-119290590D01*
X132965925Y-119227007D01*
X132900099Y-119112993D01*
X132807007Y-119019901D01*
X132692993Y-118954075D01*
X132629409Y-118937037D01*
X133261716Y-118304728D01*
X133207550Y-118265375D01*
X133197954Y-118260486D01*
X133147157Y-118212512D01*
X133130361Y-118144692D01*
X133151288Y-118080895D01*
X133230027Y-117963581D01*
X132629408Y-117362962D01*
X132692993Y-117345925D01*
X132807007Y-117280099D01*
X132900099Y-117187007D01*
X132965925Y-117072993D01*
X132982962Y-117009408D01*
X133615270Y-117641717D01*
X133615270Y-117641716D01*
X133654622Y-117587554D01*
X133659514Y-117577954D01*
X133707488Y-117527157D01*
X133775308Y-117510361D01*
X133841444Y-117532897D01*
X133880486Y-117577954D01*
X133885375Y-117587550D01*
X133924728Y-117641716D01*
X134557037Y-117009408D01*
X134574075Y-117072993D01*
G37*
%TD.AperFunction*%
%TA.AperFunction,Conductor*%
G36*
X133841444Y-114993999D02*
G01*
X133880486Y-115039056D01*
X133884951Y-115047820D01*
X134009890Y-115219786D01*
X134160213Y-115370109D01*
X134332179Y-115495048D01*
X134332181Y-115495049D01*
X134332184Y-115495051D01*
X134341493Y-115499794D01*
X134392290Y-115547766D01*
X134409087Y-115615587D01*
X134386552Y-115681722D01*
X134341505Y-115720760D01*
X134332446Y-115725376D01*
X134332440Y-115725380D01*
X134278282Y-115764727D01*
X134278282Y-115764728D01*
X134910591Y-116397037D01*
X134847007Y-116414075D01*
X134732993Y-116479901D01*
X134639901Y-116572993D01*
X134574075Y-116687007D01*
X134557037Y-116750591D01*
X133924728Y-116118282D01*
X133924727Y-116118282D01*
X133885380Y-116172440D01*
X133880483Y-116182051D01*
X133832506Y-116232845D01*
X133764684Y-116249638D01*
X133698550Y-116227098D01*
X133659516Y-116182048D01*
X133654626Y-116172452D01*
X133615270Y-116118282D01*
X133615269Y-116118282D01*
X132982962Y-116750590D01*
X132965925Y-116687007D01*
X132900099Y-116572993D01*
X132807007Y-116479901D01*
X132692993Y-116414075D01*
X132629409Y-116397037D01*
X133261716Y-115764728D01*
X133207547Y-115725373D01*
X133207547Y-115725372D01*
X133198500Y-115720763D01*
X133147706Y-115672788D01*
X133130912Y-115604966D01*
X133153451Y-115538832D01*
X133198508Y-115499793D01*
X133207816Y-115495051D01*
X133287007Y-115437515D01*
X133379786Y-115370109D01*
X133379788Y-115370106D01*
X133379792Y-115370104D01*
X133530104Y-115219792D01*
X133530106Y-115219788D01*
X133530109Y-115219786D01*
X133655048Y-115047820D01*
X133655047Y-115047820D01*
X133655051Y-115047816D01*
X133659514Y-115039054D01*
X133707488Y-114988259D01*
X133775308Y-114971463D01*
X133841444Y-114993999D01*
G37*
%TD.AperFunction*%
%TA.AperFunction,Conductor*%
G36*
X143242539Y-33520185D02*
G01*
X143288294Y-33572989D01*
X143299500Y-33624500D01*
X143299500Y-88363568D01*
X143279815Y-88430607D01*
X143227011Y-88476362D01*
X143157853Y-88486306D01*
X143101190Y-88462835D01*
X143092334Y-88456206D01*
X143092328Y-88456202D01*
X142957482Y-88405908D01*
X142957483Y-88405908D01*
X142897883Y-88399501D01*
X142897881Y-88399500D01*
X142897873Y-88399500D01*
X142897864Y-88399500D01*
X141102129Y-88399500D01*
X141102123Y-88399501D01*
X141042516Y-88405908D01*
X140907671Y-88456202D01*
X140907664Y-88456206D01*
X140792455Y-88542452D01*
X140792452Y-88542455D01*
X140706206Y-88657664D01*
X140706202Y-88657671D01*
X140655908Y-88792517D01*
X140649501Y-88852116D01*
X140649500Y-88852135D01*
X140649500Y-89075500D01*
X140629815Y-89142539D01*
X140577011Y-89188294D01*
X140525500Y-89199500D01*
X134600097Y-89199500D01*
X134533058Y-89179815D01*
X134512416Y-89163181D01*
X134334574Y-88985339D01*
X134301089Y-88924016D01*
X134300638Y-88921849D01*
X134282595Y-88831147D01*
X134269737Y-88766503D01*
X134256062Y-88733489D01*
X134209397Y-88620827D01*
X134209390Y-88620814D01*
X134121789Y-88489711D01*
X134121786Y-88489707D01*
X134010292Y-88378213D01*
X134010288Y-88378210D01*
X133879185Y-88290609D01*
X133879172Y-88290602D01*
X133733501Y-88230264D01*
X133733489Y-88230261D01*
X133578845Y-88199500D01*
X133578842Y-88199500D01*
X133421158Y-88199500D01*
X133421155Y-88199500D01*
X133266510Y-88230261D01*
X133266498Y-88230264D01*
X133120827Y-88290602D01*
X133120814Y-88290609D01*
X132989711Y-88378210D01*
X132989707Y-88378213D01*
X132878213Y-88489707D01*
X132878210Y-88489711D01*
X132790609Y-88620814D01*
X132790602Y-88620827D01*
X132730264Y-88766498D01*
X132730261Y-88766510D01*
X132699500Y-88921153D01*
X132699500Y-89078846D01*
X132730261Y-89233489D01*
X132730264Y-89233501D01*
X132790602Y-89379172D01*
X132790609Y-89379185D01*
X132878210Y-89510288D01*
X132878213Y-89510292D01*
X132989707Y-89621786D01*
X132989711Y-89621789D01*
X133120814Y-89709390D01*
X133120827Y-89709397D01*
X133266498Y-89769735D01*
X133266503Y-89769737D01*
X133331147Y-89782595D01*
X133421849Y-89800638D01*
X133483760Y-89833023D01*
X133485339Y-89834574D01*
X133815139Y-90164374D01*
X133815149Y-90164385D01*
X133819479Y-90168715D01*
X133819480Y-90168716D01*
X133931284Y-90280520D01*
X134018095Y-90330639D01*
X134018097Y-90330641D01*
X134056151Y-90352611D01*
X134068215Y-90359577D01*
X134220943Y-90400501D01*
X134220946Y-90400501D01*
X134386653Y-90400501D01*
X134386669Y-90400500D01*
X139296561Y-90400500D01*
X139329061Y-90410043D01*
X139361728Y-90419005D01*
X139362497Y-90419861D01*
X139363600Y-90420185D01*
X139385768Y-90445769D01*
X139408418Y-90470984D01*
X139408602Y-90472120D01*
X139409355Y-90472989D01*
X139414176Y-90506520D01*
X139419594Y-90539954D01*
X139419135Y-90541007D01*
X139419299Y-90542147D01*
X139405218Y-90572978D01*
X139391708Y-90604017D01*
X139390582Y-90605028D01*
X139390274Y-90605703D01*
X139365452Y-90627602D01*
X139289125Y-90678602D01*
X139222447Y-90699480D01*
X139220234Y-90699500D01*
X135079057Y-90699500D01*
X134920942Y-90699500D01*
X134768215Y-90740423D01*
X134768214Y-90740423D01*
X134768212Y-90740424D01*
X134768209Y-90740425D01*
X134718096Y-90769359D01*
X134718095Y-90769360D01*
X134682846Y-90789711D01*
X134631285Y-90819479D01*
X134631282Y-90819481D01*
X133785339Y-91665425D01*
X133724016Y-91698910D01*
X133721850Y-91699361D01*
X133566508Y-91730261D01*
X133566498Y-91730264D01*
X133420827Y-91790602D01*
X133420814Y-91790609D01*
X133289711Y-91878210D01*
X133289707Y-91878213D01*
X133178213Y-91989707D01*
X133178210Y-91989711D01*
X133090609Y-92120814D01*
X133090602Y-92120827D01*
X133030264Y-92266498D01*
X133030261Y-92266510D01*
X132999500Y-92421153D01*
X132999500Y-92578846D01*
X133030261Y-92733489D01*
X133030264Y-92733501D01*
X133090602Y-92879172D01*
X133090609Y-92879185D01*
X133178210Y-93010288D01*
X133178213Y-93010292D01*
X133289707Y-93121786D01*
X133289711Y-93121789D01*
X133365452Y-93172398D01*
X133410257Y-93226010D01*
X133418964Y-93295335D01*
X133388810Y-93358363D01*
X133329366Y-93395082D01*
X133296561Y-93399500D01*
X128017848Y-93399500D01*
X127950809Y-93379815D01*
X127905054Y-93327011D01*
X127896231Y-93299692D01*
X127869738Y-93166508D01*
X127869737Y-93166507D01*
X127869737Y-93166503D01*
X127829655Y-93069735D01*
X127809397Y-93020827D01*
X127809390Y-93020814D01*
X127721398Y-92889125D01*
X127700520Y-92822447D01*
X127700500Y-92820234D01*
X127700500Y-86179765D01*
X127720185Y-86112726D01*
X127721398Y-86110874D01*
X127809390Y-85979185D01*
X127809390Y-85979184D01*
X127809394Y-85979179D01*
X127869737Y-85833497D01*
X127872192Y-85821153D01*
X128399500Y-85821153D01*
X128399500Y-85978846D01*
X128430261Y-86133489D01*
X128430264Y-86133501D01*
X128490602Y-86279172D01*
X128490609Y-86279185D01*
X128578602Y-86410874D01*
X128599480Y-86477551D01*
X128599500Y-86479765D01*
X128599500Y-87920234D01*
X128579815Y-87987273D01*
X128578602Y-87989125D01*
X128490609Y-88120814D01*
X128490602Y-88120827D01*
X128430264Y-88266498D01*
X128430261Y-88266510D01*
X128399500Y-88421153D01*
X128399500Y-88578846D01*
X128430261Y-88733489D01*
X128430264Y-88733501D01*
X128490602Y-88879172D01*
X128490609Y-88879185D01*
X128578210Y-89010288D01*
X128578213Y-89010292D01*
X128689707Y-89121786D01*
X128689711Y-89121789D01*
X128820814Y-89209390D01*
X128820827Y-89209397D01*
X128966498Y-89269735D01*
X128966503Y-89269737D01*
X129121153Y-89300499D01*
X129121156Y-89300500D01*
X129121158Y-89300500D01*
X129278844Y-89300500D01*
X129278845Y-89300499D01*
X129433497Y-89269737D01*
X129579179Y-89209394D01*
X129710289Y-89121789D01*
X129821789Y-89010289D01*
X129909394Y-88879179D01*
X129969737Y-88733497D01*
X130000500Y-88578842D01*
X130000500Y-88421158D01*
X130000500Y-88421155D01*
X130000499Y-88421153D01*
X129991957Y-88378210D01*
X129969737Y-88266503D01*
X129969735Y-88266498D01*
X129909397Y-88120827D01*
X129909390Y-88120814D01*
X129821398Y-87989125D01*
X129800520Y-87922447D01*
X129800500Y-87920234D01*
X129800500Y-86479765D01*
X129820185Y-86412726D01*
X129821398Y-86410874D01*
X129909390Y-86279185D01*
X129909390Y-86279184D01*
X129909394Y-86279179D01*
X129969737Y-86133497D01*
X130000433Y-85979179D01*
X130000638Y-85978150D01*
X130033023Y-85916239D01*
X130034515Y-85914719D01*
X130680520Y-85268716D01*
X130759577Y-85131784D01*
X130800501Y-84979057D01*
X130800501Y-84820942D01*
X130800501Y-84813347D01*
X130800500Y-84813329D01*
X130800500Y-82579765D01*
X130820185Y-82512726D01*
X130821398Y-82510874D01*
X130909390Y-82379185D01*
X130909390Y-82379184D01*
X130909394Y-82379179D01*
X130969737Y-82233497D01*
X131000500Y-82078842D01*
X131000500Y-82021153D01*
X132099500Y-82021153D01*
X132099500Y-82178846D01*
X132130261Y-82333489D01*
X132130264Y-82333501D01*
X132190602Y-82479172D01*
X132190609Y-82479185D01*
X132278602Y-82610874D01*
X132284252Y-82628920D01*
X132294477Y-82644830D01*
X132298928Y-82675789D01*
X132299480Y-82677551D01*
X132299500Y-82679765D01*
X132299500Y-82720234D01*
X132279815Y-82787273D01*
X132278602Y-82789125D01*
X132190609Y-82920814D01*
X132190602Y-82920827D01*
X132130264Y-83066498D01*
X132130261Y-83066510D01*
X132099500Y-83221153D01*
X132099500Y-83378846D01*
X132130261Y-83533489D01*
X132130264Y-83533501D01*
X132190602Y-83679172D01*
X132190609Y-83679185D01*
X132278210Y-83810288D01*
X132278213Y-83810292D01*
X132389707Y-83921786D01*
X132389711Y-83921789D01*
X132520814Y-84009390D01*
X132520827Y-84009397D01*
X132663507Y-84068496D01*
X132666503Y-84069737D01*
X132782659Y-84092842D01*
X132821153Y-84100499D01*
X132821156Y-84100500D01*
X132821158Y-84100500D01*
X132978844Y-84100500D01*
X132978845Y-84100499D01*
X133133497Y-84069737D01*
X133133509Y-84069731D01*
X133139324Y-84067969D01*
X133140158Y-84070720D01*
X133160601Y-84068496D01*
X133193147Y-84063817D01*
X133195159Y-84064736D01*
X133197359Y-84064497D01*
X133226779Y-84079176D01*
X133256703Y-84092842D01*
X133257899Y-84094703D01*
X133259878Y-84095691D01*
X133276687Y-84123938D01*
X133294477Y-84151620D01*
X133294896Y-84154538D01*
X133295608Y-84155734D01*
X133299500Y-84186555D01*
X133299500Y-84399903D01*
X133279815Y-84466942D01*
X133263185Y-84487579D01*
X133185339Y-84565426D01*
X133124015Y-84598910D01*
X133121850Y-84599361D01*
X132966508Y-84630261D01*
X132966498Y-84630264D01*
X132820827Y-84690602D01*
X132820814Y-84690609D01*
X132689711Y-84778210D01*
X132689707Y-84778213D01*
X132578213Y-84889707D01*
X132578210Y-84889711D01*
X132490609Y-85020814D01*
X132490602Y-85020827D01*
X132430264Y-85166498D01*
X132430261Y-85166510D01*
X132399500Y-85321153D01*
X132399500Y-85478846D01*
X132430261Y-85633489D01*
X132430264Y-85633501D01*
X132490602Y-85779172D01*
X132490609Y-85779185D01*
X132578210Y-85910288D01*
X132578213Y-85910292D01*
X132689707Y-86021786D01*
X132689711Y-86021789D01*
X132820814Y-86109390D01*
X132820827Y-86109397D01*
X132966498Y-86169735D01*
X132966503Y-86169737D01*
X133016917Y-86179765D01*
X133121849Y-86200638D01*
X133183760Y-86233023D01*
X133185339Y-86234574D01*
X133515139Y-86564374D01*
X133515149Y-86564385D01*
X133519479Y-86568715D01*
X133519480Y-86568716D01*
X133631284Y-86680520D01*
X133682845Y-86710288D01*
X133718095Y-86730639D01*
X133718097Y-86730641D01*
X133756151Y-86752611D01*
X133768215Y-86759577D01*
X133920943Y-86800501D01*
X133920946Y-86800501D01*
X134086653Y-86800501D01*
X134086669Y-86800500D01*
X137920234Y-86800500D01*
X137987273Y-86820185D01*
X137989125Y-86821398D01*
X138120814Y-86909390D01*
X138120827Y-86909397D01*
X138266498Y-86969735D01*
X138266503Y-86969737D01*
X138421153Y-87000499D01*
X138421156Y-87000500D01*
X138421158Y-87000500D01*
X138578844Y-87000500D01*
X138578845Y-87000499D01*
X138733497Y-86969737D01*
X138879179Y-86909394D01*
X139010289Y-86821789D01*
X139121789Y-86710289D01*
X139209394Y-86579179D01*
X139269737Y-86433497D01*
X139292944Y-86316826D01*
X139325328Y-86254916D01*
X139386044Y-86220342D01*
X139455813Y-86224081D01*
X139462013Y-86226457D01*
X139566498Y-86269735D01*
X139566503Y-86269737D01*
X139721153Y-86300499D01*
X139721156Y-86300500D01*
X139721158Y-86300500D01*
X139878844Y-86300500D01*
X139878845Y-86300499D01*
X140033497Y-86269737D01*
X140179179Y-86209394D01*
X140310289Y-86121789D01*
X140421789Y-86010289D01*
X140509394Y-85879179D01*
X140569737Y-85733497D01*
X140600500Y-85578842D01*
X140600500Y-85421158D01*
X140600500Y-85421155D01*
X140600499Y-85421153D01*
X140587671Y-85356665D01*
X140569737Y-85266503D01*
X140538298Y-85190602D01*
X140509397Y-85120827D01*
X140509390Y-85120814D01*
X140421789Y-84989711D01*
X140421786Y-84989707D01*
X140310292Y-84878213D01*
X140310288Y-84878210D01*
X140179185Y-84790609D01*
X140179172Y-84790602D01*
X140033501Y-84730264D01*
X140033489Y-84730261D01*
X139878845Y-84699500D01*
X139878842Y-84699500D01*
X139721158Y-84699500D01*
X139721155Y-84699500D01*
X139566510Y-84730261D01*
X139566498Y-84730264D01*
X139420827Y-84790602D01*
X139420814Y-84790609D01*
X139289125Y-84878602D01*
X139222447Y-84899480D01*
X139220234Y-84899500D01*
X139120940Y-84899500D01*
X139080019Y-84910464D01*
X139080019Y-84910465D01*
X139042751Y-84920451D01*
X138968214Y-84940423D01*
X138968209Y-84940426D01*
X138831290Y-85019475D01*
X138831282Y-85019481D01*
X138485339Y-85365425D01*
X138424016Y-85398910D01*
X138421850Y-85399361D01*
X138266508Y-85430261D01*
X138266498Y-85430264D01*
X138120827Y-85490602D01*
X138120814Y-85490609D01*
X137989125Y-85578602D01*
X137922447Y-85599480D01*
X137920234Y-85599500D01*
X134300097Y-85599500D01*
X134270656Y-85590855D01*
X134240670Y-85584332D01*
X134235654Y-85580577D01*
X134233058Y-85579815D01*
X134212416Y-85563181D01*
X134136915Y-85487680D01*
X134103430Y-85426357D01*
X134108414Y-85356665D01*
X134136912Y-85312322D01*
X134258506Y-85190727D01*
X134258511Y-85190724D01*
X134268714Y-85180520D01*
X134268716Y-85180520D01*
X134380520Y-85068716D01*
X134459577Y-84931784D01*
X134495023Y-84799499D01*
X134500500Y-84779058D01*
X134500500Y-84620943D01*
X134500500Y-82721153D01*
X135299500Y-82721153D01*
X135299500Y-82878846D01*
X135330261Y-83033489D01*
X135330264Y-83033501D01*
X135390602Y-83179172D01*
X135390609Y-83179185D01*
X135478210Y-83310288D01*
X135478213Y-83310292D01*
X135589707Y-83421786D01*
X135589711Y-83421789D01*
X135720814Y-83509390D01*
X135720827Y-83509397D01*
X135866498Y-83569735D01*
X135866503Y-83569737D01*
X136021153Y-83600499D01*
X136021156Y-83600500D01*
X136021158Y-83600500D01*
X136178844Y-83600500D01*
X136178845Y-83600499D01*
X136333497Y-83569737D01*
X136479179Y-83509394D01*
X136610289Y-83421789D01*
X136716583Y-83315494D01*
X136742260Y-83295792D01*
X136768716Y-83280519D01*
X137614662Y-82434572D01*
X137675983Y-82401089D01*
X137678150Y-82400638D01*
X137736085Y-82389113D01*
X137833497Y-82369737D01*
X137979179Y-82309394D01*
X138110289Y-82221789D01*
X138221789Y-82110289D01*
X138309394Y-81979179D01*
X138369737Y-81833497D01*
X138400500Y-81678842D01*
X138400500Y-81521158D01*
X138400500Y-81521155D01*
X138400499Y-81521153D01*
X138385586Y-81446182D01*
X138369737Y-81366503D01*
X138369735Y-81366498D01*
X138309397Y-81220827D01*
X138309390Y-81220814D01*
X138221789Y-81089711D01*
X138221786Y-81089707D01*
X138110292Y-80978213D01*
X138110288Y-80978210D01*
X137979185Y-80890609D01*
X137979172Y-80890602D01*
X137833501Y-80830264D01*
X137833489Y-80830261D01*
X137678845Y-80799500D01*
X137678842Y-80799500D01*
X137521158Y-80799500D01*
X137521155Y-80799500D01*
X137366510Y-80830261D01*
X137366498Y-80830264D01*
X137220827Y-80890602D01*
X137220814Y-80890609D01*
X137089711Y-80978210D01*
X137089707Y-80978213D01*
X136978213Y-81089707D01*
X136978210Y-81089711D01*
X136890609Y-81220814D01*
X136890602Y-81220827D01*
X136830264Y-81366498D01*
X136830261Y-81366508D01*
X136799361Y-81521850D01*
X136766976Y-81583761D01*
X136765425Y-81585339D01*
X136369524Y-81981239D01*
X136308201Y-82014724D01*
X136257653Y-82015176D01*
X136255380Y-82014724D01*
X136240682Y-82011800D01*
X136178842Y-81999500D01*
X136021158Y-81999500D01*
X136021155Y-81999500D01*
X135866510Y-82030261D01*
X135866498Y-82030264D01*
X135720827Y-82090602D01*
X135720814Y-82090609D01*
X135589711Y-82178210D01*
X135589707Y-82178213D01*
X135478213Y-82289707D01*
X135478210Y-82289711D01*
X135390609Y-82420814D01*
X135390602Y-82420827D01*
X135330264Y-82566498D01*
X135330261Y-82566510D01*
X135299500Y-82721153D01*
X134500500Y-82721153D01*
X134500500Y-82679765D01*
X134520185Y-82612726D01*
X134521398Y-82610874D01*
X134542185Y-82579765D01*
X134609394Y-82479179D01*
X134669737Y-82333497D01*
X134700500Y-82178842D01*
X134700500Y-82021158D01*
X134700500Y-82021155D01*
X134700499Y-82021153D01*
X134696192Y-81999500D01*
X134669737Y-81866503D01*
X134628314Y-81766498D01*
X134609397Y-81720827D01*
X134609390Y-81720814D01*
X134521789Y-81589711D01*
X134521786Y-81589707D01*
X134410292Y-81478213D01*
X134410288Y-81478210D01*
X134279185Y-81390609D01*
X134279172Y-81390602D01*
X134133501Y-81330264D01*
X134133489Y-81330261D01*
X133978845Y-81299500D01*
X133978842Y-81299500D01*
X133821158Y-81299500D01*
X133821155Y-81299500D01*
X133666510Y-81330261D01*
X133666498Y-81330264D01*
X133520827Y-81390602D01*
X133520814Y-81390609D01*
X133468891Y-81425304D01*
X133402214Y-81446182D01*
X133334833Y-81427698D01*
X133331109Y-81425304D01*
X133279185Y-81390609D01*
X133279172Y-81390602D01*
X133133501Y-81330264D01*
X133133489Y-81330261D01*
X132978845Y-81299500D01*
X132978842Y-81299500D01*
X132821158Y-81299500D01*
X132821155Y-81299500D01*
X132666510Y-81330261D01*
X132666498Y-81330264D01*
X132520827Y-81390602D01*
X132520814Y-81390609D01*
X132389711Y-81478210D01*
X132389707Y-81478213D01*
X132278213Y-81589707D01*
X132278210Y-81589711D01*
X132190609Y-81720814D01*
X132190602Y-81720827D01*
X132130264Y-81866498D01*
X132130261Y-81866510D01*
X132099500Y-82021153D01*
X131000500Y-82021153D01*
X131000500Y-81921158D01*
X131000500Y-81921155D01*
X131000499Y-81921153D01*
X130969738Y-81766510D01*
X130969737Y-81766503D01*
X130933427Y-81678842D01*
X130909397Y-81620827D01*
X130909390Y-81620814D01*
X130821789Y-81489711D01*
X130821786Y-81489707D01*
X130710292Y-81378213D01*
X130710288Y-81378210D01*
X130579185Y-81290609D01*
X130579172Y-81290602D01*
X130433501Y-81230264D01*
X130433489Y-81230261D01*
X130278845Y-81199500D01*
X130278842Y-81199500D01*
X130121158Y-81199500D01*
X130121155Y-81199500D01*
X129966510Y-81230261D01*
X129966498Y-81230264D01*
X129820827Y-81290602D01*
X129820814Y-81290609D01*
X129689711Y-81378210D01*
X129689707Y-81378213D01*
X129578213Y-81489707D01*
X129578210Y-81489711D01*
X129490609Y-81620814D01*
X129490602Y-81620827D01*
X129430264Y-81766498D01*
X129430261Y-81766510D01*
X129399500Y-81921153D01*
X129399500Y-82078846D01*
X129430261Y-82233489D01*
X129430264Y-82233501D01*
X129490602Y-82379172D01*
X129490609Y-82379185D01*
X129578602Y-82510874D01*
X129599480Y-82577551D01*
X129599500Y-82579765D01*
X129599500Y-84599902D01*
X129579815Y-84666941D01*
X129563181Y-84687583D01*
X129185339Y-85065425D01*
X129124016Y-85098910D01*
X129121850Y-85099361D01*
X128966508Y-85130261D01*
X128966498Y-85130264D01*
X128820827Y-85190602D01*
X128820814Y-85190609D01*
X128689711Y-85278210D01*
X128689707Y-85278213D01*
X128578213Y-85389707D01*
X128578210Y-85389711D01*
X128490609Y-85520814D01*
X128490602Y-85520827D01*
X128430264Y-85666498D01*
X128430261Y-85666510D01*
X128399500Y-85821153D01*
X127872192Y-85821153D01*
X127878216Y-85790874D01*
X127878216Y-85790873D01*
X127900499Y-85678846D01*
X127900500Y-85678844D01*
X127900500Y-85521155D01*
X127900499Y-85521153D01*
X127893841Y-85487680D01*
X127869737Y-85366503D01*
X127869735Y-85366498D01*
X127809397Y-85220827D01*
X127809390Y-85220814D01*
X127721789Y-85089711D01*
X127721786Y-85089707D01*
X127610292Y-84978213D01*
X127610288Y-84978210D01*
X127479185Y-84890609D01*
X127479172Y-84890602D01*
X127333501Y-84830264D01*
X127333489Y-84830261D01*
X127178845Y-84799500D01*
X127178842Y-84799500D01*
X127021158Y-84799500D01*
X127021155Y-84799500D01*
X126866510Y-84830261D01*
X126866498Y-84830264D01*
X126720827Y-84890602D01*
X126720814Y-84890609D01*
X126589711Y-84978210D01*
X126589707Y-84978213D01*
X126478213Y-85089707D01*
X126478210Y-85089711D01*
X126390609Y-85220814D01*
X126390602Y-85220827D01*
X126330264Y-85366498D01*
X126330261Y-85366510D01*
X126299500Y-85521153D01*
X126299500Y-85678846D01*
X126330261Y-85833489D01*
X126330264Y-85833501D01*
X126390602Y-85979172D01*
X126390609Y-85979185D01*
X126478602Y-86110874D01*
X126499480Y-86177551D01*
X126499500Y-86179765D01*
X126499500Y-92820234D01*
X126479815Y-92887273D01*
X126478602Y-92889125D01*
X126390609Y-93020814D01*
X126390602Y-93020827D01*
X126330264Y-93166498D01*
X126330261Y-93166510D01*
X126299500Y-93321153D01*
X126299500Y-93478846D01*
X126330261Y-93633489D01*
X126330264Y-93633501D01*
X126390602Y-93779172D01*
X126390609Y-93779185D01*
X126478210Y-93910288D01*
X126478213Y-93910292D01*
X126589707Y-94021786D01*
X126589711Y-94021789D01*
X126720814Y-94109390D01*
X126720827Y-94109397D01*
X126866498Y-94169735D01*
X126866503Y-94169737D01*
X126931147Y-94182595D01*
X127021849Y-94200638D01*
X127038605Y-94209402D01*
X127057085Y-94213423D01*
X127082123Y-94232167D01*
X127083760Y-94233023D01*
X127085339Y-94234574D01*
X127215139Y-94364374D01*
X127215149Y-94364385D01*
X127219479Y-94368715D01*
X127219480Y-94368716D01*
X127331284Y-94480520D01*
X127331286Y-94480521D01*
X127331290Y-94480524D01*
X127401667Y-94521156D01*
X127401671Y-94521157D01*
X127401672Y-94521158D01*
X127434943Y-94540367D01*
X127468212Y-94559576D01*
X127468214Y-94559576D01*
X127468215Y-94559577D01*
X127620943Y-94600500D01*
X127779057Y-94600500D01*
X132097810Y-94600500D01*
X132164849Y-94620185D01*
X132210604Y-94672989D01*
X132220548Y-94742147D01*
X132191523Y-94805703D01*
X132145262Y-94839061D01*
X132020827Y-94890602D01*
X132020814Y-94890609D01*
X131889711Y-94978210D01*
X131889707Y-94978213D01*
X131778213Y-95089707D01*
X131778210Y-95089711D01*
X131690609Y-95220814D01*
X131690602Y-95220827D01*
X131630264Y-95366498D01*
X131630261Y-95366510D01*
X131599500Y-95521153D01*
X131599500Y-95678846D01*
X131630261Y-95833489D01*
X131630264Y-95833501D01*
X131690602Y-95979172D01*
X131690609Y-95979185D01*
X131778210Y-96110288D01*
X131778213Y-96110292D01*
X131889707Y-96221786D01*
X131889711Y-96221789D01*
X132020814Y-96309390D01*
X132020827Y-96309397D01*
X132166498Y-96369735D01*
X132166503Y-96369737D01*
X132321153Y-96400499D01*
X132321156Y-96400500D01*
X132321158Y-96400500D01*
X132478844Y-96400500D01*
X132478845Y-96400499D01*
X132633497Y-96369737D01*
X132779179Y-96309394D01*
X132910289Y-96221789D01*
X133021789Y-96110289D01*
X133109394Y-95979179D01*
X133169737Y-95833497D01*
X133198339Y-95689707D01*
X133200638Y-95678150D01*
X133233023Y-95616239D01*
X133234514Y-95614720D01*
X133612417Y-95236819D01*
X133673740Y-95203334D01*
X133700098Y-95200500D01*
X136920234Y-95200500D01*
X136987273Y-95220185D01*
X136989125Y-95221398D01*
X137120814Y-95309390D01*
X137120827Y-95309397D01*
X137258683Y-95366498D01*
X137266503Y-95369737D01*
X137416131Y-95399500D01*
X137421153Y-95400499D01*
X137421156Y-95400500D01*
X137421158Y-95400500D01*
X137578844Y-95400500D01*
X137578845Y-95400499D01*
X137733497Y-95369737D01*
X137879179Y-95309394D01*
X138010289Y-95221789D01*
X138121789Y-95110289D01*
X138209394Y-94979179D01*
X138269737Y-94833497D01*
X138275266Y-94805703D01*
X138296231Y-94700308D01*
X138328616Y-94638397D01*
X138389332Y-94603823D01*
X138417848Y-94600500D01*
X139099903Y-94600500D01*
X139166942Y-94620185D01*
X139187584Y-94636819D01*
X140924918Y-96374153D01*
X140958403Y-96435476D01*
X140953419Y-96505168D01*
X140937556Y-96534718D01*
X140844950Y-96662181D01*
X140748444Y-96851585D01*
X140682753Y-97053760D01*
X140649500Y-97263713D01*
X140649500Y-97476286D01*
X140682753Y-97686239D01*
X140748444Y-97888414D01*
X140844951Y-98077820D01*
X140969890Y-98249786D01*
X141120213Y-98400109D01*
X141292182Y-98525050D01*
X141300946Y-98529516D01*
X141351742Y-98577491D01*
X141368536Y-98645312D01*
X141345998Y-98711447D01*
X141300946Y-98750484D01*
X141292182Y-98754949D01*
X141120213Y-98879890D01*
X140969890Y-99030213D01*
X140844949Y-99202182D01*
X140755844Y-99377059D01*
X140707870Y-99427854D01*
X140640049Y-99444649D01*
X140573914Y-99422111D01*
X140557679Y-99408444D01*
X139736819Y-98587584D01*
X139703334Y-98526261D01*
X139700500Y-98499903D01*
X139700500Y-96779765D01*
X139720185Y-96712726D01*
X139721398Y-96710874D01*
X139809390Y-96579185D01*
X139809390Y-96579184D01*
X139809394Y-96579179D01*
X139869737Y-96433497D01*
X139900500Y-96278842D01*
X139900500Y-96121158D01*
X139900500Y-96121155D01*
X139900499Y-96121153D01*
X139896291Y-96100000D01*
X139869737Y-95966503D01*
X139869735Y-95966498D01*
X139809397Y-95820827D01*
X139809390Y-95820814D01*
X139721789Y-95689711D01*
X139721786Y-95689707D01*
X139610292Y-95578213D01*
X139610288Y-95578210D01*
X139479185Y-95490609D01*
X139479172Y-95490602D01*
X139333501Y-95430264D01*
X139333489Y-95430261D01*
X139178845Y-95399500D01*
X139178842Y-95399500D01*
X139021158Y-95399500D01*
X139021155Y-95399500D01*
X138866510Y-95430261D01*
X138866498Y-95430264D01*
X138720827Y-95490602D01*
X138720814Y-95490609D01*
X138589711Y-95578210D01*
X138589707Y-95578213D01*
X138478213Y-95689707D01*
X138478210Y-95689711D01*
X138390609Y-95820814D01*
X138390602Y-95820827D01*
X138330264Y-95966498D01*
X138330261Y-95966510D01*
X138299500Y-96121153D01*
X138299500Y-96278846D01*
X138330261Y-96433489D01*
X138330264Y-96433501D01*
X138390602Y-96579172D01*
X138390609Y-96579185D01*
X138478602Y-96710874D01*
X138499480Y-96777551D01*
X138499500Y-96779765D01*
X138499500Y-98713330D01*
X138499499Y-98713348D01*
X138499499Y-98879054D01*
X138499498Y-98879054D01*
X138540423Y-99031785D01*
X138569358Y-99081900D01*
X138569359Y-99081904D01*
X138569360Y-99081904D01*
X138619479Y-99168714D01*
X138619481Y-99168717D01*
X138738349Y-99287585D01*
X138738355Y-99287590D01*
X140916502Y-101465737D01*
X140949987Y-101527060D01*
X140945003Y-101596752D01*
X140929140Y-101626302D01*
X140844950Y-101742181D01*
X140748444Y-101931585D01*
X140682753Y-102133760D01*
X140649500Y-102343713D01*
X140649500Y-102556286D01*
X140682753Y-102766239D01*
X140748444Y-102968414D01*
X140844951Y-103157820D01*
X140969890Y-103329786D01*
X141120213Y-103480109D01*
X141292182Y-103605050D01*
X141300946Y-103609516D01*
X141351742Y-103657491D01*
X141368536Y-103725312D01*
X141345998Y-103791447D01*
X141300946Y-103830484D01*
X141292182Y-103834949D01*
X141120213Y-103959890D01*
X140969890Y-104110213D01*
X140844951Y-104282179D01*
X140748444Y-104471585D01*
X140682753Y-104673760D01*
X140649500Y-104883713D01*
X140649500Y-105096286D01*
X140682753Y-105306239D01*
X140748444Y-105508414D01*
X140844951Y-105697820D01*
X140969890Y-105869786D01*
X141120213Y-106020109D01*
X141292179Y-106145048D01*
X141292181Y-106145049D01*
X141292184Y-106145051D01*
X141481588Y-106241557D01*
X141683757Y-106307246D01*
X141893713Y-106340500D01*
X141893714Y-106340500D01*
X142106286Y-106340500D01*
X142106287Y-106340500D01*
X142316243Y-106307246D01*
X142518412Y-106241557D01*
X142707816Y-106145051D01*
X142729789Y-106129086D01*
X142879786Y-106020109D01*
X142879788Y-106020106D01*
X142879792Y-106020104D01*
X143030104Y-105869792D01*
X143075181Y-105807747D01*
X143130511Y-105765082D01*
X143200124Y-105759103D01*
X143261920Y-105791708D01*
X143296277Y-105852547D01*
X143299500Y-105880633D01*
X143299500Y-133475500D01*
X143279815Y-133542539D01*
X143227011Y-133588294D01*
X143175500Y-133599500D01*
X123962000Y-133599500D01*
X123894961Y-133579815D01*
X123849206Y-133527011D01*
X123838000Y-133475500D01*
X123838000Y-125831902D01*
X123801053Y-125598631D01*
X123742795Y-125419334D01*
X123728068Y-125374008D01*
X123728066Y-125374005D01*
X123728066Y-125374003D01*
X123666307Y-125252796D01*
X123620843Y-125163567D01*
X123610987Y-125150001D01*
X123535525Y-125046136D01*
X123512045Y-124980330D01*
X123516067Y-124941161D01*
X123538000Y-124859309D01*
X123538000Y-124740691D01*
X123507299Y-124626114D01*
X123507297Y-124626111D01*
X123505195Y-124618265D01*
X123506762Y-124617844D01*
X123500000Y-124583828D01*
X123500000Y-124166171D01*
X123506768Y-124132157D01*
X123505195Y-124131736D01*
X123507297Y-124123887D01*
X123507299Y-124123886D01*
X123538000Y-124009309D01*
X123538000Y-123890691D01*
X123507299Y-123776114D01*
X123506709Y-123775093D01*
X123504316Y-123766260D01*
X123504519Y-123756560D01*
X123500000Y-123733828D01*
X123500000Y-123316171D01*
X123506768Y-123282157D01*
X123505195Y-123281736D01*
X123507297Y-123273887D01*
X123507299Y-123273886D01*
X123538000Y-123159309D01*
X123538000Y-123040691D01*
X123516067Y-122958836D01*
X123517730Y-122888992D01*
X123535519Y-122853869D01*
X123620843Y-122736433D01*
X123728068Y-122525992D01*
X123801053Y-122301368D01*
X123817148Y-122199750D01*
X123838000Y-122068097D01*
X123838000Y-121950300D01*
X123838205Y-121848631D01*
X123838205Y-121848630D01*
X123840943Y-120487762D01*
X123843091Y-119419999D01*
X123853526Y-114233713D01*
X131149500Y-114233713D01*
X131149500Y-114446286D01*
X131182753Y-114656239D01*
X131248444Y-114858414D01*
X131344951Y-115047820D01*
X131469890Y-115219786D01*
X131620213Y-115370109D01*
X131792179Y-115495048D01*
X131792181Y-115495049D01*
X131792184Y-115495051D01*
X131801493Y-115499794D01*
X131852290Y-115547766D01*
X131869087Y-115615587D01*
X131846552Y-115681722D01*
X131801505Y-115720760D01*
X131792446Y-115725376D01*
X131792440Y-115725380D01*
X131738282Y-115764727D01*
X131738282Y-115764728D01*
X132370591Y-116397037D01*
X132307007Y-116414075D01*
X132192993Y-116479901D01*
X132099901Y-116572993D01*
X132034075Y-116687007D01*
X132017037Y-116750591D01*
X131384728Y-116118282D01*
X131384727Y-116118282D01*
X131345380Y-116172439D01*
X131248904Y-116361782D01*
X131183242Y-116563869D01*
X131183242Y-116563872D01*
X131150000Y-116773753D01*
X131150000Y-116986246D01*
X131183242Y-117196127D01*
X131183242Y-117196130D01*
X131248904Y-117398217D01*
X131345375Y-117587550D01*
X131384728Y-117641716D01*
X132017037Y-117009408D01*
X132034075Y-117072993D01*
X132099901Y-117187007D01*
X132192993Y-117280099D01*
X132307007Y-117345925D01*
X132370591Y-117362962D01*
X131769971Y-117963581D01*
X131848711Y-118080895D01*
X131849920Y-118084729D01*
X131852844Y-118087491D01*
X131860343Y-118117778D01*
X131869727Y-118147529D01*
X131868671Y-118151408D01*
X131869638Y-118155312D01*
X131859573Y-118184844D01*
X131851383Y-118214947D01*
X131848397Y-118217640D01*
X131847100Y-118221447D01*
X131802051Y-118260483D01*
X131792440Y-118265380D01*
X131738282Y-118304727D01*
X131738282Y-118304728D01*
X132370591Y-118937037D01*
X132307007Y-118954075D01*
X132192993Y-119019901D01*
X132099901Y-119112993D01*
X132034075Y-119227007D01*
X132017037Y-119290591D01*
X131384728Y-118658282D01*
X131384727Y-118658282D01*
X131345380Y-118712439D01*
X131248904Y-118901782D01*
X131183242Y-119103869D01*
X131183242Y-119103872D01*
X131150000Y-119313753D01*
X131150000Y-119526246D01*
X131183242Y-119736127D01*
X131183242Y-119736130D01*
X131248904Y-119938217D01*
X131345375Y-120127550D01*
X131384728Y-120181716D01*
X132017037Y-119549408D01*
X132034075Y-119612993D01*
X132099901Y-119727007D01*
X132192993Y-119820099D01*
X132307007Y-119885925D01*
X132370590Y-119902962D01*
X131738282Y-120535269D01*
X131738282Y-120535270D01*
X131792452Y-120574626D01*
X131802048Y-120579516D01*
X131852844Y-120627491D01*
X131869638Y-120695312D01*
X131847100Y-120761447D01*
X131802051Y-120800483D01*
X131792440Y-120805380D01*
X131738282Y-120844727D01*
X131738282Y-120844728D01*
X132370591Y-121477037D01*
X132307007Y-121494075D01*
X132192993Y-121559901D01*
X132099901Y-121652993D01*
X132034075Y-121767007D01*
X132017037Y-121830591D01*
X131384728Y-121198282D01*
X131384727Y-121198282D01*
X131345380Y-121252439D01*
X131248904Y-121441782D01*
X131183242Y-121643869D01*
X131183242Y-121643872D01*
X131150000Y-121853753D01*
X131150000Y-122066246D01*
X131183242Y-122276127D01*
X131183242Y-122276130D01*
X131248904Y-122478217D01*
X131345375Y-122667550D01*
X131384728Y-122721716D01*
X132017037Y-122089408D01*
X132034075Y-122152993D01*
X132099901Y-122267007D01*
X132192993Y-122360099D01*
X132307007Y-122425925D01*
X132370590Y-122442962D01*
X131734110Y-123079441D01*
X131723020Y-123132235D01*
X131673969Y-123181992D01*
X131652773Y-123191291D01*
X131580669Y-123215185D01*
X131580666Y-123215186D01*
X131580663Y-123215187D01*
X131431342Y-123307289D01*
X131307289Y-123431342D01*
X131215187Y-123580663D01*
X131215185Y-123580668D01*
X131202083Y-123620208D01*
X131160001Y-123747203D01*
X131160001Y-123747204D01*
X131160000Y-123747204D01*
X131149500Y-123849983D01*
X131149500Y-125150001D01*
X131149501Y-125150018D01*
X131160000Y-125252796D01*
X131160001Y-125252799D01*
X131183763Y-125324507D01*
X131215186Y-125419334D01*
X131307288Y-125568656D01*
X131431344Y-125692712D01*
X131580666Y-125784814D01*
X131747203Y-125839999D01*
X131849991Y-125850500D01*
X133150008Y-125850499D01*
X133252797Y-125839999D01*
X133419334Y-125784814D01*
X133568656Y-125692712D01*
X133692712Y-125568656D01*
X133784814Y-125419334D01*
X133788312Y-125408775D01*
X133828082Y-125351332D01*
X133892598Y-125324507D01*
X133961374Y-125336821D01*
X134006334Y-125374891D01*
X134009890Y-125379785D01*
X134009894Y-125379790D01*
X134160213Y-125530109D01*
X134332179Y-125655048D01*
X134332181Y-125655049D01*
X134332184Y-125655051D01*
X134521588Y-125751557D01*
X134723757Y-125817246D01*
X134933713Y-125850500D01*
X134933714Y-125850500D01*
X135146286Y-125850500D01*
X135146287Y-125850500D01*
X135356243Y-125817246D01*
X135558412Y-125751557D01*
X135747816Y-125655051D01*
X135825472Y-125598631D01*
X135919786Y-125530109D01*
X135919788Y-125530106D01*
X135919792Y-125530104D01*
X136070104Y-125379792D01*
X136070106Y-125379788D01*
X136070109Y-125379786D01*
X136195048Y-125207820D01*
X136195047Y-125207820D01*
X136195051Y-125207816D01*
X136291557Y-125018412D01*
X136357246Y-124816243D01*
X136390500Y-124606287D01*
X136390500Y-124393713D01*
X136357246Y-124183757D01*
X136291557Y-123981588D01*
X136195051Y-123792184D01*
X136195049Y-123792181D01*
X136195048Y-123792179D01*
X136070109Y-123620213D01*
X135919786Y-123469890D01*
X135747817Y-123344949D01*
X135738504Y-123340204D01*
X135687707Y-123292230D01*
X135670912Y-123224409D01*
X135693449Y-123158274D01*
X135738507Y-123119232D01*
X135747555Y-123114622D01*
X135801716Y-123075270D01*
X135801717Y-123075270D01*
X135169408Y-122442962D01*
X135232993Y-122425925D01*
X135347007Y-122360099D01*
X135440099Y-122267007D01*
X135505925Y-122152993D01*
X135522962Y-122089408D01*
X136155270Y-122721717D01*
X136155270Y-122721716D01*
X136194622Y-122667554D01*
X136291095Y-122478217D01*
X136356757Y-122276130D01*
X136356757Y-122276127D01*
X136390000Y-122066246D01*
X136390000Y-121853753D01*
X136356757Y-121643872D01*
X136356757Y-121643869D01*
X136291095Y-121441782D01*
X136194624Y-121252449D01*
X136155270Y-121198282D01*
X136155269Y-121198282D01*
X135522962Y-121830590D01*
X135505925Y-121767007D01*
X135440099Y-121652993D01*
X135347007Y-121559901D01*
X135232993Y-121494075D01*
X135169409Y-121477037D01*
X135801716Y-120844728D01*
X135747550Y-120805375D01*
X135737954Y-120800486D01*
X135687157Y-120752512D01*
X135670361Y-120684692D01*
X135692897Y-120618556D01*
X135737954Y-120579514D01*
X135747554Y-120574622D01*
X135801716Y-120535270D01*
X135801717Y-120535270D01*
X135169408Y-119902962D01*
X135232993Y-119885925D01*
X135347007Y-119820099D01*
X135440099Y-119727007D01*
X135505925Y-119612993D01*
X135522962Y-119549408D01*
X136155270Y-120181717D01*
X136155270Y-120181716D01*
X136194622Y-120127554D01*
X136291095Y-119938217D01*
X136356757Y-119736130D01*
X136356757Y-119736127D01*
X136390000Y-119526246D01*
X136390000Y-119313753D01*
X136356757Y-119103872D01*
X136356757Y-119103869D01*
X136291095Y-118901782D01*
X136194624Y-118712449D01*
X136155270Y-118658282D01*
X136155269Y-118658282D01*
X135522962Y-119290590D01*
X135505925Y-119227007D01*
X135440099Y-119112993D01*
X135347007Y-119019901D01*
X135232993Y-118954075D01*
X135169409Y-118937037D01*
X135801716Y-118304728D01*
X135747550Y-118265375D01*
X135737954Y-118260486D01*
X135687157Y-118212512D01*
X135670361Y-118144692D01*
X135692897Y-118078556D01*
X135737954Y-118039514D01*
X135747554Y-118034622D01*
X135801716Y-117995270D01*
X135801717Y-117995270D01*
X135169408Y-117362962D01*
X135232993Y-117345925D01*
X135347007Y-117280099D01*
X135440099Y-117187007D01*
X135505925Y-117072993D01*
X135522962Y-117009408D01*
X136155270Y-117641717D01*
X136155270Y-117641716D01*
X136194622Y-117587554D01*
X136291095Y-117398217D01*
X136356757Y-117196130D01*
X136356757Y-117196127D01*
X136390000Y-116986246D01*
X136390000Y-116773753D01*
X136356757Y-116563872D01*
X136356757Y-116563869D01*
X136291095Y-116361782D01*
X136194624Y-116172449D01*
X136155270Y-116118282D01*
X136155269Y-116118282D01*
X135522962Y-116750590D01*
X135505925Y-116687007D01*
X135440099Y-116572993D01*
X135347007Y-116479901D01*
X135232993Y-116414075D01*
X135169409Y-116397037D01*
X135801716Y-115764728D01*
X135747547Y-115725373D01*
X135747547Y-115725372D01*
X135738500Y-115720763D01*
X135687706Y-115672788D01*
X135670912Y-115604966D01*
X135693451Y-115538832D01*
X135738508Y-115499793D01*
X135747816Y-115495051D01*
X135827007Y-115437515D01*
X135919786Y-115370109D01*
X135919788Y-115370106D01*
X135919792Y-115370104D01*
X136070104Y-115219792D01*
X136070106Y-115219788D01*
X136070109Y-115219786D01*
X136195048Y-115047820D01*
X136195047Y-115047820D01*
X136195051Y-115047816D01*
X136291557Y-114858412D01*
X136357246Y-114656243D01*
X136390500Y-114446287D01*
X136390500Y-114233713D01*
X136357246Y-114023757D01*
X136291557Y-113821588D01*
X136195051Y-113632184D01*
X136195049Y-113632181D01*
X136195048Y-113632179D01*
X136070109Y-113460213D01*
X135919786Y-113309890D01*
X135747820Y-113184951D01*
X135558414Y-113088444D01*
X135558413Y-113088443D01*
X135558412Y-113088443D01*
X135356243Y-113022754D01*
X135356241Y-113022753D01*
X135356240Y-113022753D01*
X135194957Y-112997208D01*
X135146287Y-112989500D01*
X134933713Y-112989500D01*
X134885042Y-112997208D01*
X134723760Y-113022753D01*
X134521585Y-113088444D01*
X134332179Y-113184951D01*
X134160213Y-113309890D01*
X134009890Y-113460213D01*
X133884949Y-113632182D01*
X133880484Y-113640946D01*
X133832509Y-113691742D01*
X133764688Y-113708536D01*
X133698553Y-113685998D01*
X133659516Y-113640946D01*
X133655050Y-113632182D01*
X133530109Y-113460213D01*
X133379786Y-113309890D01*
X133207820Y-113184951D01*
X133018414Y-113088444D01*
X133018413Y-113088443D01*
X133018412Y-113088443D01*
X132816243Y-113022754D01*
X132816241Y-113022753D01*
X132816240Y-113022753D01*
X132654957Y-112997208D01*
X132606287Y-112989500D01*
X132393713Y-112989500D01*
X132345042Y-112997208D01*
X132183760Y-113022753D01*
X131981585Y-113088444D01*
X131792179Y-113184951D01*
X131620213Y-113309890D01*
X131469890Y-113460213D01*
X131344951Y-113632179D01*
X131248444Y-113821585D01*
X131182753Y-114023760D01*
X131149500Y-114233713D01*
X123853526Y-114233713D01*
X123928803Y-76821153D01*
X127399500Y-76821153D01*
X127399500Y-76978846D01*
X127430261Y-77133489D01*
X127430264Y-77133501D01*
X127490602Y-77279172D01*
X127490609Y-77279185D01*
X127578210Y-77410288D01*
X127578213Y-77410292D01*
X127689707Y-77521786D01*
X127689711Y-77521789D01*
X127820814Y-77609390D01*
X127820827Y-77609397D01*
X127966498Y-77669735D01*
X127966503Y-77669737D01*
X128121153Y-77700499D01*
X128121156Y-77700500D01*
X128121158Y-77700500D01*
X128278844Y-77700500D01*
X128278845Y-77700499D01*
X128433497Y-77669737D01*
X128579179Y-77609394D01*
X128579185Y-77609390D01*
X128710875Y-77521398D01*
X128777553Y-77500520D01*
X128779766Y-77500500D01*
X133413331Y-77500500D01*
X133413347Y-77500501D01*
X133420943Y-77500501D01*
X133579054Y-77500501D01*
X133579057Y-77500501D01*
X133731785Y-77459577D01*
X133781904Y-77430639D01*
X133793952Y-77423682D01*
X133805341Y-77417109D01*
X133805406Y-77417093D01*
X133867334Y-77400500D01*
X133878844Y-77400500D01*
X133878845Y-77400499D01*
X134033497Y-77369737D01*
X134179179Y-77309394D01*
X134310289Y-77221789D01*
X134421789Y-77110289D01*
X134509394Y-76979179D01*
X134569737Y-76833497D01*
X134600500Y-76678842D01*
X134600500Y-76621153D01*
X138299500Y-76621153D01*
X138299500Y-76778846D01*
X138330261Y-76933489D01*
X138330264Y-76933501D01*
X138390602Y-77079172D01*
X138390609Y-77079185D01*
X138478210Y-77210288D01*
X138478213Y-77210292D01*
X138589707Y-77321786D01*
X138589711Y-77321789D01*
X138720814Y-77409390D01*
X138720827Y-77409397D01*
X138841972Y-77459576D01*
X138866503Y-77469737D01*
X139021153Y-77500499D01*
X139021156Y-77500500D01*
X139021158Y-77500500D01*
X139178844Y-77500500D01*
X139178845Y-77500499D01*
X139333497Y-77469737D01*
X139479179Y-77409394D01*
X139610289Y-77321789D01*
X139721789Y-77210289D01*
X139809394Y-77079179D01*
X139869737Y-76933497D01*
X139893344Y-76814817D01*
X139900638Y-76778150D01*
X139909402Y-76761393D01*
X139913423Y-76742914D01*
X139932167Y-76717875D01*
X139933023Y-76716239D01*
X139934518Y-76714716D01*
X140014662Y-76634572D01*
X140075983Y-76601089D01*
X140078150Y-76600638D01*
X140136085Y-76589113D01*
X140233497Y-76569737D01*
X140351592Y-76520821D01*
X140379172Y-76509397D01*
X140379172Y-76509396D01*
X140379179Y-76509394D01*
X140510289Y-76421789D01*
X140621789Y-76310289D01*
X140709394Y-76179179D01*
X140769737Y-76033497D01*
X140800500Y-75878842D01*
X140800500Y-75721158D01*
X140800500Y-75721155D01*
X140800499Y-75721153D01*
X140769738Y-75566510D01*
X140769738Y-75566508D01*
X140769737Y-75566503D01*
X140769735Y-75566498D01*
X140709397Y-75420827D01*
X140709390Y-75420814D01*
X140621789Y-75289711D01*
X140621786Y-75289707D01*
X140510292Y-75178213D01*
X140510288Y-75178210D01*
X140379185Y-75090609D01*
X140379172Y-75090602D01*
X140233501Y-75030264D01*
X140233489Y-75030261D01*
X140078845Y-74999500D01*
X140078842Y-74999500D01*
X139921158Y-74999500D01*
X139921155Y-74999500D01*
X139766510Y-75030261D01*
X139766498Y-75030264D01*
X139620827Y-75090602D01*
X139620814Y-75090609D01*
X139489711Y-75178210D01*
X139489707Y-75178213D01*
X139378213Y-75289707D01*
X139378210Y-75289711D01*
X139290609Y-75420814D01*
X139290602Y-75420827D01*
X139230264Y-75566498D01*
X139230261Y-75566508D01*
X139199361Y-75721850D01*
X139190595Y-75738606D01*
X139186576Y-75757085D01*
X139167833Y-75782121D01*
X139166976Y-75783761D01*
X139165425Y-75785339D01*
X139085339Y-75865425D01*
X139024016Y-75898910D01*
X139021850Y-75899361D01*
X138866508Y-75930261D01*
X138866498Y-75930264D01*
X138720827Y-75990602D01*
X138720814Y-75990609D01*
X138589711Y-76078210D01*
X138589707Y-76078213D01*
X138478213Y-76189707D01*
X138478210Y-76189711D01*
X138390609Y-76320814D01*
X138390602Y-76320827D01*
X138330264Y-76466498D01*
X138330261Y-76466510D01*
X138299500Y-76621153D01*
X134600500Y-76621153D01*
X134600500Y-76521158D01*
X134600500Y-76521155D01*
X134600499Y-76521153D01*
X134580734Y-76421789D01*
X134569737Y-76366503D01*
X134533830Y-76279815D01*
X134509397Y-76220827D01*
X134509390Y-76220814D01*
X134421789Y-76089711D01*
X134421786Y-76089707D01*
X134310292Y-75978213D01*
X134310288Y-75978210D01*
X134179185Y-75890609D01*
X134179172Y-75890602D01*
X134033501Y-75830264D01*
X134033489Y-75830261D01*
X133878845Y-75799500D01*
X133878842Y-75799500D01*
X133721158Y-75799500D01*
X133721155Y-75799500D01*
X133566510Y-75830261D01*
X133566498Y-75830264D01*
X133420827Y-75890602D01*
X133420814Y-75890609D01*
X133289711Y-75978210D01*
X133289707Y-75978213D01*
X133178213Y-76089707D01*
X133178210Y-76089711D01*
X133090609Y-76220814D01*
X133090607Y-76220819D01*
X133089725Y-76222949D01*
X133088964Y-76223893D01*
X133087736Y-76226191D01*
X133087300Y-76225958D01*
X133045885Y-76277354D01*
X132979592Y-76299421D01*
X132975162Y-76299500D01*
X128779766Y-76299500D01*
X128712727Y-76279815D01*
X128710875Y-76278602D01*
X128579185Y-76190609D01*
X128579172Y-76190602D01*
X128433501Y-76130264D01*
X128433489Y-76130261D01*
X128278845Y-76099500D01*
X128278842Y-76099500D01*
X128121158Y-76099500D01*
X128121155Y-76099500D01*
X127966510Y-76130261D01*
X127966498Y-76130264D01*
X127820827Y-76190602D01*
X127820814Y-76190609D01*
X127689711Y-76278210D01*
X127689707Y-76278213D01*
X127578213Y-76389707D01*
X127578210Y-76389711D01*
X127490609Y-76520814D01*
X127490602Y-76520827D01*
X127430264Y-76666498D01*
X127430261Y-76666510D01*
X127399500Y-76821153D01*
X123928803Y-76821153D01*
X123935644Y-73421153D01*
X132099500Y-73421153D01*
X132099500Y-73578846D01*
X132130261Y-73733489D01*
X132130264Y-73733501D01*
X132190602Y-73879172D01*
X132190609Y-73879185D01*
X132278210Y-74010288D01*
X132278213Y-74010292D01*
X132389707Y-74121786D01*
X132389711Y-74121789D01*
X132520814Y-74209390D01*
X132520827Y-74209397D01*
X132666498Y-74269735D01*
X132666503Y-74269737D01*
X132821153Y-74300499D01*
X132821156Y-74300500D01*
X132821158Y-74300500D01*
X132978844Y-74300500D01*
X132978845Y-74300499D01*
X133133497Y-74269737D01*
X133279179Y-74209394D01*
X133410289Y-74121789D01*
X133521789Y-74010289D01*
X133609394Y-73879179D01*
X133669737Y-73733497D01*
X133689113Y-73636085D01*
X133700638Y-73578150D01*
X133733023Y-73516239D01*
X133734517Y-73514717D01*
X133828081Y-73421153D01*
X134999500Y-73421153D01*
X134999500Y-73578846D01*
X135030261Y-73733489D01*
X135030264Y-73733501D01*
X135090602Y-73879172D01*
X135090609Y-73879185D01*
X135178210Y-74010288D01*
X135178213Y-74010292D01*
X135289707Y-74121786D01*
X135289711Y-74121789D01*
X135420814Y-74209390D01*
X135420827Y-74209397D01*
X135566498Y-74269735D01*
X135566503Y-74269737D01*
X135721153Y-74300499D01*
X135721156Y-74300500D01*
X135721158Y-74300500D01*
X135878844Y-74300500D01*
X135878845Y-74300499D01*
X136033497Y-74269737D01*
X136179179Y-74209394D01*
X136310289Y-74121789D01*
X136421789Y-74010289D01*
X136509394Y-73879179D01*
X136569737Y-73733497D01*
X136589113Y-73636085D01*
X136600638Y-73578150D01*
X136609402Y-73561393D01*
X136613423Y-73542914D01*
X136632167Y-73517875D01*
X136633023Y-73516239D01*
X136634518Y-73514716D01*
X136714662Y-73434572D01*
X136775983Y-73401089D01*
X136778150Y-73400638D01*
X136836085Y-73389113D01*
X136933497Y-73369737D01*
X137079179Y-73309394D01*
X137210289Y-73221789D01*
X137321789Y-73110289D01*
X137409394Y-72979179D01*
X137469737Y-72833497D01*
X137500500Y-72678842D01*
X137500500Y-72521158D01*
X137500500Y-72521155D01*
X137500499Y-72521153D01*
X137469738Y-72366510D01*
X137469738Y-72366508D01*
X137469737Y-72366503D01*
X137431178Y-72273412D01*
X137409397Y-72220827D01*
X137409390Y-72220814D01*
X137321789Y-72089711D01*
X137321786Y-72089707D01*
X137210292Y-71978213D01*
X137210288Y-71978210D01*
X137079185Y-71890609D01*
X137079172Y-71890602D01*
X136933501Y-71830264D01*
X136933489Y-71830261D01*
X136778845Y-71799500D01*
X136778842Y-71799500D01*
X136621158Y-71799500D01*
X136621155Y-71799500D01*
X136466510Y-71830261D01*
X136466498Y-71830264D01*
X136320827Y-71890602D01*
X136320814Y-71890609D01*
X136189711Y-71978210D01*
X136189707Y-71978213D01*
X136078213Y-72089707D01*
X136078210Y-72089711D01*
X135990609Y-72220814D01*
X135990602Y-72220827D01*
X135930264Y-72366498D01*
X135930261Y-72366508D01*
X135899361Y-72521850D01*
X135890595Y-72538606D01*
X135886576Y-72557085D01*
X135867833Y-72582121D01*
X135866976Y-72583761D01*
X135865425Y-72585339D01*
X135785339Y-72665425D01*
X135724016Y-72698910D01*
X135721850Y-72699361D01*
X135566508Y-72730261D01*
X135566498Y-72730264D01*
X135420827Y-72790602D01*
X135420814Y-72790609D01*
X135289711Y-72878210D01*
X135289707Y-72878213D01*
X135178213Y-72989707D01*
X135178210Y-72989711D01*
X135090609Y-73120814D01*
X135090602Y-73120827D01*
X135030264Y-73266498D01*
X135030261Y-73266510D01*
X134999500Y-73421153D01*
X133828081Y-73421153D01*
X135912417Y-71336819D01*
X135973740Y-71303334D01*
X136000098Y-71300500D01*
X136078844Y-71300500D01*
X136078845Y-71300499D01*
X136233497Y-71269737D01*
X136379179Y-71209394D01*
X136510289Y-71121789D01*
X136621789Y-71010289D01*
X136709394Y-70879179D01*
X136769737Y-70733497D01*
X136800500Y-70578842D01*
X136800500Y-70421158D01*
X136800500Y-70421155D01*
X136800499Y-70421153D01*
X136790334Y-70370050D01*
X136769737Y-70266503D01*
X136769735Y-70266498D01*
X136709397Y-70120827D01*
X136709390Y-70120814D01*
X136621789Y-69989711D01*
X136621786Y-69989707D01*
X136510292Y-69878213D01*
X136510288Y-69878210D01*
X136379185Y-69790609D01*
X136379172Y-69790602D01*
X136233501Y-69730264D01*
X136233489Y-69730261D01*
X136078845Y-69699500D01*
X136078842Y-69699500D01*
X135921158Y-69699500D01*
X135921155Y-69699500D01*
X135766510Y-69730261D01*
X135766498Y-69730264D01*
X135620827Y-69790602D01*
X135620814Y-69790609D01*
X135489711Y-69878210D01*
X135489707Y-69878213D01*
X135378213Y-69989707D01*
X135378210Y-69989711D01*
X135290609Y-70120814D01*
X135290602Y-70120827D01*
X135230264Y-70266498D01*
X135230261Y-70266510D01*
X135224193Y-70297016D01*
X135191808Y-70358927D01*
X135190257Y-70360506D01*
X132885339Y-72665425D01*
X132824016Y-72698910D01*
X132821850Y-72699361D01*
X132666508Y-72730261D01*
X132666498Y-72730264D01*
X132520827Y-72790602D01*
X132520814Y-72790609D01*
X132389711Y-72878210D01*
X132389707Y-72878213D01*
X132278213Y-72989707D01*
X132278210Y-72989711D01*
X132190609Y-73120814D01*
X132190602Y-73120827D01*
X132130264Y-73266498D01*
X132130261Y-73266510D01*
X132099500Y-73421153D01*
X123935644Y-73421153D01*
X123938301Y-72100442D01*
X123958121Y-72033445D01*
X124011017Y-71987796D01*
X124080195Y-71977992D01*
X124143692Y-72007145D01*
X124181348Y-72065999D01*
X124182685Y-72071030D01*
X124182753Y-72071239D01*
X124182754Y-72071243D01*
X124188753Y-72089707D01*
X124248444Y-72273414D01*
X124344951Y-72462820D01*
X124469890Y-72634786D01*
X124620213Y-72785109D01*
X124792179Y-72910048D01*
X124792181Y-72910049D01*
X124792184Y-72910051D01*
X124981588Y-73006557D01*
X125183757Y-73072246D01*
X125393713Y-73105500D01*
X125393714Y-73105500D01*
X125606286Y-73105500D01*
X125606287Y-73105500D01*
X125816243Y-73072246D01*
X126018412Y-73006557D01*
X126207816Y-72910051D01*
X126313179Y-72833501D01*
X126379786Y-72785109D01*
X126379788Y-72785106D01*
X126379792Y-72785104D01*
X126530104Y-72634792D01*
X126530106Y-72634788D01*
X126530109Y-72634786D01*
X126655048Y-72462820D01*
X126655047Y-72462820D01*
X126655051Y-72462816D01*
X126751557Y-72273412D01*
X126817246Y-72071243D01*
X126850500Y-71861287D01*
X126850500Y-71648713D01*
X126817246Y-71438757D01*
X126751557Y-71236588D01*
X126655051Y-71047184D01*
X126655049Y-71047181D01*
X126655048Y-71047179D01*
X126530109Y-70875213D01*
X126379786Y-70724890D01*
X126207820Y-70599951D01*
X126207115Y-70599591D01*
X126199054Y-70595485D01*
X126148259Y-70547512D01*
X126131463Y-70479692D01*
X126153999Y-70413556D01*
X126199054Y-70374515D01*
X126207816Y-70370051D01*
X126308341Y-70297016D01*
X126379786Y-70245109D01*
X126379788Y-70245106D01*
X126379792Y-70245104D01*
X126530104Y-70094792D01*
X126530106Y-70094788D01*
X126530109Y-70094786D01*
X126655048Y-69922820D01*
X126655047Y-69922820D01*
X126655051Y-69922816D01*
X126751557Y-69733412D01*
X126817246Y-69531243D01*
X126850500Y-69321287D01*
X126850500Y-69108713D01*
X126817246Y-68898757D01*
X126751557Y-68696588D01*
X126655051Y-68507184D01*
X126655049Y-68507181D01*
X126655048Y-68507179D01*
X126530109Y-68335213D01*
X126379786Y-68184890D01*
X126207820Y-68059951D01*
X126207115Y-68059591D01*
X126199054Y-68055485D01*
X126148259Y-68007512D01*
X126131463Y-67939692D01*
X126153999Y-67873556D01*
X126199054Y-67834515D01*
X126207816Y-67830051D01*
X126229789Y-67814086D01*
X126379786Y-67705109D01*
X126379788Y-67705106D01*
X126379792Y-67705104D01*
X126530104Y-67554792D01*
X126530106Y-67554788D01*
X126530109Y-67554786D01*
X126655048Y-67382820D01*
X126655047Y-67382820D01*
X126655051Y-67382816D01*
X126751557Y-67193412D01*
X126817246Y-66991243D01*
X126850500Y-66781287D01*
X126850500Y-66568713D01*
X126817246Y-66358757D01*
X126751557Y-66156588D01*
X126655051Y-65967184D01*
X126655049Y-65967181D01*
X126655048Y-65967179D01*
X126530109Y-65795213D01*
X126379786Y-65644890D01*
X126207817Y-65519949D01*
X126198504Y-65515204D01*
X126147707Y-65467230D01*
X126130912Y-65399409D01*
X126153449Y-65333274D01*
X126198507Y-65294232D01*
X126207555Y-65289622D01*
X126261716Y-65250270D01*
X126261717Y-65250270D01*
X125629408Y-64617962D01*
X125692993Y-64600925D01*
X125807007Y-64535099D01*
X125900099Y-64442007D01*
X125965925Y-64327993D01*
X125982962Y-64264408D01*
X126615270Y-64896717D01*
X126615270Y-64896716D01*
X126654622Y-64842554D01*
X126751095Y-64653217D01*
X126816757Y-64451130D01*
X126816757Y-64451127D01*
X126850000Y-64241246D01*
X126850000Y-64028753D01*
X126816757Y-63818872D01*
X126816757Y-63818869D01*
X126751095Y-63616782D01*
X126654624Y-63427449D01*
X126615270Y-63373282D01*
X126615269Y-63373282D01*
X125982962Y-64005590D01*
X125965925Y-63942007D01*
X125900099Y-63827993D01*
X125807007Y-63734901D01*
X125692993Y-63669075D01*
X125629409Y-63652037D01*
X126261716Y-63019728D01*
X126207550Y-62980375D01*
X126197954Y-62975486D01*
X126147157Y-62927512D01*
X126130361Y-62859692D01*
X126152897Y-62793556D01*
X126197954Y-62754514D01*
X126207554Y-62749622D01*
X126261716Y-62710270D01*
X126261717Y-62710270D01*
X125629408Y-62077962D01*
X125692993Y-62060925D01*
X125807007Y-61995099D01*
X125900099Y-61902007D01*
X125965925Y-61787993D01*
X125982962Y-61724408D01*
X126615270Y-62356717D01*
X126615270Y-62356716D01*
X126654622Y-62302554D01*
X126751095Y-62113217D01*
X126816757Y-61911130D01*
X126816757Y-61911127D01*
X126850000Y-61701246D01*
X126850000Y-61488753D01*
X126816757Y-61278872D01*
X126816757Y-61278869D01*
X126751095Y-61076782D01*
X126654624Y-60887449D01*
X126615270Y-60833282D01*
X126615269Y-60833282D01*
X125982962Y-61465590D01*
X125965925Y-61402007D01*
X125900099Y-61287993D01*
X125807007Y-61194901D01*
X125692993Y-61129075D01*
X125629409Y-61112037D01*
X126261716Y-60479728D01*
X126207547Y-60440373D01*
X126207547Y-60440372D01*
X126198500Y-60435763D01*
X126147706Y-60387788D01*
X126130912Y-60319966D01*
X126153451Y-60253832D01*
X126198508Y-60214793D01*
X126207816Y-60210051D01*
X126287007Y-60152515D01*
X126379786Y-60085109D01*
X126379788Y-60085106D01*
X126379792Y-60085104D01*
X126530104Y-59934792D01*
X126530106Y-59934788D01*
X126530109Y-59934786D01*
X126655048Y-59762820D01*
X126655047Y-59762820D01*
X126655051Y-59762816D01*
X126751557Y-59573412D01*
X126817246Y-59371243D01*
X126850500Y-59161287D01*
X126850500Y-58948713D01*
X126817246Y-58738757D01*
X126751557Y-58536588D01*
X126655051Y-58347184D01*
X126655049Y-58347181D01*
X126655048Y-58347179D01*
X126530109Y-58175213D01*
X126416569Y-58061673D01*
X126383084Y-58000350D01*
X126388068Y-57930658D01*
X126429940Y-57874725D01*
X126460915Y-57857810D01*
X126592331Y-57808796D01*
X126707546Y-57722546D01*
X126793796Y-57607331D01*
X126844091Y-57472483D01*
X126850500Y-57412873D01*
X126850499Y-55617128D01*
X126844091Y-55557517D01*
X126793796Y-55422669D01*
X126793795Y-55422667D01*
X126793793Y-55422664D01*
X126707547Y-55307455D01*
X126707544Y-55307452D01*
X126592335Y-55221206D01*
X126592328Y-55221202D01*
X126457482Y-55170908D01*
X126457483Y-55170908D01*
X126397883Y-55164501D01*
X126397881Y-55164500D01*
X126397873Y-55164500D01*
X126397864Y-55164500D01*
X124602129Y-55164500D01*
X124602123Y-55164501D01*
X124542516Y-55170908D01*
X124407671Y-55221202D01*
X124407664Y-55221206D01*
X124292455Y-55307452D01*
X124292452Y-55307455D01*
X124206203Y-55422667D01*
X124204802Y-55425235D01*
X124202734Y-55427301D01*
X124200888Y-55429769D01*
X124200533Y-55429503D01*
X124155394Y-55474638D01*
X124087120Y-55489486D01*
X124021657Y-55465065D01*
X123979789Y-55409129D01*
X123971973Y-55365553D01*
X123972090Y-55307452D01*
X123987867Y-47466385D01*
X123988000Y-47465892D01*
X123988000Y-47400718D01*
X123988132Y-47335115D01*
X123988131Y-47335112D01*
X123988145Y-47328352D01*
X123988000Y-47326100D01*
X123988000Y-47281902D01*
X123951053Y-47048631D01*
X123878066Y-46824003D01*
X123839166Y-46747659D01*
X123770843Y-46613567D01*
X123762530Y-46602125D01*
X123685525Y-46496136D01*
X123662045Y-46430330D01*
X123666067Y-46391161D01*
X123688000Y-46309309D01*
X123688000Y-46190691D01*
X123657299Y-46076114D01*
X123597989Y-45973387D01*
X123537283Y-45912681D01*
X123503798Y-45851358D01*
X123508782Y-45781666D01*
X123537283Y-45737319D01*
X123597989Y-45676613D01*
X123657299Y-45573886D01*
X123688000Y-45459309D01*
X123688000Y-45340691D01*
X123657299Y-45226114D01*
X123597989Y-45123387D01*
X123537283Y-45062681D01*
X123503798Y-45001358D01*
X123508782Y-44931666D01*
X123537283Y-44887319D01*
X123561049Y-44863553D01*
X123597989Y-44826613D01*
X123657299Y-44723886D01*
X123688000Y-44609309D01*
X123688000Y-44490691D01*
X123666068Y-44408840D01*
X123667731Y-44338992D01*
X123685525Y-44303862D01*
X123770843Y-44186433D01*
X123878068Y-43975992D01*
X123951053Y-43751368D01*
X123967148Y-43649750D01*
X123988000Y-43518097D01*
X123988000Y-43399937D01*
X123999750Y-33624351D01*
X124019515Y-33557335D01*
X124072374Y-33511644D01*
X124123750Y-33500500D01*
X143175500Y-33500500D01*
X143242539Y-33520185D01*
G37*
%TD.AperFunction*%
%TA.AperFunction,Conductor*%
G36*
X125034075Y-64327993D02*
G01*
X125099901Y-64442007D01*
X125192993Y-64535099D01*
X125307007Y-64600925D01*
X125370590Y-64617962D01*
X124738282Y-65250269D01*
X124738282Y-65250270D01*
X124792452Y-65289626D01*
X124792451Y-65289626D01*
X124801495Y-65294234D01*
X124852292Y-65342208D01*
X124869087Y-65410029D01*
X124846550Y-65476164D01*
X124801499Y-65515202D01*
X124792182Y-65519949D01*
X124620213Y-65644890D01*
X124469890Y-65795213D01*
X124344951Y-65967179D01*
X124248444Y-66156583D01*
X124191919Y-66330550D01*
X124152481Y-66388225D01*
X124088122Y-66415423D01*
X124019276Y-66403508D01*
X123967800Y-66356264D01*
X123949988Y-66291982D01*
X123953540Y-64526832D01*
X123973360Y-64459834D01*
X124026256Y-64414185D01*
X124095434Y-64404381D01*
X124158931Y-64433534D01*
X124195471Y-64488765D01*
X124248904Y-64653217D01*
X124345375Y-64842550D01*
X124384728Y-64896716D01*
X125017037Y-64264408D01*
X125034075Y-64327993D01*
G37*
%TD.AperFunction*%
%TA.AperFunction,Conductor*%
G36*
X125034075Y-61787993D02*
G01*
X125099901Y-61902007D01*
X125192993Y-61995099D01*
X125307007Y-62060925D01*
X125370591Y-62077962D01*
X124769971Y-62678581D01*
X124848711Y-62795895D01*
X124849920Y-62799729D01*
X124852844Y-62802491D01*
X124860343Y-62832778D01*
X124869727Y-62862529D01*
X124868671Y-62866408D01*
X124869638Y-62870312D01*
X124859573Y-62899844D01*
X124851383Y-62929947D01*
X124848397Y-62932640D01*
X124847100Y-62936447D01*
X124802051Y-62975483D01*
X124792440Y-62980380D01*
X124738282Y-63019727D01*
X124738282Y-63019728D01*
X125370591Y-63652037D01*
X125307007Y-63669075D01*
X125192993Y-63734901D01*
X125099901Y-63827993D01*
X125034075Y-63942007D01*
X125017037Y-64005591D01*
X124384728Y-63373282D01*
X124384727Y-63373282D01*
X124345380Y-63427439D01*
X124248904Y-63616783D01*
X124197058Y-63776348D01*
X124157620Y-63834024D01*
X124093262Y-63861222D01*
X124024415Y-63849307D01*
X123972940Y-63802063D01*
X123955127Y-63737783D01*
X123958619Y-62002463D01*
X123978439Y-61935466D01*
X124031335Y-61889817D01*
X124100513Y-61880013D01*
X124164010Y-61909166D01*
X124200550Y-61964397D01*
X124248904Y-62113217D01*
X124345375Y-62302550D01*
X124384728Y-62356716D01*
X125017037Y-61724408D01*
X125034075Y-61787993D01*
G37*
%TD.AperFunction*%
%TA.AperFunction,Conductor*%
G36*
X124169086Y-59386404D02*
G01*
X124205626Y-59441635D01*
X124248444Y-59573414D01*
X124344951Y-59762820D01*
X124469890Y-59934786D01*
X124620213Y-60085109D01*
X124792179Y-60210048D01*
X124792181Y-60210049D01*
X124792184Y-60210051D01*
X124801493Y-60214794D01*
X124852290Y-60262766D01*
X124869087Y-60330587D01*
X124846552Y-60396722D01*
X124801505Y-60435760D01*
X124792446Y-60440376D01*
X124792440Y-60440380D01*
X124738282Y-60479727D01*
X124738282Y-60479728D01*
X125370591Y-61112037D01*
X125307007Y-61129075D01*
X125192993Y-61194901D01*
X125099901Y-61287993D01*
X125034075Y-61402007D01*
X125017037Y-61465591D01*
X124384728Y-60833282D01*
X124384727Y-60833282D01*
X124345380Y-60887439D01*
X124248904Y-61076783D01*
X124202201Y-61220520D01*
X124162763Y-61278196D01*
X124098405Y-61305394D01*
X124029558Y-61293479D01*
X123978083Y-61246235D01*
X123960270Y-61181953D01*
X123963695Y-59479702D01*
X123983515Y-59412704D01*
X124036411Y-59367055D01*
X124105589Y-59357251D01*
X124169086Y-59386404D01*
G37*
%TD.AperFunction*%
%TD*%
%TA.AperFunction,NonConductor*%
G36*
X124172759Y-57560726D02*
G01*
X124200286Y-57600455D01*
X124201953Y-57599546D01*
X124206206Y-57607335D01*
X124292452Y-57722544D01*
X124292455Y-57722547D01*
X124407664Y-57808793D01*
X124407671Y-57808797D01*
X124539082Y-57857810D01*
X124595016Y-57899681D01*
X124619433Y-57965145D01*
X124604582Y-58033418D01*
X124583431Y-58061673D01*
X124469889Y-58175215D01*
X124344951Y-58347179D01*
X124248444Y-58536585D01*
X124207347Y-58663068D01*
X124167909Y-58720744D01*
X124103551Y-58747942D01*
X124034704Y-58736027D01*
X123983229Y-58688783D01*
X123965416Y-58624501D01*
X123966320Y-58175208D01*
X123967368Y-57654023D01*
X123987188Y-57587026D01*
X124040084Y-57541377D01*
X124109262Y-57531573D01*
X124172759Y-57560726D01*
G37*
%TD.AperFunction*%
%TA.AperFunction,NonConductor*%
G36*
X124104860Y-66937016D02*
G01*
X124120726Y-66938837D01*
X124135963Y-66951296D01*
X124153848Y-66959508D01*
X124163091Y-66973479D01*
X124174815Y-66983066D01*
X124190388Y-67014738D01*
X124248444Y-67193416D01*
X124344951Y-67382820D01*
X124469890Y-67554786D01*
X124620213Y-67705109D01*
X124792182Y-67830050D01*
X124800946Y-67834516D01*
X124851742Y-67882491D01*
X124868536Y-67950312D01*
X124845998Y-68016447D01*
X124800946Y-68055484D01*
X124792182Y-68059949D01*
X124620213Y-68184890D01*
X124469890Y-68335213D01*
X124344951Y-68507179D01*
X124248444Y-68696585D01*
X124186777Y-68886376D01*
X124147339Y-68944052D01*
X124082981Y-68971250D01*
X124014134Y-68959335D01*
X123962659Y-68912091D01*
X123944846Y-68847809D01*
X123946440Y-68055484D01*
X123948457Y-67052805D01*
X123952986Y-67037494D01*
X123952531Y-67021534D01*
X123962694Y-67004679D01*
X123968277Y-66985808D01*
X123980364Y-66975376D01*
X123988611Y-66961701D01*
X124006274Y-66953016D01*
X124021173Y-66940159D01*
X124036982Y-66937918D01*
X124051312Y-66930873D01*
X124070865Y-66933116D01*
X124090351Y-66930355D01*
X124104860Y-66937016D01*
G37*
%TD.AperFunction*%
%TA.AperFunction,NonConductor*%
G36*
X124148769Y-69483875D02*
G01*
X124185308Y-69539105D01*
X124247419Y-69730261D01*
X124248444Y-69733414D01*
X124344951Y-69922820D01*
X124469890Y-70094786D01*
X124620213Y-70245109D01*
X124792182Y-70370050D01*
X124800946Y-70374516D01*
X124851742Y-70422491D01*
X124868536Y-70490312D01*
X124845998Y-70556447D01*
X124800946Y-70595484D01*
X124792182Y-70599949D01*
X124620213Y-70724890D01*
X124469890Y-70875213D01*
X124344951Y-71047179D01*
X124248444Y-71236583D01*
X124181634Y-71442204D01*
X124142196Y-71499879D01*
X124077837Y-71527077D01*
X124008991Y-71515162D01*
X123957515Y-71467918D01*
X123939703Y-71403637D01*
X123943378Y-69577173D01*
X123963198Y-69510175D01*
X124016094Y-69464526D01*
X124085272Y-69454722D01*
X124148769Y-69483875D01*
G37*
%TD.AperFunction*%
%TA.AperFunction,NonConductor*%
G36*
X143181466Y-91015969D02*
G01*
X143196530Y-91014227D01*
X143214913Y-91023244D01*
X143234923Y-91027596D01*
X143245645Y-91038318D01*
X143259260Y-91044996D01*
X143269850Y-91062521D01*
X143284330Y-91077000D01*
X143288520Y-91093417D01*
X143295396Y-91104795D01*
X143295008Y-91118833D01*
X143299500Y-91136431D01*
X143299500Y-91399366D01*
X143279815Y-91466405D01*
X143227011Y-91512160D01*
X143157853Y-91522104D01*
X143094297Y-91493079D01*
X143075182Y-91472251D01*
X143030109Y-91410214D01*
X143030105Y-91410209D01*
X142916569Y-91296673D01*
X142901077Y-91268303D01*
X142884354Y-91240628D01*
X142884431Y-91237817D01*
X142883084Y-91235350D01*
X142885390Y-91203096D01*
X142886283Y-91170785D01*
X142887867Y-91168463D01*
X142888068Y-91165658D01*
X142907441Y-91139778D01*
X142925666Y-91113072D01*
X142928770Y-91111287D01*
X142929940Y-91109725D01*
X142955873Y-91094818D01*
X142958366Y-91093761D01*
X143092331Y-91043796D01*
X143113252Y-91028134D01*
X143127123Y-91022257D01*
X143147464Y-91019903D01*
X143166649Y-91012747D01*
X143181466Y-91015969D01*
G37*
%TD.AperFunction*%
%TA.AperFunction,NonConductor*%
G36*
X143261920Y-93091708D02*
G01*
X143296277Y-93152547D01*
X143299500Y-93180633D01*
X143299500Y-93939366D01*
X143279815Y-94006405D01*
X143227011Y-94052160D01*
X143157853Y-94062104D01*
X143094297Y-94033079D01*
X143075182Y-94012251D01*
X143030109Y-93950214D01*
X143030105Y-93950209D01*
X142879786Y-93799890D01*
X142707820Y-93674951D01*
X142707115Y-93674591D01*
X142699054Y-93670485D01*
X142648259Y-93622512D01*
X142631463Y-93554692D01*
X142653999Y-93488556D01*
X142699054Y-93449515D01*
X142707816Y-93445051D01*
X142770512Y-93399500D01*
X142879786Y-93320109D01*
X142879788Y-93320106D01*
X142879792Y-93320104D01*
X143030104Y-93169792D01*
X143075181Y-93107747D01*
X143130511Y-93065082D01*
X143200124Y-93059103D01*
X143261920Y-93091708D01*
G37*
%TD.AperFunction*%
%TA.AperFunction,NonConductor*%
G36*
X139238377Y-91905827D02*
G01*
X139257287Y-91906165D01*
X139285504Y-91919665D01*
X139287273Y-91920185D01*
X139289125Y-91921398D01*
X139420814Y-92009390D01*
X139420827Y-92009397D01*
X139558695Y-92066503D01*
X139566503Y-92069737D01*
X139718157Y-92099903D01*
X139721153Y-92100499D01*
X139721156Y-92100500D01*
X139721158Y-92100500D01*
X139878844Y-92100500D01*
X139884907Y-92099903D01*
X139885152Y-92102399D01*
X139943794Y-92107626D01*
X139986115Y-92135351D01*
X140631284Y-92780520D01*
X140745327Y-92846362D01*
X140793542Y-92896928D01*
X140793812Y-92897454D01*
X140844951Y-92997819D01*
X140969890Y-93169786D01*
X141120213Y-93320109D01*
X141292182Y-93445050D01*
X141300946Y-93449516D01*
X141351742Y-93497491D01*
X141368536Y-93565312D01*
X141345998Y-93631447D01*
X141300946Y-93670484D01*
X141292182Y-93674949D01*
X141120213Y-93799890D01*
X140969890Y-93950213D01*
X140844951Y-94122180D01*
X140762596Y-94283809D01*
X140714621Y-94334605D01*
X140646800Y-94351400D01*
X140580665Y-94328862D01*
X140564430Y-94315195D01*
X139887590Y-93638355D01*
X139887588Y-93638352D01*
X139768717Y-93519481D01*
X139768716Y-93519480D01*
X139681904Y-93469360D01*
X139681904Y-93469359D01*
X139681900Y-93469358D01*
X139631785Y-93440423D01*
X139479057Y-93399499D01*
X139320943Y-93399499D01*
X139313347Y-93399499D01*
X139313331Y-93399500D01*
X135249097Y-93399500D01*
X135227851Y-93393261D01*
X135205765Y-93391682D01*
X135194981Y-93383609D01*
X135182058Y-93379815D01*
X135167557Y-93363080D01*
X135149831Y-93349811D01*
X135145123Y-93337190D01*
X135136303Y-93327011D01*
X135133151Y-93305094D01*
X135125413Y-93284347D01*
X135128275Y-93271185D01*
X135126359Y-93257853D01*
X135135557Y-93237711D01*
X135140264Y-93216074D01*
X135153534Y-93198347D01*
X135155384Y-93194297D01*
X135161415Y-93187820D01*
X135182737Y-93166498D01*
X135214661Y-93134573D01*
X135275982Y-93101089D01*
X135278150Y-93100638D01*
X135336085Y-93089113D01*
X135433497Y-93069737D01*
X135551592Y-93020821D01*
X135579172Y-93009397D01*
X135579172Y-93009396D01*
X135579179Y-93009394D01*
X135710289Y-92921789D01*
X135821789Y-92810289D01*
X135909394Y-92679179D01*
X135969737Y-92533497D01*
X136000500Y-92378842D01*
X136000500Y-92221158D01*
X136000500Y-92221155D01*
X136000499Y-92221153D01*
X135980543Y-92120827D01*
X135969737Y-92066503D01*
X135969732Y-92066492D01*
X135967969Y-92060676D01*
X135970720Y-92059841D01*
X135964497Y-92002641D01*
X135995691Y-91940122D01*
X136055734Y-91904392D01*
X136086555Y-91900500D01*
X139220234Y-91900500D01*
X139238377Y-91905827D01*
G37*
%TD.AperFunction*%
%TA.AperFunction,NonConductor*%
G36*
X143261920Y-95631708D02*
G01*
X143296277Y-95692547D01*
X143299500Y-95720633D01*
X143299500Y-96479366D01*
X143279815Y-96546405D01*
X143227011Y-96592160D01*
X143157853Y-96602104D01*
X143094297Y-96573079D01*
X143075182Y-96552251D01*
X143030109Y-96490214D01*
X143030105Y-96490209D01*
X142879786Y-96339890D01*
X142707820Y-96214951D01*
X142707115Y-96214591D01*
X142699054Y-96210485D01*
X142648259Y-96162512D01*
X142631463Y-96094692D01*
X142653999Y-96028556D01*
X142699054Y-95989515D01*
X142707816Y-95985051D01*
X142733352Y-95966498D01*
X142879786Y-95860109D01*
X142879788Y-95860106D01*
X142879792Y-95860104D01*
X143030104Y-95709792D01*
X143075181Y-95647747D01*
X143130511Y-95605082D01*
X143200124Y-95599103D01*
X143261920Y-95631708D01*
G37*
%TD.AperFunction*%
%TA.AperFunction,NonConductor*%
G36*
X143261920Y-98171708D02*
G01*
X143296277Y-98232547D01*
X143299500Y-98260633D01*
X143299500Y-99019366D01*
X143279815Y-99086405D01*
X143227011Y-99132160D01*
X143157853Y-99142104D01*
X143094297Y-99113079D01*
X143075182Y-99092251D01*
X143030109Y-99030214D01*
X143030105Y-99030209D01*
X142879786Y-98879890D01*
X142707820Y-98754951D01*
X142707115Y-98754591D01*
X142699054Y-98750485D01*
X142648259Y-98702512D01*
X142631463Y-98634692D01*
X142653999Y-98568556D01*
X142699054Y-98529515D01*
X142707816Y-98525051D01*
X142729789Y-98509086D01*
X142879786Y-98400109D01*
X142879788Y-98400106D01*
X142879792Y-98400104D01*
X143030104Y-98249792D01*
X143075181Y-98187747D01*
X143130511Y-98145082D01*
X143200124Y-98139103D01*
X143261920Y-98171708D01*
G37*
%TD.AperFunction*%
%TA.AperFunction,NonConductor*%
G36*
X143261920Y-100711708D02*
G01*
X143296277Y-100772547D01*
X143299500Y-100800633D01*
X143299500Y-101559366D01*
X143279815Y-101626405D01*
X143227011Y-101672160D01*
X143157853Y-101682104D01*
X143094297Y-101653079D01*
X143075182Y-101632251D01*
X143030109Y-101570214D01*
X143030105Y-101570209D01*
X142879786Y-101419890D01*
X142707820Y-101294951D01*
X142707115Y-101294591D01*
X142699054Y-101290485D01*
X142648259Y-101242512D01*
X142631463Y-101174692D01*
X142653999Y-101108556D01*
X142699054Y-101069515D01*
X142707816Y-101065051D01*
X142729789Y-101049086D01*
X142879786Y-100940109D01*
X142879788Y-100940106D01*
X142879792Y-100940104D01*
X143030104Y-100789792D01*
X143075181Y-100727747D01*
X143130511Y-100685082D01*
X143200124Y-100679103D01*
X143261920Y-100711708D01*
G37*
%TD.AperFunction*%
%TA.AperFunction,NonConductor*%
G36*
X143261920Y-103251708D02*
G01*
X143296277Y-103312547D01*
X143299500Y-103340633D01*
X143299500Y-104099366D01*
X143279815Y-104166405D01*
X143227011Y-104212160D01*
X143157853Y-104222104D01*
X143094297Y-104193079D01*
X143075182Y-104172251D01*
X143030109Y-104110214D01*
X143030105Y-104110209D01*
X142879786Y-103959890D01*
X142707820Y-103834951D01*
X142707115Y-103834591D01*
X142699054Y-103830485D01*
X142648259Y-103782512D01*
X142631463Y-103714692D01*
X142653999Y-103648556D01*
X142699054Y-103609515D01*
X142707816Y-103605051D01*
X142729789Y-103589086D01*
X142879786Y-103480109D01*
X142879788Y-103480106D01*
X142879792Y-103480104D01*
X143030104Y-103329792D01*
X143075181Y-103267747D01*
X143130511Y-103225082D01*
X143200124Y-103219103D01*
X143261920Y-103251708D01*
G37*
%TD.AperFunction*%
%TA.AperFunction,Conductor*%
%TO.N,/GND_O*%
G36*
X120941708Y-34520185D02*
G01*
X120987463Y-34572989D01*
X120998668Y-34624664D01*
X120994753Y-37569135D01*
X120987098Y-43325471D01*
X120987000Y-43326967D01*
X120987000Y-43334108D01*
X120987000Y-43399800D01*
X120986913Y-43465226D01*
X120987000Y-43465552D01*
X120987000Y-43518097D01*
X121023946Y-43751368D01*
X121096933Y-43975996D01*
X121204157Y-44186433D01*
X121276318Y-44285755D01*
X121283470Y-44305799D01*
X121294977Y-44323704D01*
X121298431Y-44347728D01*
X121299798Y-44351559D01*
X121300000Y-44358639D01*
X121300000Y-44425849D01*
X121295775Y-44457941D01*
X121287000Y-44490689D01*
X121287000Y-44609308D01*
X121295775Y-44642057D01*
X121300000Y-44674150D01*
X121300000Y-45292174D01*
X121287000Y-45340691D01*
X121287000Y-45459309D01*
X121300000Y-45507825D01*
X121300000Y-46125849D01*
X121295775Y-46157941D01*
X121287000Y-46190689D01*
X121287000Y-46309308D01*
X121295775Y-46342057D01*
X121300000Y-46374150D01*
X121300000Y-46441359D01*
X121280315Y-46508398D01*
X121276319Y-46514243D01*
X121204157Y-46613566D01*
X121204156Y-46613568D01*
X121096933Y-46824003D01*
X121023946Y-47048631D01*
X120987000Y-47281902D01*
X120987000Y-47399698D01*
X120984632Y-48576250D01*
X120964812Y-48643249D01*
X120911916Y-48688898D01*
X120860632Y-48700000D01*
X120220000Y-48700000D01*
X120220000Y-49724722D01*
X120143694Y-49680667D01*
X120029244Y-49650000D01*
X119910756Y-49650000D01*
X119796306Y-49680667D01*
X119720000Y-49724722D01*
X119720000Y-48700000D01*
X119022155Y-48700000D01*
X118962627Y-48706401D01*
X118962620Y-48706403D01*
X118827913Y-48756645D01*
X118827906Y-48756649D01*
X118712812Y-48842809D01*
X118712809Y-48842812D01*
X118626649Y-48957906D01*
X118626643Y-48957918D01*
X118596785Y-49037969D01*
X118554914Y-49093903D01*
X118489449Y-49118319D01*
X118421176Y-49103467D01*
X118392923Y-49082316D01*
X118342363Y-49031756D01*
X118342358Y-49031752D01*
X118164025Y-48902187D01*
X118164024Y-48902186D01*
X118164022Y-48902185D01*
X118101096Y-48870122D01*
X117967606Y-48802104D01*
X117967603Y-48802103D01*
X117757952Y-48733985D01*
X117649086Y-48716742D01*
X117540222Y-48699500D01*
X117319778Y-48699500D01*
X117247201Y-48710995D01*
X117102047Y-48733985D01*
X116892396Y-48802103D01*
X116892393Y-48802104D01*
X116695974Y-48902187D01*
X116517641Y-49031752D01*
X116517636Y-49031756D01*
X116361756Y-49187636D01*
X116361752Y-49187641D01*
X116232187Y-49365974D01*
X116132104Y-49562393D01*
X116132103Y-49562396D01*
X116063985Y-49772047D01*
X116029500Y-49989778D01*
X116029500Y-50210221D01*
X116063985Y-50427952D01*
X116132103Y-50637603D01*
X116132104Y-50637606D01*
X116232187Y-50834025D01*
X116361752Y-51012358D01*
X116361756Y-51012363D01*
X116517636Y-51168243D01*
X116517641Y-51168247D01*
X116673192Y-51281260D01*
X116695978Y-51297815D01*
X116812501Y-51357187D01*
X116892393Y-51397895D01*
X116892396Y-51397896D01*
X116992008Y-51430261D01*
X117102049Y-51466015D01*
X117319778Y-51500500D01*
X117319779Y-51500500D01*
X117540221Y-51500500D01*
X117540222Y-51500500D01*
X117757951Y-51466015D01*
X117967606Y-51397895D01*
X118164022Y-51297815D01*
X118342365Y-51168242D01*
X118392924Y-51117682D01*
X118454245Y-51084198D01*
X118523936Y-51089182D01*
X118579870Y-51131053D01*
X118596786Y-51162030D01*
X118626646Y-51242087D01*
X118626649Y-51242093D01*
X118712809Y-51357187D01*
X118712812Y-51357190D01*
X118827906Y-51443350D01*
X118827913Y-51443354D01*
X118962620Y-51493596D01*
X118962627Y-51493598D01*
X119022155Y-51499999D01*
X119022172Y-51500000D01*
X119720000Y-51500000D01*
X119720000Y-50475277D01*
X119796306Y-50519333D01*
X119910756Y-50550000D01*
X120029244Y-50550000D01*
X120143694Y-50519333D01*
X120220000Y-50475277D01*
X120220000Y-51500000D01*
X120854499Y-51500000D01*
X120921538Y-51519685D01*
X120967293Y-51572489D01*
X120978499Y-51624249D01*
X120904398Y-88452344D01*
X120884578Y-88519344D01*
X120831682Y-88564993D01*
X120762504Y-88574797D01*
X120706087Y-88551362D01*
X120592330Y-88466203D01*
X120592328Y-88466202D01*
X120457482Y-88415908D01*
X120457483Y-88415908D01*
X120397883Y-88409501D01*
X120397881Y-88409500D01*
X120397873Y-88409500D01*
X120397864Y-88409500D01*
X118602129Y-88409500D01*
X118602123Y-88409501D01*
X118542516Y-88415908D01*
X118407671Y-88466202D01*
X118407664Y-88466206D01*
X118292455Y-88552452D01*
X118292452Y-88552455D01*
X118206206Y-88667664D01*
X118206202Y-88667671D01*
X118155908Y-88802517D01*
X118149501Y-88862116D01*
X118149500Y-88862135D01*
X118149500Y-90657870D01*
X118149501Y-90657876D01*
X118155908Y-90717483D01*
X118206202Y-90852328D01*
X118206206Y-90852335D01*
X118292452Y-90967544D01*
X118292455Y-90967547D01*
X118407664Y-91053793D01*
X118407671Y-91053797D01*
X118539082Y-91102810D01*
X118595016Y-91144681D01*
X118619433Y-91210145D01*
X118604582Y-91278418D01*
X118583431Y-91306673D01*
X118469889Y-91420215D01*
X118344951Y-91592179D01*
X118248444Y-91781585D01*
X118182753Y-91983760D01*
X118149500Y-92193713D01*
X118149500Y-92406286D01*
X118182753Y-92616239D01*
X118248444Y-92818414D01*
X118344951Y-93007820D01*
X118469890Y-93179786D01*
X118620213Y-93330109D01*
X118792182Y-93455050D01*
X118800946Y-93459516D01*
X118851742Y-93507491D01*
X118868536Y-93575312D01*
X118845998Y-93641447D01*
X118800946Y-93680484D01*
X118792182Y-93684949D01*
X118620213Y-93809890D01*
X118469890Y-93960213D01*
X118344951Y-94132179D01*
X118248444Y-94321585D01*
X118182753Y-94523760D01*
X118149500Y-94733713D01*
X118149500Y-94946286D01*
X118182753Y-95156239D01*
X118248444Y-95358414D01*
X118344951Y-95547820D01*
X118469890Y-95719786D01*
X118620213Y-95870109D01*
X118792182Y-95995050D01*
X118800946Y-95999516D01*
X118851742Y-96047491D01*
X118868536Y-96115312D01*
X118845998Y-96181447D01*
X118800946Y-96220484D01*
X118792182Y-96224949D01*
X118620213Y-96349890D01*
X118469890Y-96500213D01*
X118344951Y-96672179D01*
X118248444Y-96861585D01*
X118182753Y-97063760D01*
X118149500Y-97273713D01*
X118149500Y-97486287D01*
X118182754Y-97696243D01*
X118188637Y-97714350D01*
X118248444Y-97898414D01*
X118344951Y-98087820D01*
X118469890Y-98259786D01*
X118620213Y-98410109D01*
X118792182Y-98535050D01*
X118800946Y-98539516D01*
X118851742Y-98587491D01*
X118868536Y-98655312D01*
X118845998Y-98721447D01*
X118800946Y-98760484D01*
X118792182Y-98764949D01*
X118620213Y-98889890D01*
X118469890Y-99040213D01*
X118344951Y-99212179D01*
X118248444Y-99401585D01*
X118182753Y-99603760D01*
X118149500Y-99813713D01*
X118149500Y-100026286D01*
X118182753Y-100236239D01*
X118248444Y-100438414D01*
X118344951Y-100627820D01*
X118469890Y-100799786D01*
X118620213Y-100950109D01*
X118792182Y-101075050D01*
X118800946Y-101079516D01*
X118851742Y-101127491D01*
X118868536Y-101195312D01*
X118845998Y-101261447D01*
X118800946Y-101300484D01*
X118792182Y-101304949D01*
X118620213Y-101429890D01*
X118469890Y-101580213D01*
X118344951Y-101752179D01*
X118248444Y-101941585D01*
X118182753Y-102143760D01*
X118149500Y-102353713D01*
X118149500Y-102566286D01*
X118173452Y-102717517D01*
X118182754Y-102776243D01*
X118246805Y-102973372D01*
X118248444Y-102978414D01*
X118344951Y-103167820D01*
X118469890Y-103339786D01*
X118620213Y-103490109D01*
X118792182Y-103615050D01*
X118800946Y-103619516D01*
X118851742Y-103667491D01*
X118868536Y-103735312D01*
X118845998Y-103801447D01*
X118800946Y-103840484D01*
X118792182Y-103844949D01*
X118620213Y-103969890D01*
X118469890Y-104120213D01*
X118344951Y-104292179D01*
X118248444Y-104481585D01*
X118182753Y-104683760D01*
X118149500Y-104893713D01*
X118149500Y-105106286D01*
X118182753Y-105316239D01*
X118248444Y-105518414D01*
X118344951Y-105707820D01*
X118469890Y-105879786D01*
X118620213Y-106030109D01*
X118792179Y-106155048D01*
X118792181Y-106155049D01*
X118792184Y-106155051D01*
X118981588Y-106251557D01*
X119183757Y-106317246D01*
X119393713Y-106350500D01*
X119393714Y-106350500D01*
X119606286Y-106350500D01*
X119606287Y-106350500D01*
X119816243Y-106317246D01*
X120018412Y-106251557D01*
X120207816Y-106155051D01*
X120229789Y-106139086D01*
X120379786Y-106030109D01*
X120379788Y-106030106D01*
X120379792Y-106030104D01*
X120530104Y-105879792D01*
X120645187Y-105721392D01*
X120700515Y-105678728D01*
X120770128Y-105672749D01*
X120831924Y-105705354D01*
X120866281Y-105766192D01*
X120869504Y-105794528D01*
X120837274Y-121812906D01*
X120837132Y-121883614D01*
X120837000Y-121884108D01*
X120837000Y-121949281D01*
X120836918Y-121990000D01*
X120836854Y-122021665D01*
X120837000Y-122023913D01*
X120837000Y-122068097D01*
X120873946Y-122301368D01*
X120946933Y-122525996D01*
X121011233Y-122652190D01*
X121054157Y-122736433D01*
X121139475Y-122853864D01*
X121162955Y-122919668D01*
X121158932Y-122958839D01*
X121137000Y-123040691D01*
X121137000Y-123159309D01*
X121167701Y-123273886D01*
X121227011Y-123376613D01*
X121227013Y-123376615D01*
X121263681Y-123413283D01*
X121278384Y-123440210D01*
X121294977Y-123466029D01*
X121295868Y-123472229D01*
X121297166Y-123474606D01*
X121300000Y-123500964D01*
X121300000Y-123549036D01*
X121280315Y-123616075D01*
X121263681Y-123636717D01*
X121227013Y-123673384D01*
X121227011Y-123673387D01*
X121167701Y-123776114D01*
X121137000Y-123890691D01*
X121137000Y-124009309D01*
X121167701Y-124123886D01*
X121227011Y-124226613D01*
X121227013Y-124226615D01*
X121263681Y-124263283D01*
X121278384Y-124290210D01*
X121294977Y-124316029D01*
X121295868Y-124322229D01*
X121297166Y-124324606D01*
X121300000Y-124350964D01*
X121300000Y-124399036D01*
X121280315Y-124466075D01*
X121263681Y-124486717D01*
X121227013Y-124523384D01*
X121227011Y-124523387D01*
X121167701Y-124626114D01*
X121137000Y-124740691D01*
X121137000Y-124740693D01*
X121137000Y-124859308D01*
X121158931Y-124941158D01*
X121157268Y-125011008D01*
X121139474Y-125046136D01*
X121054159Y-125163562D01*
X120946933Y-125374003D01*
X120873946Y-125598631D01*
X120837000Y-125831902D01*
X120837000Y-125831908D01*
X120837000Y-125884423D01*
X120836918Y-125884731D01*
X120837000Y-125950658D01*
X120837000Y-126023133D01*
X120837091Y-126024519D01*
X120838736Y-127346951D01*
X120848646Y-135314097D01*
X120848723Y-135375346D01*
X120829122Y-135442410D01*
X120776375Y-135488230D01*
X120724723Y-135499500D01*
X107133814Y-135499500D01*
X107066775Y-135479815D01*
X107021020Y-135427011D01*
X107011076Y-135357853D01*
X107040101Y-135294297D01*
X107046133Y-135287819D01*
X107194097Y-135139855D01*
X107338936Y-134940501D01*
X107450806Y-134720943D01*
X107526952Y-134486589D01*
X107565500Y-134243208D01*
X107565500Y-133996792D01*
X107526952Y-133753411D01*
X107526951Y-133753407D01*
X107526951Y-133753406D01*
X107450807Y-133519059D01*
X107338935Y-133299498D01*
X107194097Y-133100145D01*
X107019855Y-132925903D01*
X106820501Y-132781064D01*
X106600940Y-132669192D01*
X106366592Y-132593048D01*
X106184053Y-132564137D01*
X106123208Y-132554500D01*
X105876792Y-132554500D01*
X105795665Y-132567349D01*
X105633409Y-132593048D01*
X105633406Y-132593048D01*
X105399059Y-132669192D01*
X105179498Y-132781064D01*
X104980142Y-132925905D01*
X104805905Y-133100142D01*
X104661064Y-133299498D01*
X104549192Y-133519059D01*
X104473048Y-133753406D01*
X104473048Y-133753409D01*
X104434500Y-133996792D01*
X104434500Y-134243207D01*
X104473048Y-134486590D01*
X104473048Y-134486593D01*
X104549192Y-134720940D01*
X104549194Y-134720943D01*
X104661064Y-134940501D01*
X104805903Y-135139855D01*
X104805905Y-135139857D01*
X104953867Y-135287819D01*
X104987352Y-135349142D01*
X104982368Y-135418834D01*
X104940496Y-135474767D01*
X104875032Y-135499184D01*
X104866186Y-135499500D01*
X101624500Y-135499500D01*
X101557461Y-135479815D01*
X101511706Y-135427011D01*
X101500500Y-135375500D01*
X101500500Y-125881902D01*
X101473482Y-125711318D01*
X101468878Y-125682254D01*
X101463553Y-125648632D01*
X101390568Y-125424008D01*
X101390566Y-125424005D01*
X101390566Y-125424003D01*
X101351666Y-125347659D01*
X101283343Y-125213567D01*
X101247012Y-125163562D01*
X101198025Y-125096136D01*
X101174545Y-125030330D01*
X101178567Y-124991161D01*
X101200500Y-124909309D01*
X101200500Y-124790691D01*
X101169799Y-124676114D01*
X101110489Y-124573387D01*
X101049782Y-124512680D01*
X101016298Y-124451356D01*
X101021283Y-124381665D01*
X101049779Y-124337322D01*
X101110489Y-124276613D01*
X101169799Y-124173886D01*
X101200500Y-124059309D01*
X101200500Y-123940691D01*
X101169799Y-123826114D01*
X101110489Y-123723387D01*
X101049782Y-123662680D01*
X101016298Y-123601356D01*
X101021283Y-123531665D01*
X101049779Y-123487322D01*
X101110489Y-123426613D01*
X101169799Y-123323886D01*
X101200500Y-123209309D01*
X101200500Y-123090691D01*
X101178568Y-123008840D01*
X101180231Y-122938992D01*
X101198025Y-122903862D01*
X101283343Y-122786433D01*
X101390568Y-122575992D01*
X101463553Y-122351368D01*
X101471472Y-122301368D01*
X101500500Y-122118097D01*
X101500500Y-120267155D01*
X103055000Y-120267155D01*
X103055000Y-120980000D01*
X103963294Y-120980000D01*
X103933442Y-121052069D01*
X103910000Y-121169920D01*
X103910000Y-121290080D01*
X103933442Y-121407931D01*
X103963294Y-121480000D01*
X103055000Y-121480000D01*
X103055000Y-122192844D01*
X103061401Y-122252372D01*
X103061403Y-122252379D01*
X103111645Y-122387086D01*
X103111649Y-122387093D01*
X103197809Y-122502187D01*
X103197812Y-122502190D01*
X103312906Y-122588350D01*
X103312913Y-122588354D01*
X103447620Y-122638596D01*
X103447627Y-122638598D01*
X103507155Y-122644999D01*
X103507172Y-122645000D01*
X104270000Y-122645000D01*
X104270000Y-121786706D01*
X104342069Y-121816558D01*
X104459920Y-121840000D01*
X104580080Y-121840000D01*
X104697931Y-121816558D01*
X104770000Y-121786706D01*
X104770000Y-122645000D01*
X105532828Y-122645000D01*
X105532844Y-122644999D01*
X105592372Y-122638598D01*
X105592379Y-122638596D01*
X105727086Y-122588354D01*
X105727089Y-122588352D01*
X105836688Y-122506306D01*
X105902152Y-122481888D01*
X105970425Y-122496739D01*
X106019831Y-122546144D01*
X106035000Y-122605572D01*
X106035000Y-122720000D01*
X106943294Y-122720000D01*
X106913442Y-122792069D01*
X106890000Y-122909920D01*
X106890000Y-123030080D01*
X106913442Y-123147931D01*
X106943294Y-123220000D01*
X106035000Y-123220000D01*
X106035000Y-123932844D01*
X106041401Y-123992372D01*
X106041402Y-123992376D01*
X106076757Y-124087166D01*
X106081741Y-124156858D01*
X106048256Y-124218181D01*
X105986933Y-124251666D01*
X105960575Y-124254500D01*
X105876792Y-124254500D01*
X105821339Y-124263283D01*
X105633409Y-124293048D01*
X105633406Y-124293048D01*
X105399059Y-124369192D01*
X105179498Y-124481064D01*
X104980142Y-124625905D01*
X104805905Y-124800142D01*
X104661064Y-124999498D01*
X104549192Y-125219059D01*
X104473048Y-125453406D01*
X104473048Y-125453409D01*
X104450337Y-125596800D01*
X104434500Y-125696792D01*
X104434500Y-125943208D01*
X104453774Y-126064898D01*
X104473048Y-126186590D01*
X104473048Y-126186593D01*
X104549192Y-126420940D01*
X104549194Y-126420943D01*
X104661064Y-126640501D01*
X104805903Y-126839855D01*
X104980145Y-127014097D01*
X105179499Y-127158936D01*
X105399057Y-127270806D01*
X105399059Y-127270807D01*
X105633407Y-127346951D01*
X105633408Y-127346951D01*
X105633411Y-127346952D01*
X105876792Y-127385500D01*
X105876793Y-127385500D01*
X106123207Y-127385500D01*
X106123208Y-127385500D01*
X106366589Y-127346952D01*
X106366592Y-127346951D01*
X106366593Y-127346951D01*
X106600940Y-127270807D01*
X106600940Y-127270806D01*
X106600943Y-127270806D01*
X106820501Y-127158936D01*
X107019855Y-127014097D01*
X107194097Y-126839855D01*
X107338936Y-126640501D01*
X107450806Y-126420943D01*
X107526952Y-126186589D01*
X107565500Y-125943208D01*
X107565500Y-125696792D01*
X107526952Y-125453411D01*
X107526951Y-125453407D01*
X107526951Y-125453406D01*
X107450807Y-125219059D01*
X107448007Y-125213563D01*
X107338936Y-124999499D01*
X107194097Y-124800145D01*
X107019855Y-124625903D01*
X106997026Y-124609316D01*
X106954362Y-124553988D01*
X106948383Y-124484374D01*
X106980989Y-124422579D01*
X107041828Y-124388222D01*
X107069913Y-124385000D01*
X107250000Y-124385000D01*
X107250000Y-123526706D01*
X107322069Y-123556558D01*
X107439920Y-123580000D01*
X107560080Y-123580000D01*
X107677931Y-123556558D01*
X107750000Y-123526706D01*
X107750000Y-124385000D01*
X108512828Y-124385000D01*
X108512844Y-124384999D01*
X108572372Y-124378598D01*
X108572379Y-124378596D01*
X108707086Y-124328354D01*
X108707093Y-124328350D01*
X108822187Y-124242190D01*
X108822190Y-124242187D01*
X108908350Y-124127093D01*
X108908354Y-124127086D01*
X108958596Y-123992379D01*
X108958598Y-123992372D01*
X108964999Y-123932844D01*
X108965000Y-123932827D01*
X108965000Y-123220000D01*
X108056706Y-123220000D01*
X108086558Y-123147931D01*
X108110000Y-123030080D01*
X108110000Y-122909920D01*
X108086558Y-122792069D01*
X108056706Y-122720000D01*
X108965000Y-122720000D01*
X108965000Y-122007172D01*
X108964999Y-122007155D01*
X108958598Y-121947627D01*
X108958596Y-121947620D01*
X108908354Y-121812913D01*
X108908350Y-121812906D01*
X108822191Y-121697813D01*
X108795597Y-121677905D01*
X108795596Y-121677904D01*
X108707089Y-121611647D01*
X108707086Y-121611645D01*
X108572379Y-121561403D01*
X108572372Y-121561401D01*
X108512844Y-121555000D01*
X107750000Y-121555000D01*
X107750000Y-122413293D01*
X107677931Y-122383442D01*
X107560080Y-122360000D01*
X107439920Y-122360000D01*
X107322069Y-122383442D01*
X107250000Y-122413293D01*
X107250000Y-121555000D01*
X106487155Y-121555000D01*
X106427627Y-121561401D01*
X106427620Y-121561403D01*
X106292913Y-121611645D01*
X106292911Y-121611646D01*
X106183311Y-121693694D01*
X106117847Y-121718111D01*
X106049574Y-121703260D01*
X106000168Y-121653855D01*
X105985000Y-121594427D01*
X105985000Y-121480000D01*
X105076706Y-121480000D01*
X105106558Y-121407931D01*
X105130000Y-121290080D01*
X105130000Y-121169920D01*
X105106558Y-121052069D01*
X105076706Y-120980000D01*
X105985000Y-120980000D01*
X105985000Y-120417155D01*
X114215000Y-120417155D01*
X114215000Y-121130000D01*
X115123294Y-121130000D01*
X115093442Y-121202069D01*
X115070000Y-121319920D01*
X115070000Y-121440080D01*
X115093442Y-121557931D01*
X115123294Y-121630000D01*
X114215000Y-121630000D01*
X114215000Y-122342844D01*
X114221401Y-122402372D01*
X114221403Y-122402379D01*
X114271645Y-122537086D01*
X114271649Y-122537093D01*
X114357809Y-122652187D01*
X114357812Y-122652190D01*
X114472906Y-122738350D01*
X114472913Y-122738354D01*
X114607620Y-122788596D01*
X114607627Y-122788598D01*
X114667155Y-122794999D01*
X114667172Y-122795000D01*
X115430000Y-122795000D01*
X115430000Y-121936706D01*
X115502069Y-121966558D01*
X115619920Y-121990000D01*
X115740080Y-121990000D01*
X115857931Y-121966558D01*
X115930000Y-121936706D01*
X115930000Y-122795000D01*
X116692828Y-122795000D01*
X116692844Y-122794999D01*
X116752372Y-122788598D01*
X116752379Y-122788596D01*
X116887086Y-122738354D01*
X116887093Y-122738350D01*
X117002187Y-122652190D01*
X117002190Y-122652187D01*
X117088350Y-122537093D01*
X117088354Y-122537086D01*
X117138596Y-122402379D01*
X117138598Y-122402372D01*
X117144999Y-122342844D01*
X117145000Y-122342827D01*
X117145000Y-121630000D01*
X116236706Y-121630000D01*
X116266558Y-121557931D01*
X116290000Y-121440080D01*
X116290000Y-121319920D01*
X116266558Y-121202069D01*
X116236706Y-121130000D01*
X117145000Y-121130000D01*
X117145000Y-120417172D01*
X117144999Y-120417155D01*
X117138598Y-120357627D01*
X117138596Y-120357620D01*
X117088354Y-120222913D01*
X117088350Y-120222906D01*
X117002190Y-120107812D01*
X117002187Y-120107809D01*
X116887093Y-120021649D01*
X116887087Y-120021646D01*
X116809920Y-119992864D01*
X116753987Y-119950992D01*
X116729570Y-119885528D01*
X116744422Y-119817255D01*
X116793828Y-119767850D01*
X116814937Y-119758751D01*
X116900938Y-119730808D01*
X116900940Y-119730806D01*
X116900943Y-119730806D01*
X117120501Y-119618936D01*
X117319855Y-119474097D01*
X117494097Y-119299855D01*
X117638936Y-119100501D01*
X117750806Y-118880943D01*
X117750807Y-118880940D01*
X117826951Y-118646593D01*
X117826951Y-118646592D01*
X117826952Y-118646589D01*
X117865500Y-118403208D01*
X117865500Y-118156792D01*
X117826952Y-117913411D01*
X117826951Y-117913407D01*
X117826951Y-117913406D01*
X117750807Y-117679059D01*
X117638935Y-117459498D01*
X117494097Y-117260145D01*
X117319855Y-117085903D01*
X117120501Y-116941064D01*
X116900940Y-116829192D01*
X116666592Y-116753048D01*
X116484053Y-116724137D01*
X116423208Y-116714500D01*
X116176792Y-116714500D01*
X116095665Y-116727349D01*
X115933409Y-116753048D01*
X115933406Y-116753048D01*
X115699059Y-116829192D01*
X115479498Y-116941064D01*
X115280142Y-117085905D01*
X115105905Y-117260142D01*
X114961064Y-117459498D01*
X114849192Y-117679059D01*
X114773048Y-117913406D01*
X114773048Y-117913409D01*
X114734500Y-118156792D01*
X114734500Y-118403207D01*
X114773048Y-118646590D01*
X114773048Y-118646593D01*
X114849192Y-118880940D01*
X114849194Y-118880943D01*
X114961064Y-119100501D01*
X115105903Y-119299855D01*
X115280145Y-119474097D01*
X115479499Y-119618936D01*
X115699057Y-119730806D01*
X115699059Y-119730806D01*
X115699062Y-119730808D01*
X115699060Y-119730808D01*
X115857678Y-119782345D01*
X115915354Y-119821782D01*
X115942553Y-119886140D01*
X115930639Y-119954987D01*
X115930000Y-119955879D01*
X115930000Y-120823293D01*
X115857931Y-120793442D01*
X115740080Y-120770000D01*
X115619920Y-120770000D01*
X115502069Y-120793442D01*
X115430000Y-120823293D01*
X115430000Y-119965000D01*
X114667155Y-119965000D01*
X114607627Y-119971401D01*
X114607620Y-119971403D01*
X114472913Y-120021645D01*
X114472906Y-120021649D01*
X114357812Y-120107809D01*
X114357809Y-120107812D01*
X114271649Y-120222906D01*
X114271645Y-120222913D01*
X114221403Y-120357620D01*
X114221401Y-120357627D01*
X114215000Y-120417155D01*
X105985000Y-120417155D01*
X105985000Y-120267172D01*
X105984999Y-120267155D01*
X105978598Y-120207627D01*
X105978596Y-120207620D01*
X105928354Y-120072913D01*
X105928353Y-120072911D01*
X105921540Y-120063810D01*
X105897124Y-119998345D01*
X105911976Y-119930072D01*
X105961382Y-119880667D01*
X106020808Y-119865500D01*
X106123207Y-119865500D01*
X106123208Y-119865500D01*
X106366589Y-119826952D01*
X106366592Y-119826951D01*
X106366593Y-119826951D01*
X106600940Y-119750807D01*
X106600940Y-119750806D01*
X106600943Y-119750806D01*
X106820501Y-119638936D01*
X107019855Y-119494097D01*
X107194097Y-119319855D01*
X107338936Y-119120501D01*
X107450806Y-118900943D01*
X107526952Y-118666589D01*
X107565500Y-118423208D01*
X107565500Y-118176792D01*
X107526952Y-117933411D01*
X107526951Y-117933407D01*
X107526951Y-117933406D01*
X107450807Y-117699059D01*
X107450806Y-117699057D01*
X107338936Y-117479499D01*
X107194097Y-117280145D01*
X107019855Y-117105903D01*
X106820501Y-116961064D01*
X106781249Y-116941064D01*
X106600940Y-116849192D01*
X106366592Y-116773048D01*
X106184053Y-116744137D01*
X106123208Y-116734500D01*
X105876792Y-116734500D01*
X105795665Y-116747349D01*
X105633409Y-116773048D01*
X105633406Y-116773048D01*
X105399059Y-116849192D01*
X105179498Y-116961064D01*
X104980142Y-117105905D01*
X104805905Y-117280142D01*
X104661064Y-117479498D01*
X104549192Y-117699059D01*
X104473048Y-117933406D01*
X104473048Y-117933409D01*
X104434500Y-118176792D01*
X104434500Y-118423207D01*
X104473048Y-118666590D01*
X104473048Y-118666593D01*
X104549192Y-118900940D01*
X104661064Y-119120501D01*
X104805903Y-119319855D01*
X104980145Y-119494097D01*
X105113083Y-119590682D01*
X105155748Y-119646012D01*
X105161727Y-119715626D01*
X105129121Y-119777421D01*
X105068282Y-119811778D01*
X105040197Y-119815000D01*
X104770000Y-119815000D01*
X104770000Y-120673293D01*
X104697931Y-120643442D01*
X104580080Y-120620000D01*
X104459920Y-120620000D01*
X104342069Y-120643442D01*
X104270000Y-120673293D01*
X104270000Y-119815000D01*
X103507155Y-119815000D01*
X103447627Y-119821401D01*
X103447620Y-119821403D01*
X103312913Y-119871645D01*
X103312906Y-119871649D01*
X103197812Y-119957809D01*
X103197809Y-119957812D01*
X103111649Y-120072906D01*
X103111645Y-120072913D01*
X103061403Y-120207620D01*
X103061401Y-120207627D01*
X103055000Y-120267155D01*
X101500500Y-120267155D01*
X101500500Y-109876792D01*
X104434500Y-109876792D01*
X104434500Y-110123207D01*
X104473048Y-110366590D01*
X104473048Y-110366593D01*
X104549192Y-110600940D01*
X104661064Y-110820501D01*
X104805903Y-111019855D01*
X104980145Y-111194097D01*
X105179499Y-111338936D01*
X105359805Y-111430806D01*
X105399059Y-111450807D01*
X105633407Y-111526951D01*
X105633408Y-111526951D01*
X105633411Y-111526952D01*
X105876792Y-111565500D01*
X105876793Y-111565500D01*
X106123207Y-111565500D01*
X106123208Y-111565500D01*
X106366589Y-111526952D01*
X106366592Y-111526951D01*
X106366593Y-111526951D01*
X106600940Y-111450807D01*
X106600940Y-111450806D01*
X106600943Y-111450806D01*
X106820501Y-111338936D01*
X107019855Y-111194097D01*
X107194097Y-111019855D01*
X107338936Y-110820501D01*
X107450806Y-110600943D01*
X107526952Y-110366589D01*
X107565500Y-110123208D01*
X107565500Y-109876792D01*
X107562332Y-109856792D01*
X114734500Y-109856792D01*
X114734500Y-110103207D01*
X114773048Y-110346590D01*
X114773048Y-110346593D01*
X114849192Y-110580940D01*
X114849194Y-110580943D01*
X114961064Y-110800501D01*
X115105903Y-110999855D01*
X115280145Y-111174097D01*
X115479499Y-111318936D01*
X115699057Y-111430806D01*
X115699059Y-111430807D01*
X115933407Y-111506951D01*
X115933408Y-111506951D01*
X115933411Y-111506952D01*
X116176792Y-111545500D01*
X116176793Y-111545500D01*
X116423207Y-111545500D01*
X116423208Y-111545500D01*
X116666589Y-111506952D01*
X116666592Y-111506951D01*
X116666593Y-111506951D01*
X116900940Y-111430807D01*
X116900940Y-111430806D01*
X116900943Y-111430806D01*
X117120501Y-111318936D01*
X117319855Y-111174097D01*
X117494097Y-110999855D01*
X117638936Y-110800501D01*
X117750806Y-110580943D01*
X117750807Y-110580940D01*
X117826951Y-110346593D01*
X117826951Y-110346592D01*
X117826952Y-110346589D01*
X117865500Y-110103208D01*
X117865500Y-109856792D01*
X117826952Y-109613411D01*
X117826951Y-109613407D01*
X117826951Y-109613406D01*
X117750807Y-109379059D01*
X117638935Y-109159498D01*
X117494097Y-108960145D01*
X117319855Y-108785903D01*
X117120501Y-108641064D01*
X116900940Y-108529192D01*
X116666592Y-108453048D01*
X116484053Y-108424137D01*
X116423208Y-108414500D01*
X116176792Y-108414500D01*
X116095665Y-108427349D01*
X115933409Y-108453048D01*
X115933406Y-108453048D01*
X115699059Y-108529192D01*
X115479498Y-108641064D01*
X115280142Y-108785905D01*
X115105905Y-108960142D01*
X114961064Y-109159498D01*
X114849192Y-109379059D01*
X114773048Y-109613406D01*
X114773048Y-109613409D01*
X114734500Y-109856792D01*
X107562332Y-109856792D01*
X107526952Y-109633411D01*
X107526951Y-109633407D01*
X107526951Y-109633406D01*
X107450807Y-109399059D01*
X107450806Y-109399057D01*
X107338936Y-109179499D01*
X107194097Y-108980145D01*
X107019855Y-108805903D01*
X106820501Y-108661064D01*
X106781249Y-108641064D01*
X106600940Y-108549192D01*
X106366592Y-108473048D01*
X106184053Y-108444137D01*
X106123208Y-108434500D01*
X105876792Y-108434500D01*
X105795665Y-108447349D01*
X105633409Y-108473048D01*
X105633406Y-108473048D01*
X105399059Y-108549192D01*
X105179498Y-108661064D01*
X104980142Y-108805905D01*
X104805905Y-108980142D01*
X104661064Y-109179498D01*
X104549192Y-109399059D01*
X104473048Y-109633406D01*
X104473048Y-109633409D01*
X104434500Y-109876792D01*
X101500500Y-109876792D01*
X101500500Y-102777135D01*
X107249500Y-102777135D01*
X107249500Y-104672870D01*
X107249501Y-104672876D01*
X107255908Y-104732483D01*
X107306202Y-104867328D01*
X107306206Y-104867335D01*
X107392452Y-104982544D01*
X107392455Y-104982547D01*
X107507664Y-105068793D01*
X107507671Y-105068797D01*
X107642517Y-105119091D01*
X107642516Y-105119091D01*
X107649444Y-105119835D01*
X107702127Y-105125500D01*
X109597872Y-105125499D01*
X109657483Y-105119091D01*
X109792331Y-105068796D01*
X109907546Y-104982546D01*
X109993796Y-104867331D01*
X110012735Y-104816554D01*
X110054606Y-104760620D01*
X110120070Y-104736202D01*
X110188343Y-104751053D01*
X110216598Y-104772205D01*
X110237636Y-104793243D01*
X110237641Y-104793247D01*
X110269721Y-104816554D01*
X110415978Y-104922815D01*
X110544375Y-104988237D01*
X110612393Y-105022895D01*
X110612396Y-105022896D01*
X110717221Y-105056955D01*
X110822049Y-105091015D01*
X111039778Y-105125500D01*
X111039779Y-105125500D01*
X111260221Y-105125500D01*
X111260222Y-105125500D01*
X111477951Y-105091015D01*
X111687606Y-105022895D01*
X111884022Y-104922815D01*
X112062365Y-104793242D01*
X112218242Y-104637365D01*
X112299682Y-104525270D01*
X112355011Y-104482606D01*
X112424624Y-104476627D01*
X112486420Y-104509232D01*
X112500313Y-104525265D01*
X112581753Y-104637358D01*
X112581758Y-104637365D01*
X112737636Y-104793243D01*
X112737641Y-104793247D01*
X112769721Y-104816554D01*
X112915978Y-104922815D01*
X113044375Y-104988237D01*
X113112393Y-105022895D01*
X113112396Y-105022896D01*
X113217221Y-105056955D01*
X113322049Y-105091015D01*
X113539778Y-105125500D01*
X113539779Y-105125500D01*
X113760221Y-105125500D01*
X113760222Y-105125500D01*
X113977951Y-105091015D01*
X114187606Y-105022895D01*
X114384022Y-104922815D01*
X114562365Y-104793242D01*
X114718242Y-104637365D01*
X114847815Y-104459022D01*
X114947895Y-104262606D01*
X115016015Y-104052951D01*
X115050500Y-103835222D01*
X115050500Y-103614778D01*
X115016015Y-103397049D01*
X114947895Y-103187394D01*
X114947895Y-103187393D01*
X114913237Y-103119375D01*
X114847815Y-102990978D01*
X114749501Y-102855659D01*
X114718247Y-102812641D01*
X114718243Y-102812636D01*
X114562363Y-102656756D01*
X114562358Y-102656752D01*
X114384025Y-102527187D01*
X114384024Y-102527186D01*
X114384022Y-102527185D01*
X114266791Y-102467452D01*
X114187606Y-102427104D01*
X114187603Y-102427103D01*
X113977952Y-102358985D01*
X113869086Y-102341742D01*
X113760222Y-102324500D01*
X113539778Y-102324500D01*
X113467201Y-102335995D01*
X113322047Y-102358985D01*
X113112396Y-102427103D01*
X113112393Y-102427104D01*
X112915974Y-102527187D01*
X112737641Y-102656752D01*
X112737636Y-102656756D01*
X112581756Y-102812636D01*
X112581752Y-102812641D01*
X112500318Y-102924727D01*
X112444989Y-102967393D01*
X112375375Y-102973372D01*
X112313580Y-102940767D01*
X112299682Y-102924727D01*
X112218247Y-102812641D01*
X112218243Y-102812636D01*
X112062363Y-102656756D01*
X112062358Y-102656752D01*
X111884025Y-102527187D01*
X111884024Y-102527186D01*
X111884022Y-102527185D01*
X111766791Y-102467452D01*
X111687606Y-102427104D01*
X111687603Y-102427103D01*
X111477952Y-102358985D01*
X111369086Y-102341742D01*
X111260222Y-102324500D01*
X111039778Y-102324500D01*
X110967201Y-102335995D01*
X110822047Y-102358985D01*
X110612396Y-102427103D01*
X110612393Y-102427104D01*
X110415974Y-102527187D01*
X110237641Y-102656752D01*
X110237635Y-102656757D01*
X110216596Y-102677796D01*
X110155273Y-102711280D01*
X110085581Y-102706294D01*
X110029648Y-102664421D01*
X110012735Y-102633446D01*
X109993797Y-102582671D01*
X109993793Y-102582664D01*
X109907547Y-102467455D01*
X109907544Y-102467452D01*
X109792335Y-102381206D01*
X109792328Y-102381202D01*
X109657482Y-102330908D01*
X109657483Y-102330908D01*
X109597883Y-102324501D01*
X109597881Y-102324500D01*
X109597873Y-102324500D01*
X109597864Y-102324500D01*
X107702129Y-102324500D01*
X107702123Y-102324501D01*
X107642516Y-102330908D01*
X107507671Y-102381202D01*
X107507664Y-102381206D01*
X107392455Y-102467452D01*
X107392452Y-102467455D01*
X107306206Y-102582664D01*
X107306202Y-102582671D01*
X107255908Y-102717517D01*
X107249501Y-102777116D01*
X107249500Y-102777135D01*
X101500500Y-102777135D01*
X101500500Y-95843048D01*
X104489500Y-95843048D01*
X104489500Y-96606951D01*
X104506429Y-96735533D01*
X104521334Y-96848744D01*
X104521335Y-96848746D01*
X104584456Y-97084320D01*
X104584459Y-97084330D01*
X104677786Y-97309640D01*
X104677791Y-97309651D01*
X104799727Y-97520848D01*
X104799738Y-97520864D01*
X104948199Y-97714343D01*
X104948205Y-97714350D01*
X105120649Y-97886794D01*
X105120655Y-97886799D01*
X105314144Y-98035268D01*
X105314151Y-98035272D01*
X105525348Y-98157208D01*
X105525353Y-98157210D01*
X105525356Y-98157212D01*
X105750679Y-98250544D01*
X105986256Y-98313666D01*
X106228056Y-98345500D01*
X106228063Y-98345500D01*
X106471937Y-98345500D01*
X106471944Y-98345500D01*
X106713744Y-98313666D01*
X106949321Y-98250544D01*
X107174644Y-98157212D01*
X107385856Y-98035268D01*
X107579345Y-97886799D01*
X107751799Y-97714345D01*
X107900268Y-97520856D01*
X108022212Y-97309644D01*
X108115544Y-97084321D01*
X108178666Y-96848744D01*
X108210500Y-96606944D01*
X108210500Y-95843056D01*
X108210499Y-95843048D01*
X114089500Y-95843048D01*
X114089500Y-96606951D01*
X114106429Y-96735533D01*
X114121334Y-96848744D01*
X114121335Y-96848746D01*
X114184456Y-97084320D01*
X114184459Y-97084330D01*
X114277786Y-97309640D01*
X114277791Y-97309651D01*
X114399727Y-97520848D01*
X114399738Y-97520864D01*
X114548199Y-97714343D01*
X114548205Y-97714350D01*
X114720649Y-97886794D01*
X114720655Y-97886799D01*
X114914144Y-98035268D01*
X114914151Y-98035272D01*
X115125348Y-98157208D01*
X115125353Y-98157210D01*
X115125356Y-98157212D01*
X115350679Y-98250544D01*
X115586256Y-98313666D01*
X115828056Y-98345500D01*
X115828063Y-98345500D01*
X116071937Y-98345500D01*
X116071944Y-98345500D01*
X116313744Y-98313666D01*
X116549321Y-98250544D01*
X116774644Y-98157212D01*
X116985856Y-98035268D01*
X117179345Y-97886799D01*
X117351799Y-97714345D01*
X117500268Y-97520856D01*
X117622212Y-97309644D01*
X117715544Y-97084321D01*
X117778666Y-96848744D01*
X117810500Y-96606944D01*
X117810500Y-95843056D01*
X117778666Y-95601256D01*
X117715544Y-95365679D01*
X117622212Y-95140356D01*
X117622210Y-95140353D01*
X117622208Y-95140348D01*
X117500272Y-94929151D01*
X117500268Y-94929144D01*
X117351799Y-94735655D01*
X117351794Y-94735649D01*
X117179350Y-94563205D01*
X117179343Y-94563199D01*
X116985864Y-94414738D01*
X116985862Y-94414736D01*
X116985856Y-94414732D01*
X116985851Y-94414729D01*
X116985848Y-94414727D01*
X116774651Y-94292791D01*
X116774640Y-94292786D01*
X116549330Y-94199459D01*
X116549323Y-94199457D01*
X116549321Y-94199456D01*
X116313744Y-94136334D01*
X116273333Y-94131013D01*
X116071951Y-94104500D01*
X116071944Y-94104500D01*
X115828056Y-94104500D01*
X115828048Y-94104500D01*
X115597896Y-94134801D01*
X115586256Y-94136334D01*
X115364622Y-94195720D01*
X115350679Y-94199456D01*
X115350669Y-94199459D01*
X115125359Y-94292786D01*
X115125348Y-94292791D01*
X114914151Y-94414727D01*
X114914135Y-94414738D01*
X114720656Y-94563199D01*
X114720649Y-94563205D01*
X114548205Y-94735649D01*
X114548199Y-94735656D01*
X114399738Y-94929135D01*
X114399727Y-94929151D01*
X114277791Y-95140348D01*
X114277786Y-95140359D01*
X114184459Y-95365669D01*
X114184456Y-95365679D01*
X114135652Y-95547822D01*
X114121335Y-95601253D01*
X114121333Y-95601264D01*
X114089500Y-95843048D01*
X108210499Y-95843048D01*
X108178666Y-95601256D01*
X108115544Y-95365679D01*
X108022212Y-95140356D01*
X108022210Y-95140353D01*
X108022208Y-95140348D01*
X107900272Y-94929151D01*
X107900268Y-94929144D01*
X107751799Y-94735655D01*
X107751794Y-94735649D01*
X107579350Y-94563205D01*
X107579343Y-94563199D01*
X107385864Y-94414738D01*
X107385862Y-94414736D01*
X107385856Y-94414732D01*
X107385851Y-94414729D01*
X107385848Y-94414727D01*
X107174651Y-94292791D01*
X107174640Y-94292786D01*
X106949330Y-94199459D01*
X106949323Y-94199457D01*
X106949321Y-94199456D01*
X106713744Y-94136334D01*
X106673333Y-94131013D01*
X106471951Y-94104500D01*
X106471944Y-94104500D01*
X106228056Y-94104500D01*
X106228048Y-94104500D01*
X105997896Y-94134801D01*
X105986256Y-94136334D01*
X105764622Y-94195720D01*
X105750679Y-94199456D01*
X105750669Y-94199459D01*
X105525359Y-94292786D01*
X105525348Y-94292791D01*
X105314151Y-94414727D01*
X105314135Y-94414738D01*
X105120656Y-94563199D01*
X105120649Y-94563205D01*
X104948205Y-94735649D01*
X104948199Y-94735656D01*
X104799738Y-94929135D01*
X104799727Y-94929151D01*
X104677791Y-95140348D01*
X104677786Y-95140359D01*
X104584459Y-95365669D01*
X104584456Y-95365679D01*
X104535652Y-95547822D01*
X104521335Y-95601253D01*
X104521333Y-95601264D01*
X104489500Y-95843048D01*
X101500500Y-95843048D01*
X101500500Y-83657135D01*
X107249500Y-83657135D01*
X107249500Y-85552870D01*
X107249501Y-85552876D01*
X107255908Y-85612483D01*
X107306202Y-85747328D01*
X107306206Y-85747335D01*
X107392452Y-85862544D01*
X107392455Y-85862547D01*
X107507664Y-85948793D01*
X107507671Y-85948797D01*
X107642517Y-85999091D01*
X107642516Y-85999091D01*
X107649444Y-85999835D01*
X107702127Y-86005500D01*
X109597872Y-86005499D01*
X109657483Y-85999091D01*
X109792331Y-85948796D01*
X109907546Y-85862546D01*
X109993796Y-85747331D01*
X110012735Y-85696554D01*
X110054606Y-85640620D01*
X110120070Y-85616202D01*
X110188343Y-85631053D01*
X110216598Y-85652205D01*
X110237636Y-85673243D01*
X110237641Y-85673247D01*
X110269721Y-85696554D01*
X110415978Y-85802815D01*
X110544375Y-85868237D01*
X110612393Y-85902895D01*
X110612396Y-85902896D01*
X110717221Y-85936955D01*
X110822049Y-85971015D01*
X111039778Y-86005500D01*
X111039779Y-86005500D01*
X111260221Y-86005500D01*
X111260222Y-86005500D01*
X111477951Y-85971015D01*
X111687606Y-85902895D01*
X111884022Y-85802815D01*
X112062365Y-85673242D01*
X112218242Y-85517365D01*
X112299682Y-85405270D01*
X112355011Y-85362606D01*
X112424624Y-85356627D01*
X112486420Y-85389232D01*
X112500313Y-85405265D01*
X112581753Y-85517358D01*
X112581758Y-85517365D01*
X112737636Y-85673243D01*
X112737641Y-85673247D01*
X112769721Y-85696554D01*
X112915978Y-85802815D01*
X113044375Y-85868237D01*
X113112393Y-85902895D01*
X113112396Y-85902896D01*
X113217221Y-85936955D01*
X113322049Y-85971015D01*
X113539778Y-86005500D01*
X113539779Y-86005500D01*
X113760221Y-86005500D01*
X113760222Y-86005500D01*
X113977951Y-85971015D01*
X114187606Y-85902895D01*
X114384022Y-85802815D01*
X114562365Y-85673242D01*
X114718242Y-85517365D01*
X114847815Y-85339022D01*
X114947895Y-85142606D01*
X115016015Y-84932951D01*
X115050500Y-84715222D01*
X115050500Y-84494778D01*
X115016015Y-84277049D01*
X114947895Y-84067394D01*
X114947895Y-84067393D01*
X114913237Y-83999375D01*
X114847815Y-83870978D01*
X114749501Y-83735659D01*
X114718247Y-83692641D01*
X114718243Y-83692636D01*
X114562363Y-83536756D01*
X114562358Y-83536752D01*
X114384025Y-83407187D01*
X114384024Y-83407186D01*
X114384022Y-83407185D01*
X114266791Y-83347452D01*
X114187606Y-83307104D01*
X114187603Y-83307103D01*
X113977952Y-83238985D01*
X113869086Y-83221742D01*
X113760222Y-83204500D01*
X113539778Y-83204500D01*
X113467201Y-83215995D01*
X113322047Y-83238985D01*
X113112396Y-83307103D01*
X113112393Y-83307104D01*
X112915974Y-83407187D01*
X112737641Y-83536752D01*
X112737636Y-83536756D01*
X112581756Y-83692636D01*
X112581752Y-83692641D01*
X112500318Y-83804727D01*
X112444989Y-83847393D01*
X112375375Y-83853372D01*
X112313580Y-83820767D01*
X112299682Y-83804727D01*
X112218247Y-83692641D01*
X112218243Y-83692636D01*
X112062363Y-83536756D01*
X112062358Y-83536752D01*
X111884025Y-83407187D01*
X111884024Y-83407186D01*
X111884022Y-83407185D01*
X111766791Y-83347452D01*
X111687606Y-83307104D01*
X111687603Y-83307103D01*
X111477952Y-83238985D01*
X111369086Y-83221742D01*
X111260222Y-83204500D01*
X111039778Y-83204500D01*
X110967201Y-83215995D01*
X110822047Y-83238985D01*
X110612396Y-83307103D01*
X110612393Y-83307104D01*
X110415974Y-83407187D01*
X110237641Y-83536752D01*
X110237635Y-83536757D01*
X110216596Y-83557796D01*
X110155273Y-83591280D01*
X110085581Y-83586294D01*
X110029648Y-83544421D01*
X110012735Y-83513446D01*
X109993797Y-83462671D01*
X109993793Y-83462664D01*
X109907547Y-83347455D01*
X109907544Y-83347452D01*
X109792335Y-83261206D01*
X109792328Y-83261202D01*
X109657482Y-83210908D01*
X109657483Y-83210908D01*
X109597883Y-83204501D01*
X109597881Y-83204500D01*
X109597873Y-83204500D01*
X109597864Y-83204500D01*
X107702129Y-83204500D01*
X107702123Y-83204501D01*
X107642516Y-83210908D01*
X107507671Y-83261202D01*
X107507664Y-83261206D01*
X107392455Y-83347452D01*
X107392452Y-83347455D01*
X107306206Y-83462664D01*
X107306202Y-83462671D01*
X107255908Y-83597517D01*
X107249501Y-83657116D01*
X107249500Y-83657135D01*
X101500500Y-83657135D01*
X101500500Y-76723048D01*
X104489500Y-76723048D01*
X104489500Y-77486951D01*
X104516013Y-77688333D01*
X104521334Y-77728744D01*
X104521335Y-77728746D01*
X104584456Y-77964320D01*
X104584459Y-77964330D01*
X104677786Y-78189640D01*
X104677791Y-78189651D01*
X104799727Y-78400848D01*
X104799738Y-78400864D01*
X104948199Y-78594343D01*
X104948205Y-78594350D01*
X105120649Y-78766794D01*
X105120655Y-78766799D01*
X105314144Y-78915268D01*
X105314151Y-78915272D01*
X105525348Y-79037208D01*
X105525353Y-79037210D01*
X105525356Y-79037212D01*
X105750679Y-79130544D01*
X105986256Y-79193666D01*
X106228056Y-79225500D01*
X106228063Y-79225500D01*
X106471937Y-79225500D01*
X106471944Y-79225500D01*
X106713744Y-79193666D01*
X106949321Y-79130544D01*
X107174644Y-79037212D01*
X107385856Y-78915268D01*
X107579345Y-78766799D01*
X107751799Y-78594345D01*
X107900268Y-78400856D01*
X108022212Y-78189644D01*
X108115544Y-77964321D01*
X108178666Y-77728744D01*
X108210500Y-77486944D01*
X108210500Y-76723056D01*
X108210499Y-76723048D01*
X114089500Y-76723048D01*
X114089500Y-77486951D01*
X114116013Y-77688333D01*
X114121334Y-77728744D01*
X114121335Y-77728746D01*
X114184456Y-77964320D01*
X114184459Y-77964330D01*
X114277786Y-78189640D01*
X114277791Y-78189651D01*
X114399727Y-78400848D01*
X114399738Y-78400864D01*
X114548199Y-78594343D01*
X114548205Y-78594350D01*
X114720649Y-78766794D01*
X114720655Y-78766799D01*
X114914144Y-78915268D01*
X114914151Y-78915272D01*
X115125348Y-79037208D01*
X115125353Y-79037210D01*
X115125356Y-79037212D01*
X115350679Y-79130544D01*
X115586256Y-79193666D01*
X115828056Y-79225500D01*
X115828063Y-79225500D01*
X116071937Y-79225500D01*
X116071944Y-79225500D01*
X116313744Y-79193666D01*
X116549321Y-79130544D01*
X116774644Y-79037212D01*
X116985856Y-78915268D01*
X117179345Y-78766799D01*
X117351799Y-78594345D01*
X117500268Y-78400856D01*
X117622212Y-78189644D01*
X117715544Y-77964321D01*
X117778666Y-77728744D01*
X117810500Y-77486944D01*
X117810500Y-76723056D01*
X117778666Y-76481256D01*
X117715544Y-76245679D01*
X117622212Y-76020356D01*
X117622210Y-76020353D01*
X117622208Y-76020348D01*
X117500272Y-75809151D01*
X117500268Y-75809144D01*
X117351799Y-75615655D01*
X117351794Y-75615649D01*
X117179350Y-75443205D01*
X117179343Y-75443199D01*
X116985864Y-75294738D01*
X116985862Y-75294736D01*
X116985856Y-75294732D01*
X116985851Y-75294729D01*
X116985848Y-75294727D01*
X116774651Y-75172791D01*
X116774640Y-75172786D01*
X116549330Y-75079459D01*
X116549323Y-75079457D01*
X116549321Y-75079456D01*
X116313744Y-75016334D01*
X116273333Y-75011013D01*
X116071951Y-74984500D01*
X116071944Y-74984500D01*
X115828056Y-74984500D01*
X115828048Y-74984500D01*
X115597896Y-75014801D01*
X115586256Y-75016334D01*
X115350679Y-75079456D01*
X115350669Y-75079459D01*
X115125359Y-75172786D01*
X115125348Y-75172791D01*
X114914151Y-75294727D01*
X114914135Y-75294738D01*
X114720656Y-75443199D01*
X114720649Y-75443205D01*
X114548205Y-75615649D01*
X114548199Y-75615656D01*
X114399738Y-75809135D01*
X114399727Y-75809151D01*
X114277791Y-76020348D01*
X114277786Y-76020359D01*
X114184459Y-76245669D01*
X114184456Y-76245679D01*
X114121335Y-76481253D01*
X114121333Y-76481264D01*
X114089500Y-76723048D01*
X108210499Y-76723048D01*
X108178666Y-76481256D01*
X108115544Y-76245679D01*
X108022212Y-76020356D01*
X108022210Y-76020353D01*
X108022208Y-76020348D01*
X107900272Y-75809151D01*
X107900268Y-75809144D01*
X107751799Y-75615655D01*
X107751794Y-75615649D01*
X107579350Y-75443205D01*
X107579343Y-75443199D01*
X107385864Y-75294738D01*
X107385862Y-75294736D01*
X107385856Y-75294732D01*
X107385851Y-75294729D01*
X107385848Y-75294727D01*
X107174651Y-75172791D01*
X107174640Y-75172786D01*
X106949330Y-75079459D01*
X106949323Y-75079457D01*
X106949321Y-75079456D01*
X106713744Y-75016334D01*
X106673333Y-75011013D01*
X106471951Y-74984500D01*
X106471944Y-74984500D01*
X106228056Y-74984500D01*
X106228048Y-74984500D01*
X105997896Y-75014801D01*
X105986256Y-75016334D01*
X105750679Y-75079456D01*
X105750669Y-75079459D01*
X105525359Y-75172786D01*
X105525348Y-75172791D01*
X105314151Y-75294727D01*
X105314135Y-75294738D01*
X105120656Y-75443199D01*
X105120649Y-75443205D01*
X104948205Y-75615649D01*
X104948199Y-75615656D01*
X104799738Y-75809135D01*
X104799727Y-75809151D01*
X104677791Y-76020348D01*
X104677786Y-76020359D01*
X104584459Y-76245669D01*
X104584456Y-76245679D01*
X104521335Y-76481253D01*
X104521333Y-76481264D01*
X104489500Y-76723048D01*
X101500500Y-76723048D01*
X101500500Y-72278226D01*
X101520185Y-72211187D01*
X101572989Y-72165432D01*
X101642147Y-72155488D01*
X101705703Y-72184513D01*
X101742431Y-72239908D01*
X101748444Y-72258414D01*
X101844951Y-72447820D01*
X101969890Y-72619786D01*
X102120213Y-72770109D01*
X102292179Y-72895048D01*
X102292181Y-72895049D01*
X102292184Y-72895051D01*
X102481588Y-72991557D01*
X102683757Y-73057246D01*
X102893713Y-73090500D01*
X102893714Y-73090500D01*
X103106286Y-73090500D01*
X103106287Y-73090500D01*
X103316243Y-73057246D01*
X103518412Y-72991557D01*
X103707816Y-72895051D01*
X103729789Y-72879086D01*
X103879786Y-72770109D01*
X103879788Y-72770106D01*
X103879792Y-72770104D01*
X104030104Y-72619792D01*
X104030106Y-72619788D01*
X104030109Y-72619786D01*
X104155048Y-72447820D01*
X104155047Y-72447820D01*
X104155051Y-72447816D01*
X104251557Y-72258412D01*
X104317246Y-72056243D01*
X104350500Y-71846287D01*
X104350500Y-71633713D01*
X104317246Y-71423757D01*
X104251557Y-71221588D01*
X104155051Y-71032184D01*
X104155049Y-71032181D01*
X104155048Y-71032179D01*
X104030109Y-70860213D01*
X103879786Y-70709890D01*
X103707820Y-70584951D01*
X103707115Y-70584591D01*
X103699054Y-70580485D01*
X103648259Y-70532512D01*
X103631463Y-70464692D01*
X103653999Y-70398556D01*
X103699054Y-70359515D01*
X103707816Y-70355051D01*
X103729789Y-70339086D01*
X103879786Y-70230109D01*
X103879788Y-70230106D01*
X103879792Y-70230104D01*
X104030104Y-70079792D01*
X104030106Y-70079788D01*
X104030109Y-70079786D01*
X104155048Y-69907820D01*
X104155047Y-69907820D01*
X104155051Y-69907816D01*
X104251557Y-69718412D01*
X104317246Y-69516243D01*
X104350500Y-69306287D01*
X104350500Y-69093713D01*
X104317246Y-68883757D01*
X104251557Y-68681588D01*
X104155051Y-68492184D01*
X104155049Y-68492181D01*
X104155048Y-68492179D01*
X104030109Y-68320213D01*
X103879786Y-68169890D01*
X103707820Y-68044951D01*
X103707115Y-68044591D01*
X103699054Y-68040485D01*
X103648259Y-67992512D01*
X103631463Y-67924692D01*
X103653999Y-67858556D01*
X103699054Y-67819515D01*
X103707816Y-67815051D01*
X103729789Y-67799086D01*
X103879786Y-67690109D01*
X103879788Y-67690106D01*
X103879792Y-67690104D01*
X104030104Y-67539792D01*
X104030106Y-67539788D01*
X104030109Y-67539786D01*
X104155048Y-67367820D01*
X104155047Y-67367820D01*
X104155051Y-67367816D01*
X104251557Y-67178412D01*
X104317246Y-66976243D01*
X104350500Y-66766287D01*
X104350500Y-66553713D01*
X104317246Y-66343757D01*
X104251557Y-66141588D01*
X104155051Y-65952184D01*
X104155049Y-65952181D01*
X104155048Y-65952179D01*
X104030109Y-65780213D01*
X103879786Y-65629890D01*
X103707817Y-65504949D01*
X103698504Y-65500204D01*
X103647707Y-65452230D01*
X103630912Y-65384409D01*
X103653449Y-65318274D01*
X103698507Y-65279232D01*
X103707555Y-65274622D01*
X103761716Y-65235270D01*
X103761717Y-65235270D01*
X103129408Y-64602962D01*
X103192993Y-64585925D01*
X103307007Y-64520099D01*
X103400099Y-64427007D01*
X103465925Y-64312993D01*
X103482962Y-64249409D01*
X104115270Y-64881717D01*
X104115270Y-64881716D01*
X104154622Y-64827554D01*
X104251095Y-64638217D01*
X104283932Y-64537155D01*
X107250000Y-64537155D01*
X107250000Y-65235000D01*
X108216988Y-65235000D01*
X108184075Y-65292007D01*
X108150000Y-65419174D01*
X108150000Y-65550826D01*
X108184075Y-65677993D01*
X108216988Y-65735000D01*
X107250000Y-65735000D01*
X107250000Y-66432844D01*
X107256401Y-66492372D01*
X107256403Y-66492379D01*
X107306645Y-66627086D01*
X107306649Y-66627093D01*
X107392809Y-66742187D01*
X107392812Y-66742190D01*
X107507906Y-66828350D01*
X107507913Y-66828354D01*
X107642620Y-66878596D01*
X107642627Y-66878598D01*
X107702155Y-66884999D01*
X107702172Y-66885000D01*
X108400000Y-66885000D01*
X108400000Y-65918012D01*
X108457007Y-65950925D01*
X108584174Y-65985000D01*
X108715826Y-65985000D01*
X108842993Y-65950925D01*
X108900000Y-65918012D01*
X108900000Y-66885000D01*
X109597828Y-66885000D01*
X109597844Y-66884999D01*
X109657372Y-66878598D01*
X109657379Y-66878596D01*
X109792086Y-66828354D01*
X109792093Y-66828350D01*
X109907187Y-66742190D01*
X109907190Y-66742187D01*
X109993350Y-66627093D01*
X109993353Y-66627088D01*
X110012345Y-66576166D01*
X110054215Y-66520232D01*
X110119679Y-66495813D01*
X110187952Y-66510663D01*
X110216209Y-66531816D01*
X110237636Y-66553243D01*
X110237641Y-66553247D01*
X110393192Y-66666260D01*
X110415978Y-66682815D01*
X110532501Y-66742187D01*
X110612393Y-66782895D01*
X110612396Y-66782896D01*
X110717221Y-66816955D01*
X110822049Y-66851015D01*
X111039778Y-66885500D01*
X111039779Y-66885500D01*
X111260221Y-66885500D01*
X111260222Y-66885500D01*
X111477951Y-66851015D01*
X111687606Y-66782895D01*
X111884022Y-66682815D01*
X112062365Y-66553242D01*
X112218242Y-66397365D01*
X112299682Y-66285270D01*
X112355011Y-66242606D01*
X112424624Y-66236627D01*
X112486420Y-66269232D01*
X112500313Y-66285265D01*
X112542810Y-66343757D01*
X112581758Y-66397365D01*
X112737636Y-66553243D01*
X112737641Y-66553247D01*
X112893192Y-66666260D01*
X112915978Y-66682815D01*
X113032501Y-66742187D01*
X113112393Y-66782895D01*
X113112396Y-66782896D01*
X113217221Y-66816955D01*
X113322049Y-66851015D01*
X113539778Y-66885500D01*
X113539779Y-66885500D01*
X113760221Y-66885500D01*
X113760222Y-66885500D01*
X113977951Y-66851015D01*
X114187606Y-66782895D01*
X114384022Y-66682815D01*
X114562365Y-66553242D01*
X114718242Y-66397365D01*
X114847815Y-66219022D01*
X114947895Y-66022606D01*
X115016015Y-65812951D01*
X115050500Y-65595222D01*
X115050500Y-65374778D01*
X115016015Y-65157049D01*
X114947895Y-64947394D01*
X114947895Y-64947393D01*
X114913237Y-64879375D01*
X114847815Y-64750978D01*
X114765890Y-64638217D01*
X114718247Y-64572641D01*
X114718243Y-64572636D01*
X114562363Y-64416756D01*
X114562358Y-64416752D01*
X114384025Y-64287187D01*
X114384024Y-64287186D01*
X114384022Y-64287185D01*
X114321096Y-64255122D01*
X114187606Y-64187104D01*
X114187603Y-64187103D01*
X113977952Y-64118985D01*
X113869086Y-64101742D01*
X113760222Y-64084500D01*
X113539778Y-64084500D01*
X113467201Y-64095995D01*
X113322047Y-64118985D01*
X113112396Y-64187103D01*
X113112393Y-64187104D01*
X112915974Y-64287187D01*
X112737641Y-64416752D01*
X112737636Y-64416756D01*
X112581756Y-64572636D01*
X112581752Y-64572641D01*
X112500318Y-64684727D01*
X112444989Y-64727393D01*
X112375375Y-64733372D01*
X112313580Y-64700767D01*
X112299682Y-64684727D01*
X112218247Y-64572641D01*
X112218243Y-64572636D01*
X112062363Y-64416756D01*
X112062358Y-64416752D01*
X111884025Y-64287187D01*
X111884024Y-64287186D01*
X111884022Y-64287185D01*
X111821096Y-64255122D01*
X111687606Y-64187104D01*
X111687603Y-64187103D01*
X111477952Y-64118985D01*
X111369086Y-64101742D01*
X111260222Y-64084500D01*
X111039778Y-64084500D01*
X110967201Y-64095995D01*
X110822047Y-64118985D01*
X110612396Y-64187103D01*
X110612393Y-64187104D01*
X110415974Y-64287187D01*
X110237641Y-64416752D01*
X110237635Y-64416757D01*
X110216207Y-64438185D01*
X110154884Y-64471669D01*
X110085192Y-64466683D01*
X110029259Y-64424810D01*
X110012346Y-64393834D01*
X109993355Y-64342915D01*
X109993350Y-64342906D01*
X109907190Y-64227812D01*
X109907187Y-64227809D01*
X109792093Y-64141649D01*
X109792086Y-64141645D01*
X109657379Y-64091403D01*
X109657372Y-64091401D01*
X109597844Y-64085000D01*
X108900000Y-64085000D01*
X108900000Y-65051988D01*
X108842993Y-65019075D01*
X108715826Y-64985000D01*
X108584174Y-64985000D01*
X108457007Y-65019075D01*
X108400000Y-65051988D01*
X108400000Y-64085000D01*
X107702155Y-64085000D01*
X107642627Y-64091401D01*
X107642620Y-64091403D01*
X107507913Y-64141645D01*
X107507906Y-64141649D01*
X107392812Y-64227809D01*
X107392809Y-64227812D01*
X107306649Y-64342906D01*
X107306645Y-64342913D01*
X107256403Y-64477620D01*
X107256401Y-64477627D01*
X107250000Y-64537155D01*
X104283932Y-64537155D01*
X104297456Y-64495533D01*
X104316757Y-64436130D01*
X104316757Y-64436127D01*
X104350000Y-64226246D01*
X104350000Y-64013753D01*
X104316757Y-63803872D01*
X104316757Y-63803869D01*
X104251095Y-63601782D01*
X104154624Y-63412449D01*
X104115270Y-63358282D01*
X104115269Y-63358282D01*
X103482962Y-63990590D01*
X103465925Y-63927007D01*
X103400099Y-63812993D01*
X103307007Y-63719901D01*
X103192993Y-63654075D01*
X103129409Y-63637037D01*
X103761716Y-63004728D01*
X103707550Y-62965375D01*
X103697954Y-62960486D01*
X103647157Y-62912512D01*
X103630361Y-62844692D01*
X103652897Y-62778556D01*
X103697954Y-62739514D01*
X103707554Y-62734622D01*
X103761716Y-62695270D01*
X103761717Y-62695270D01*
X103129408Y-62062962D01*
X103192993Y-62045925D01*
X103307007Y-61980099D01*
X103400099Y-61887007D01*
X103465925Y-61772993D01*
X103482962Y-61709409D01*
X104115270Y-62341717D01*
X104115270Y-62341716D01*
X104154622Y-62287554D01*
X104251095Y-62098217D01*
X104316757Y-61896130D01*
X104316757Y-61896127D01*
X104350000Y-61686246D01*
X104350000Y-61473753D01*
X104316757Y-61263872D01*
X104316757Y-61263869D01*
X104251095Y-61061782D01*
X104154624Y-60872449D01*
X104115270Y-60818282D01*
X104115269Y-60818282D01*
X103482962Y-61450590D01*
X103465925Y-61387007D01*
X103400099Y-61272993D01*
X103307007Y-61179901D01*
X103192993Y-61114075D01*
X103129409Y-61097037D01*
X103761716Y-60464728D01*
X103707547Y-60425373D01*
X103707547Y-60425372D01*
X103698500Y-60420763D01*
X103647706Y-60372788D01*
X103630912Y-60304966D01*
X103653451Y-60238832D01*
X103698508Y-60199793D01*
X103707816Y-60195051D01*
X103787007Y-60137515D01*
X103879786Y-60070109D01*
X103879788Y-60070106D01*
X103879792Y-60070104D01*
X104030104Y-59919792D01*
X104030106Y-59919788D01*
X104030109Y-59919786D01*
X104155048Y-59747820D01*
X104155047Y-59747820D01*
X104155051Y-59747816D01*
X104251557Y-59558412D01*
X104317246Y-59356243D01*
X104350500Y-59146287D01*
X104350500Y-58933713D01*
X104346625Y-58909247D01*
X104355580Y-58839954D01*
X104400576Y-58786502D01*
X104467327Y-58765863D01*
X104534641Y-58784588D01*
X104581145Y-58836733D01*
X104583659Y-58842397D01*
X104677786Y-59069640D01*
X104677791Y-59069651D01*
X104799727Y-59280848D01*
X104799738Y-59280864D01*
X104948199Y-59474343D01*
X104948205Y-59474350D01*
X105120649Y-59646794D01*
X105120655Y-59646799D01*
X105314144Y-59795268D01*
X105314151Y-59795272D01*
X105525348Y-59917208D01*
X105525353Y-59917210D01*
X105525356Y-59917212D01*
X105750679Y-60010544D01*
X105986256Y-60073666D01*
X106228056Y-60105500D01*
X106228063Y-60105500D01*
X106471937Y-60105500D01*
X106471944Y-60105500D01*
X106713744Y-60073666D01*
X106949321Y-60010544D01*
X107174644Y-59917212D01*
X107385856Y-59795268D01*
X107579345Y-59646799D01*
X107751799Y-59474345D01*
X107900268Y-59280856D01*
X108022212Y-59069644D01*
X108115544Y-58844321D01*
X108178666Y-58608744D01*
X108210500Y-58366944D01*
X108210500Y-57603056D01*
X108210499Y-57603048D01*
X114089500Y-57603048D01*
X114089500Y-58366951D01*
X114112296Y-58540093D01*
X114121334Y-58608744D01*
X114184456Y-58844320D01*
X114184459Y-58844330D01*
X114277786Y-59069640D01*
X114277791Y-59069651D01*
X114399727Y-59280848D01*
X114399738Y-59280864D01*
X114548199Y-59474343D01*
X114548205Y-59474350D01*
X114720649Y-59646794D01*
X114720655Y-59646799D01*
X114914144Y-59795268D01*
X114914151Y-59795272D01*
X115125348Y-59917208D01*
X115125353Y-59917210D01*
X115125356Y-59917212D01*
X115350679Y-60010544D01*
X115586256Y-60073666D01*
X115828056Y-60105500D01*
X115828063Y-60105500D01*
X116071937Y-60105500D01*
X116071944Y-60105500D01*
X116313744Y-60073666D01*
X116549321Y-60010544D01*
X116774644Y-59917212D01*
X116985856Y-59795268D01*
X117179345Y-59646799D01*
X117351799Y-59474345D01*
X117500268Y-59280856D01*
X117622212Y-59069644D01*
X117715544Y-58844321D01*
X117778666Y-58608744D01*
X117810500Y-58366944D01*
X117810500Y-57603056D01*
X117778666Y-57361256D01*
X117715544Y-57125679D01*
X117622212Y-56900356D01*
X117622210Y-56900353D01*
X117622208Y-56900348D01*
X117500272Y-56689151D01*
X117500268Y-56689144D01*
X117351799Y-56495655D01*
X117351794Y-56495649D01*
X117179350Y-56323205D01*
X117179343Y-56323199D01*
X116985864Y-56174738D01*
X116985862Y-56174736D01*
X116985856Y-56174732D01*
X116985851Y-56174729D01*
X116985848Y-56174727D01*
X116774651Y-56052791D01*
X116774640Y-56052786D01*
X116549330Y-55959459D01*
X116549323Y-55959457D01*
X116549321Y-55959456D01*
X116313744Y-55896334D01*
X116273333Y-55891013D01*
X116071951Y-55864500D01*
X116071944Y-55864500D01*
X115828056Y-55864500D01*
X115828048Y-55864500D01*
X115597896Y-55894801D01*
X115586256Y-55896334D01*
X115350679Y-55959456D01*
X115350669Y-55959459D01*
X115125359Y-56052786D01*
X115125348Y-56052791D01*
X114914151Y-56174727D01*
X114914135Y-56174738D01*
X114720656Y-56323199D01*
X114720649Y-56323205D01*
X114548205Y-56495649D01*
X114548199Y-56495656D01*
X114399738Y-56689135D01*
X114399727Y-56689151D01*
X114277791Y-56900348D01*
X114277786Y-56900359D01*
X114184459Y-57125669D01*
X114184456Y-57125679D01*
X114121335Y-57361253D01*
X114121333Y-57361264D01*
X114089500Y-57603048D01*
X108210499Y-57603048D01*
X108178666Y-57361256D01*
X108115544Y-57125679D01*
X108022212Y-56900356D01*
X108022210Y-56900353D01*
X108022208Y-56900348D01*
X107900272Y-56689151D01*
X107900268Y-56689144D01*
X107751799Y-56495655D01*
X107751794Y-56495649D01*
X107579350Y-56323205D01*
X107579343Y-56323199D01*
X107385864Y-56174738D01*
X107385862Y-56174736D01*
X107385856Y-56174732D01*
X107385851Y-56174729D01*
X107385848Y-56174727D01*
X107174651Y-56052791D01*
X107174640Y-56052786D01*
X106949330Y-55959459D01*
X106949323Y-55959457D01*
X106949321Y-55959456D01*
X106713744Y-55896334D01*
X106673333Y-55891013D01*
X106471951Y-55864500D01*
X106471944Y-55864500D01*
X106228056Y-55864500D01*
X106228048Y-55864500D01*
X105997896Y-55894801D01*
X105986256Y-55896334D01*
X105750679Y-55959456D01*
X105750669Y-55959459D01*
X105525359Y-56052786D01*
X105525348Y-56052791D01*
X105314151Y-56174727D01*
X105314135Y-56174738D01*
X105120656Y-56323199D01*
X105120649Y-56323205D01*
X104948205Y-56495649D01*
X104948199Y-56495656D01*
X104799738Y-56689135D01*
X104799727Y-56689151D01*
X104677791Y-56900348D01*
X104677785Y-56900360D01*
X104589060Y-57114561D01*
X104545219Y-57168964D01*
X104478924Y-57191029D01*
X104411225Y-57173749D01*
X104363615Y-57122612D01*
X104350499Y-57067111D01*
X104350499Y-55602128D01*
X104344091Y-55542517D01*
X104302521Y-55431063D01*
X104293797Y-55407671D01*
X104293793Y-55407664D01*
X104207547Y-55292455D01*
X104207544Y-55292452D01*
X104092335Y-55206206D01*
X104092328Y-55206202D01*
X103957482Y-55155908D01*
X103957483Y-55155908D01*
X103897883Y-55149501D01*
X103897881Y-55149500D01*
X103897873Y-55149500D01*
X103897864Y-55149500D01*
X102102129Y-55149500D01*
X102102123Y-55149501D01*
X102042516Y-55155908D01*
X101907671Y-55206202D01*
X101907664Y-55206206D01*
X101792455Y-55292452D01*
X101792452Y-55292455D01*
X101723766Y-55384208D01*
X101667832Y-55426079D01*
X101598141Y-55431063D01*
X101536818Y-55397577D01*
X101503334Y-55336254D01*
X101500500Y-55309897D01*
X101500500Y-52121153D01*
X113599500Y-52121153D01*
X113599500Y-52278846D01*
X113630261Y-52433489D01*
X113630264Y-52433501D01*
X113690602Y-52579172D01*
X113690609Y-52579185D01*
X113778210Y-52710288D01*
X113778213Y-52710292D01*
X113889707Y-52821786D01*
X113889711Y-52821789D01*
X114020814Y-52909390D01*
X114020827Y-52909397D01*
X114166498Y-52969735D01*
X114166503Y-52969737D01*
X114231147Y-52982595D01*
X114321849Y-53000638D01*
X114383760Y-53033023D01*
X114385339Y-53034574D01*
X115365425Y-54014660D01*
X115398910Y-54075983D01*
X115399361Y-54078149D01*
X115430261Y-54233491D01*
X115430264Y-54233501D01*
X115490602Y-54379172D01*
X115490609Y-54379185D01*
X115578210Y-54510288D01*
X115578213Y-54510292D01*
X115689707Y-54621786D01*
X115689711Y-54621789D01*
X115820814Y-54709390D01*
X115820827Y-54709397D01*
X115966498Y-54769735D01*
X115966503Y-54769737D01*
X116121153Y-54800499D01*
X116121156Y-54800500D01*
X116121158Y-54800500D01*
X116278844Y-54800500D01*
X116278845Y-54800499D01*
X116433497Y-54769737D01*
X116579179Y-54709394D01*
X116710289Y-54621789D01*
X116821789Y-54510289D01*
X116909394Y-54379179D01*
X116969737Y-54233497D01*
X117000500Y-54078842D01*
X117000500Y-53921158D01*
X117000500Y-53921155D01*
X117000499Y-53921153D01*
X116969738Y-53766510D01*
X116969737Y-53766503D01*
X116969735Y-53766498D01*
X116909397Y-53620827D01*
X116909390Y-53620814D01*
X116821789Y-53489711D01*
X116821786Y-53489707D01*
X116710292Y-53378213D01*
X116710288Y-53378210D01*
X116579185Y-53290609D01*
X116579172Y-53290602D01*
X116433501Y-53230264D01*
X116433491Y-53230261D01*
X116278149Y-53199361D01*
X116216238Y-53166976D01*
X116214660Y-53165425D01*
X115234574Y-52185339D01*
X115201089Y-52124016D01*
X115200638Y-52121849D01*
X115169738Y-51966510D01*
X115169737Y-51966503D01*
X115169735Y-51966498D01*
X115109397Y-51820827D01*
X115109390Y-51820814D01*
X115021789Y-51689711D01*
X115021786Y-51689707D01*
X114910292Y-51578213D01*
X114910288Y-51578210D01*
X114779185Y-51490609D01*
X114779172Y-51490602D01*
X114633501Y-51430264D01*
X114633489Y-51430261D01*
X114478845Y-51399500D01*
X114478842Y-51399500D01*
X114321158Y-51399500D01*
X114321155Y-51399500D01*
X114166510Y-51430261D01*
X114166498Y-51430264D01*
X114020827Y-51490602D01*
X114020814Y-51490609D01*
X113889711Y-51578210D01*
X113889707Y-51578213D01*
X113778213Y-51689707D01*
X113778210Y-51689711D01*
X113690609Y-51820814D01*
X113690602Y-51820827D01*
X113630264Y-51966498D01*
X113630261Y-51966510D01*
X113599500Y-52121153D01*
X101500500Y-52121153D01*
X101500500Y-47231902D01*
X101463553Y-46998631D01*
X101390566Y-46774003D01*
X101349267Y-46692951D01*
X101283343Y-46563567D01*
X101247507Y-46514243D01*
X101198025Y-46446136D01*
X101174545Y-46380330D01*
X101178567Y-46341161D01*
X101200500Y-46259309D01*
X101200500Y-46140691D01*
X101169799Y-46026114D01*
X101110489Y-45923387D01*
X101049782Y-45862680D01*
X101016298Y-45801356D01*
X101021283Y-45731665D01*
X101049779Y-45687322D01*
X101110489Y-45626613D01*
X101169799Y-45523886D01*
X101198403Y-45417135D01*
X107249500Y-45417135D01*
X107249500Y-47312870D01*
X107249501Y-47312876D01*
X107255908Y-47372483D01*
X107306202Y-47507328D01*
X107306206Y-47507335D01*
X107392452Y-47622544D01*
X107392455Y-47622547D01*
X107507664Y-47708793D01*
X107507671Y-47708797D01*
X107642517Y-47759091D01*
X107642516Y-47759091D01*
X107649444Y-47759835D01*
X107702127Y-47765500D01*
X109597872Y-47765499D01*
X109657483Y-47759091D01*
X109792331Y-47708796D01*
X109907546Y-47622546D01*
X109993796Y-47507331D01*
X110012735Y-47456554D01*
X110054606Y-47400620D01*
X110120070Y-47376202D01*
X110188343Y-47391053D01*
X110216598Y-47412205D01*
X110237636Y-47433243D01*
X110237641Y-47433247D01*
X110339603Y-47507326D01*
X110415978Y-47562815D01*
X110544375Y-47628237D01*
X110612393Y-47662895D01*
X110612396Y-47662896D01*
X110717221Y-47696955D01*
X110822049Y-47731015D01*
X111039778Y-47765500D01*
X111039779Y-47765500D01*
X111260221Y-47765500D01*
X111260222Y-47765500D01*
X111477951Y-47731015D01*
X111687606Y-47662895D01*
X111884022Y-47562815D01*
X112062365Y-47433242D01*
X112218242Y-47277365D01*
X112299682Y-47165270D01*
X112355011Y-47122606D01*
X112424624Y-47116627D01*
X112486420Y-47149232D01*
X112500313Y-47165265D01*
X112576930Y-47270720D01*
X112581758Y-47277365D01*
X112737636Y-47433243D01*
X112737641Y-47433247D01*
X112839603Y-47507326D01*
X112915978Y-47562815D01*
X113044375Y-47628237D01*
X113112393Y-47662895D01*
X113112396Y-47662896D01*
X113217221Y-47696955D01*
X113322049Y-47731015D01*
X113539778Y-47765500D01*
X113539779Y-47765500D01*
X113760221Y-47765500D01*
X113760222Y-47765500D01*
X113977951Y-47731015D01*
X114187606Y-47662895D01*
X114384022Y-47562815D01*
X114562365Y-47433242D01*
X114718242Y-47277365D01*
X114847815Y-47099022D01*
X114947895Y-46902606D01*
X115016015Y-46692951D01*
X115050500Y-46475222D01*
X115050500Y-46254778D01*
X115016015Y-46037049D01*
X114947895Y-45827394D01*
X114947895Y-45827393D01*
X114913237Y-45759375D01*
X114847815Y-45630978D01*
X114811335Y-45580767D01*
X114718247Y-45452641D01*
X114718243Y-45452636D01*
X114562363Y-45296756D01*
X114562358Y-45296752D01*
X114384025Y-45167187D01*
X114384024Y-45167186D01*
X114384022Y-45167185D01*
X114321096Y-45135122D01*
X114187606Y-45067104D01*
X114187603Y-45067103D01*
X113977952Y-44998985D01*
X113826516Y-44975000D01*
X113760222Y-44964500D01*
X113539778Y-44964500D01*
X113473484Y-44975000D01*
X113322047Y-44998985D01*
X113112396Y-45067103D01*
X113112393Y-45067104D01*
X112915974Y-45167187D01*
X112737641Y-45296752D01*
X112737636Y-45296756D01*
X112581756Y-45452636D01*
X112581752Y-45452641D01*
X112500318Y-45564727D01*
X112444989Y-45607393D01*
X112375375Y-45613372D01*
X112313580Y-45580767D01*
X112299682Y-45564727D01*
X112218247Y-45452641D01*
X112218243Y-45452636D01*
X112062363Y-45296756D01*
X112062358Y-45296752D01*
X111884025Y-45167187D01*
X111884024Y-45167186D01*
X111884022Y-45167185D01*
X111821096Y-45135122D01*
X111687606Y-45067104D01*
X111687603Y-45067103D01*
X111477952Y-44998985D01*
X111326516Y-44975000D01*
X111260222Y-44964500D01*
X111039778Y-44964500D01*
X110973484Y-44975000D01*
X110822047Y-44998985D01*
X110612396Y-45067103D01*
X110612393Y-45067104D01*
X110415974Y-45167187D01*
X110237641Y-45296752D01*
X110237635Y-45296757D01*
X110216596Y-45317796D01*
X110155273Y-45351280D01*
X110085581Y-45346294D01*
X110029648Y-45304421D01*
X110012735Y-45273446D01*
X109993797Y-45222671D01*
X109993793Y-45222664D01*
X109907547Y-45107455D01*
X109907544Y-45107452D01*
X109792335Y-45021206D01*
X109792328Y-45021202D01*
X109657482Y-44970908D01*
X109657483Y-44970908D01*
X109597883Y-44964501D01*
X109597881Y-44964500D01*
X109597873Y-44964500D01*
X109597864Y-44964500D01*
X107702129Y-44964500D01*
X107702123Y-44964501D01*
X107642516Y-44970908D01*
X107507671Y-45021202D01*
X107507664Y-45021206D01*
X107392455Y-45107452D01*
X107392452Y-45107455D01*
X107306206Y-45222664D01*
X107306202Y-45222671D01*
X107255908Y-45357517D01*
X107249501Y-45417116D01*
X107249500Y-45417135D01*
X101198403Y-45417135D01*
X101200500Y-45409309D01*
X101200500Y-45290691D01*
X101169799Y-45176114D01*
X101110489Y-45073387D01*
X101049782Y-45012680D01*
X101016298Y-44951356D01*
X101021283Y-44881665D01*
X101049779Y-44837322D01*
X101110489Y-44776613D01*
X101169799Y-44673886D01*
X101200500Y-44559309D01*
X101200500Y-44440691D01*
X101178568Y-44358840D01*
X101180231Y-44288992D01*
X101198025Y-44253862D01*
X101283343Y-44136433D01*
X101390568Y-43925992D01*
X101463553Y-43701368D01*
X101500500Y-43468097D01*
X101500500Y-38483048D01*
X104489500Y-38483048D01*
X104489500Y-39246951D01*
X104516013Y-39448333D01*
X104521334Y-39488744D01*
X104521335Y-39488746D01*
X104584456Y-39724320D01*
X104584459Y-39724330D01*
X104677786Y-39949640D01*
X104677791Y-39949651D01*
X104799727Y-40160848D01*
X104799738Y-40160864D01*
X104948199Y-40354343D01*
X104948205Y-40354350D01*
X105120649Y-40526794D01*
X105120655Y-40526799D01*
X105314144Y-40675268D01*
X105314151Y-40675272D01*
X105525348Y-40797208D01*
X105525353Y-40797210D01*
X105525356Y-40797212D01*
X105750679Y-40890544D01*
X105986256Y-40953666D01*
X106228056Y-40985500D01*
X106228063Y-40985500D01*
X106471937Y-40985500D01*
X106471944Y-40985500D01*
X106713744Y-40953666D01*
X106949321Y-40890544D01*
X107174644Y-40797212D01*
X107385856Y-40675268D01*
X107579345Y-40526799D01*
X107751799Y-40354345D01*
X107900268Y-40160856D01*
X108022212Y-39949644D01*
X108115544Y-39724321D01*
X108178666Y-39488744D01*
X108210500Y-39246944D01*
X108210500Y-38483056D01*
X108210499Y-38483048D01*
X114089500Y-38483048D01*
X114089500Y-39246951D01*
X114116013Y-39448333D01*
X114121334Y-39488744D01*
X114121335Y-39488746D01*
X114184456Y-39724320D01*
X114184459Y-39724330D01*
X114277786Y-39949640D01*
X114277791Y-39949651D01*
X114399727Y-40160848D01*
X114399738Y-40160864D01*
X114548199Y-40354343D01*
X114548205Y-40354350D01*
X114720649Y-40526794D01*
X114720655Y-40526799D01*
X114914144Y-40675268D01*
X114914151Y-40675272D01*
X115125348Y-40797208D01*
X115125353Y-40797210D01*
X115125356Y-40797212D01*
X115350679Y-40890544D01*
X115586256Y-40953666D01*
X115828056Y-40985500D01*
X115828063Y-40985500D01*
X116071937Y-40985500D01*
X116071944Y-40985500D01*
X116313744Y-40953666D01*
X116549321Y-40890544D01*
X116774644Y-40797212D01*
X116985856Y-40675268D01*
X117179345Y-40526799D01*
X117351799Y-40354345D01*
X117500268Y-40160856D01*
X117622212Y-39949644D01*
X117715544Y-39724321D01*
X117778666Y-39488744D01*
X117810500Y-39246944D01*
X117810500Y-38483056D01*
X117778666Y-38241256D01*
X117715544Y-38005679D01*
X117622212Y-37780356D01*
X117622210Y-37780353D01*
X117622208Y-37780348D01*
X117500272Y-37569151D01*
X117500268Y-37569144D01*
X117351799Y-37375655D01*
X117351794Y-37375649D01*
X117179350Y-37203205D01*
X117179343Y-37203199D01*
X116985864Y-37054738D01*
X116985862Y-37054736D01*
X116985856Y-37054732D01*
X116985851Y-37054729D01*
X116985848Y-37054727D01*
X116774651Y-36932791D01*
X116774640Y-36932786D01*
X116549330Y-36839459D01*
X116549323Y-36839457D01*
X116549321Y-36839456D01*
X116313744Y-36776334D01*
X116273333Y-36771013D01*
X116071951Y-36744500D01*
X116071944Y-36744500D01*
X115828056Y-36744500D01*
X115828048Y-36744500D01*
X115597896Y-36774801D01*
X115586256Y-36776334D01*
X115350679Y-36839456D01*
X115350669Y-36839459D01*
X115125359Y-36932786D01*
X115125348Y-36932791D01*
X114914151Y-37054727D01*
X114914135Y-37054738D01*
X114720656Y-37203199D01*
X114720649Y-37203205D01*
X114548205Y-37375649D01*
X114548199Y-37375656D01*
X114399738Y-37569135D01*
X114399727Y-37569151D01*
X114277791Y-37780348D01*
X114277786Y-37780359D01*
X114184459Y-38005669D01*
X114184456Y-38005679D01*
X114121335Y-38241253D01*
X114121333Y-38241264D01*
X114089500Y-38483048D01*
X108210499Y-38483048D01*
X108178666Y-38241256D01*
X108115544Y-38005679D01*
X108022212Y-37780356D01*
X108022210Y-37780353D01*
X108022208Y-37780348D01*
X107900272Y-37569151D01*
X107900268Y-37569144D01*
X107751799Y-37375655D01*
X107751794Y-37375649D01*
X107579350Y-37203205D01*
X107579343Y-37203199D01*
X107385864Y-37054738D01*
X107385862Y-37054736D01*
X107385856Y-37054732D01*
X107385851Y-37054729D01*
X107385848Y-37054727D01*
X107174651Y-36932791D01*
X107174640Y-36932786D01*
X106949330Y-36839459D01*
X106949323Y-36839457D01*
X106949321Y-36839456D01*
X106713744Y-36776334D01*
X106673333Y-36771013D01*
X106471951Y-36744500D01*
X106471944Y-36744500D01*
X106228056Y-36744500D01*
X106228048Y-36744500D01*
X105997896Y-36774801D01*
X105986256Y-36776334D01*
X105750679Y-36839456D01*
X105750669Y-36839459D01*
X105525359Y-36932786D01*
X105525348Y-36932791D01*
X105314151Y-37054727D01*
X105314135Y-37054738D01*
X105120656Y-37203199D01*
X105120649Y-37203205D01*
X104948205Y-37375649D01*
X104948199Y-37375656D01*
X104799738Y-37569135D01*
X104799727Y-37569151D01*
X104677791Y-37780348D01*
X104677786Y-37780359D01*
X104584459Y-38005669D01*
X104584456Y-38005679D01*
X104521335Y-38241253D01*
X104521333Y-38241264D01*
X104489500Y-38483048D01*
X101500500Y-38483048D01*
X101500500Y-34624500D01*
X101520185Y-34557461D01*
X101572989Y-34511706D01*
X101624500Y-34500500D01*
X120874669Y-34500500D01*
X120941708Y-34520185D01*
G37*
%TD.AperFunction*%
%TA.AperFunction,Conductor*%
G36*
X102534075Y-64312993D02*
G01*
X102599901Y-64427007D01*
X102692993Y-64520099D01*
X102807007Y-64585925D01*
X102870590Y-64602962D01*
X102238282Y-65235269D01*
X102238282Y-65235270D01*
X102292452Y-65274626D01*
X102292451Y-65274626D01*
X102301495Y-65279234D01*
X102352292Y-65327208D01*
X102369087Y-65395029D01*
X102346550Y-65461164D01*
X102301499Y-65500202D01*
X102292182Y-65504949D01*
X102120213Y-65629890D01*
X101969890Y-65780213D01*
X101844951Y-65952179D01*
X101748445Y-66141582D01*
X101748443Y-66141587D01*
X101748443Y-66141588D01*
X101742429Y-66160094D01*
X101702992Y-66217768D01*
X101638633Y-66244965D01*
X101569787Y-66233050D01*
X101518312Y-66185805D01*
X101500500Y-66121773D01*
X101500500Y-64656611D01*
X101520185Y-64589572D01*
X101572989Y-64543817D01*
X101642147Y-64533873D01*
X101705703Y-64562898D01*
X101742432Y-64618294D01*
X101748906Y-64638221D01*
X101845375Y-64827550D01*
X101884728Y-64881716D01*
X102517037Y-64249408D01*
X102534075Y-64312993D01*
G37*
%TD.AperFunction*%
%TA.AperFunction,Conductor*%
G36*
X102534075Y-61772993D02*
G01*
X102599901Y-61887007D01*
X102692993Y-61980099D01*
X102807007Y-62045925D01*
X102870591Y-62062962D01*
X102269971Y-62663581D01*
X102348711Y-62780895D01*
X102349920Y-62784729D01*
X102352844Y-62787491D01*
X102360343Y-62817778D01*
X102369727Y-62847529D01*
X102368671Y-62851408D01*
X102369638Y-62855312D01*
X102359573Y-62884844D01*
X102351383Y-62914947D01*
X102348397Y-62917640D01*
X102347100Y-62921447D01*
X102302051Y-62960483D01*
X102292440Y-62965380D01*
X102238282Y-63004727D01*
X102238282Y-63004728D01*
X102870591Y-63637037D01*
X102807007Y-63654075D01*
X102692993Y-63719901D01*
X102599901Y-63812993D01*
X102534075Y-63927007D01*
X102517037Y-63990591D01*
X101884728Y-63358282D01*
X101884727Y-63358282D01*
X101845380Y-63412439D01*
X101748904Y-63601782D01*
X101742431Y-63621706D01*
X101702994Y-63679381D01*
X101638635Y-63706580D01*
X101569789Y-63694665D01*
X101518313Y-63647421D01*
X101500500Y-63583388D01*
X101500500Y-62116611D01*
X101520185Y-62049572D01*
X101572989Y-62003817D01*
X101642147Y-61993873D01*
X101705703Y-62022898D01*
X101742432Y-62078294D01*
X101748906Y-62098221D01*
X101845375Y-62287550D01*
X101884728Y-62341716D01*
X102517037Y-61709408D01*
X102534075Y-61772993D01*
G37*
%TD.AperFunction*%
%TA.AperFunction,Conductor*%
G36*
X101705703Y-59484513D02*
G01*
X101742431Y-59539908D01*
X101748444Y-59558414D01*
X101844951Y-59747820D01*
X101969890Y-59919786D01*
X102120213Y-60070109D01*
X102292179Y-60195048D01*
X102292181Y-60195049D01*
X102292184Y-60195051D01*
X102301493Y-60199794D01*
X102352290Y-60247766D01*
X102369087Y-60315587D01*
X102346552Y-60381722D01*
X102301505Y-60420760D01*
X102292446Y-60425376D01*
X102292440Y-60425380D01*
X102238282Y-60464727D01*
X102238282Y-60464728D01*
X102870591Y-61097037D01*
X102807007Y-61114075D01*
X102692993Y-61179901D01*
X102599901Y-61272993D01*
X102534075Y-61387007D01*
X102517037Y-61450591D01*
X101884728Y-60818282D01*
X101884727Y-60818282D01*
X101845380Y-60872439D01*
X101748904Y-61061782D01*
X101742431Y-61081706D01*
X101702994Y-61139381D01*
X101638635Y-61166580D01*
X101569789Y-61154665D01*
X101518313Y-61107421D01*
X101500500Y-61043388D01*
X101500500Y-59578226D01*
X101520185Y-59511187D01*
X101572989Y-59465432D01*
X101642147Y-59455488D01*
X101705703Y-59484513D01*
G37*
%TD.AperFunction*%
%TD*%
%TA.AperFunction,NonConductor*%
G36*
X101705703Y-57596389D02*
G01*
X101723762Y-57615786D01*
X101792454Y-57707546D01*
X101838643Y-57742123D01*
X101907664Y-57793793D01*
X101907671Y-57793797D01*
X102039082Y-57842810D01*
X102095016Y-57884681D01*
X102119433Y-57950145D01*
X102104582Y-58018418D01*
X102083431Y-58046673D01*
X101969889Y-58160215D01*
X101844951Y-58332179D01*
X101748445Y-58521582D01*
X101748443Y-58521587D01*
X101748443Y-58521588D01*
X101742429Y-58540094D01*
X101702992Y-58597768D01*
X101638633Y-58624965D01*
X101569787Y-58613050D01*
X101518312Y-58565805D01*
X101500500Y-58501773D01*
X101500500Y-57690102D01*
X101520185Y-57623063D01*
X101572989Y-57577308D01*
X101642147Y-57567364D01*
X101705703Y-57596389D01*
G37*
%TD.AperFunction*%
%TA.AperFunction,NonConductor*%
G36*
X104453182Y-57615781D02*
G01*
X104486666Y-57677104D01*
X104489500Y-57703461D01*
X104489500Y-58366937D01*
X104489501Y-58366953D01*
X104509671Y-58520158D01*
X104498905Y-58589193D01*
X104452526Y-58641449D01*
X104385257Y-58660334D01*
X104318456Y-58639853D01*
X104273333Y-58586509D01*
X104268804Y-58574670D01*
X104251557Y-58521588D01*
X104155051Y-58332184D01*
X104155049Y-58332181D01*
X104155048Y-58332179D01*
X104030109Y-58160213D01*
X103916569Y-58046673D01*
X103883084Y-57985350D01*
X103888068Y-57915658D01*
X103929940Y-57859725D01*
X103960915Y-57842810D01*
X104092331Y-57793796D01*
X104207546Y-57707546D01*
X104231525Y-57675513D01*
X104266234Y-57629150D01*
X104322168Y-57587279D01*
X104391859Y-57582295D01*
X104453182Y-57615781D01*
G37*
%TD.AperFunction*%
%TA.AperFunction,NonConductor*%
G36*
X101656784Y-67082172D02*
G01*
X101672769Y-67084007D01*
X101687908Y-67096386D01*
X101705703Y-67104513D01*
X101715005Y-67118543D01*
X101726858Y-67128235D01*
X101742429Y-67159905D01*
X101744638Y-67166703D01*
X101748444Y-67178414D01*
X101844951Y-67367820D01*
X101969890Y-67539786D01*
X102120213Y-67690109D01*
X102292182Y-67815050D01*
X102300946Y-67819516D01*
X102351742Y-67867491D01*
X102368536Y-67935312D01*
X102345998Y-68001447D01*
X102300946Y-68040484D01*
X102292182Y-68044949D01*
X102120213Y-68169890D01*
X101969890Y-68320213D01*
X101844951Y-68492179D01*
X101748445Y-68681582D01*
X101748443Y-68681587D01*
X101748443Y-68681588D01*
X101742429Y-68700094D01*
X101702992Y-68757768D01*
X101638633Y-68784965D01*
X101569787Y-68773050D01*
X101518312Y-68725805D01*
X101500500Y-68661773D01*
X101500500Y-67198226D01*
X101505033Y-67182786D01*
X101504574Y-67166703D01*
X101514674Y-67149952D01*
X101520185Y-67131187D01*
X101532343Y-67120651D01*
X101540654Y-67106870D01*
X101558209Y-67098238D01*
X101572989Y-67085432D01*
X101588913Y-67083142D01*
X101603355Y-67076042D01*
X101622786Y-67078271D01*
X101642147Y-67075488D01*
X101656784Y-67082172D01*
G37*
%TD.AperFunction*%
%TA.AperFunction,NonConductor*%
G36*
X101705703Y-69644513D02*
G01*
X101742431Y-69699908D01*
X101748444Y-69718414D01*
X101844951Y-69907820D01*
X101969890Y-70079786D01*
X102120213Y-70230109D01*
X102292182Y-70355050D01*
X102300946Y-70359516D01*
X102351742Y-70407491D01*
X102368536Y-70475312D01*
X102345998Y-70541447D01*
X102300946Y-70580484D01*
X102292182Y-70584949D01*
X102120213Y-70709890D01*
X101969890Y-70860213D01*
X101844951Y-71032179D01*
X101748445Y-71221582D01*
X101748443Y-71221587D01*
X101748443Y-71221588D01*
X101742429Y-71240094D01*
X101702992Y-71297768D01*
X101638633Y-71324965D01*
X101569787Y-71313050D01*
X101518312Y-71265805D01*
X101500500Y-71201773D01*
X101500500Y-69738226D01*
X101520185Y-69671187D01*
X101572989Y-69625432D01*
X101642147Y-69615488D01*
X101705703Y-69644513D01*
G37*
%TD.AperFunction*%
%TA.AperFunction,NonConductor*%
G36*
X120834553Y-90963017D02*
G01*
X120883958Y-91012422D01*
X120899127Y-91072100D01*
X120898159Y-91553063D01*
X120878339Y-91620062D01*
X120825443Y-91665711D01*
X120756265Y-91675515D01*
X120692768Y-91646362D01*
X120663674Y-91609108D01*
X120655048Y-91592179D01*
X120530109Y-91420213D01*
X120416569Y-91306673D01*
X120383084Y-91245350D01*
X120388068Y-91175658D01*
X120429940Y-91119725D01*
X120460915Y-91102810D01*
X120592331Y-91053796D01*
X120700817Y-90972583D01*
X120766279Y-90948166D01*
X120834553Y-90963017D01*
G37*
%TD.AperFunction*%
%TA.AperFunction,NonConductor*%
G36*
X120842582Y-92951760D02*
G01*
X120886035Y-93006474D01*
X120895140Y-93053361D01*
X120893068Y-94083072D01*
X120873248Y-94150071D01*
X120820352Y-94195720D01*
X120751174Y-94205524D01*
X120687677Y-94176371D01*
X120658582Y-94139114D01*
X120655050Y-94132181D01*
X120530109Y-93960213D01*
X120379786Y-93809890D01*
X120207820Y-93684951D01*
X120207115Y-93684591D01*
X120199054Y-93680485D01*
X120148259Y-93632512D01*
X120131463Y-93564692D01*
X120153999Y-93498556D01*
X120199054Y-93459515D01*
X120207816Y-93455051D01*
X120229789Y-93439086D01*
X120379786Y-93330109D01*
X120379788Y-93330106D01*
X120379792Y-93330104D01*
X120530104Y-93179792D01*
X120530106Y-93179788D01*
X120530109Y-93179786D01*
X120655048Y-93007820D01*
X120655047Y-93007820D01*
X120655051Y-93007816D01*
X120660654Y-92996818D01*
X120708626Y-92946022D01*
X120776446Y-92929225D01*
X120842582Y-92951760D01*
G37*
%TD.AperFunction*%
%TA.AperFunction,NonConductor*%
G36*
X120837444Y-95501825D02*
G01*
X120880901Y-95556535D01*
X120890009Y-95603430D01*
X120887978Y-96613080D01*
X120868158Y-96680080D01*
X120815262Y-96725729D01*
X120746084Y-96735533D01*
X120682587Y-96706380D01*
X120658626Y-96675704D01*
X120657596Y-96676336D01*
X120655051Y-96672184D01*
X120530109Y-96500213D01*
X120379786Y-96349890D01*
X120207820Y-96224951D01*
X120207115Y-96224591D01*
X120199054Y-96220485D01*
X120148259Y-96172512D01*
X120131463Y-96104692D01*
X120153999Y-96038556D01*
X120199054Y-95999515D01*
X120207816Y-95995051D01*
X120229789Y-95979086D01*
X120379786Y-95870109D01*
X120379788Y-95870106D01*
X120379792Y-95870104D01*
X120530104Y-95719792D01*
X120530106Y-95719788D01*
X120530109Y-95719786D01*
X120655047Y-95547822D01*
X120655047Y-95547820D01*
X120655051Y-95547816D01*
X120655519Y-95546896D01*
X120655792Y-95546607D01*
X120657596Y-95543664D01*
X120658214Y-95544042D01*
X120703487Y-95496097D01*
X120771306Y-95479294D01*
X120837444Y-95501825D01*
G37*
%TD.AperFunction*%
%TA.AperFunction,NonConductor*%
G36*
X120840042Y-98056996D02*
G01*
X120879076Y-98114946D01*
X120884880Y-98152689D01*
X120882884Y-99144553D01*
X120863064Y-99211552D01*
X120810168Y-99257201D01*
X120740990Y-99267005D01*
X120677493Y-99237852D01*
X120658657Y-99215585D01*
X120657915Y-99216125D01*
X120530109Y-99040213D01*
X120379786Y-98889890D01*
X120207820Y-98764951D01*
X120207115Y-98764591D01*
X120199054Y-98760485D01*
X120148259Y-98712512D01*
X120131463Y-98644692D01*
X120153999Y-98578556D01*
X120199054Y-98539515D01*
X120207816Y-98535051D01*
X120229789Y-98519086D01*
X120379786Y-98410109D01*
X120379788Y-98410106D01*
X120379792Y-98410104D01*
X120530104Y-98259792D01*
X120530106Y-98259788D01*
X120530109Y-98259786D01*
X120635340Y-98114946D01*
X120655051Y-98087816D01*
X120655059Y-98087799D01*
X120655143Y-98087665D01*
X120655196Y-98087616D01*
X120657915Y-98083875D01*
X120658700Y-98084445D01*
X120706947Y-98040782D01*
X120775875Y-98029349D01*
X120840042Y-98056996D01*
G37*
%TD.AperFunction*%
%TA.AperFunction,NonConductor*%
G36*
X120842174Y-100611246D02*
G01*
X120876531Y-100672085D01*
X120879754Y-100700421D01*
X120877788Y-101677372D01*
X120857968Y-101744371D01*
X120805072Y-101790020D01*
X120735894Y-101799824D01*
X120672397Y-101770671D01*
X120653470Y-101750007D01*
X120530109Y-101580213D01*
X120379786Y-101429890D01*
X120207820Y-101304951D01*
X120207115Y-101304591D01*
X120199054Y-101300485D01*
X120148259Y-101252512D01*
X120131463Y-101184692D01*
X120153999Y-101118556D01*
X120199054Y-101079515D01*
X120207816Y-101075051D01*
X120229789Y-101059086D01*
X120379786Y-100950109D01*
X120379788Y-100950106D01*
X120379792Y-100950104D01*
X120530104Y-100799792D01*
X120655051Y-100627816D01*
X120655053Y-100627811D01*
X120655435Y-100627286D01*
X120710765Y-100584620D01*
X120780378Y-100578641D01*
X120842174Y-100611246D01*
G37*
%TD.AperFunction*%
%TA.AperFunction,NonConductor*%
G36*
X120837049Y-103158300D02*
G01*
X120871406Y-103219138D01*
X120874629Y-103247475D01*
X120872691Y-104210357D01*
X120852871Y-104277356D01*
X120799975Y-104323005D01*
X120730797Y-104332809D01*
X120667300Y-104303656D01*
X120648375Y-104282995D01*
X120530104Y-104120208D01*
X120379792Y-103969896D01*
X120379786Y-103969890D01*
X120207820Y-103844951D01*
X120207115Y-103844591D01*
X120199054Y-103840485D01*
X120148259Y-103792512D01*
X120131463Y-103724692D01*
X120153999Y-103658556D01*
X120199054Y-103619515D01*
X120207816Y-103615051D01*
X120229789Y-103599086D01*
X120379786Y-103490109D01*
X120379788Y-103490106D01*
X120379792Y-103490104D01*
X120530104Y-103339792D01*
X120650312Y-103174338D01*
X120705640Y-103131674D01*
X120775253Y-103125695D01*
X120837049Y-103158300D01*
G37*
%TD.AperFunction*%
M02*
