%TF.GenerationSoftware,KiCad,Pcbnew,10.0.4*%
%TF.CreationDate,2026-09-18T15:20:02-07:00*%
%TF.ProjectId,Euro-LFO,4575726f-2d4c-4464-9f2e-6b696361645f,rev?*%
%TF.SameCoordinates,Original*%
%TF.FileFunction,Paste,Top*%
%TF.FilePolarity,Positive*%
%FSLAX46Y46*%
G04 Gerber Fmt 4.6, Leading zero omitted, Abs format (unit mm)*
G04 Created by KiCad (PCBNEW 10.0.4) date 2026-09-18 15:20:02*
%MOMM*%
%LPD*%
G01*
G04 APERTURE LIST*
G04 Aperture macros list*
%AMRoundRect*
0 Rectangle with rounded corners*
0 $1 Rounding radius*
0 $2 $3 $4 $5 $6 $7 $8 $9 X,Y pos of 4 corners*
0 Add a 4 corners polygon primitive as box body*
4,1,4,$2,$3,$4,$5,$6,$7,$8,$9,$2,$3,0*
0 Add four circle primitives for the rounded corners*
1,1,$1+$1,$2,$3*
1,1,$1+$1,$4,$5*
1,1,$1+$1,$6,$7*
1,1,$1+$1,$8,$9*
0 Add four rect primitives between the rounded corners*
20,1,$1+$1,$2,$3,$4,$5,0*
20,1,$1+$1,$4,$5,$6,$7,0*
20,1,$1+$1,$6,$7,$8,$9,0*
20,1,$1+$1,$8,$9,$2,$3,0*%
G04 Aperture macros list end*
%ADD10RoundRect,0.225000X0.225000X0.375000X-0.225000X0.375000X-0.225000X-0.375000X0.225000X-0.375000X0*%
%ADD11RoundRect,0.250000X0.450000X-0.262500X0.450000X0.262500X-0.450000X0.262500X-0.450000X-0.262500X0*%
%ADD12RoundRect,0.250000X-0.450000X0.262500X-0.450000X-0.262500X0.450000X-0.262500X0.450000X0.262500X0*%
%ADD13RoundRect,0.250000X-0.475000X0.250000X-0.475000X-0.250000X0.475000X-0.250000X0.475000X0.250000X0*%
%ADD14RoundRect,0.250000X0.250000X0.475000X-0.250000X0.475000X-0.250000X-0.475000X0.250000X-0.475000X0*%
%ADD15RoundRect,0.150000X0.150000X-0.825000X0.150000X0.825000X-0.150000X0.825000X-0.150000X-0.825000X0*%
%ADD16RoundRect,0.250000X0.475000X-0.250000X0.475000X0.250000X-0.475000X0.250000X-0.475000X-0.250000X0*%
%ADD17RoundRect,0.250000X0.650000X-1.000000X0.650000X1.000000X-0.650000X1.000000X-0.650000X-1.000000X0*%
%ADD18RoundRect,0.250000X0.262500X0.450000X-0.262500X0.450000X-0.262500X-0.450000X0.262500X-0.450000X0*%
%ADD19RoundRect,0.250000X-0.650000X1.000000X-0.650000X-1.000000X0.650000X-1.000000X0.650000X1.000000X0*%
%ADD20RoundRect,0.150000X-0.587500X-0.150000X0.587500X-0.150000X0.587500X0.150000X-0.587500X0.150000X0*%
G04 APERTURE END LIST*
D10*
%TO.C,D1*%
X109000000Y-88000000D03*
X105700000Y-88000000D03*
%TD*%
D11*
%TO.C,R4*%
X118900000Y-44500000D03*
X118900000Y-42675000D03*
%TD*%
D12*
%TO.C,R23*%
X141135000Y-113102500D03*
X141135000Y-114927500D03*
%TD*%
D11*
%TO.C,R17*%
X130135000Y-72515000D03*
X130135000Y-70690000D03*
%TD*%
%TO.C,R14*%
X128500000Y-103052500D03*
X128500000Y-101227500D03*
%TD*%
D13*
%TO.C,C6*%
X132135000Y-85065000D03*
X132135000Y-86965000D03*
%TD*%
D12*
%TO.C,R20*%
X137100000Y-63737500D03*
X137100000Y-65562500D03*
%TD*%
D14*
%TO.C,C1*%
X133850000Y-96050000D03*
X131950000Y-96050000D03*
%TD*%
D15*
%TO.C,U1*%
X130325000Y-81295000D03*
X131595000Y-81295000D03*
X132865000Y-81295000D03*
X134135000Y-81295000D03*
X135405000Y-81295000D03*
X136675000Y-81295000D03*
X137945000Y-81295000D03*
X137945000Y-76345000D03*
X136675000Y-76345000D03*
X135405000Y-76345000D03*
X134135000Y-76345000D03*
X132865000Y-76345000D03*
X131595000Y-76345000D03*
X130325000Y-76345000D03*
%TD*%
D11*
%TO.C,R2*%
X129150000Y-91762500D03*
X129150000Y-89937500D03*
%TD*%
D10*
%TO.C,D2*%
X115500000Y-88000000D03*
X112200000Y-88000000D03*
%TD*%
D16*
%TO.C,C7*%
X127135000Y-79915000D03*
X127135000Y-78015000D03*
%TD*%
D12*
%TO.C,R24*%
X126135000Y-113190000D03*
X126135000Y-115015000D03*
%TD*%
D11*
%TO.C,R6*%
X135500000Y-91912500D03*
X135500000Y-90087500D03*
%TD*%
%TO.C,R18*%
X140800000Y-74812500D03*
X140800000Y-72987500D03*
%TD*%
D16*
%TO.C,C2*%
X140250000Y-85400000D03*
X140250000Y-83500000D03*
%TD*%
D17*
%TO.C,D5*%
X126135000Y-124015000D03*
X126135000Y-120015000D03*
%TD*%
D11*
%TO.C,R16*%
X141200000Y-80025000D03*
X141200000Y-78200000D03*
%TD*%
D12*
%TO.C,R19*%
X129350000Y-65737500D03*
X129350000Y-67562500D03*
%TD*%
D18*
%TO.C,R5*%
X137162500Y-85387500D03*
X135337500Y-85387500D03*
%TD*%
D16*
%TO.C,C3*%
X128085000Y-97040000D03*
X128085000Y-95140000D03*
%TD*%
D11*
%TO.C,R3*%
X132150000Y-91762500D03*
X132150000Y-89937500D03*
%TD*%
D12*
%TO.C,R21*%
X137150000Y-70487500D03*
X137150000Y-72312500D03*
%TD*%
D11*
%TO.C,R1*%
X129150000Y-86962500D03*
X129150000Y-85137500D03*
%TD*%
D19*
%TO.C,D4*%
X141135000Y-120015000D03*
X141135000Y-124015000D03*
%TD*%
D12*
%TO.C,R22*%
X133635000Y-70602500D03*
X133635000Y-72427500D03*
%TD*%
D20*
%TO.C,Q1*%
X132062500Y-100127500D03*
X132062500Y-102027500D03*
X133937500Y-101077500D03*
%TD*%
M02*
