M48
; DRILL file KiCad 10.0.4 date 2026-09-18T15:19:49
; FORMAT={-:-/ absolute / metric / decimal}
; #@! TF.CreationDate,2026-09-18T15:19:49-07:00
; #@! TF.GenerationSoftware,Kicad,Pcbnew,10.0.4
; #@! TF.FileFunction,NonPlated,1,2,NPTH
FMAT,2
METRIC
; #@! TA.AperFunction,NonPlated,NPTH,ComponentDrill
T1C0.500
%
G90
G05
T1
X99.25Y-44.5
X99.25Y-45.35
X99.25Y-46.2
X99.25Y-123.15
X99.25Y-124.0
X99.25Y-124.85
X100.75Y-44.5
X100.75Y-45.35
X100.75Y-46.2
X100.75Y-123.15
X100.75Y-124.0
X100.75Y-124.85
X121.587Y-123.1
X121.587Y-123.95
X121.587Y-124.8
X121.737Y-44.55
X121.737Y-45.4
X121.737Y-46.25
X123.087Y-123.1
X123.087Y-123.95
X123.087Y-124.8
X123.237Y-44.55
X123.237Y-45.4
X123.237Y-46.25
M30
