%TF.GenerationSoftware,KiCad,Pcbnew,10.0.4*%
%TF.CreationDate,2026-09-18T15:20:02-07:00*%
%TF.ProjectId,Euro-LFO,4575726f-2d4c-4464-9f2e-6b696361645f,rev?*%
%TF.SameCoordinates,Original*%
%TF.FileFunction,Legend,Bot*%
%TF.FilePolarity,Positive*%
%FSLAX46Y46*%
G04 Gerber Fmt 4.6, Leading zero omitted, Abs format (unit mm)*
G04 Created by KiCad (PCBNEW 10.0.4) date 2026-09-18 15:20:02*
%MOMM*%
%LPD*%
G01*
G04 APERTURE LIST*
%ADD10C,0.800000*%
%ADD11C,0.150000*%
%ADD12C,0.120000*%
G04 APERTURE END LIST*
D10*
G36*
X143429420Y-45167690D02*
G01*
X143418870Y-44928649D01*
X143387411Y-44694836D01*
X143335689Y-44466095D01*
X143264801Y-44247138D01*
X143176245Y-44036794D01*
X143075024Y-43841451D01*
X142958585Y-43659247D01*
X142832002Y-43500000D01*
X141949309Y-44311374D01*
X142087840Y-44468828D01*
X142217732Y-44683600D01*
X142306242Y-44920988D01*
X142335212Y-45162072D01*
X142325178Y-45270425D01*
X142296133Y-45366259D01*
X142240598Y-45435094D01*
X142150076Y-45458583D01*
X142097614Y-45450667D01*
X142054822Y-45427808D01*
X141973489Y-45318632D01*
X141881165Y-45103210D01*
X141763196Y-44759071D01*
X141603461Y-44372923D01*
X141499691Y-44197709D01*
X141376315Y-44045394D01*
X141229367Y-43918073D01*
X141053914Y-43818736D01*
X140854299Y-43757254D01*
X140602554Y-43734961D01*
X140359762Y-43753055D01*
X140152453Y-43804304D01*
X139974605Y-43885903D01*
X139811918Y-43997143D01*
X139671406Y-44126497D01*
X139551332Y-44274982D01*
X139409880Y-44525830D01*
X139313196Y-44809385D01*
X139258208Y-45106423D01*
X139240167Y-45397034D01*
X139256511Y-45655738D01*
X139306400Y-45920881D01*
X139391842Y-46194487D01*
X139508568Y-46455617D01*
X139654127Y-46692671D01*
X139829281Y-46907920D01*
X140675826Y-46079692D01*
X140528065Y-45930083D01*
X140421081Y-45749720D01*
X140354330Y-45556474D01*
X140334375Y-45397034D01*
X140345970Y-45259520D01*
X140376385Y-45161828D01*
X140432020Y-45094539D01*
X140513405Y-45072435D01*
X140590579Y-45094643D01*
X140647983Y-45164759D01*
X140759846Y-45464200D01*
X140916650Y-45911898D01*
X141019742Y-46138485D01*
X141148681Y-46345429D01*
X141307511Y-46526786D01*
X141498436Y-46672958D01*
X141641858Y-46742352D01*
X141811667Y-46786130D01*
X142013545Y-46801674D01*
X142248715Y-46784808D01*
X142455203Y-46736498D01*
X142637585Y-46658792D01*
X142805926Y-46552924D01*
X142952692Y-46428256D01*
X143079665Y-46283879D01*
X143232938Y-46038384D01*
X143342714Y-45760711D01*
X143407768Y-45466843D01*
X143429420Y-45167690D01*
G37*
G36*
X143429420Y-49103419D02*
G01*
X143413975Y-48795578D01*
X143370206Y-48527758D01*
X143301193Y-48294731D01*
X143202411Y-48073103D01*
X143085071Y-47883131D01*
X142949483Y-47721249D01*
X142791569Y-47581401D01*
X142616372Y-47467937D01*
X142421919Y-47379797D01*
X142108998Y-47296457D01*
X141765882Y-47267934D01*
X139365219Y-47267934D01*
X139365219Y-48599790D01*
X141622267Y-48599790D01*
X141807638Y-48616826D01*
X141952823Y-48663652D01*
X142066545Y-48736810D01*
X142153263Y-48838177D01*
X142206702Y-48965252D01*
X142225792Y-49125889D01*
X142206697Y-49286520D01*
X142153254Y-49413505D01*
X142066545Y-49514724D01*
X141952804Y-49588021D01*
X141807619Y-49634926D01*
X141622267Y-49651988D01*
X139365219Y-49651988D01*
X139365219Y-50978227D01*
X141765882Y-50978227D01*
X141997993Y-50964499D01*
X142215988Y-50924153D01*
X142421919Y-50857815D01*
X142616228Y-50764611D01*
X142791467Y-50646521D01*
X142949483Y-50502442D01*
X143085028Y-50336954D01*
X143202386Y-50143237D01*
X143301193Y-49917725D01*
X143370341Y-49681181D01*
X143414046Y-49411364D01*
X143429420Y-49103419D01*
G37*
G36*
X143320000Y-52987857D02*
G01*
X142038213Y-52987857D01*
X142038213Y-53362770D01*
X142020066Y-53667644D01*
X141965917Y-53964340D01*
X141869949Y-54244039D01*
X141731933Y-54484822D01*
X141614432Y-54625295D01*
X141475892Y-54746197D01*
X141314277Y-54848499D01*
X141138397Y-54922453D01*
X140932411Y-54969202D01*
X140690481Y-54985764D01*
X140437355Y-54968587D01*
X140227326Y-54920667D01*
X140053007Y-54845812D01*
X139893674Y-54741442D01*
X139758853Y-54618692D01*
X139646343Y-54476517D01*
X139516522Y-54234192D01*
X139429211Y-53956036D01*
X139381275Y-53662807D01*
X139365219Y-53362770D01*
X139365219Y-53267759D01*
X140396901Y-53267759D01*
X140410579Y-53413328D01*
X140457229Y-53544731D01*
X140496437Y-53597313D01*
X140547843Y-53637055D01*
X140610927Y-53661578D01*
X140698541Y-53670760D01*
X140808473Y-53655494D01*
X140889177Y-53613453D01*
X140948157Y-53544731D01*
X141003500Y-53413199D01*
X141022163Y-53267759D01*
X141022163Y-52987857D01*
X140396901Y-52987857D01*
X140396901Y-53267759D01*
X139365219Y-53267759D01*
X139365219Y-51661618D01*
X143320000Y-51661618D01*
X143320000Y-52987857D01*
G37*
G36*
X139365219Y-55491346D02*
G01*
X139365219Y-58216608D01*
X140459427Y-58216608D01*
X140459427Y-56744801D01*
X140803321Y-56744801D01*
X140803321Y-58127215D01*
X141835003Y-58127215D01*
X141835003Y-56744801D01*
X142225792Y-56744801D01*
X142225792Y-58311863D01*
X143320000Y-58311863D01*
X143320000Y-55491346D01*
X139365219Y-55491346D01*
G37*
G36*
X143320000Y-60154919D02*
G01*
X141897529Y-60154919D01*
X141897529Y-60193998D01*
X143320000Y-60955059D01*
X143320000Y-62488415D01*
X141709951Y-61481158D01*
X141592945Y-61691751D01*
X141451295Y-61861683D01*
X141283991Y-61996022D01*
X141093203Y-62094450D01*
X140882225Y-62154396D01*
X140646273Y-62175052D01*
X140400647Y-62157948D01*
X140195953Y-62110107D01*
X140025163Y-62035101D01*
X139869552Y-61930987D01*
X139738476Y-61809131D01*
X139629734Y-61668492D01*
X139505564Y-61429285D01*
X139423838Y-61153872D01*
X139379838Y-60864583D01*
X139365219Y-60574528D01*
X139365219Y-60462665D01*
X140396901Y-60462665D01*
X140405205Y-60596999D01*
X140443551Y-60731332D01*
X140480895Y-60786963D01*
X140533921Y-60831960D01*
X140601281Y-60860478D01*
X140698541Y-60871284D01*
X140795503Y-60858506D01*
X140865847Y-60823656D01*
X140922066Y-60770421D01*
X140964521Y-60706175D01*
X141011172Y-60554989D01*
X141022163Y-60406734D01*
X141022163Y-60143684D01*
X140396901Y-60143684D01*
X140396901Y-60462665D01*
X139365219Y-60462665D01*
X139365219Y-58867759D01*
X143320000Y-58867759D01*
X143320000Y-60154919D01*
G37*
G36*
X141241004Y-62664026D02*
G01*
X141241004Y-64208618D01*
X142210160Y-64208618D01*
X142210160Y-62664026D01*
X141241004Y-62664026D01*
G37*
G36*
X140881479Y-66049232D02*
G01*
X140881479Y-67257990D01*
X141975687Y-67257990D01*
X141975687Y-66054849D01*
X143320000Y-66054849D01*
X143320000Y-64745219D01*
X139365219Y-64745219D01*
X139365219Y-67420167D01*
X140475059Y-67420167D01*
X140475059Y-66049232D01*
X140881479Y-66049232D01*
G37*
G36*
X143320000Y-69283740D02*
G01*
X141897529Y-69283740D01*
X141897529Y-69322819D01*
X143320000Y-70083879D01*
X143320000Y-71617236D01*
X141709951Y-70609979D01*
X141592945Y-70820572D01*
X141451295Y-70990504D01*
X141283991Y-71124842D01*
X141093203Y-71223271D01*
X140882225Y-71283217D01*
X140646273Y-71303872D01*
X140400647Y-71286768D01*
X140195953Y-71238927D01*
X140025163Y-71163921D01*
X139869552Y-71059808D01*
X139738476Y-70937952D01*
X139629734Y-70797313D01*
X139505564Y-70558105D01*
X139423838Y-70282693D01*
X139379838Y-69993403D01*
X139365219Y-69703349D01*
X139365219Y-69591486D01*
X140396901Y-69591486D01*
X140405205Y-69725819D01*
X140443551Y-69860153D01*
X140480895Y-69915784D01*
X140533921Y-69960781D01*
X140601281Y-69989298D01*
X140698541Y-70000104D01*
X140795503Y-69987327D01*
X140865847Y-69952477D01*
X140922066Y-69899242D01*
X140964521Y-69834996D01*
X141011172Y-69683810D01*
X141022163Y-69535554D01*
X141022163Y-69272505D01*
X140396901Y-69272505D01*
X140396901Y-69591486D01*
X139365219Y-69591486D01*
X139365219Y-67996580D01*
X143320000Y-67996580D01*
X143320000Y-69283740D01*
G37*
G36*
X139365219Y-71994347D02*
G01*
X139365219Y-74719609D01*
X140459427Y-74719609D01*
X140459427Y-73247801D01*
X140803321Y-73247801D01*
X140803321Y-74630216D01*
X141835003Y-74630216D01*
X141835003Y-73247801D01*
X142225792Y-73247801D01*
X142225792Y-74814863D01*
X143320000Y-74814863D01*
X143320000Y-71994347D01*
X139365219Y-71994347D01*
G37*
G36*
X141617195Y-75210279D02*
G01*
X141906033Y-75263393D01*
X142162777Y-75348290D01*
X142404708Y-75468286D01*
X142615753Y-75613608D01*
X142799030Y-75784752D01*
X142955097Y-75981267D01*
X143084833Y-76204105D01*
X143188353Y-76456420D01*
X143260302Y-76720658D01*
X143304716Y-77006953D01*
X143320000Y-77318108D01*
X143320000Y-79769330D01*
X142280258Y-79769330D01*
X142319581Y-79142602D01*
X142297110Y-79142602D01*
X142227160Y-79212615D01*
X142125896Y-79290614D01*
X141878478Y-79424947D01*
X141577815Y-79520202D01*
X141413690Y-79547475D01*
X141246378Y-79556594D01*
X140957585Y-79538018D01*
X140688887Y-79483577D01*
X140437201Y-79394173D01*
X140200125Y-79271060D01*
X139989243Y-79121240D01*
X139802170Y-78943789D01*
X139640627Y-78742105D01*
X139502983Y-78514508D01*
X139389155Y-78258199D01*
X139307424Y-77989720D01*
X139257323Y-77701574D01*
X139240180Y-77391137D01*
X140459427Y-77391137D01*
X140475106Y-77554103D01*
X140520976Y-77701570D01*
X140594635Y-77835404D01*
X140691702Y-77950453D01*
X140811672Y-78043875D01*
X140960369Y-78115561D01*
X141125133Y-78159298D01*
X141310125Y-78174424D01*
X141500421Y-78159248D01*
X141668429Y-78115561D01*
X141820908Y-78044139D01*
X141948332Y-77950453D01*
X142052693Y-77834931D01*
X142130293Y-77701570D01*
X142178193Y-77553972D01*
X142194528Y-77391137D01*
X142178255Y-77227673D01*
X142130293Y-77077529D01*
X142052395Y-76942418D01*
X141948332Y-76828646D01*
X141821131Y-76737214D01*
X141668429Y-76666224D01*
X141500432Y-76622721D01*
X141310125Y-76607606D01*
X141125122Y-76622671D01*
X140960369Y-76666224D01*
X140811437Y-76737486D01*
X140691702Y-76828646D01*
X140594928Y-76941925D01*
X140520976Y-77077529D01*
X140475045Y-77227545D01*
X140459427Y-77391137D01*
X139240180Y-77391137D01*
X139240167Y-77390893D01*
X139257192Y-77080337D01*
X139307062Y-76790241D01*
X139388667Y-76517969D01*
X139502996Y-76258297D01*
X139643031Y-76026949D01*
X139809009Y-75821144D01*
X140001242Y-75640051D01*
X140217198Y-75486478D01*
X140459183Y-75359525D01*
X140716015Y-75267326D01*
X140992257Y-75211006D01*
X141291318Y-75191730D01*
X141617195Y-75210279D01*
G37*
G36*
X143761409Y-34730439D02*
G01*
X141075226Y-34730439D01*
X141075226Y-40357794D01*
X138445219Y-40357794D01*
X138445219Y-42640000D01*
X143761409Y-42640000D01*
X143761409Y-34730439D01*
G37*
G36*
X135010188Y-37762958D02*
G01*
X132592672Y-37762958D01*
X132592672Y-39951374D01*
X134998953Y-39951374D01*
X134998953Y-42640000D01*
X137618213Y-42640000D01*
X137618213Y-34730439D01*
X132268318Y-34730439D01*
X132268318Y-36950118D01*
X135010188Y-36950118D01*
X135010188Y-37762958D01*
G37*
G36*
X127696384Y-34513741D02*
G01*
X128276768Y-34611550D01*
X128821074Y-34771472D01*
X129340314Y-34996260D01*
X129802828Y-35272448D01*
X130214235Y-35600432D01*
X130575826Y-35981782D01*
X130883229Y-36415086D01*
X131137962Y-36905666D01*
X131321460Y-37426690D01*
X131434547Y-37997011D01*
X131473551Y-38624647D01*
X131434799Y-39252351D01*
X131321936Y-39828806D01*
X131137962Y-40361214D01*
X130883066Y-40863248D01*
X130575593Y-41307606D01*
X130214235Y-41699665D01*
X129802131Y-42038520D01*
X129339556Y-42323880D01*
X128821074Y-42556468D01*
X128276300Y-42722673D01*
X127695981Y-42824191D01*
X127074738Y-42858841D01*
X126453821Y-42824197D01*
X125873660Y-42722685D01*
X125328890Y-42556468D01*
X124809886Y-42324071D01*
X124345288Y-42038732D01*
X123929867Y-41699665D01*
X123565304Y-41307245D01*
X123256266Y-40862878D01*
X123001256Y-40361214D01*
X122817007Y-39828783D01*
X122703984Y-39252331D01*
X122665177Y-38624647D01*
X122665451Y-38620251D01*
X125508164Y-38620251D01*
X125538516Y-39000842D01*
X125625889Y-39336859D01*
X125768734Y-39641817D01*
X125956106Y-39896664D01*
X126187150Y-40105386D01*
X126453872Y-40260586D01*
X126749068Y-40356387D01*
X127074738Y-40389057D01*
X127401666Y-40356511D01*
X127701953Y-40260586D01*
X127972176Y-40104791D01*
X128199720Y-39896664D01*
X128382585Y-39642263D01*
X128524563Y-39336859D01*
X128611570Y-39000865D01*
X128641800Y-38620251D01*
X128611670Y-38250245D01*
X128524563Y-37920739D01*
X128382039Y-37622875D01*
X128199720Y-37383405D01*
X127973162Y-37189856D01*
X127701953Y-37041953D01*
X127401922Y-36950091D01*
X127074738Y-36918855D01*
X126748805Y-36950212D01*
X126453872Y-37041953D01*
X126186203Y-37189270D01*
X125956106Y-37383405D01*
X125769262Y-37623345D01*
X125625889Y-37920739D01*
X125538416Y-38250267D01*
X125508164Y-38620251D01*
X122665451Y-38620251D01*
X122704236Y-37997032D01*
X122817483Y-37426714D01*
X123001256Y-36905666D01*
X123256096Y-36415459D01*
X123565062Y-35982143D01*
X123929867Y-35600432D01*
X124344597Y-35272235D01*
X124809138Y-34996069D01*
X125328890Y-34771472D01*
X125873193Y-34611539D01*
X126453418Y-34513735D01*
X127074738Y-34480334D01*
X127696384Y-34513741D01*
G37*
D11*
X119833333Y-86834819D02*
X119833333Y-87549104D01*
X119833333Y-87549104D02*
X119880952Y-87691961D01*
X119880952Y-87691961D02*
X119976190Y-87787200D01*
X119976190Y-87787200D02*
X120119047Y-87834819D01*
X120119047Y-87834819D02*
X120214285Y-87834819D01*
X118928571Y-86834819D02*
X119119047Y-86834819D01*
X119119047Y-86834819D02*
X119214285Y-86882438D01*
X119214285Y-86882438D02*
X119261904Y-86930057D01*
X119261904Y-86930057D02*
X119357142Y-87072914D01*
X119357142Y-87072914D02*
X119404761Y-87263390D01*
X119404761Y-87263390D02*
X119404761Y-87644342D01*
X119404761Y-87644342D02*
X119357142Y-87739580D01*
X119357142Y-87739580D02*
X119309523Y-87787200D01*
X119309523Y-87787200D02*
X119214285Y-87834819D01*
X119214285Y-87834819D02*
X119023809Y-87834819D01*
X119023809Y-87834819D02*
X118928571Y-87787200D01*
X118928571Y-87787200D02*
X118880952Y-87739580D01*
X118880952Y-87739580D02*
X118833333Y-87644342D01*
X118833333Y-87644342D02*
X118833333Y-87406247D01*
X118833333Y-87406247D02*
X118880952Y-87311009D01*
X118880952Y-87311009D02*
X118928571Y-87263390D01*
X118928571Y-87263390D02*
X119023809Y-87215771D01*
X119023809Y-87215771D02*
X119214285Y-87215771D01*
X119214285Y-87215771D02*
X119309523Y-87263390D01*
X119309523Y-87263390D02*
X119357142Y-87311009D01*
X119357142Y-87311009D02*
X119404761Y-87406247D01*
X134103333Y-130054819D02*
X134103333Y-130769104D01*
X134103333Y-130769104D02*
X134150952Y-130911961D01*
X134150952Y-130911961D02*
X134246190Y-131007200D01*
X134246190Y-131007200D02*
X134389047Y-131054819D01*
X134389047Y-131054819D02*
X134484285Y-131054819D01*
X133103333Y-131054819D02*
X133674761Y-131054819D01*
X133389047Y-131054819D02*
X133389047Y-130054819D01*
X133389047Y-130054819D02*
X133484285Y-130197676D01*
X133484285Y-130197676D02*
X133579523Y-130292914D01*
X133579523Y-130292914D02*
X133674761Y-130340533D01*
X103333333Y-53574819D02*
X103333333Y-54289104D01*
X103333333Y-54289104D02*
X103380952Y-54431961D01*
X103380952Y-54431961D02*
X103476190Y-54527200D01*
X103476190Y-54527200D02*
X103619047Y-54574819D01*
X103619047Y-54574819D02*
X103714285Y-54574819D01*
X102428571Y-53908152D02*
X102428571Y-54574819D01*
X102666666Y-53527200D02*
X102904761Y-54241485D01*
X102904761Y-54241485D02*
X102285714Y-54241485D01*
%TO.C,J6*%
D12*
X118120000Y-91030000D02*
X118120000Y-106380000D01*
X120880000Y-88380000D02*
X119500000Y-88380000D01*
X120880000Y-89760000D02*
X120880000Y-88380000D01*
X120880000Y-91030000D02*
X118120000Y-91030000D01*
X120880000Y-91030000D02*
X120880000Y-106380000D01*
X120880000Y-106380000D02*
X118120000Y-106380000D01*
%TO.C,J1*%
X127820000Y-124000000D02*
X128820000Y-124500000D01*
X127820000Y-125000000D02*
X127820000Y-124000000D01*
X128820000Y-124500000D02*
X127820000Y-125000000D01*
X129210000Y-109130000D02*
X129210000Y-129710000D01*
X129210000Y-121470000D02*
X130520000Y-121470000D01*
X129210000Y-129710000D02*
X138330000Y-129710000D01*
X130520000Y-110430000D02*
X130520000Y-117370000D01*
X130520000Y-117370000D02*
X129210000Y-117370000D01*
X130520000Y-121470000D02*
X130520000Y-128410000D01*
X130520000Y-128410000D02*
X137020000Y-128410000D01*
X137020000Y-110430000D02*
X130520000Y-110430000D01*
X137020000Y-128410000D02*
X137020000Y-110430000D01*
X138330000Y-109130000D02*
X129210000Y-109130000D01*
X138330000Y-129710000D02*
X138330000Y-109130000D01*
%TO.C,J4*%
X101620000Y-57770000D02*
X101620000Y-73120000D01*
X104380000Y-55120000D02*
X103000000Y-55120000D01*
X104380000Y-56500000D02*
X104380000Y-55120000D01*
X104380000Y-57770000D02*
X101620000Y-57770000D01*
X104380000Y-57770000D02*
X104380000Y-73120000D01*
X104380000Y-73120000D02*
X101620000Y-73120000D01*
%TD*%
M02*
