%TF.GenerationSoftware,KiCad,Pcbnew,10.0.4*%
%TF.CreationDate,2026-09-18T15:20:02-07:00*%
%TF.ProjectId,Euro-LFO,4575726f-2d4c-4464-9f2e-6b696361645f,rev?*%
%TF.SameCoordinates,Original*%
%TF.FileFunction,Copper,L1,Top*%
%TF.FilePolarity,Positive*%
%FSLAX46Y46*%
G04 Gerber Fmt 4.6, Leading zero omitted, Abs format (unit mm)*
G04 Created by KiCad (PCBNEW 10.0.4) date 2026-09-18 15:20:02*
%MOMM*%
%LPD*%
G01*
G04 APERTURE LIST*
G04 Aperture macros list*
%AMRoundRect*
0 Rectangle with rounded corners*
0 $1 Rounding radius*
0 $2 $3 $4 $5 $6 $7 $8 $9 X,Y pos of 4 corners*
0 Add a 4 corners polygon primitive as box body*
4,1,4,$2,$3,$4,$5,$6,$7,$8,$9,$2,$3,0*
0 Add four circle primitives for the rounded corners*
1,1,$1+$1,$2,$3*
1,1,$1+$1,$4,$5*
1,1,$1+$1,$6,$7*
1,1,$1+$1,$8,$9*
0 Add four rect primitives between the rounded corners*
20,1,$1+$1,$2,$3,$4,$5,0*
20,1,$1+$1,$4,$5,$6,$7,0*
20,1,$1+$1,$6,$7,$8,$9,0*
20,1,$1+$1,$8,$9,$2,$3,0*%
G04 Aperture macros list end*
%TA.AperFunction,ComponentPad*%
%ADD10R,1.700000X1.700000*%
%TD*%
%TA.AperFunction,ComponentPad*%
%ADD11C,1.700000*%
%TD*%
%TA.AperFunction,SMDPad,CuDef*%
%ADD12RoundRect,0.225000X0.225000X0.375000X-0.225000X0.375000X-0.225000X-0.375000X0.225000X-0.375000X0*%
%TD*%
%TA.AperFunction,ComponentPad*%
%ADD13O,2.720000X3.240000*%
%TD*%
%TA.AperFunction,ComponentPad*%
%ADD14R,1.800000X1.800000*%
%TD*%
%TA.AperFunction,ComponentPad*%
%ADD15C,1.800000*%
%TD*%
%TA.AperFunction,SMDPad,CuDef*%
%ADD16RoundRect,0.250000X0.450000X-0.262500X0.450000X0.262500X-0.450000X0.262500X-0.450000X-0.262500X0*%
%TD*%
%TA.AperFunction,SMDPad,CuDef*%
%ADD17RoundRect,0.250000X-0.450000X0.262500X-0.450000X-0.262500X0.450000X-0.262500X0.450000X0.262500X0*%
%TD*%
%TA.AperFunction,SMDPad,CuDef*%
%ADD18RoundRect,0.250000X-0.475000X0.250000X-0.475000X-0.250000X0.475000X-0.250000X0.475000X0.250000X0*%
%TD*%
%TA.AperFunction,SMDPad,CuDef*%
%ADD19RoundRect,0.250000X0.250000X0.475000X-0.250000X0.475000X-0.250000X-0.475000X0.250000X-0.475000X0*%
%TD*%
%TA.AperFunction,SMDPad,CuDef*%
%ADD20RoundRect,0.150000X0.150000X-0.825000X0.150000X0.825000X-0.150000X0.825000X-0.150000X-0.825000X0*%
%TD*%
%TA.AperFunction,SMDPad,CuDef*%
%ADD21RoundRect,0.250000X0.475000X-0.250000X0.475000X0.250000X-0.475000X0.250000X-0.475000X-0.250000X0*%
%TD*%
%TA.AperFunction,ComponentPad*%
%ADD22R,1.930000X1.830000*%
%TD*%
%TA.AperFunction,ComponentPad*%
%ADD23C,2.130000*%
%TD*%
%TA.AperFunction,SMDPad,CuDef*%
%ADD24RoundRect,0.250000X0.650000X-1.000000X0.650000X1.000000X-0.650000X1.000000X-0.650000X-1.000000X0*%
%TD*%
%TA.AperFunction,SMDPad,CuDef*%
%ADD25RoundRect,0.250000X0.262500X0.450000X-0.262500X0.450000X-0.262500X-0.450000X0.262500X-0.450000X0*%
%TD*%
%TA.AperFunction,SMDPad,CuDef*%
%ADD26RoundRect,0.250000X-0.650000X1.000000X-0.650000X-1.000000X0.650000X-1.000000X0.650000X1.000000X0*%
%TD*%
%TA.AperFunction,SMDPad,CuDef*%
%ADD27RoundRect,0.150000X-0.587500X-0.150000X0.587500X-0.150000X0.587500X0.150000X-0.587500X0.150000X0*%
%TD*%
%TA.AperFunction,ComponentPad*%
%ADD28RoundRect,0.250000X-0.600000X-0.600000X0.600000X-0.600000X0.600000X0.600000X-0.600000X0.600000X0*%
%TD*%
%TA.AperFunction,ViaPad*%
%ADD29C,0.600000*%
%TD*%
%TA.AperFunction,Conductor*%
%ADD30C,0.200000*%
%TD*%
G04 APERTURE END LIST*
D10*
%TO.P,J3,1,Pin_1_1*%
%TO.N,/LED_I*%
X125500000Y-56515000D03*
D11*
%TO.P,J3,2,Pin_2_2*%
%TO.N,/INV_I*%
X125500000Y-59055000D03*
%TO.P,J3,3,Pin_3_3*%
%TO.N,GND*%
X125500000Y-61595000D03*
%TO.P,J3,4,Pin_4_4*%
X125500000Y-64135000D03*
%TO.P,J3,5,Pin_5_5*%
%TO.N,/RNG_2_I*%
X125500000Y-66675000D03*
%TO.P,J3,6,Pin_6_6*%
%TO.N,/RNG_3_I*%
X125500000Y-69215000D03*
%TO.P,J3,7,Pin_7_7*%
%TO.N,/SHP_I*%
X125500000Y-71755000D03*
%TD*%
D12*
%TO.P,D1,1,K_1*%
%TO.N,Net-(D1-K)*%
X109000000Y-88000000D03*
%TO.P,D1,2,A_2*%
%TO.N,Net-(D1-A)*%
X105700000Y-88000000D03*
%TD*%
D13*
%TO.P,RATE1,*%
%TO.N,*%
X106350000Y-38865000D03*
X115950000Y-38865000D03*
D14*
%TO.P,RATE1,1,1_1*%
%TO.N,/U1A_O*%
X108650000Y-46365000D03*
D15*
%TO.P,RATE1,2,2_2*%
%TO.N,Net-(D1-K)*%
X111150000Y-46365000D03*
%TO.P,RATE1,3,3_3*%
%TO.N,Net-(R4-Pad2)*%
X113650000Y-46365000D03*
%TD*%
D16*
%TO.P,R4,1*%
%TO.N,/GND_O*%
X118900000Y-44500000D03*
%TO.P,R4,2*%
%TO.N,Net-(R4-Pad2)*%
X118900000Y-42675000D03*
%TD*%
D17*
%TO.P,R23,1*%
%TO.N,+12V*%
X141135000Y-113102500D03*
%TO.P,R23,2*%
%TO.N,Net-(D4-K)*%
X141135000Y-114927500D03*
%TD*%
D13*
%TO.P,RANGE1,*%
%TO.N,*%
X106350000Y-57985000D03*
X115950000Y-57985000D03*
D14*
%TO.P,RANGE1,1,1_1*%
%TO.N,/GND_O*%
X108650000Y-65485000D03*
D15*
%TO.P,RANGE1,2,2_2*%
%TO.N,/RNG_2_O*%
X111150000Y-65485000D03*
%TO.P,RANGE1,3,3_3*%
%TO.N,/RNG_3_O*%
X113650000Y-65485000D03*
%TD*%
D16*
%TO.P,R17,1*%
%TO.N,/TRI_I*%
X130135000Y-72515000D03*
%TO.P,R17,2*%
%TO.N,Net-(R17-Pad2)*%
X130135000Y-70690000D03*
%TD*%
%TO.P,R14,1*%
%TO.N,Net-(Q1-E)*%
X128500000Y-103052500D03*
%TO.P,R14,2*%
%TO.N,/LED_I*%
X128500000Y-101227500D03*
%TD*%
D18*
%TO.P,C6,1*%
%TO.N,+12V*%
X132135000Y-85065000D03*
%TO.P,C6,2*%
%TO.N,GND*%
X132135000Y-86965000D03*
%TD*%
D17*
%TO.P,R20,1*%
%TO.N,/INV_I*%
X137100000Y-63737500D03*
%TO.P,R20,2*%
%TO.N,Net-(R20-Pad2)*%
X137100000Y-65562500D03*
%TD*%
D19*
%TO.P,C1,1*%
%TO.N,Net-(U1B--)*%
X133850000Y-96050000D03*
%TO.P,C1,2*%
%TO.N,/RNG_3_I*%
X131950000Y-96050000D03*
%TD*%
D20*
%TO.P,U1,1*%
%TO.N,/U1A_I*%
X130325000Y-81295000D03*
%TO.P,U1,2,-_2*%
%TO.N,GND*%
X131595000Y-81295000D03*
%TO.P,U1,3,+_3*%
%TO.N,Net-(U1A-+)*%
X132865000Y-81295000D03*
%TO.P,U1,4,V+_4*%
%TO.N,+12V*%
X134135000Y-81295000D03*
%TO.P,U1,5,+_5*%
%TO.N,GND*%
X135405000Y-81295000D03*
%TO.P,U1,6,-_6*%
%TO.N,Net-(U1B--)*%
X136675000Y-81295000D03*
%TO.P,U1,7*%
%TO.N,/RNG_3_I*%
X137945000Y-81295000D03*
%TO.P,U1,8*%
%TO.N,Net-(R17-Pad2)*%
X137945000Y-76345000D03*
%TO.P,U1,9,-_9*%
%TO.N,Net-(U1C--)*%
X136675000Y-76345000D03*
%TO.P,U1,10,+_10*%
%TO.N,GND*%
X135405000Y-76345000D03*
%TO.P,U1,11,V-_11*%
%TO.N,-12V*%
X134135000Y-76345000D03*
%TO.P,U1,12,+_12*%
%TO.N,GND*%
X132865000Y-76345000D03*
%TO.P,U1,13,-_13*%
%TO.N,Net-(U1D--)*%
X131595000Y-76345000D03*
%TO.P,U1,14*%
%TO.N,Net-(R20-Pad2)*%
X130325000Y-76345000D03*
%TD*%
D16*
%TO.P,R2,1*%
%TO.N,/PWM_I*%
X129150000Y-91762500D03*
%TO.P,R2,2*%
%TO.N,/U1A_I*%
X129150000Y-89937500D03*
%TD*%
D12*
%TO.P,D2,1,K_1*%
%TO.N,Net-(D2-K)*%
X115500000Y-88000000D03*
%TO.P,D2,2,A_2*%
%TO.N,Net-(D1-K)*%
X112200000Y-88000000D03*
%TD*%
D21*
%TO.P,C7,1*%
%TO.N,GND*%
X127135000Y-79915000D03*
%TO.P,C7,2*%
%TO.N,-12V*%
X127135000Y-78015000D03*
%TD*%
D17*
%TO.P,R24,1*%
%TO.N,-12V*%
X126135000Y-113190000D03*
%TO.P,R24,2*%
%TO.N,Net-(D5-A)*%
X126135000Y-115015000D03*
%TD*%
D16*
%TO.P,R6,1*%
%TO.N,Net-(U1B--)*%
X135500000Y-91912500D03*
%TO.P,R6,2*%
%TO.N,/SHP_I*%
X135500000Y-90087500D03*
%TD*%
%TO.P,R18,1*%
%TO.N,Net-(R17-Pad2)*%
X140800000Y-74812500D03*
%TO.P,R18,2*%
%TO.N,Net-(U1C--)*%
X140800000Y-72987500D03*
%TD*%
D21*
%TO.P,C2,1*%
%TO.N,+12V*%
X140250000Y-85400000D03*
%TO.P,C2,2*%
%TO.N,GND*%
X140250000Y-83500000D03*
%TD*%
D10*
%TO.P,J5,1,Pin_1_1*%
%TO.N,/U1A_I*%
X142000000Y-89750000D03*
D11*
%TO.P,J5,2,Pin_2_2*%
%TO.N,+12V*%
X142000000Y-92290000D03*
%TO.P,J5,3,Pin_3_3*%
%TO.N,/OFF_I*%
X142000000Y-94830000D03*
%TO.P,J5,4,Pin_4_4*%
%TO.N,-12V*%
X142000000Y-97370000D03*
%TO.P,J5,5,Pin_5_5*%
X142000000Y-99910000D03*
%TO.P,J5,6,Pin_6_6*%
%TO.N,/TRI_I*%
X142000000Y-102450000D03*
%TO.P,J5,7,Pin_7_7*%
%TO.N,/PWM_I*%
X142000000Y-104990000D03*
%TD*%
D22*
%TO.P,INV-OUT1,S*%
%TO.N,/GND_O*%
X107500000Y-122970000D03*
D23*
%TO.P,INV-OUT1,T*%
%TO.N,/INV_O*%
X106000000Y-134120000D03*
%TO.P,INV-OUT1,TN*%
%TO.N,N/C*%
X106000000Y-125820000D03*
%TD*%
D22*
%TO.P,TRI-OUT1,S*%
%TO.N,/GND_O*%
X104520000Y-121230000D03*
D23*
%TO.P,TRI-OUT1,T*%
%TO.N,/TRI_O*%
X106000000Y-110000000D03*
%TO.P,TRI-OUT1,TN*%
%TO.N,N/C*%
X106000000Y-118300000D03*
%TD*%
D24*
%TO.P,D5,1,K_1*%
%TO.N,Net-(D5-K)*%
X126135000Y-124015000D03*
%TO.P,D5,2,A_2*%
%TO.N,Net-(D5-A)*%
X126135000Y-120015000D03*
%TD*%
D16*
%TO.P,R16,1*%
%TO.N,Net-(U1C--)*%
X141200000Y-80025000D03*
%TO.P,R16,2*%
%TO.N,/OFF_I*%
X141200000Y-78200000D03*
%TD*%
D17*
%TO.P,R19,1*%
%TO.N,Net-(U1C--)*%
X129350000Y-65737500D03*
%TO.P,R19,2*%
%TO.N,/RNG_2_I*%
X129350000Y-67562500D03*
%TD*%
D14*
%TO.P,D3,1,K_1*%
%TO.N,/GND_O*%
X119970000Y-50100000D03*
D15*
%TO.P,D3,2,A_2*%
%TO.N,/LED_O*%
X117430000Y-50100000D03*
%TD*%
D25*
%TO.P,R5,1*%
%TO.N,/RNG_3_I*%
X137162500Y-85387500D03*
%TO.P,R5,2*%
%TO.N,Net-(U1A-+)*%
X135337500Y-85387500D03*
%TD*%
D21*
%TO.P,C3,1*%
%TO.N,GND*%
X128085000Y-97040000D03*
%TO.P,C3,2*%
%TO.N,-12V*%
X128085000Y-95140000D03*
%TD*%
D16*
%TO.P,R3,1*%
%TO.N,GND*%
X132150000Y-91762500D03*
%TO.P,R3,2*%
%TO.N,/PWM_I*%
X132150000Y-89937500D03*
%TD*%
D17*
%TO.P,R21,1*%
%TO.N,Net-(R20-Pad2)*%
X137150000Y-70487500D03*
%TO.P,R21,2*%
%TO.N,Net-(U1D--)*%
X137150000Y-72312500D03*
%TD*%
D13*
%TO.P,SHAPE1,*%
%TO.N,*%
X106350000Y-77105000D03*
X115950000Y-77105000D03*
D14*
%TO.P,SHAPE1,1,1_1*%
%TO.N,Net-(D1-A)*%
X108650000Y-84605000D03*
D15*
%TO.P,SHAPE1,2,2_2*%
%TO.N,/SHP_O*%
X111150000Y-84605000D03*
%TO.P,SHAPE1,3,3_3*%
%TO.N,Net-(D2-K)*%
X113650000Y-84605000D03*
%TD*%
D13*
%TO.P,OFFSET1,*%
%TO.N,*%
X106350000Y-96225000D03*
X115950000Y-96225000D03*
D14*
%TO.P,OFFSET1,1,1_1*%
%TO.N,/+12_O*%
X108650000Y-103725000D03*
D15*
%TO.P,OFFSET1,2,2_2*%
%TO.N,/OFF_O*%
X111150000Y-103725000D03*
%TO.P,OFFSET1,3,3_3*%
%TO.N,/-12_O*%
X113650000Y-103725000D03*
%TD*%
D16*
%TO.P,R1,1*%
%TO.N,Net-(U1A-+)*%
X129150000Y-86962500D03*
%TO.P,R1,2*%
%TO.N,/U1A_I*%
X129150000Y-85137500D03*
%TD*%
D26*
%TO.P,D4,1,K_1*%
%TO.N,Net-(D4-K)*%
X141135000Y-120015000D03*
%TO.P,D4,2,A_2*%
%TO.N,Net-(D4-A)*%
X141135000Y-124015000D03*
%TD*%
D17*
%TO.P,R22,1*%
%TO.N,Net-(R17-Pad2)*%
X133635000Y-70602500D03*
%TO.P,R22,2*%
%TO.N,Net-(U1D--)*%
X133635000Y-72427500D03*
%TD*%
D27*
%TO.P,Q1,1,B_1*%
%TO.N,/RNG_3_I*%
X132062500Y-100127500D03*
%TO.P,Q1,2,E_2*%
%TO.N,Net-(Q1-E)*%
X132062500Y-102027500D03*
%TO.P,Q1,3,C_3*%
%TO.N,+12V*%
X133937500Y-101077500D03*
%TD*%
D22*
%TO.P,PWM-OUT1,S*%
%TO.N,/GND_O*%
X115680000Y-121380000D03*
D23*
%TO.P,PWM-OUT1,T*%
%TO.N,/PWM_O*%
X116300000Y-109980000D03*
%TO.P,PWM-OUT1,TN*%
%TO.N,N/C*%
X116300000Y-118280000D03*
%TD*%
D10*
%TO.P,J6,1,Pin_1_1*%
%TO.N,/U1A_O*%
X119500000Y-89760000D03*
D11*
%TO.P,J6,2,Pin_2_2*%
%TO.N,/+12_O*%
X119500000Y-92300000D03*
%TO.P,J6,3,Pin_3_3*%
%TO.N,/OFF_O*%
X119500000Y-94840000D03*
%TO.P,J6,4,Pin_4_4*%
%TO.N,/-12_O*%
X119500000Y-97380000D03*
%TO.P,J6,5,Pin_5_5*%
X119500000Y-99920000D03*
%TO.P,J6,6,Pin_6_6*%
%TO.N,/TRI_O*%
X119500000Y-102460000D03*
%TO.P,J6,7,Pin_7_7*%
%TO.N,/PWM_O*%
X119500000Y-105000000D03*
%TD*%
D28*
%TO.P,J1,1,Pin_1_1*%
%TO.N,Net-(D5-K)*%
X132500000Y-124500000D03*
D11*
%TO.P,J1,2,Pin_2_2*%
X135040000Y-124500000D03*
%TO.P,J1,3,Pin_3_3*%
%TO.N,GND*%
X132500000Y-121960000D03*
%TO.P,J1,4,Pin_4_4*%
X135040000Y-121960000D03*
%TO.P,J1,5,Pin_5_5*%
X132500000Y-119420000D03*
%TO.P,J1,6,Pin_6_6*%
X135040000Y-119420000D03*
%TO.P,J1,7,Pin_7_7*%
X132500000Y-116880000D03*
%TO.P,J1,8,Pin_8_8*%
X135040000Y-116880000D03*
%TO.P,J1,9,Pin_9_9*%
%TO.N,Net-(D4-A)*%
X132500000Y-114340000D03*
%TO.P,J1,10,Pin_10_10*%
X135040000Y-114340000D03*
%TD*%
D10*
%TO.P,J4,1,Pin_1_1*%
%TO.N,/LED_O*%
X103000000Y-56500000D03*
D11*
%TO.P,J4,2,Pin_2_2*%
%TO.N,/INV_O*%
X103000000Y-59040000D03*
%TO.P,J4,3,Pin_3_3*%
%TO.N,/GND_O*%
X103000000Y-61580000D03*
%TO.P,J4,4,Pin_4_4*%
X103000000Y-64120000D03*
%TO.P,J4,5,Pin_5_5*%
%TO.N,/RNG_2_O*%
X103000000Y-66660000D03*
%TO.P,J4,6,Pin_6_6*%
%TO.N,/RNG_3_O*%
X103000000Y-69200000D03*
%TO.P,J4,7,Pin_7_7*%
%TO.N,/SHP_O*%
X103000000Y-71740000D03*
%TD*%
D29*
%TO.N,Net-(R17-Pad2)*%
X140000000Y-75800000D03*
X139100000Y-76700000D03*
%TO.N,GND*%
X135400000Y-76300000D03*
X140200000Y-83500000D03*
X135400000Y-81300000D03*
X128100000Y-97000000D03*
X132200000Y-91800000D03*
X132100000Y-87000000D03*
X131600000Y-81300000D03*
X127100000Y-79900000D03*
%TO.N,/RNG_3_I*%
X132400000Y-95600000D03*
X137500000Y-94600000D03*
X137600000Y-81600000D03*
X136100000Y-82800000D03*
%TO.N,Net-(R20-Pad2)*%
X136000000Y-70500000D03*
X132900000Y-73500000D03*
%TO.N,/U1A_I*%
X130200000Y-82000000D03*
X129200000Y-85900000D03*
X129200000Y-88500000D03*
X133500000Y-89000000D03*
%TO.N,+12V*%
X133900000Y-82100000D03*
X133200000Y-85400000D03*
X139800000Y-85500000D03*
X138500000Y-86200000D03*
X139800000Y-91300000D03*
X133800000Y-92500000D03*
%TO.N,Net-(U1D--)*%
X136700000Y-72600000D03*
X135800000Y-73500000D03*
%TO.N,-12V*%
X133800000Y-76600000D03*
X128200000Y-76900000D03*
X127100000Y-85600000D03*
X127100000Y-93400000D03*
%TO.N,Net-(U1B--)*%
X134300000Y-93200000D03*
X135200000Y-92300000D03*
%TO.N,Net-(U1A-+)*%
X132900000Y-82100000D03*
X132900000Y-83300000D03*
%TO.N,/U1A_O*%
X116200000Y-54000000D03*
X114400000Y-52200000D03*
%TO.N,/TRI_I*%
X139100000Y-96200000D03*
%TD*%
%TO.N,+12V*%
D30*
X133200000Y-85400000D02*
X132135000Y-85065000D01*
%TO.N,/U1A_I*%
X129200000Y-85900000D02*
X129200000Y-85650000D01*
%TO.N,Net-(R17-Pad2)*%
X138100000Y-76700000D02*
X139100000Y-76700000D01*
X137900000Y-76500000D02*
X138100000Y-76700000D01*
X129600000Y-74600000D02*
X129600000Y-77400000D01*
X132300000Y-71900000D02*
X129600000Y-74600000D01*
X130100000Y-70700000D02*
X130135000Y-70690000D01*
X131100000Y-70700000D02*
X130100000Y-70700000D01*
X132300000Y-71900000D02*
X131100000Y-70700000D01*
X140800000Y-75000000D02*
X140800000Y-74800000D01*
X140000000Y-75800000D02*
X140800000Y-75000000D01*
X137900000Y-76300000D02*
X137945000Y-76345000D01*
X137900000Y-76900000D02*
X137900000Y-76300000D01*
X137100000Y-77700000D02*
X137900000Y-76900000D01*
X129900000Y-77700000D02*
X137100000Y-77700000D01*
X129600000Y-77400000D02*
X129900000Y-77700000D01*
X133600000Y-70600000D02*
X132300000Y-71900000D01*
X133635000Y-70602500D02*
X133600000Y-70600000D01*
%TO.N,GND*%
X135400000Y-75900000D02*
X134500000Y-75000000D01*
X135400000Y-76300000D02*
X135400000Y-75900000D01*
X132900000Y-76300000D02*
X132865000Y-76345000D01*
X132900000Y-75900000D02*
X132900000Y-76300000D01*
X133800000Y-75000000D02*
X132900000Y-75900000D01*
X134500000Y-75000000D02*
X133800000Y-75000000D01*
X135400000Y-76300000D02*
X135405000Y-76345000D01*
X140200000Y-83500000D02*
X140250000Y-83500000D01*
X128100000Y-97000000D02*
X128085000Y-97040000D01*
X132200000Y-91800000D02*
X132150000Y-91762500D01*
X132100000Y-87000000D02*
X132135000Y-86965000D01*
X127100000Y-79900000D02*
X127135000Y-79915000D01*
%TO.N,/RNG_3_I*%
X137500000Y-86700000D02*
X137500000Y-94600000D01*
X136800000Y-86000000D02*
X137500000Y-86700000D01*
X137600000Y-85000000D02*
X137200000Y-85400000D01*
X137600000Y-81600000D02*
X137600000Y-85000000D01*
X130000000Y-82700000D02*
X136000000Y-82700000D01*
X128800000Y-81500000D02*
X130000000Y-82700000D01*
X132100000Y-100100000D02*
X132062500Y-100127500D01*
X132100000Y-96100000D02*
X132100000Y-100100000D01*
X132000000Y-96000000D02*
X132100000Y-96100000D01*
X132000000Y-96000000D02*
X131950000Y-96050000D01*
X132400000Y-95600000D02*
X132000000Y-96000000D01*
X136800000Y-85800000D02*
X136800000Y-86000000D01*
X137200000Y-85400000D02*
X136800000Y-85800000D01*
X137200000Y-85400000D02*
X137162500Y-85387500D01*
X137900000Y-81300000D02*
X137945000Y-81295000D01*
X137600000Y-81600000D02*
X137900000Y-81300000D01*
X128800000Y-72500000D02*
X128800000Y-81500000D01*
X125500000Y-69200000D02*
X128800000Y-72500000D01*
%TO.N,Net-(R20-Pad2)*%
X137100000Y-70500000D02*
X137100000Y-65562500D01*
X130300000Y-75900000D02*
X132700000Y-73500000D01*
X130300000Y-76300000D02*
X130300000Y-75900000D01*
X137200000Y-70500000D02*
X137150000Y-70487500D01*
X136000000Y-70500000D02*
X137200000Y-70500000D01*
X132700000Y-73500000D02*
X132900000Y-73500000D01*
X130325000Y-76345000D02*
X130300000Y-76300000D01*
%TO.N,/U1A_I*%
X130100000Y-89000000D02*
X133500000Y-89000000D01*
X129300000Y-89800000D02*
X130100000Y-89000000D01*
X130300000Y-81300000D02*
X130325000Y-81295000D01*
X130300000Y-81900000D02*
X130300000Y-81300000D01*
X129200000Y-85100000D02*
X129150000Y-85137500D01*
X129200000Y-85900000D02*
X129200000Y-85100000D01*
X129200000Y-89700000D02*
X129200000Y-88500000D01*
X129300000Y-89800000D02*
X129200000Y-89700000D01*
X129200000Y-89900000D02*
X129300000Y-89800000D01*
X129150000Y-89937500D02*
X129200000Y-89900000D01*
%TO.N,/GND_O*%
X118900000Y-49000000D02*
X118900000Y-44500000D01*
X120000000Y-50100000D02*
X118900000Y-49000000D01*
X119970000Y-50100000D02*
X120000000Y-50100000D01*
%TO.N,+12V*%
X139900000Y-85400000D02*
X140250000Y-85400000D01*
X133000000Y-93400000D02*
X133800000Y-92600000D01*
X133000000Y-96800000D02*
X133000000Y-93400000D01*
X133900000Y-97700000D02*
X133000000Y-96800000D01*
X133900000Y-101100000D02*
X133900000Y-97700000D01*
X138500000Y-90000000D02*
X138500000Y-86200000D01*
X139800000Y-91300000D02*
X138500000Y-90000000D01*
X134100000Y-81300000D02*
X134135000Y-81295000D01*
X134100000Y-81900000D02*
X134100000Y-81300000D01*
X133900000Y-82100000D02*
X134100000Y-81900000D01*
X132100000Y-85100000D02*
X132135000Y-85065000D01*
X132900000Y-85100000D02*
X132100000Y-85100000D01*
X133200000Y-85400000D02*
X132900000Y-85100000D01*
X141100000Y-113100000D02*
X141135000Y-113102500D01*
X141100000Y-108300000D02*
X141100000Y-113100000D01*
X133900000Y-101100000D02*
X141100000Y-108300000D01*
X133937500Y-101077500D02*
X133900000Y-101100000D01*
%TO.N,Net-(U1D--)*%
X131600000Y-75900000D02*
X133600000Y-73900000D01*
X131600000Y-76300000D02*
X131600000Y-75900000D01*
X137200000Y-72300000D02*
X137150000Y-72312500D01*
X137000000Y-72300000D02*
X137200000Y-72300000D01*
X136700000Y-72600000D02*
X137000000Y-72300000D01*
X134600000Y-72300000D02*
X135800000Y-73500000D01*
X133700000Y-72300000D02*
X134600000Y-72300000D01*
X133600000Y-72400000D02*
X133700000Y-72300000D01*
X133600000Y-72400000D02*
X133635000Y-72427500D01*
X133600000Y-73900000D02*
X133600000Y-72400000D01*
X131595000Y-76345000D02*
X131600000Y-76300000D01*
%TO.N,Net-(D1-K)*%
X116800000Y-47700000D02*
X112500000Y-47700000D01*
X118700000Y-49600000D02*
X116800000Y-47700000D01*
X118700000Y-50600000D02*
X118700000Y-49600000D01*
X111200000Y-61300000D02*
X111200000Y-58100000D01*
X114900000Y-65000000D02*
X111200000Y-61300000D01*
X114900000Y-66000000D02*
X114900000Y-65000000D01*
X112400000Y-68500000D02*
X114900000Y-66000000D01*
X112400000Y-85800000D02*
X112400000Y-68500000D01*
X111200000Y-87000000D02*
X112400000Y-85800000D01*
X110200000Y-88000000D02*
X109000000Y-88000000D01*
X111200000Y-87000000D02*
X110200000Y-88000000D01*
X112500000Y-47700000D02*
X111200000Y-46400000D01*
X111200000Y-58100000D02*
X118700000Y-50600000D01*
X112200000Y-88000000D02*
X111200000Y-87000000D01*
%TO.N,/PWM_I*%
X140800000Y-103000000D02*
X142000000Y-104200000D01*
X140800000Y-98800000D02*
X140800000Y-103000000D01*
X134400000Y-92400000D02*
X140800000Y-98800000D01*
X129200000Y-91800000D02*
X129150000Y-91762500D01*
X130300000Y-91800000D02*
X129200000Y-91800000D01*
X132200000Y-89900000D02*
X130300000Y-91800000D01*
X142000000Y-104200000D02*
X142000000Y-105000000D01*
X134400000Y-92100000D02*
X134400000Y-92400000D01*
X132200000Y-89900000D02*
X134400000Y-92100000D01*
X132150000Y-89937500D02*
X132200000Y-89900000D01*
%TO.N,-12V*%
X126100000Y-84600000D02*
X126100000Y-79300000D01*
X127100000Y-85600000D02*
X126100000Y-84600000D01*
X126100000Y-97400000D02*
X128100000Y-95400000D01*
X126100000Y-113200000D02*
X126100000Y-97400000D01*
X142000000Y-97400000D02*
X142000000Y-99900000D01*
X134100000Y-76300000D02*
X134135000Y-76345000D01*
X133800000Y-76600000D02*
X134100000Y-76300000D01*
X127100000Y-78000000D02*
X128200000Y-76900000D01*
X127100000Y-78000000D02*
X127135000Y-78015000D01*
X127100000Y-78300000D02*
X127100000Y-78000000D01*
X126100000Y-79300000D02*
X127100000Y-78300000D01*
X127100000Y-94100000D02*
X127100000Y-93400000D01*
X128100000Y-95100000D02*
X127100000Y-94100000D01*
X128100000Y-95100000D02*
X128085000Y-95140000D01*
X128100000Y-95400000D02*
X128100000Y-95100000D01*
X126135000Y-113190000D02*
X126100000Y-113200000D01*
%TO.N,Net-(D4-A)*%
X139900000Y-122800000D02*
X141100000Y-124000000D01*
X139900000Y-119200000D02*
X139900000Y-122800000D01*
X135000000Y-114300000D02*
X139900000Y-119200000D01*
X135000000Y-114300000D02*
X132500000Y-114300000D01*
X141100000Y-124000000D02*
X141135000Y-124015000D01*
%TO.N,Net-(U1B--)*%
X136700000Y-90700000D02*
X135200000Y-92200000D01*
X136700000Y-86500000D02*
X136700000Y-90700000D01*
X136300000Y-86100000D02*
X136700000Y-86500000D01*
X136300000Y-84600000D02*
X136300000Y-86100000D01*
X136700000Y-84200000D02*
X136300000Y-84600000D01*
X136700000Y-81300000D02*
X136700000Y-84200000D01*
X136675000Y-81295000D02*
X136700000Y-81300000D01*
X133800000Y-96000000D02*
X133850000Y-96050000D01*
X133800000Y-93700000D02*
X133800000Y-96000000D01*
X134300000Y-93200000D02*
X133800000Y-93700000D01*
%TO.N,/-12_O*%
X119500000Y-99900000D02*
X119500000Y-97400000D01*
X117400000Y-99900000D02*
X119500000Y-99900000D01*
X113600000Y-103700000D02*
X117400000Y-99900000D01*
%TO.N,Net-(D5-K)*%
X132500000Y-124500000D02*
X135000000Y-124500000D01*
X126600000Y-124500000D02*
X132500000Y-124500000D01*
X126100000Y-124000000D02*
X126600000Y-124500000D01*
X126135000Y-124015000D02*
X126100000Y-124000000D01*
%TO.N,Net-(U1A-+)*%
X135300000Y-85400000D02*
X135337500Y-85387500D01*
X134700000Y-86000000D02*
X135300000Y-85400000D01*
X130200000Y-86000000D02*
X134700000Y-86000000D01*
X129200000Y-87000000D02*
X130200000Y-86000000D01*
X129150000Y-86962500D02*
X129200000Y-87000000D01*
X133900000Y-84300000D02*
X132900000Y-83300000D01*
X133900000Y-86000000D02*
X133900000Y-84300000D01*
X132900000Y-81300000D02*
X132865000Y-81295000D01*
X132900000Y-82100000D02*
X132900000Y-81300000D01*
%TO.N,Net-(U1C--)*%
X141200000Y-79800000D02*
X141200000Y-80025000D01*
X140100000Y-78700000D02*
X141200000Y-79800000D01*
X140100000Y-76800000D02*
X140100000Y-78700000D01*
X138300000Y-75000000D02*
X140100000Y-76800000D01*
X136700000Y-75000000D02*
X138300000Y-75000000D01*
X136100000Y-71500000D02*
X136100000Y-72900000D01*
X130300000Y-65700000D02*
X136100000Y-71500000D01*
X129400000Y-65700000D02*
X130300000Y-65700000D01*
X140600000Y-73200000D02*
X140800000Y-73000000D01*
X137000000Y-73200000D02*
X140600000Y-73200000D01*
X136700000Y-73500000D02*
X137000000Y-73200000D01*
X136700000Y-76300000D02*
X136675000Y-76345000D01*
X136700000Y-73500000D02*
X136700000Y-76300000D01*
X136100000Y-72900000D02*
X136700000Y-73500000D01*
X129350000Y-65737500D02*
X129400000Y-65700000D01*
%TO.N,/U1A_O*%
X119500000Y-57300000D02*
X119500000Y-89800000D01*
X116200000Y-54000000D02*
X119500000Y-57300000D01*
X108600000Y-46400000D02*
X114400000Y-52200000D01*
%TO.N,/LED_I*%
X125500000Y-57400000D02*
X125500000Y-56500000D01*
X124300000Y-58600000D02*
X125500000Y-57400000D01*
X124300000Y-89700000D02*
X124300000Y-58600000D01*
X129600000Y-95000000D02*
X124300000Y-89700000D01*
X129600000Y-99100000D02*
X129600000Y-95000000D01*
X128100000Y-100600000D02*
X129600000Y-99100000D01*
X128100000Y-100800000D02*
X128100000Y-100600000D01*
X128500000Y-101200000D02*
X128100000Y-100800000D01*
X128500000Y-101227500D02*
X128500000Y-101200000D01*
%TO.N,/INV_O*%
X101800000Y-61000000D02*
X103000000Y-59800000D01*
X101800000Y-129900000D02*
X101800000Y-61000000D01*
X106000000Y-134100000D02*
X101800000Y-129900000D01*
X103000000Y-59800000D02*
X103000000Y-59000000D01*
%TO.N,/TRI_I*%
X140400000Y-94900000D02*
X139100000Y-96200000D01*
X140400000Y-87200000D02*
X140400000Y-94900000D01*
X139200000Y-86000000D02*
X140400000Y-87200000D01*
X139200000Y-80900000D02*
X139200000Y-86000000D01*
X138200000Y-79900000D02*
X139200000Y-80900000D01*
X131500000Y-79900000D02*
X138200000Y-79900000D01*
X129200000Y-74400000D02*
X129200000Y-77600000D01*
X130600000Y-73000000D02*
X129200000Y-74400000D01*
X129200000Y-77600000D02*
X131500000Y-79900000D01*
X130100000Y-72500000D02*
X130600000Y-73000000D01*
X130135000Y-72515000D02*
X130100000Y-72500000D01*
%TO.N,/SHP_I*%
X133200000Y-87800000D02*
X128400000Y-87800000D01*
X135500000Y-90100000D02*
X133200000Y-87800000D01*
X125500000Y-84900000D02*
X125500000Y-71800000D01*
X128400000Y-87800000D02*
X125500000Y-84900000D01*
%TO.N,/OFF_I*%
X142200000Y-87300000D02*
X142200000Y-79400000D01*
X140800000Y-88700000D02*
X142200000Y-87300000D01*
X140800000Y-93600000D02*
X140800000Y-88700000D01*
X142000000Y-94800000D02*
X140800000Y-93600000D01*
X141200000Y-78400000D02*
X141200000Y-78200000D01*
X142200000Y-79400000D02*
X141200000Y-78400000D01*
%TO.N,/LED_O*%
X111500000Y-56000000D02*
X103500000Y-56000000D01*
X117400000Y-50100000D02*
X111500000Y-56000000D01*
X103500000Y-56000000D02*
X103000000Y-56500000D01*
%TO.N,/+12_O*%
X108600000Y-100800000D02*
X117100000Y-92300000D01*
X108600000Y-103700000D02*
X108600000Y-100800000D01*
X117100000Y-92300000D02*
X119500000Y-92300000D01*
%TO.N,/TRI_O*%
X112000000Y-110000000D02*
X119500000Y-102500000D01*
X106000000Y-110000000D02*
X112000000Y-110000000D01*
%TO.N,/SHP_O*%
X103000000Y-76400000D02*
X103000000Y-71700000D01*
X111200000Y-84600000D02*
X103000000Y-76400000D01*
%TO.N,/INV_I*%
X137100000Y-63700000D02*
X137100000Y-63737500D01*
X130100000Y-63700000D02*
X137100000Y-63700000D01*
X125500000Y-59100000D02*
X130100000Y-63700000D01*
%TO.N,/OFF_O*%
X119500000Y-95400000D02*
X119500000Y-94800000D01*
X111200000Y-103700000D02*
X119500000Y-95400000D01*
%TO.N,/RNG_3_O*%
X109900000Y-69200000D02*
X103000000Y-69200000D01*
X113600000Y-65500000D02*
X109900000Y-69200000D01*
%TO.N,/RNG_2_O*%
X109900000Y-66800000D02*
X103100000Y-66800000D01*
X111200000Y-65500000D02*
X109900000Y-66800000D01*
%TO.N,Net-(R4-Pad2)*%
X118900000Y-42700000D02*
X118900000Y-42675000D01*
X117300000Y-42700000D02*
X118900000Y-42700000D01*
X113600000Y-46400000D02*
X117300000Y-42700000D01*
%TO.N,/PWM_O*%
X119500000Y-106800000D02*
X119500000Y-105000000D01*
X116300000Y-110000000D02*
X119500000Y-106800000D01*
%TO.N,Net-(D4-K)*%
X141100000Y-120000000D02*
X141135000Y-120015000D01*
X141100000Y-114900000D02*
X141100000Y-120000000D01*
X141135000Y-114927500D02*
X141100000Y-114900000D01*
%TO.N,Net-(D5-A)*%
X126100000Y-120000000D02*
X126135000Y-120015000D01*
X126100000Y-115000000D02*
X126100000Y-120000000D01*
X126135000Y-115015000D02*
X126100000Y-115000000D01*
%TO.N,Net-(D1-A)*%
X108600000Y-85100000D02*
X108600000Y-84600000D01*
X105700000Y-88000000D02*
X108600000Y-85100000D01*
%TO.N,/RNG_2_I*%
X129400000Y-67600000D02*
X129350000Y-67562500D01*
X126400000Y-67600000D02*
X129400000Y-67600000D01*
X125500000Y-66700000D02*
X126400000Y-67600000D01*
%TO.N,Net-(D2-K)*%
X113600000Y-86100000D02*
X113600000Y-84600000D01*
X115500000Y-88000000D02*
X113600000Y-86100000D01*
%TO.N,Net-(Q1-E)*%
X132100000Y-102000000D02*
X132062500Y-102027500D01*
X129600000Y-102000000D02*
X132100000Y-102000000D01*
X128500000Y-103100000D02*
X129600000Y-102000000D01*
X128500000Y-103052500D02*
X128500000Y-103100000D01*
%TD*%
%TA.AperFunction,NonConductor*%
G36*
X98442539Y-20520185D02*
G01*
X98488294Y-20572989D01*
X98499500Y-20624500D01*
X98499500Y-43468097D01*
X98536446Y-43701368D01*
X98609433Y-43925996D01*
X98716657Y-44136433D01*
X98801975Y-44253864D01*
X98825455Y-44319668D01*
X98821432Y-44358839D01*
X98799500Y-44440691D01*
X98799500Y-44559309D01*
X98830201Y-44673886D01*
X98889511Y-44776613D01*
X98889513Y-44776615D01*
X98950216Y-44837318D01*
X98983701Y-44898641D01*
X98978717Y-44968333D01*
X98950218Y-45012679D01*
X98889511Y-45073387D01*
X98830201Y-45176114D01*
X98799500Y-45290691D01*
X98799500Y-45409309D01*
X98830201Y-45523886D01*
X98889511Y-45626613D01*
X98889513Y-45626615D01*
X98950216Y-45687318D01*
X98983701Y-45748641D01*
X98978717Y-45818333D01*
X98950218Y-45862679D01*
X98908038Y-45904860D01*
X98889511Y-45923387D01*
X98830201Y-46026114D01*
X98799500Y-46140691D01*
X98799500Y-46140693D01*
X98799500Y-46259308D01*
X98821431Y-46341158D01*
X98819768Y-46411008D01*
X98801974Y-46446136D01*
X98716659Y-46563562D01*
X98609433Y-46774003D01*
X98536446Y-46998631D01*
X98499500Y-47231902D01*
X98499500Y-122118097D01*
X98536446Y-122351368D01*
X98609433Y-122575996D01*
X98716657Y-122786433D01*
X98801975Y-122903864D01*
X98825455Y-122969668D01*
X98821432Y-123008839D01*
X98799500Y-123090691D01*
X98799500Y-123209309D01*
X98830201Y-123323886D01*
X98889511Y-123426613D01*
X98889513Y-123426615D01*
X98950216Y-123487318D01*
X98983701Y-123548641D01*
X98978717Y-123618333D01*
X98950218Y-123662679D01*
X98889511Y-123723387D01*
X98830201Y-123826114D01*
X98799500Y-123940691D01*
X98799500Y-124059309D01*
X98830201Y-124173886D01*
X98889511Y-124276613D01*
X98889513Y-124276615D01*
X98950216Y-124337318D01*
X98983701Y-124398641D01*
X98978717Y-124468333D01*
X98950218Y-124512679D01*
X98908038Y-124554860D01*
X98889511Y-124573387D01*
X98830201Y-124676114D01*
X98799500Y-124790691D01*
X98799500Y-124790693D01*
X98799500Y-124909308D01*
X98821431Y-124991158D01*
X98819768Y-125061008D01*
X98801974Y-125096136D01*
X98716659Y-125213562D01*
X98609433Y-125424003D01*
X98536446Y-125648631D01*
X98499500Y-125881902D01*
X98499500Y-147875500D01*
X98479815Y-147942539D01*
X98427011Y-147988294D01*
X98375500Y-147999500D01*
X79304500Y-147999500D01*
X79237461Y-147979815D01*
X79191706Y-147927011D01*
X79180500Y-147875500D01*
X79180500Y-145362332D01*
X83259501Y-145362332D01*
X83259501Y-145637667D01*
X83259502Y-145637684D01*
X83295439Y-145910655D01*
X83295440Y-145910660D01*
X83295441Y-145910666D01*
X83295442Y-145910668D01*
X83366705Y-146176630D01*
X83472076Y-146431017D01*
X83472081Y-146431028D01*
X83551810Y-146569121D01*
X83609752Y-146669479D01*
X83609754Y-146669482D01*
X83609755Y-146669483D01*
X83777371Y-146887926D01*
X83777377Y-146887933D01*
X83972067Y-147082623D01*
X83972073Y-147082628D01*
X84190522Y-147250249D01*
X84343779Y-147338732D01*
X84428972Y-147387919D01*
X84428977Y-147387921D01*
X84428980Y-147387923D01*
X84683369Y-147493295D01*
X84949335Y-147564560D01*
X85222327Y-147600500D01*
X85222334Y-147600500D01*
X85497668Y-147600500D01*
X85497675Y-147600500D01*
X85770667Y-147564560D01*
X86036633Y-147493295D01*
X86291022Y-147387923D01*
X86529480Y-147250249D01*
X86747929Y-147082628D01*
X86942629Y-146887928D01*
X87110250Y-146669479D01*
X87247924Y-146431021D01*
X87353296Y-146176632D01*
X87424561Y-145910666D01*
X87460501Y-145637674D01*
X87460501Y-145362332D01*
X90219500Y-145362332D01*
X90219500Y-145637667D01*
X90219501Y-145637684D01*
X90255438Y-145910655D01*
X90255439Y-145910660D01*
X90255440Y-145910666D01*
X90255441Y-145910668D01*
X90326704Y-146176630D01*
X90432075Y-146431017D01*
X90432080Y-146431028D01*
X90511809Y-146569121D01*
X90569751Y-146669479D01*
X90569753Y-146669482D01*
X90569754Y-146669483D01*
X90737370Y-146887926D01*
X90737376Y-146887933D01*
X90932066Y-147082623D01*
X90932072Y-147082628D01*
X91150521Y-147250249D01*
X91303778Y-147338732D01*
X91388971Y-147387919D01*
X91388976Y-147387921D01*
X91388979Y-147387923D01*
X91643368Y-147493295D01*
X91909334Y-147564560D01*
X92182326Y-147600500D01*
X92182333Y-147600500D01*
X92457667Y-147600500D01*
X92457674Y-147600500D01*
X92730666Y-147564560D01*
X92996632Y-147493295D01*
X93251021Y-147387923D01*
X93489479Y-147250249D01*
X93707928Y-147082628D01*
X93902628Y-146887928D01*
X94070249Y-146669479D01*
X94207923Y-146431021D01*
X94313295Y-146176632D01*
X94384560Y-145910666D01*
X94420500Y-145637674D01*
X94420500Y-145362326D01*
X94384560Y-145089334D01*
X94313295Y-144823368D01*
X94207923Y-144568979D01*
X94207921Y-144568976D01*
X94207919Y-144568971D01*
X94158732Y-144483778D01*
X94070249Y-144330521D01*
X93902628Y-144112072D01*
X93902623Y-144112066D01*
X93707933Y-143917376D01*
X93707926Y-143917370D01*
X93489483Y-143749754D01*
X93489482Y-143749753D01*
X93489479Y-143749751D01*
X93394407Y-143694861D01*
X93251028Y-143612080D01*
X93251017Y-143612075D01*
X92996630Y-143506704D01*
X92863649Y-143471072D01*
X92730666Y-143435440D01*
X92730660Y-143435439D01*
X92730655Y-143435438D01*
X92457684Y-143399501D01*
X92457679Y-143399500D01*
X92457674Y-143399500D01*
X92182326Y-143399500D01*
X92182320Y-143399500D01*
X92182315Y-143399501D01*
X91909344Y-143435438D01*
X91909337Y-143435439D01*
X91909334Y-143435440D01*
X91853125Y-143450500D01*
X91643369Y-143506704D01*
X91388982Y-143612075D01*
X91388971Y-143612080D01*
X91150516Y-143749754D01*
X90932073Y-143917370D01*
X90932066Y-143917376D01*
X90737376Y-144112066D01*
X90737370Y-144112073D01*
X90569754Y-144330516D01*
X90432080Y-144568971D01*
X90432075Y-144568982D01*
X90326704Y-144823369D01*
X90255441Y-145089331D01*
X90255438Y-145089344D01*
X90219501Y-145362315D01*
X90219500Y-145362332D01*
X87460501Y-145362332D01*
X87460501Y-145362326D01*
X87424561Y-145089334D01*
X87353296Y-144823368D01*
X87247924Y-144568979D01*
X87247922Y-144568976D01*
X87247920Y-144568971D01*
X87198733Y-144483778D01*
X87110250Y-144330521D01*
X86942629Y-144112072D01*
X86942624Y-144112066D01*
X86747934Y-143917376D01*
X86747927Y-143917370D01*
X86529484Y-143749754D01*
X86529483Y-143749753D01*
X86529480Y-143749751D01*
X86434408Y-143694861D01*
X86291029Y-143612080D01*
X86291018Y-143612075D01*
X86036631Y-143506704D01*
X85903650Y-143471072D01*
X85770667Y-143435440D01*
X85770661Y-143435439D01*
X85770656Y-143435438D01*
X85497685Y-143399501D01*
X85497680Y-143399500D01*
X85497675Y-143399500D01*
X85222327Y-143399500D01*
X85222321Y-143399500D01*
X85222316Y-143399501D01*
X84949345Y-143435438D01*
X84949338Y-143435439D01*
X84949335Y-143435440D01*
X84893126Y-143450500D01*
X84683370Y-143506704D01*
X84428983Y-143612075D01*
X84428972Y-143612080D01*
X84190517Y-143749754D01*
X83972074Y-143917370D01*
X83972067Y-143917376D01*
X83777377Y-144112066D01*
X83777371Y-144112073D01*
X83609755Y-144330516D01*
X83472081Y-144568971D01*
X83472076Y-144568982D01*
X83366705Y-144823369D01*
X83295442Y-145089331D01*
X83295439Y-145089344D01*
X83259502Y-145362315D01*
X83259501Y-145362332D01*
X79180500Y-145362332D01*
X79180500Y-127450578D01*
X80409501Y-127450578D01*
X80409501Y-127799421D01*
X80443693Y-128146594D01*
X80511745Y-128488721D01*
X80511748Y-128488732D01*
X80613017Y-128822571D01*
X80746517Y-129144867D01*
X80746519Y-129144872D01*
X80910956Y-129452511D01*
X80910973Y-129452539D01*
X81104760Y-129742563D01*
X81104777Y-129742586D01*
X81326085Y-130012251D01*
X81572749Y-130258915D01*
X81572754Y-130258919D01*
X81572755Y-130258920D01*
X81842420Y-130480228D01*
X81842427Y-130480233D01*
X81842437Y-130480240D01*
X82132461Y-130674027D01*
X82132466Y-130674030D01*
X82132478Y-130674038D01*
X82132487Y-130674042D01*
X82132489Y-130674044D01*
X82440128Y-130838481D01*
X82440130Y-130838481D01*
X82440136Y-130838485D01*
X82762431Y-130971984D01*
X83096259Y-131073250D01*
X83096265Y-131073251D01*
X83096268Y-131073252D01*
X83096279Y-131073255D01*
X83438406Y-131141307D01*
X83785576Y-131175500D01*
X83785579Y-131175500D01*
X84134423Y-131175500D01*
X84134426Y-131175500D01*
X84481596Y-131141307D01*
X84548198Y-131128059D01*
X84823722Y-131073255D01*
X84823733Y-131073252D01*
X84823733Y-131073251D01*
X84823743Y-131073250D01*
X85157571Y-130971984D01*
X85479866Y-130838485D01*
X85787524Y-130674038D01*
X86077582Y-130480228D01*
X86347247Y-130258920D01*
X86593921Y-130012246D01*
X86815229Y-129742581D01*
X87009039Y-129452523D01*
X87173486Y-129144865D01*
X87306985Y-128822570D01*
X87408251Y-128488742D01*
X87408253Y-128488732D01*
X87408256Y-128488721D01*
X87476308Y-128146594D01*
X87510501Y-127799421D01*
X87510501Y-127450578D01*
X87476308Y-127103405D01*
X87408256Y-126761278D01*
X87408253Y-126761267D01*
X87408252Y-126761264D01*
X87408251Y-126761258D01*
X87306985Y-126427430D01*
X87173486Y-126105135D01*
X87054168Y-125881908D01*
X87009045Y-125797488D01*
X87009043Y-125797486D01*
X87009039Y-125797477D01*
X86977483Y-125750250D01*
X86815241Y-125507436D01*
X86815234Y-125507426D01*
X86815229Y-125507419D01*
X86593921Y-125237754D01*
X86593920Y-125237753D01*
X86593916Y-125237748D01*
X86347252Y-124991084D01*
X86077587Y-124769776D01*
X86077564Y-124769759D01*
X85787540Y-124575972D01*
X85787512Y-124575955D01*
X85479873Y-124411518D01*
X85479868Y-124411516D01*
X85157572Y-124278016D01*
X84823733Y-124176747D01*
X84823722Y-124176744D01*
X84481595Y-124108692D01*
X84220121Y-124082940D01*
X84134426Y-124074500D01*
X83785576Y-124074500D01*
X83706395Y-124082298D01*
X83438406Y-124108692D01*
X83096279Y-124176744D01*
X83096268Y-124176747D01*
X82762429Y-124278016D01*
X82440133Y-124411516D01*
X82440128Y-124411518D01*
X82132489Y-124575955D01*
X82132461Y-124575972D01*
X81842437Y-124769759D01*
X81842414Y-124769776D01*
X81572749Y-124991084D01*
X81326085Y-125237748D01*
X81104777Y-125507413D01*
X81104760Y-125507436D01*
X80910973Y-125797460D01*
X80910956Y-125797488D01*
X80746519Y-126105127D01*
X80746517Y-126105132D01*
X80613017Y-126427428D01*
X80511748Y-126761267D01*
X80511745Y-126761278D01*
X80443693Y-127103405D01*
X80409501Y-127450578D01*
X79180500Y-127450578D01*
X79180500Y-114725578D01*
X80409501Y-114725578D01*
X80409501Y-115074421D01*
X80443693Y-115421594D01*
X80511745Y-115763721D01*
X80511748Y-115763732D01*
X80613017Y-116097571D01*
X80746517Y-116419867D01*
X80746519Y-116419872D01*
X80910956Y-116727511D01*
X80910973Y-116727539D01*
X81104760Y-117017563D01*
X81104777Y-117017586D01*
X81326085Y-117287251D01*
X81572749Y-117533915D01*
X81572754Y-117533919D01*
X81572755Y-117533920D01*
X81842420Y-117755228D01*
X81842427Y-117755233D01*
X81842437Y-117755240D01*
X82132461Y-117949027D01*
X82132466Y-117949030D01*
X82132478Y-117949038D01*
X82132487Y-117949042D01*
X82132489Y-117949044D01*
X82440128Y-118113481D01*
X82440130Y-118113481D01*
X82440136Y-118113485D01*
X82762431Y-118246984D01*
X83096259Y-118348250D01*
X83096265Y-118348251D01*
X83096268Y-118348252D01*
X83096279Y-118348255D01*
X83438406Y-118416307D01*
X83785576Y-118450500D01*
X83785579Y-118450500D01*
X84134423Y-118450500D01*
X84134426Y-118450500D01*
X84481596Y-118416307D01*
X84548198Y-118403059D01*
X84823722Y-118348255D01*
X84823733Y-118348252D01*
X84823733Y-118348251D01*
X84823743Y-118348250D01*
X85157571Y-118246984D01*
X85479866Y-118113485D01*
X85787524Y-117949038D01*
X86077582Y-117755228D01*
X86347247Y-117533920D01*
X86593921Y-117287246D01*
X86815229Y-117017581D01*
X87009039Y-116727523D01*
X87173486Y-116419865D01*
X87306985Y-116097570D01*
X87408251Y-115763742D01*
X87408253Y-115763732D01*
X87408256Y-115763721D01*
X87476308Y-115421594D01*
X87510501Y-115074421D01*
X87510501Y-114725578D01*
X90659501Y-114725578D01*
X90659501Y-115074421D01*
X90693693Y-115421594D01*
X90761745Y-115763721D01*
X90761748Y-115763732D01*
X90863017Y-116097571D01*
X90996517Y-116419867D01*
X90996519Y-116419872D01*
X91160956Y-116727511D01*
X91160973Y-116727539D01*
X91354760Y-117017563D01*
X91354777Y-117017586D01*
X91576085Y-117287251D01*
X91822749Y-117533915D01*
X91822754Y-117533919D01*
X91822755Y-117533920D01*
X92092420Y-117755228D01*
X92092427Y-117755233D01*
X92092437Y-117755240D01*
X92382461Y-117949027D01*
X92382466Y-117949030D01*
X92382478Y-117949038D01*
X92382487Y-117949042D01*
X92382489Y-117949044D01*
X92690128Y-118113481D01*
X92690130Y-118113481D01*
X92690136Y-118113485D01*
X93012431Y-118246984D01*
X93346259Y-118348250D01*
X93346265Y-118348251D01*
X93346268Y-118348252D01*
X93346279Y-118348255D01*
X93688406Y-118416307D01*
X94035576Y-118450500D01*
X94035579Y-118450500D01*
X94384423Y-118450500D01*
X94384426Y-118450500D01*
X94731596Y-118416307D01*
X94798198Y-118403059D01*
X95073722Y-118348255D01*
X95073733Y-118348252D01*
X95073733Y-118348251D01*
X95073743Y-118348250D01*
X95407571Y-118246984D01*
X95729866Y-118113485D01*
X96037524Y-117949038D01*
X96327582Y-117755228D01*
X96597247Y-117533920D01*
X96843921Y-117287246D01*
X97065229Y-117017581D01*
X97259039Y-116727523D01*
X97423486Y-116419865D01*
X97556985Y-116097570D01*
X97658251Y-115763742D01*
X97658253Y-115763732D01*
X97658256Y-115763721D01*
X97726308Y-115421594D01*
X97760501Y-115074421D01*
X97760501Y-114725578D01*
X97726308Y-114378405D01*
X97658256Y-114036278D01*
X97658253Y-114036267D01*
X97658252Y-114036264D01*
X97658251Y-114036258D01*
X97556985Y-113702430D01*
X97423486Y-113380135D01*
X97259039Y-113072477D01*
X97259028Y-113072460D01*
X97065241Y-112782436D01*
X97065234Y-112782426D01*
X97065229Y-112782419D01*
X96843921Y-112512754D01*
X96843920Y-112512753D01*
X96843916Y-112512748D01*
X96597252Y-112266084D01*
X96327587Y-112044776D01*
X96327564Y-112044759D01*
X96037540Y-111850972D01*
X96037512Y-111850955D01*
X95729873Y-111686518D01*
X95729868Y-111686516D01*
X95407572Y-111553016D01*
X95073733Y-111451747D01*
X95073722Y-111451744D01*
X94731595Y-111383692D01*
X94470121Y-111357940D01*
X94384426Y-111349500D01*
X94035576Y-111349500D01*
X93956395Y-111357298D01*
X93688406Y-111383692D01*
X93346279Y-111451744D01*
X93346268Y-111451747D01*
X93012429Y-111553016D01*
X92690133Y-111686516D01*
X92690128Y-111686518D01*
X92382489Y-111850955D01*
X92382461Y-111850972D01*
X92092437Y-112044759D01*
X92092414Y-112044776D01*
X91822749Y-112266084D01*
X91576085Y-112512748D01*
X91354777Y-112782413D01*
X91354760Y-112782436D01*
X91160973Y-113072460D01*
X91160956Y-113072488D01*
X90996519Y-113380127D01*
X90996517Y-113380132D01*
X90863017Y-113702428D01*
X90761748Y-114036267D01*
X90761745Y-114036278D01*
X90693693Y-114378405D01*
X90659501Y-114725578D01*
X87510501Y-114725578D01*
X87476308Y-114378405D01*
X87408256Y-114036278D01*
X87408253Y-114036267D01*
X87408252Y-114036264D01*
X87408251Y-114036258D01*
X87306985Y-113702430D01*
X87173486Y-113380135D01*
X87009039Y-113072477D01*
X87009028Y-113072460D01*
X86815241Y-112782436D01*
X86815234Y-112782426D01*
X86815229Y-112782419D01*
X86593921Y-112512754D01*
X86593920Y-112512753D01*
X86593916Y-112512748D01*
X86347252Y-112266084D01*
X86077587Y-112044776D01*
X86077564Y-112044759D01*
X85787540Y-111850972D01*
X85787512Y-111850955D01*
X85479873Y-111686518D01*
X85479868Y-111686516D01*
X85157572Y-111553016D01*
X84823733Y-111451747D01*
X84823722Y-111451744D01*
X84481595Y-111383692D01*
X84220121Y-111357940D01*
X84134426Y-111349500D01*
X83785576Y-111349500D01*
X83706395Y-111357298D01*
X83438406Y-111383692D01*
X83096279Y-111451744D01*
X83096268Y-111451747D01*
X82762429Y-111553016D01*
X82440133Y-111686516D01*
X82440128Y-111686518D01*
X82132489Y-111850955D01*
X82132461Y-111850972D01*
X81842437Y-112044759D01*
X81842414Y-112044776D01*
X81572749Y-112266084D01*
X81326085Y-112512748D01*
X81104777Y-112782413D01*
X81104760Y-112782436D01*
X80910973Y-113072460D01*
X80910956Y-113072488D01*
X80746519Y-113380127D01*
X80746517Y-113380132D01*
X80613017Y-113702428D01*
X80511748Y-114036267D01*
X80511745Y-114036278D01*
X80443693Y-114378405D01*
X80409501Y-114725578D01*
X79180500Y-114725578D01*
X79180500Y-96003499D01*
X84339500Y-96003499D01*
X84339500Y-96396500D01*
X84373751Y-96787995D01*
X84373751Y-96787999D01*
X84420004Y-97050309D01*
X84441993Y-97175015D01*
X84543707Y-97554616D01*
X84543708Y-97554618D01*
X84543708Y-97554619D01*
X84678124Y-97923921D01*
X84844195Y-98280062D01*
X84844207Y-98280086D01*
X85040695Y-98620412D01*
X85040704Y-98620427D01*
X85266115Y-98942347D01*
X85458793Y-99171971D01*
X85518722Y-99243391D01*
X85796609Y-99521278D01*
X85884019Y-99594624D01*
X86097652Y-99773884D01*
X86097658Y-99773888D01*
X86097659Y-99773889D01*
X86419579Y-99999300D01*
X86759920Y-100195796D01*
X86759934Y-100195802D01*
X86759937Y-100195804D01*
X87116078Y-100361875D01*
X87116083Y-100361876D01*
X87116092Y-100361881D01*
X87485384Y-100496293D01*
X87864985Y-100598007D01*
X88252007Y-100666249D01*
X88643502Y-100700499D01*
X88643503Y-100700500D01*
X88643504Y-100700500D01*
X89036497Y-100700500D01*
X89036497Y-100700499D01*
X89427993Y-100666249D01*
X89815015Y-100598007D01*
X90194616Y-100496293D01*
X90563908Y-100361881D01*
X90920080Y-100195796D01*
X91260421Y-99999300D01*
X91582341Y-99773889D01*
X91883391Y-99521278D01*
X92161278Y-99243391D01*
X92413889Y-98942341D01*
X92639300Y-98620421D01*
X92835796Y-98280080D01*
X93001881Y-97923908D01*
X93136293Y-97554616D01*
X93238007Y-97175015D01*
X93306249Y-96787993D01*
X93340500Y-96396496D01*
X93340500Y-96003504D01*
X93306249Y-95612007D01*
X93238007Y-95224985D01*
X93136293Y-94845384D01*
X93001881Y-94476092D01*
X93001876Y-94476083D01*
X93001875Y-94476078D01*
X92835804Y-94119937D01*
X92835792Y-94119913D01*
X92823455Y-94098546D01*
X92639300Y-93779579D01*
X92413889Y-93457659D01*
X92413888Y-93457658D01*
X92413884Y-93457652D01*
X92161275Y-93156606D01*
X91883393Y-92878724D01*
X91582347Y-92626115D01*
X91260427Y-92400704D01*
X91260424Y-92400702D01*
X91260421Y-92400700D01*
X91159305Y-92342320D01*
X90920086Y-92204207D01*
X90920062Y-92204195D01*
X90563921Y-92038124D01*
X90563910Y-92038120D01*
X90563908Y-92038119D01*
X90194616Y-91903707D01*
X89953960Y-91839223D01*
X89815016Y-91801993D01*
X89815005Y-91801991D01*
X89427997Y-91733751D01*
X89036500Y-91699500D01*
X89036496Y-91699500D01*
X88643504Y-91699500D01*
X88643499Y-91699500D01*
X88252004Y-91733751D01*
X88252000Y-91733751D01*
X87864994Y-91801991D01*
X87864983Y-91801993D01*
X87661555Y-91856502D01*
X87485384Y-91903707D01*
X87485381Y-91903708D01*
X87485380Y-91903708D01*
X87116078Y-92038124D01*
X86759937Y-92204195D01*
X86759913Y-92204207D01*
X86419587Y-92400695D01*
X86419572Y-92400704D01*
X86097652Y-92626115D01*
X85796606Y-92878724D01*
X85518724Y-93156606D01*
X85266115Y-93457652D01*
X85040704Y-93779572D01*
X85040695Y-93779587D01*
X84844207Y-94119913D01*
X84844195Y-94119937D01*
X84678124Y-94476078D01*
X84543708Y-94845380D01*
X84543708Y-94845382D01*
X84441993Y-95224983D01*
X84441991Y-95224994D01*
X84373751Y-95612000D01*
X84373751Y-95612004D01*
X84339500Y-96003499D01*
X79180500Y-96003499D01*
X79180500Y-76853499D01*
X84339500Y-76853499D01*
X84339500Y-77246500D01*
X84373751Y-77637995D01*
X84373751Y-77637999D01*
X84420004Y-77900309D01*
X84441993Y-78025015D01*
X84543707Y-78404616D01*
X84543708Y-78404618D01*
X84543708Y-78404619D01*
X84678124Y-78773921D01*
X84844195Y-79130062D01*
X84844207Y-79130086D01*
X85040695Y-79470412D01*
X85040704Y-79470427D01*
X85266115Y-79792347D01*
X85458793Y-80021971D01*
X85518722Y-80093391D01*
X85796609Y-80371278D01*
X85884019Y-80444624D01*
X86097652Y-80623884D01*
X86097658Y-80623888D01*
X86097659Y-80623889D01*
X86419579Y-80849300D01*
X86759920Y-81045796D01*
X86759934Y-81045802D01*
X86759937Y-81045804D01*
X87116078Y-81211875D01*
X87116083Y-81211876D01*
X87116092Y-81211881D01*
X87485384Y-81346293D01*
X87864985Y-81448007D01*
X88252007Y-81516249D01*
X88643502Y-81550499D01*
X88643503Y-81550500D01*
X88643504Y-81550500D01*
X89036497Y-81550500D01*
X89036497Y-81550499D01*
X89427993Y-81516249D01*
X89815015Y-81448007D01*
X90194616Y-81346293D01*
X90563908Y-81211881D01*
X90920080Y-81045796D01*
X91260421Y-80849300D01*
X91582341Y-80623889D01*
X91883391Y-80371278D01*
X92161278Y-80093391D01*
X92413889Y-79792341D01*
X92639300Y-79470421D01*
X92835796Y-79130080D01*
X93001881Y-78773908D01*
X93136293Y-78404616D01*
X93238007Y-78025015D01*
X93306249Y-77637993D01*
X93340500Y-77246496D01*
X93340500Y-76853504D01*
X93306249Y-76462007D01*
X93238007Y-76074985D01*
X93136293Y-75695384D01*
X93001881Y-75326092D01*
X93001876Y-75326083D01*
X93001875Y-75326078D01*
X92835804Y-74969937D01*
X92835792Y-74969913D01*
X92823455Y-74948546D01*
X92639300Y-74629579D01*
X92413889Y-74307659D01*
X92413888Y-74307658D01*
X92413884Y-74307652D01*
X92161275Y-74006606D01*
X91883393Y-73728724D01*
X91582347Y-73476115D01*
X91260427Y-73250704D01*
X91260424Y-73250702D01*
X91260421Y-73250700D01*
X91159305Y-73192320D01*
X90920086Y-73054207D01*
X90920062Y-73054195D01*
X90563921Y-72888124D01*
X90563910Y-72888120D01*
X90563908Y-72888119D01*
X90194616Y-72753707D01*
X89953960Y-72689223D01*
X89815016Y-72651993D01*
X89815005Y-72651991D01*
X89427997Y-72583751D01*
X89036500Y-72549500D01*
X89036496Y-72549500D01*
X88643504Y-72549500D01*
X88643499Y-72549500D01*
X88252004Y-72583751D01*
X88252000Y-72583751D01*
X87864994Y-72651991D01*
X87864983Y-72651993D01*
X87661555Y-72706502D01*
X87485384Y-72753707D01*
X87485381Y-72753708D01*
X87485380Y-72753708D01*
X87116078Y-72888124D01*
X86759937Y-73054195D01*
X86759913Y-73054207D01*
X86419587Y-73250695D01*
X86419572Y-73250704D01*
X86097652Y-73476115D01*
X85796606Y-73728724D01*
X85518724Y-74006606D01*
X85266115Y-74307652D01*
X85040704Y-74629572D01*
X85040695Y-74629587D01*
X84844207Y-74969913D01*
X84844195Y-74969937D01*
X84678124Y-75326078D01*
X84543708Y-75695380D01*
X84543708Y-75695382D01*
X84441993Y-76074983D01*
X84441991Y-76074994D01*
X84373751Y-76462000D01*
X84373751Y-76462004D01*
X84339500Y-76853499D01*
X79180500Y-76853499D01*
X79180500Y-57803499D01*
X84339500Y-57803499D01*
X84339500Y-58196500D01*
X84373751Y-58587995D01*
X84373751Y-58587999D01*
X84420004Y-58850309D01*
X84441993Y-58975015D01*
X84543707Y-59354616D01*
X84543708Y-59354618D01*
X84543708Y-59354619D01*
X84678124Y-59723921D01*
X84844195Y-60080062D01*
X84844207Y-60080086D01*
X85040695Y-60420412D01*
X85040704Y-60420427D01*
X85266115Y-60742347D01*
X85458793Y-60971971D01*
X85518722Y-61043391D01*
X85796609Y-61321278D01*
X85884019Y-61394624D01*
X86097652Y-61573884D01*
X86097658Y-61573888D01*
X86097659Y-61573889D01*
X86419579Y-61799300D01*
X86759920Y-61995796D01*
X86759934Y-61995802D01*
X86759937Y-61995804D01*
X87116078Y-62161875D01*
X87116083Y-62161876D01*
X87116092Y-62161881D01*
X87485384Y-62296293D01*
X87864985Y-62398007D01*
X88252007Y-62466249D01*
X88643502Y-62500499D01*
X88643503Y-62500500D01*
X88643504Y-62500500D01*
X89036497Y-62500500D01*
X89036497Y-62500499D01*
X89427993Y-62466249D01*
X89815015Y-62398007D01*
X90194616Y-62296293D01*
X90563908Y-62161881D01*
X90920080Y-61995796D01*
X91260421Y-61799300D01*
X91582341Y-61573889D01*
X91883391Y-61321278D01*
X92161278Y-61043391D01*
X92413889Y-60742341D01*
X92639300Y-60420421D01*
X92835796Y-60080080D01*
X93001881Y-59723908D01*
X93136293Y-59354616D01*
X93238007Y-58975015D01*
X93306249Y-58587993D01*
X93340500Y-58196496D01*
X93340500Y-57803504D01*
X93306249Y-57412007D01*
X93238007Y-57024985D01*
X93136293Y-56645384D01*
X93001881Y-56276092D01*
X93001876Y-56276083D01*
X93001875Y-56276078D01*
X92835804Y-55919937D01*
X92835792Y-55919913D01*
X92823455Y-55898546D01*
X92639300Y-55579579D01*
X92413889Y-55257659D01*
X92413888Y-55257658D01*
X92413884Y-55257652D01*
X92161275Y-54956606D01*
X91883393Y-54678724D01*
X91582347Y-54426115D01*
X91260427Y-54200704D01*
X91260424Y-54200702D01*
X91260421Y-54200700D01*
X91159305Y-54142320D01*
X90920086Y-54004207D01*
X90920062Y-54004195D01*
X90563921Y-53838124D01*
X90563910Y-53838120D01*
X90563908Y-53838119D01*
X90194616Y-53703707D01*
X89953960Y-53639223D01*
X89815016Y-53601993D01*
X89815005Y-53601991D01*
X89427997Y-53533751D01*
X89036500Y-53499500D01*
X89036496Y-53499500D01*
X88643504Y-53499500D01*
X88643499Y-53499500D01*
X88252004Y-53533751D01*
X88252000Y-53533751D01*
X87864994Y-53601991D01*
X87864983Y-53601993D01*
X87661555Y-53656502D01*
X87485384Y-53703707D01*
X87485381Y-53703708D01*
X87485380Y-53703708D01*
X87116078Y-53838124D01*
X86759937Y-54004195D01*
X86759913Y-54004207D01*
X86419587Y-54200695D01*
X86419572Y-54200704D01*
X86097652Y-54426115D01*
X85796606Y-54678724D01*
X85518724Y-54956606D01*
X85266115Y-55257652D01*
X85040704Y-55579572D01*
X85040695Y-55579587D01*
X84844207Y-55919913D01*
X84844195Y-55919937D01*
X84678124Y-56276078D01*
X84543708Y-56645380D01*
X84543708Y-56645382D01*
X84441993Y-57024983D01*
X84441991Y-57024994D01*
X84373751Y-57412000D01*
X84373751Y-57412004D01*
X84339500Y-57803499D01*
X79180500Y-57803499D01*
X79180500Y-49968872D01*
X93999500Y-49968872D01*
X93999500Y-50231127D01*
X94020436Y-50390140D01*
X94033730Y-50491116D01*
X94055178Y-50571161D01*
X94101602Y-50744418D01*
X94101605Y-50744428D01*
X94201953Y-50986690D01*
X94201958Y-50986700D01*
X94333075Y-51213803D01*
X94492718Y-51421851D01*
X94492726Y-51421860D01*
X94678140Y-51607274D01*
X94678148Y-51607281D01*
X94886196Y-51766924D01*
X95113299Y-51898041D01*
X95113309Y-51898046D01*
X95355571Y-51998394D01*
X95355581Y-51998398D01*
X95608884Y-52066270D01*
X95868880Y-52100500D01*
X95868887Y-52100500D01*
X96131113Y-52100500D01*
X96131120Y-52100500D01*
X96391116Y-52066270D01*
X96644419Y-51998398D01*
X96886697Y-51898043D01*
X97113803Y-51766924D01*
X97321851Y-51607282D01*
X97321855Y-51607277D01*
X97321860Y-51607274D01*
X97507274Y-51421860D01*
X97507277Y-51421855D01*
X97507282Y-51421851D01*
X97666924Y-51213803D01*
X97798043Y-50986697D01*
X97898398Y-50744419D01*
X97966270Y-50491116D01*
X98000500Y-50231120D01*
X98000500Y-49968880D01*
X97966270Y-49708884D01*
X97898398Y-49455581D01*
X97800204Y-49218520D01*
X97798046Y-49213309D01*
X97798041Y-49213299D01*
X97666924Y-48986196D01*
X97507281Y-48778148D01*
X97507274Y-48778140D01*
X97321860Y-48592726D01*
X97321851Y-48592718D01*
X97113803Y-48433075D01*
X96886700Y-48301958D01*
X96886690Y-48301953D01*
X96644428Y-48201605D01*
X96644421Y-48201603D01*
X96644419Y-48201602D01*
X96391116Y-48133730D01*
X96333339Y-48126123D01*
X96131127Y-48099500D01*
X96131120Y-48099500D01*
X95868880Y-48099500D01*
X95868872Y-48099500D01*
X95637772Y-48129926D01*
X95608884Y-48133730D01*
X95355581Y-48201602D01*
X95355571Y-48201605D01*
X95113309Y-48301953D01*
X95113299Y-48301958D01*
X94886196Y-48433075D01*
X94678148Y-48592718D01*
X94492718Y-48778148D01*
X94333075Y-48986196D01*
X94201958Y-49213299D01*
X94201953Y-49213309D01*
X94101605Y-49455571D01*
X94101602Y-49455581D01*
X94033730Y-49708885D01*
X93999500Y-49968872D01*
X79180500Y-49968872D01*
X79180500Y-38703499D01*
X84339500Y-38703499D01*
X84339500Y-39096500D01*
X84373751Y-39487995D01*
X84373751Y-39487999D01*
X84420004Y-39750309D01*
X84441993Y-39875015D01*
X84543707Y-40254616D01*
X84543708Y-40254618D01*
X84543708Y-40254619D01*
X84678124Y-40623921D01*
X84844195Y-40980062D01*
X84844207Y-40980086D01*
X85040695Y-41320412D01*
X85040704Y-41320427D01*
X85266115Y-41642347D01*
X85458793Y-41871971D01*
X85518722Y-41943391D01*
X85796609Y-42221278D01*
X85884019Y-42294624D01*
X86097652Y-42473884D01*
X86097658Y-42473888D01*
X86097659Y-42473889D01*
X86419579Y-42699300D01*
X86759920Y-42895796D01*
X86759934Y-42895802D01*
X86759937Y-42895804D01*
X87116078Y-43061875D01*
X87116083Y-43061876D01*
X87116092Y-43061881D01*
X87485384Y-43196293D01*
X87864985Y-43298007D01*
X88252007Y-43366249D01*
X88643502Y-43400499D01*
X88643503Y-43400500D01*
X88643504Y-43400500D01*
X89036497Y-43400500D01*
X89036497Y-43400499D01*
X89427993Y-43366249D01*
X89815015Y-43298007D01*
X90194616Y-43196293D01*
X90563908Y-43061881D01*
X90920080Y-42895796D01*
X91260421Y-42699300D01*
X91582341Y-42473889D01*
X91883391Y-42221278D01*
X92161278Y-41943391D01*
X92413889Y-41642341D01*
X92639300Y-41320421D01*
X92835796Y-40980080D01*
X93001881Y-40623908D01*
X93136293Y-40254616D01*
X93238007Y-39875015D01*
X93306249Y-39487993D01*
X93340500Y-39096496D01*
X93340500Y-38703504D01*
X93306249Y-38312007D01*
X93238007Y-37924985D01*
X93136293Y-37545384D01*
X93001881Y-37176092D01*
X93001876Y-37176083D01*
X93001875Y-37176078D01*
X92835804Y-36819937D01*
X92835792Y-36819913D01*
X92823455Y-36798546D01*
X92639300Y-36479579D01*
X92413889Y-36157659D01*
X92413888Y-36157658D01*
X92413884Y-36157652D01*
X92161275Y-35856606D01*
X91883393Y-35578724D01*
X91582347Y-35326115D01*
X91260427Y-35100704D01*
X91260424Y-35100702D01*
X91260421Y-35100700D01*
X91159305Y-35042320D01*
X90920086Y-34904207D01*
X90920062Y-34904195D01*
X90563921Y-34738124D01*
X90563910Y-34738120D01*
X90563908Y-34738119D01*
X90194616Y-34603707D01*
X89953960Y-34539223D01*
X89815016Y-34501993D01*
X89815005Y-34501991D01*
X89427997Y-34433751D01*
X89036500Y-34399500D01*
X89036496Y-34399500D01*
X88643504Y-34399500D01*
X88643499Y-34399500D01*
X88252004Y-34433751D01*
X88252000Y-34433751D01*
X87864994Y-34501991D01*
X87864983Y-34501993D01*
X87661555Y-34556502D01*
X87485384Y-34603707D01*
X87485381Y-34603708D01*
X87485380Y-34603708D01*
X87116078Y-34738124D01*
X86759937Y-34904195D01*
X86759913Y-34904207D01*
X86419587Y-35100695D01*
X86419572Y-35100704D01*
X86097652Y-35326115D01*
X85796606Y-35578724D01*
X85518724Y-35856606D01*
X85266115Y-36157652D01*
X85040704Y-36479572D01*
X85040695Y-36479587D01*
X84844207Y-36819913D01*
X84844195Y-36819937D01*
X84678124Y-37176078D01*
X84543708Y-37545380D01*
X84543708Y-37545382D01*
X84441993Y-37924983D01*
X84441991Y-37924994D01*
X84373751Y-38312000D01*
X84373751Y-38312004D01*
X84339500Y-38703499D01*
X79180500Y-38703499D01*
X79180500Y-22862332D01*
X83259501Y-22862332D01*
X83259501Y-23137667D01*
X83259502Y-23137684D01*
X83295439Y-23410655D01*
X83295440Y-23410660D01*
X83295441Y-23410666D01*
X83295442Y-23410668D01*
X83366705Y-23676630D01*
X83472076Y-23931017D01*
X83472081Y-23931028D01*
X83551810Y-24069121D01*
X83609752Y-24169479D01*
X83609754Y-24169482D01*
X83609755Y-24169483D01*
X83777371Y-24387926D01*
X83777377Y-24387933D01*
X83972067Y-24582623D01*
X83972073Y-24582628D01*
X84190522Y-24750249D01*
X84343779Y-24838732D01*
X84428972Y-24887919D01*
X84428977Y-24887921D01*
X84428980Y-24887923D01*
X84683369Y-24993295D01*
X84949335Y-25064560D01*
X85222327Y-25100500D01*
X85222334Y-25100500D01*
X85497668Y-25100500D01*
X85497675Y-25100500D01*
X85770667Y-25064560D01*
X86036633Y-24993295D01*
X86291022Y-24887923D01*
X86529480Y-24750249D01*
X86747929Y-24582628D01*
X86942629Y-24387928D01*
X87110250Y-24169479D01*
X87247924Y-23931021D01*
X87353296Y-23676632D01*
X87424561Y-23410666D01*
X87460501Y-23137674D01*
X87460501Y-22862332D01*
X90219500Y-22862332D01*
X90219500Y-23137667D01*
X90219501Y-23137684D01*
X90255438Y-23410655D01*
X90255439Y-23410660D01*
X90255440Y-23410666D01*
X90255441Y-23410668D01*
X90326704Y-23676630D01*
X90432075Y-23931017D01*
X90432080Y-23931028D01*
X90511809Y-24069121D01*
X90569751Y-24169479D01*
X90569753Y-24169482D01*
X90569754Y-24169483D01*
X90737370Y-24387926D01*
X90737376Y-24387933D01*
X90932066Y-24582623D01*
X90932072Y-24582628D01*
X91150521Y-24750249D01*
X91303778Y-24838732D01*
X91388971Y-24887919D01*
X91388976Y-24887921D01*
X91388979Y-24887923D01*
X91643368Y-24993295D01*
X91909334Y-25064560D01*
X92182326Y-25100500D01*
X92182333Y-25100500D01*
X92457667Y-25100500D01*
X92457674Y-25100500D01*
X92730666Y-25064560D01*
X92996632Y-24993295D01*
X93251021Y-24887923D01*
X93489479Y-24750249D01*
X93707928Y-24582628D01*
X93902628Y-24387928D01*
X94070249Y-24169479D01*
X94207923Y-23931021D01*
X94313295Y-23676632D01*
X94384560Y-23410666D01*
X94420500Y-23137674D01*
X94420500Y-22862326D01*
X94384560Y-22589334D01*
X94313295Y-22323368D01*
X94207923Y-22068979D01*
X94207921Y-22068976D01*
X94207919Y-22068971D01*
X94158732Y-21983778D01*
X94070249Y-21830521D01*
X93902628Y-21612072D01*
X93902623Y-21612066D01*
X93707933Y-21417376D01*
X93707926Y-21417370D01*
X93489483Y-21249754D01*
X93489482Y-21249753D01*
X93489479Y-21249751D01*
X93394407Y-21194861D01*
X93251028Y-21112080D01*
X93251017Y-21112075D01*
X92996630Y-21006704D01*
X92863649Y-20971072D01*
X92730666Y-20935440D01*
X92730660Y-20935439D01*
X92730655Y-20935438D01*
X92457684Y-20899501D01*
X92457679Y-20899500D01*
X92457674Y-20899500D01*
X92182326Y-20899500D01*
X92182320Y-20899500D01*
X92182315Y-20899501D01*
X91909344Y-20935438D01*
X91909337Y-20935439D01*
X91909334Y-20935440D01*
X91853125Y-20950500D01*
X91643369Y-21006704D01*
X91388982Y-21112075D01*
X91388971Y-21112080D01*
X91150516Y-21249754D01*
X90932073Y-21417370D01*
X90932066Y-21417376D01*
X90737376Y-21612066D01*
X90737370Y-21612073D01*
X90569754Y-21830516D01*
X90432080Y-22068971D01*
X90432075Y-22068982D01*
X90326704Y-22323369D01*
X90255441Y-22589331D01*
X90255438Y-22589344D01*
X90219501Y-22862315D01*
X90219500Y-22862332D01*
X87460501Y-22862332D01*
X87460501Y-22862326D01*
X87424561Y-22589334D01*
X87353296Y-22323368D01*
X87247924Y-22068979D01*
X87247922Y-22068976D01*
X87247920Y-22068971D01*
X87198733Y-21983778D01*
X87110250Y-21830521D01*
X86942629Y-21612072D01*
X86942624Y-21612066D01*
X86747934Y-21417376D01*
X86747927Y-21417370D01*
X86529484Y-21249754D01*
X86529483Y-21249753D01*
X86529480Y-21249751D01*
X86434408Y-21194861D01*
X86291029Y-21112080D01*
X86291018Y-21112075D01*
X86036631Y-21006704D01*
X85903650Y-20971072D01*
X85770667Y-20935440D01*
X85770661Y-20935439D01*
X85770656Y-20935438D01*
X85497685Y-20899501D01*
X85497680Y-20899500D01*
X85497675Y-20899500D01*
X85222327Y-20899500D01*
X85222321Y-20899500D01*
X85222316Y-20899501D01*
X84949345Y-20935438D01*
X84949338Y-20935439D01*
X84949335Y-20935440D01*
X84893126Y-20950500D01*
X84683370Y-21006704D01*
X84428983Y-21112075D01*
X84428972Y-21112080D01*
X84190517Y-21249754D01*
X83972074Y-21417370D01*
X83972067Y-21417376D01*
X83777377Y-21612066D01*
X83777371Y-21612073D01*
X83609755Y-21830516D01*
X83472081Y-22068971D01*
X83472076Y-22068982D01*
X83366705Y-22323369D01*
X83295442Y-22589331D01*
X83295439Y-22589344D01*
X83259502Y-22862315D01*
X83259501Y-22862332D01*
X79180500Y-22862332D01*
X79180500Y-20624500D01*
X79200185Y-20557461D01*
X79252989Y-20511706D01*
X79304500Y-20500500D01*
X98375500Y-20500500D01*
X98442539Y-20520185D01*
G37*
%TD.AperFunction*%
M02*
