%TF.GenerationSoftware,KiCad,Pcbnew,10.0.4*%
%TF.CreationDate,2026-09-18T15:20:02-07:00*%
%TF.ProjectId,Euro-LFO,4575726f-2d4c-4464-9f2e-6b696361645f,rev?*%
%TF.SameCoordinates,Original*%
%TF.FileFunction,Profile,NP*%
%FSLAX46Y46*%
G04 Gerber Fmt 4.6, Leading zero omitted, Abs format (unit mm)*
G04 Created by KiCad (PCBNEW 10.0.4) date 2026-09-18 15:20:02*
%MOMM*%
%LPD*%
G01*
G04 APERTURE LIST*
%TA.AperFunction,Profile*%
%ADD10C,0.050000*%
%TD*%
%TA.AperFunction,Profile*%
%ADD11C,0.100000*%
%TD*%
G04 APERTURE END LIST*
D10*
X78680000Y-20000000D02*
X78680000Y-148500000D01*
X87010001Y-114900000D02*
G75*
G02*
X80910001Y-114900000I-3050000J0D01*
G01*
X80910001Y-114900000D02*
G75*
G02*
X87010001Y-114900000I3050000J0D01*
G01*
X87010001Y-127625000D02*
G75*
G02*
X80910001Y-127625000I-3050000J0D01*
G01*
X80910001Y-127625000D02*
G75*
G02*
X87010001Y-127625000I3050000J0D01*
G01*
D11*
X86960001Y-23000000D02*
G75*
G02*
X83760001Y-23000000I-1600000J0D01*
G01*
X83760001Y-23000000D02*
G75*
G02*
X86960001Y-23000000I1600000J0D01*
G01*
X86960001Y-145500000D02*
G75*
G02*
X83760001Y-145500000I-1600000J0D01*
G01*
X83760001Y-145500000D02*
G75*
G02*
X86960001Y-145500000I1600000J0D01*
G01*
D10*
X92840000Y-38900000D02*
G75*
G02*
X84840000Y-38900000I-4000000J0D01*
G01*
X84840000Y-38900000D02*
G75*
G02*
X92840000Y-38900000I4000000J0D01*
G01*
X92840000Y-58000000D02*
G75*
G02*
X84840000Y-58000000I-4000000J0D01*
G01*
X84840000Y-58000000D02*
G75*
G02*
X92840000Y-58000000I4000000J0D01*
G01*
X92840000Y-77050000D02*
G75*
G02*
X84840000Y-77050000I-4000000J0D01*
G01*
X84840000Y-77050000D02*
G75*
G02*
X92840000Y-77050000I4000000J0D01*
G01*
X92840000Y-96200000D02*
G75*
G02*
X84840000Y-96200000I-4000000J0D01*
G01*
X84840000Y-96200000D02*
G75*
G02*
X92840000Y-96200000I4000000J0D01*
G01*
D11*
X93920000Y-23000000D02*
G75*
G02*
X90720000Y-23000000I-1600000J0D01*
G01*
X90720000Y-23000000D02*
G75*
G02*
X93920000Y-23000000I1600000J0D01*
G01*
X93920000Y-145500000D02*
G75*
G02*
X90720000Y-145500000I-1600000J0D01*
G01*
X90720000Y-145500000D02*
G75*
G02*
X93920000Y-145500000I1600000J0D01*
G01*
D10*
X97260001Y-114900000D02*
G75*
G02*
X91160001Y-114900000I-3050000J0D01*
G01*
X91160001Y-114900000D02*
G75*
G02*
X97260001Y-114900000I3050000J0D01*
G01*
X97500000Y-50100000D02*
G75*
G02*
X94500000Y-50100000I-1500000J0D01*
G01*
X94500000Y-50100000D02*
G75*
G02*
X97500000Y-50100000I1500000J0D01*
G01*
X99000000Y-20000000D02*
X78680000Y-20000000D01*
X99000000Y-43350000D02*
X99000000Y-20000000D01*
X99000000Y-122000000D02*
X99000000Y-47350000D01*
X99000000Y-148500000D02*
X78680000Y-148500000D01*
X99000000Y-148500000D02*
X99000000Y-126000000D01*
X101000000Y-43350000D02*
X101000000Y-34000000D01*
X101000000Y-122000000D02*
X101000000Y-47350000D01*
X101000000Y-136000000D02*
X101000000Y-126000000D01*
X121337500Y-125950000D02*
X121350000Y-136000000D01*
X121350000Y-136000000D02*
X101000000Y-136000000D01*
X121487500Y-43400000D02*
X121500000Y-34000000D01*
X121487500Y-47400000D02*
X121337500Y-121950000D01*
X121500000Y-34000000D02*
X101000000Y-34000000D01*
X123337500Y-125950000D02*
X123337500Y-134100000D01*
X123487500Y-47400000D02*
X123337500Y-121950000D01*
X123500000Y-33000000D02*
X123487500Y-43400000D01*
X143800000Y-33000000D02*
X123500000Y-33000000D01*
X143800000Y-134100000D02*
X123337500Y-134100000D01*
X143800000Y-134100000D02*
X143800000Y-33000000D01*
%TO.C,REF\u002A\u002A*%
D11*
X99000000Y-47350000D02*
G75*
G02*
X101000000Y-47350000I1000000J0D01*
G01*
X101000000Y-43350000D02*
G75*
G02*
X99000000Y-43350000I-1000000J0D01*
G01*
X99000000Y-126000000D02*
G75*
G02*
X101000000Y-126000000I1000000J0D01*
G01*
X101000000Y-122000000D02*
G75*
G02*
X99000000Y-122000000I-1000000J0D01*
G01*
X121487500Y-47400000D02*
G75*
G02*
X123487500Y-47400000I1000000J0D01*
G01*
X123487500Y-43400000D02*
G75*
G02*
X121487500Y-43400000I-1000000J0D01*
G01*
X121337500Y-125950000D02*
G75*
G02*
X123337500Y-125950000I1000000J0D01*
G01*
X123337500Y-121950000D02*
G75*
G02*
X121337500Y-121950000I-1000000J0D01*
G01*
%TD*%
M02*
