%TF.GenerationSoftware,KiCad,Pcbnew,10.0.4*%
%TF.CreationDate,2026-09-18T15:20:02-07:00*%
%TF.ProjectId,Euro-LFO,4575726f-2d4c-4464-9f2e-6b696361645f,rev?*%
%TF.SameCoordinates,Original*%
%TF.FileFunction,Legend,Top*%
%TF.FilePolarity,Positive*%
%FSLAX46Y46*%
G04 Gerber Fmt 4.6, Leading zero omitted, Abs format (unit mm)*
G04 Created by KiCad (PCBNEW 10.0.4) date 2026-09-18 15:20:02*
%MOMM*%
%LPD*%
G01*
G04 APERTURE LIST*
%ADD10C,0.500000*%
%ADD11C,0.800000*%
%ADD12C,0.100000*%
%ADD13C,0.300000*%
%ADD14C,0.900000*%
%ADD15C,0.150000*%
%ADD16C,0.120000*%
G04 APERTURE END LIST*
D10*
G36*
X94560799Y-29976924D02*
G01*
X94465920Y-29871093D01*
X94329989Y-29779637D01*
X94169892Y-29720566D01*
X93977363Y-29699769D01*
X93847848Y-29708619D01*
X93717062Y-29735490D01*
X93592550Y-29780844D01*
X93482039Y-29844483D01*
X93387115Y-29927312D01*
X93312046Y-30029131D01*
X93264050Y-30148042D01*
X93247016Y-30295294D01*
X93258114Y-30407355D01*
X93288965Y-30496795D01*
X93338559Y-30575040D01*
X93404370Y-30643524D01*
X93482837Y-30701386D01*
X93576378Y-30752517D01*
X93788503Y-30840628D01*
X94052834Y-30954017D01*
X94181362Y-31024559D01*
X94296284Y-31109173D01*
X94395081Y-31209424D01*
X94472505Y-31325144D01*
X94522176Y-31456620D01*
X94539733Y-31616587D01*
X94526575Y-31768372D01*
X94485144Y-31933309D01*
X94413607Y-32091160D01*
X94304710Y-32239406D01*
X94162517Y-32364826D01*
X93973150Y-32470216D01*
X93833112Y-32518281D01*
X93665522Y-32549241D01*
X93465369Y-32560341D01*
X93285691Y-32548081D01*
X93111278Y-32511463D01*
X92940553Y-32450066D01*
X92783651Y-32363116D01*
X92656165Y-32254207D01*
X92554588Y-32121987D01*
X92823133Y-31949795D01*
X92925632Y-32083350D01*
X93074825Y-32199656D01*
X93190861Y-32255514D01*
X93323998Y-32290249D01*
X93477826Y-32302421D01*
X93626202Y-32291290D01*
X93765422Y-32258457D01*
X93894758Y-32204241D01*
X94004658Y-32132611D01*
X94096438Y-32041837D01*
X94166224Y-31933309D01*
X94210023Y-31810897D01*
X94225026Y-31673190D01*
X94211853Y-31553297D01*
X94174651Y-31455204D01*
X94115651Y-31369557D01*
X94038180Y-31295835D01*
X93947288Y-31233693D01*
X93840893Y-31178415D01*
X93603855Y-31081878D01*
X93356193Y-30972885D01*
X93240968Y-30902946D01*
X93142236Y-30821760D01*
X93059118Y-30726265D01*
X92993126Y-30614214D01*
X92951342Y-30487910D01*
X92936523Y-30335228D01*
X92954580Y-30151626D01*
X93007780Y-29982969D01*
X93094845Y-29830540D01*
X93213494Y-29699952D01*
X93360417Y-29594704D01*
X93545054Y-29511092D01*
X93750711Y-29459984D01*
X93994216Y-29441849D01*
X94193996Y-29453742D01*
X94363815Y-29487186D01*
X94508225Y-29539668D01*
X94641890Y-29614632D01*
X94742984Y-29698759D01*
X94816704Y-29792093D01*
X94560799Y-29976924D01*
G37*
G36*
X95334010Y-32490000D02*
G01*
X95035973Y-32490000D01*
X95560607Y-29523914D01*
X97310912Y-29523914D01*
X97264750Y-29793558D01*
X95812482Y-29793558D01*
X95627834Y-30813517D01*
X96975139Y-30813517D01*
X96933190Y-31071437D01*
X95585886Y-31071437D01*
X95334010Y-32490000D01*
G37*
D11*
G36*
X80869295Y-28865219D02*
G01*
X82212386Y-28865219D01*
X82212386Y-31678897D01*
X83527390Y-31678897D01*
X83527390Y-32820000D01*
X80869295Y-32820000D01*
X80869295Y-28865219D01*
G37*
G36*
X85244905Y-30381479D02*
G01*
X86453663Y-30381479D01*
X86453663Y-31475687D01*
X85250523Y-31475687D01*
X85250523Y-32820000D01*
X83940893Y-32820000D01*
X83940893Y-28865219D01*
X86615840Y-28865219D01*
X86615840Y-29975059D01*
X85244905Y-29975059D01*
X85244905Y-30381479D01*
G37*
G36*
X89523290Y-28756867D02*
G01*
X89813403Y-28805769D01*
X90085554Y-28885736D01*
X90345430Y-28998034D01*
X90577701Y-29136117D01*
X90785066Y-29300216D01*
X90967468Y-29491071D01*
X91121951Y-29707729D01*
X91249371Y-29952833D01*
X91341258Y-30213357D01*
X91397881Y-30498516D01*
X91417411Y-30812323D01*
X91398007Y-31126165D01*
X91341496Y-31414391D01*
X91249371Y-31680607D01*
X91121866Y-31931439D01*
X90967347Y-32153622D01*
X90785066Y-32349832D01*
X90577355Y-32519366D01*
X90345056Y-32662035D01*
X90085554Y-32778234D01*
X89813169Y-32861342D01*
X89523089Y-32912098D01*
X89212630Y-32929420D01*
X88902009Y-32912095D01*
X88611849Y-32861336D01*
X88339462Y-32778234D01*
X88080221Y-32661940D01*
X87848934Y-32519260D01*
X87642882Y-32349832D01*
X87462203Y-32153803D01*
X87308466Y-31931624D01*
X87181018Y-31680607D01*
X87089031Y-31414403D01*
X87032600Y-31126175D01*
X87013224Y-30812323D01*
X87013361Y-30810125D01*
X88429099Y-30810125D01*
X88444214Y-31000432D01*
X88487718Y-31168429D01*
X88558707Y-31321131D01*
X88650139Y-31448332D01*
X88763911Y-31552395D01*
X88899023Y-31630293D01*
X89049166Y-31678255D01*
X89212630Y-31694528D01*
X89375465Y-31678193D01*
X89523063Y-31630293D01*
X89656424Y-31552693D01*
X89771946Y-31448332D01*
X89865632Y-31320908D01*
X89937055Y-31168429D01*
X89980741Y-31000421D01*
X89995917Y-30810125D01*
X89980791Y-30625133D01*
X89937055Y-30460369D01*
X89865368Y-30311672D01*
X89771946Y-30191702D01*
X89656898Y-30094635D01*
X89523063Y-30020976D01*
X89375597Y-29975106D01*
X89212630Y-29959427D01*
X89049038Y-29975045D01*
X88899023Y-30020976D01*
X88763418Y-30094928D01*
X88650139Y-30191702D01*
X88558980Y-30311437D01*
X88487718Y-30460369D01*
X88444164Y-30625122D01*
X88429099Y-30810125D01*
X87013361Y-30810125D01*
X87032726Y-30498505D01*
X87089269Y-30213345D01*
X87181018Y-29952833D01*
X87308385Y-29707543D01*
X87462086Y-29490891D01*
X87642882Y-29300216D01*
X87848585Y-29136224D01*
X88079842Y-28998130D01*
X88339462Y-28885736D01*
X88611615Y-28805775D01*
X88901807Y-28756870D01*
X89212630Y-28740167D01*
X89523290Y-28756867D01*
G37*
D12*
X70760000Y-148100000D02*
G75*
G02*
X86000000Y-148100000I7620000J0D01*
G01*
D13*
X73300000Y-148100000D02*
G75*
G02*
X83460000Y-148100000I5080000J0D01*
G01*
D14*
X75840000Y-148100000D02*
G75*
G02*
X80920000Y-148100000I2540000J0D01*
G01*
D12*
X78380000Y-148100000D02*
G75*
G02*
X93620000Y-148100000I7620000J0D01*
G01*
D10*
X80920000Y-19920000D02*
G75*
G02*
X75840000Y-19920000I-2540000J0D01*
G01*
D13*
X80920000Y-148100000D02*
G75*
G02*
X91080000Y-148100000I5080000J0D01*
G01*
X83460000Y-19920000D02*
G75*
G02*
X73300000Y-19920000I-5080000J0D01*
G01*
D14*
X83460000Y-148100000D02*
G75*
G02*
X88540000Y-148100000I2540000J0D01*
G01*
D12*
X83460000Y-148100000D02*
G75*
G02*
X98700000Y-148100000I7620000J0D01*
G01*
X86000000Y-19920000D02*
G75*
G02*
X70760000Y-19920000I-7620000J0D01*
G01*
D13*
X86000000Y-148100000D02*
G75*
G02*
X96160000Y-148100000I5080000J0D01*
G01*
D10*
X88540000Y-19920000D02*
G75*
G02*
X83460000Y-19920000I-2540000J0D01*
G01*
D14*
X88540000Y-148100000D02*
G75*
G02*
X93620000Y-148100000I2540000J0D01*
G01*
D13*
X91080000Y-19920000D02*
G75*
G02*
X80920000Y-19920000I-5080000J0D01*
G01*
D12*
X91080000Y-148100000D02*
G75*
G02*
X106320000Y-148100000I7620000J0D01*
G01*
X93620000Y-19920000D02*
G75*
G02*
X78380000Y-19920000I-7620000J0D01*
G01*
D10*
X93620000Y-19920000D02*
G75*
G02*
X88540000Y-19920000I-2540000J0D01*
G01*
D13*
X93620000Y-148100000D02*
G75*
G02*
X103780000Y-148100000I5080000J0D01*
G01*
X96160000Y-19920000D02*
G75*
G02*
X86000000Y-19920000I-5080000J0D01*
G01*
D14*
X96160000Y-148100000D02*
G75*
G02*
X101240000Y-148100000I2540000J0D01*
G01*
D12*
X98700000Y-19920000D02*
G75*
G02*
X83460000Y-19920000I-7620000J0D01*
G01*
D10*
X101240000Y-19920000D02*
G75*
G02*
X96160000Y-19920000I-2540000J0D01*
G01*
D13*
X103780000Y-19920000D02*
G75*
G02*
X93620000Y-19920000I-5080000J0D01*
G01*
D12*
X106320000Y-19920000D02*
G75*
G02*
X91080000Y-19920000I-7620000J0D01*
G01*
D15*
G36*
X81172034Y-120385819D02*
G01*
X81172034Y-122160000D01*
X81438014Y-122160000D01*
X81438014Y-120385819D01*
X82104431Y-120385819D01*
X82104431Y-120159162D01*
X80505617Y-120159162D01*
X80505617Y-120385819D01*
X81172034Y-120385819D01*
G37*
G36*
X83408569Y-120169107D02*
G01*
X83528214Y-120196954D01*
X83628260Y-120240649D01*
X83711915Y-120299480D01*
X83781511Y-120374924D01*
X83831298Y-120462384D01*
X83862152Y-120564239D01*
X83872993Y-120683918D01*
X83863360Y-120803239D01*
X83835560Y-120909104D01*
X83790317Y-121003876D01*
X83725974Y-121084235D01*
X83639334Y-121146783D01*
X83525680Y-121191943D01*
X83525680Y-121197561D01*
X83606934Y-121220903D01*
X83667096Y-121253492D01*
X83716406Y-121296874D01*
X83753925Y-121347281D01*
X83781704Y-121404293D01*
X83801552Y-121468914D01*
X83825366Y-121608866D01*
X83833792Y-121757121D01*
X83847714Y-121905376D01*
X83879954Y-122043984D01*
X83906406Y-122106198D01*
X83942969Y-122160000D01*
X83646092Y-122160000D01*
X83623306Y-122125053D01*
X83608356Y-122076224D01*
X83595778Y-121957522D01*
X83590160Y-121816472D01*
X83573307Y-121668461D01*
X83545341Y-121530219D01*
X83523251Y-121467975D01*
X83492096Y-121415669D01*
X83450524Y-121371974D01*
X83396842Y-121337390D01*
X83332399Y-121316200D01*
X83240160Y-121308080D01*
X82590596Y-121308080D01*
X82590596Y-122160000D01*
X82324494Y-122160000D01*
X82324494Y-121081423D01*
X82590596Y-121081423D01*
X83144905Y-121081423D01*
X83321249Y-121067501D01*
X83401189Y-121046426D01*
X83468283Y-121013035D01*
X83524721Y-120965807D01*
X83569033Y-120904103D01*
X83596597Y-120829276D01*
X83606891Y-120726660D01*
X83596899Y-120629277D01*
X83568620Y-120548503D01*
X83522871Y-120480830D01*
X83460266Y-120430738D01*
X83372585Y-120398059D01*
X83251273Y-120385819D01*
X82590596Y-120385819D01*
X82590596Y-121081423D01*
X82324494Y-121081423D01*
X82324494Y-120159162D01*
X83265317Y-120159162D01*
X83408569Y-120169107D01*
G37*
G36*
X84252547Y-120159162D02*
G01*
X84252547Y-122160000D01*
X84518527Y-122160000D01*
X84518527Y-120159162D01*
X84252547Y-120159162D01*
G37*
G36*
X82302428Y-44669107D02*
G01*
X82422073Y-44696954D01*
X82522119Y-44740649D01*
X82605774Y-44799480D01*
X82675370Y-44874924D01*
X82725157Y-44962384D01*
X82756011Y-45064239D01*
X82766852Y-45183918D01*
X82757219Y-45303239D01*
X82729419Y-45409104D01*
X82684176Y-45503876D01*
X82619833Y-45584235D01*
X82533193Y-45646783D01*
X82419539Y-45691943D01*
X82419539Y-45697561D01*
X82500793Y-45720903D01*
X82560956Y-45753492D01*
X82610265Y-45796874D01*
X82647784Y-45847281D01*
X82675563Y-45904293D01*
X82695411Y-45968914D01*
X82719225Y-46108866D01*
X82727651Y-46257121D01*
X82741573Y-46405376D01*
X82773813Y-46543984D01*
X82800265Y-46606198D01*
X82836828Y-46660000D01*
X82539951Y-46660000D01*
X82517165Y-46625053D01*
X82502215Y-46576224D01*
X82489637Y-46457522D01*
X82484019Y-46316472D01*
X82467166Y-46168461D01*
X82439200Y-46030219D01*
X82417110Y-45967975D01*
X82385956Y-45915669D01*
X82344383Y-45871974D01*
X82290701Y-45837390D01*
X82226258Y-45816200D01*
X82134019Y-45808080D01*
X81484455Y-45808080D01*
X81484455Y-46660000D01*
X81218353Y-46660000D01*
X81218353Y-45581423D01*
X81484455Y-45581423D01*
X82038764Y-45581423D01*
X82215108Y-45567501D01*
X82295048Y-45546426D01*
X82362142Y-45513035D01*
X82418580Y-45465807D01*
X82462892Y-45404103D01*
X82490456Y-45329276D01*
X82500750Y-45226660D01*
X82490758Y-45129277D01*
X82462479Y-45048503D01*
X82416730Y-44980830D01*
X82354125Y-44930738D01*
X82266444Y-44898059D01*
X82145132Y-44885819D01*
X81484455Y-44885819D01*
X81484455Y-45581423D01*
X81218353Y-45581423D01*
X81218353Y-44659162D01*
X82159176Y-44659162D01*
X82302428Y-44669107D01*
G37*
G36*
X84753646Y-46660000D02*
G01*
X84459577Y-46660000D01*
X84241224Y-46058185D01*
X83395655Y-46058185D01*
X83171563Y-46660000D01*
X82899965Y-46660000D01*
X83222272Y-45831528D01*
X83479675Y-45831528D01*
X84157205Y-45831528D01*
X83824057Y-44900108D01*
X83818440Y-44900108D01*
X83479675Y-45831528D01*
X83222272Y-45831528D01*
X83678367Y-44659162D01*
X83972435Y-44659162D01*
X84753646Y-46660000D01*
G37*
G36*
X85273150Y-44885819D02*
G01*
X85273150Y-46660000D01*
X85539131Y-46660000D01*
X85539131Y-44885819D01*
X86205547Y-44885819D01*
X86205547Y-44659162D01*
X84606734Y-44659162D01*
X84606734Y-44885819D01*
X85273150Y-44885819D01*
G37*
G36*
X86296650Y-44659162D02*
G01*
X86296650Y-46660000D01*
X87685537Y-46660000D01*
X87685537Y-46433342D01*
X86562752Y-46433342D01*
X86562752Y-45745554D01*
X87601517Y-45745554D01*
X87601517Y-45518897D01*
X86562752Y-45518897D01*
X86562752Y-44885819D01*
X87677110Y-44885819D01*
X87677110Y-44659162D01*
X86296650Y-44659162D01*
G37*
G36*
X82802428Y-64169107D02*
G01*
X82922073Y-64196954D01*
X83022119Y-64240649D01*
X83105774Y-64299480D01*
X83175370Y-64374924D01*
X83225157Y-64462384D01*
X83256011Y-64564239D01*
X83266852Y-64683918D01*
X83257219Y-64803239D01*
X83229419Y-64909104D01*
X83184176Y-65003876D01*
X83119833Y-65084235D01*
X83033193Y-65146783D01*
X82919539Y-65191943D01*
X82919539Y-65197561D01*
X83000793Y-65220903D01*
X83060956Y-65253492D01*
X83110265Y-65296874D01*
X83147784Y-65347281D01*
X83175563Y-65404293D01*
X83195411Y-65468914D01*
X83219225Y-65608866D01*
X83227651Y-65757121D01*
X83241573Y-65905376D01*
X83273813Y-66043984D01*
X83300265Y-66106198D01*
X83336828Y-66160000D01*
X83039951Y-66160000D01*
X83017165Y-66125053D01*
X83002215Y-66076224D01*
X82989637Y-65957522D01*
X82984019Y-65816472D01*
X82967166Y-65668461D01*
X82939200Y-65530219D01*
X82917110Y-65467975D01*
X82885956Y-65415669D01*
X82844383Y-65371974D01*
X82790701Y-65337390D01*
X82726258Y-65316200D01*
X82634019Y-65308080D01*
X81984455Y-65308080D01*
X81984455Y-66160000D01*
X81718353Y-66160000D01*
X81718353Y-65081423D01*
X81984455Y-65081423D01*
X82538764Y-65081423D01*
X82715108Y-65067501D01*
X82795048Y-65046426D01*
X82862142Y-65013035D01*
X82918580Y-64965807D01*
X82962892Y-64904103D01*
X82990456Y-64829276D01*
X83000750Y-64726660D01*
X82990758Y-64629277D01*
X82962479Y-64548503D01*
X82916730Y-64480830D01*
X82854125Y-64430738D01*
X82766444Y-64398059D01*
X82645132Y-64385819D01*
X81984455Y-64385819D01*
X81984455Y-65081423D01*
X81718353Y-65081423D01*
X81718353Y-64159162D01*
X82659176Y-64159162D01*
X82802428Y-64169107D01*
G37*
G36*
X85253646Y-66160000D02*
G01*
X84959577Y-66160000D01*
X84741224Y-65558185D01*
X83895655Y-65558185D01*
X83671563Y-66160000D01*
X83399965Y-66160000D01*
X83722272Y-65331528D01*
X83979675Y-65331528D01*
X84657205Y-65331528D01*
X84324057Y-64400108D01*
X84318440Y-64400108D01*
X83979675Y-65331528D01*
X83722272Y-65331528D01*
X84178367Y-64159162D01*
X84472435Y-64159162D01*
X85253646Y-66160000D01*
G37*
G36*
X85445621Y-64159162D02*
G01*
X85445621Y-66160000D01*
X85697679Y-66160000D01*
X85697679Y-64554225D01*
X85703297Y-64554225D01*
X86747679Y-66160000D01*
X87038817Y-66160000D01*
X87038817Y-64159162D01*
X86786880Y-64159162D01*
X86786880Y-65781667D01*
X86781263Y-65781667D01*
X85728454Y-64159162D01*
X85445621Y-64159162D01*
G37*
G36*
X88964061Y-65911727D02*
G01*
X89034036Y-66161953D01*
X89202076Y-66161953D01*
X89202076Y-65104870D01*
X88325610Y-65104870D01*
X88325610Y-65331528D01*
X88964061Y-65331528D01*
X88957581Y-65466408D01*
X88927669Y-65589448D01*
X88875154Y-65701967D01*
X88802983Y-65797909D01*
X88711905Y-65876458D01*
X88600017Y-65937372D01*
X88473680Y-65974795D01*
X88322801Y-65988053D01*
X88212443Y-65980320D01*
X88114623Y-65958091D01*
X88027390Y-65922229D01*
X87909906Y-65844875D01*
X87813189Y-65745519D01*
X87737525Y-65627373D01*
X87681664Y-65490286D01*
X87648151Y-65343353D01*
X87636845Y-65188768D01*
X87646675Y-65030414D01*
X87676046Y-64876015D01*
X87726718Y-64730136D01*
X87797801Y-64603928D01*
X87858017Y-64529800D01*
X87928660Y-64465957D01*
X88010659Y-64411831D01*
X88100171Y-64372336D01*
X88203324Y-64347616D01*
X88322801Y-64338925D01*
X88432733Y-64345719D01*
X88534193Y-64365547D01*
X88629241Y-64399227D01*
X88712002Y-64445415D01*
X88783789Y-64505621D01*
X88843527Y-64581214D01*
X88887596Y-64669730D01*
X88916434Y-64778562D01*
X89182414Y-64778562D01*
X89157277Y-64662986D01*
X89122011Y-64563332D01*
X89077390Y-64477533D01*
X88990809Y-64363034D01*
X88887002Y-64270903D01*
X88766946Y-64200173D01*
X88629448Y-64150491D01*
X88482264Y-64122023D01*
X88322801Y-64112267D01*
X88166132Y-64122736D01*
X88028484Y-64152682D01*
X87906978Y-64200683D01*
X87794153Y-64266853D01*
X87695655Y-64345647D01*
X87610223Y-64437599D01*
X87538258Y-64540732D01*
X87478522Y-64655687D01*
X87431071Y-64783813D01*
X87397847Y-64916819D01*
X87377688Y-65055369D01*
X87370865Y-65200247D01*
X87378065Y-65329969D01*
X87399507Y-65455895D01*
X87435223Y-65578824D01*
X87485115Y-65696410D01*
X87547553Y-65803546D01*
X87622801Y-65901224D01*
X87710341Y-65987872D01*
X87809812Y-66062067D01*
X87922365Y-66124218D01*
X88042570Y-66169362D01*
X88175371Y-66197245D01*
X88322923Y-66206894D01*
X88439243Y-66199363D01*
X88555575Y-66176604D01*
X88672801Y-66138018D01*
X88781769Y-66082627D01*
X88878423Y-66007776D01*
X88964061Y-65911727D01*
G37*
G36*
X89592742Y-64159162D02*
G01*
X89592742Y-66160000D01*
X90981629Y-66160000D01*
X90981629Y-65933342D01*
X89858845Y-65933342D01*
X89858845Y-65245554D01*
X90897609Y-65245554D01*
X90897609Y-65018897D01*
X89858845Y-65018897D01*
X89858845Y-64385819D01*
X90973203Y-64385819D01*
X90973203Y-64159162D01*
X89592742Y-64159162D01*
G37*
G36*
X81729588Y-132659162D02*
G01*
X81729588Y-134660000D01*
X81995568Y-134660000D01*
X81995568Y-132659162D01*
X81729588Y-132659162D01*
G37*
G36*
X82440457Y-132659162D02*
G01*
X82440457Y-134660000D01*
X82692515Y-134660000D01*
X82692515Y-133054225D01*
X82698133Y-133054225D01*
X83742515Y-134660000D01*
X84033653Y-134660000D01*
X84033653Y-132659162D01*
X83781716Y-132659162D01*
X83781716Y-134281667D01*
X83776099Y-134281667D01*
X82723290Y-132659162D01*
X82440457Y-132659162D01*
G37*
G36*
X85250471Y-134660000D02*
G01*
X85961706Y-132659162D01*
X85684490Y-132659162D01*
X85107711Y-134393775D01*
X85102093Y-134393775D01*
X84530931Y-132659162D01*
X84245289Y-132659162D01*
X84948098Y-134660000D01*
X85250471Y-134660000D01*
G37*
G36*
X83374842Y-83747665D02*
G01*
X83626779Y-83747665D01*
X83616668Y-83638782D01*
X83595300Y-83544802D01*
X83563764Y-83463611D01*
X83495492Y-83354024D01*
X83406960Y-83265286D01*
X83300505Y-83197071D01*
X83175907Y-83149148D01*
X83040885Y-83121764D01*
X82890387Y-83112267D01*
X82754698Y-83121094D01*
X82622941Y-83147438D01*
X82498664Y-83192146D01*
X82390544Y-83254173D01*
X82298731Y-83335371D01*
X82226779Y-83436622D01*
X82193343Y-83512798D01*
X82172518Y-83599627D01*
X82165230Y-83699183D01*
X82171871Y-83789495D01*
X82190492Y-83864909D01*
X82219818Y-83928039D01*
X82283389Y-84010749D01*
X82365387Y-84076905D01*
X82460934Y-84128211D01*
X82571161Y-84169595D01*
X82805024Y-84231388D01*
X83038764Y-84283290D01*
X83149890Y-84313060D01*
X83244661Y-84349235D01*
X83328031Y-84396967D01*
X83390230Y-84454504D01*
X83419808Y-84500360D01*
X83438259Y-84555709D01*
X83444818Y-84623032D01*
X83432811Y-84725893D01*
X83400000Y-84802794D01*
X83348210Y-84865546D01*
X83282397Y-84913681D01*
X83206109Y-84948025D01*
X83118632Y-84971200D01*
X83027643Y-84983871D01*
X82938014Y-84988053D01*
X82827181Y-84981033D01*
X82719539Y-84960087D01*
X82618608Y-84923780D01*
X82533304Y-84873258D01*
X82461579Y-84806746D01*
X82404588Y-84723415D01*
X82368481Y-84626385D01*
X82355617Y-84506406D01*
X82103558Y-84506406D01*
X82111413Y-84626272D01*
X82133765Y-84730461D01*
X82169382Y-84821357D01*
X82219072Y-84905414D01*
X82278634Y-84977625D01*
X82348534Y-85039099D01*
X82469552Y-85112231D01*
X82611706Y-85165251D01*
X82764600Y-85196286D01*
X82929588Y-85206894D01*
X83066484Y-85198906D01*
X83205338Y-85174654D01*
X83338336Y-85132272D01*
X83455931Y-85071095D01*
X83557752Y-84989242D01*
X83639357Y-84886203D01*
X83678207Y-84807695D01*
X83702341Y-84717509D01*
X83710799Y-84613140D01*
X83704106Y-84515416D01*
X83685423Y-84434258D01*
X83656210Y-84366821D01*
X83592461Y-84277114D01*
X83510642Y-84204399D01*
X83414696Y-84147112D01*
X83304745Y-84102184D01*
X83071004Y-84036360D01*
X82837142Y-83984459D01*
X82725887Y-83956791D01*
X82631367Y-83924253D01*
X82547532Y-83881343D01*
X82485799Y-83830464D01*
X82455987Y-83789275D01*
X82437670Y-83740074D01*
X82431210Y-83680621D01*
X82441273Y-83587939D01*
X82468946Y-83516734D01*
X82513234Y-83457418D01*
X82569818Y-83411709D01*
X82636399Y-83378508D01*
X82714043Y-83355778D01*
X82795813Y-83343150D01*
X82879152Y-83338925D01*
X83014304Y-83350606D01*
X83126219Y-83383405D01*
X83219382Y-83435523D01*
X83276685Y-83488546D01*
X83321856Y-83556178D01*
X83355018Y-83641235D01*
X83374842Y-83747665D01*
G37*
G36*
X84031612Y-83159162D02*
G01*
X84031612Y-85160000D01*
X84297714Y-85160000D01*
X84297714Y-84245554D01*
X85350401Y-84245554D01*
X85350401Y-85160000D01*
X85616503Y-85160000D01*
X85616503Y-83159162D01*
X85350401Y-83159162D01*
X85350401Y-84018897D01*
X84297714Y-84018897D01*
X84297714Y-83159162D01*
X84031612Y-83159162D01*
G37*
G36*
X87670464Y-85160000D02*
G01*
X87376395Y-85160000D01*
X87158042Y-84558185D01*
X86312473Y-84558185D01*
X86088381Y-85160000D01*
X85816782Y-85160000D01*
X86139089Y-84331528D01*
X86396493Y-84331528D01*
X87074023Y-84331528D01*
X86740875Y-83400108D01*
X86735258Y-83400108D01*
X86396493Y-84331528D01*
X86139089Y-84331528D01*
X86595184Y-83159162D01*
X86889253Y-83159162D01*
X87670464Y-85160000D01*
G37*
G36*
X88893266Y-83170396D02*
G01*
X89016822Y-83201574D01*
X89117542Y-83250169D01*
X89199424Y-83315478D01*
X89265217Y-83397867D01*
X89313489Y-83496016D01*
X89344017Y-83613071D01*
X89354884Y-83753161D01*
X89344040Y-83893215D01*
X89313542Y-84010553D01*
X89265267Y-84109221D01*
X89199424Y-84192309D01*
X89117436Y-84258088D01*
X89016709Y-84306588D01*
X88893211Y-84337141D01*
X88741713Y-84347159D01*
X88131350Y-84347159D01*
X88131350Y-85160000D01*
X87865247Y-85160000D01*
X87865247Y-84120502D01*
X88131350Y-84120502D01*
X88652076Y-84120502D01*
X88800676Y-84109619D01*
X88907817Y-84077347D01*
X88983879Y-84028056D01*
X89040597Y-83957959D01*
X89076090Y-83868306D01*
X89088904Y-83753161D01*
X89076055Y-83638051D01*
X89040541Y-83548942D01*
X88983879Y-83479731D01*
X88907942Y-83430931D01*
X88800769Y-83398212D01*
X88652076Y-83385819D01*
X88131350Y-83385819D01*
X88131350Y-84120502D01*
X87865247Y-84120502D01*
X87865247Y-83159162D01*
X88741713Y-83159162D01*
X88893266Y-83170396D01*
G37*
G36*
X89678506Y-83159162D02*
G01*
X89678506Y-85160000D01*
X91067393Y-85160000D01*
X91067393Y-84933342D01*
X89944609Y-84933342D01*
X89944609Y-84245554D01*
X90983374Y-84245554D01*
X90983374Y-84018897D01*
X89944609Y-84018897D01*
X89944609Y-83385819D01*
X91058967Y-83385819D01*
X91058967Y-83159162D01*
X89678506Y-83159162D01*
G37*
G36*
X83720666Y-102622551D02*
G01*
X83858798Y-102651996D01*
X83981088Y-102699218D01*
X84095143Y-102764447D01*
X84194597Y-102841888D01*
X84280774Y-102931981D01*
X84353915Y-103033311D01*
X84414069Y-103144642D01*
X84461392Y-103267083D01*
X84506435Y-103459402D01*
X84521598Y-103660924D01*
X84506435Y-103862569D01*
X84461392Y-104055010D01*
X84414074Y-104177371D01*
X84353921Y-104288663D01*
X84280774Y-104389989D01*
X84194549Y-104479978D01*
X84095098Y-104556963D01*
X83981088Y-104621409D01*
X83858879Y-104667812D01*
X83720740Y-104696774D01*
X83563921Y-104706894D01*
X83407186Y-104696778D01*
X83269042Y-104667819D01*
X83146755Y-104621409D01*
X83032823Y-104556970D01*
X82933411Y-104479986D01*
X82847191Y-104389989D01*
X82774044Y-104288663D01*
X82713891Y-104177371D01*
X82666573Y-104055010D01*
X82621530Y-103862569D01*
X82606560Y-103663489D01*
X82872348Y-103663489D01*
X82882133Y-103813766D01*
X82911549Y-103962198D01*
X82962341Y-104102948D01*
X83034769Y-104227323D01*
X83095808Y-104300418D01*
X83167332Y-104363340D01*
X83250314Y-104416612D01*
X83340676Y-104455328D01*
X83444398Y-104479548D01*
X83564043Y-104488053D01*
X83683606Y-104479547D01*
X83787246Y-104455327D01*
X83877529Y-104416612D01*
X83960588Y-104363333D01*
X84032151Y-104300411D01*
X84093196Y-104227323D01*
X84165624Y-104102948D01*
X84216416Y-103962198D01*
X84245832Y-103813766D01*
X84255617Y-103663489D01*
X84245832Y-103513211D01*
X84216416Y-103364780D01*
X84165619Y-103224049D01*
X84093196Y-103099776D01*
X84032139Y-103026622D01*
X83960575Y-102963702D01*
X83877529Y-102910488D01*
X83787239Y-102871704D01*
X83683599Y-102847443D01*
X83564043Y-102838925D01*
X83444405Y-102847443D01*
X83340683Y-102871703D01*
X83250314Y-102910488D01*
X83167345Y-102963695D01*
X83095820Y-103026614D01*
X83034769Y-103099776D01*
X82962346Y-103224049D01*
X82911549Y-103364780D01*
X82882133Y-103513211D01*
X82872348Y-103663489D01*
X82606560Y-103663489D01*
X82606367Y-103660924D01*
X82621530Y-103459402D01*
X82666573Y-103267083D01*
X82713896Y-103144642D01*
X82774050Y-103033311D01*
X82847191Y-102931981D01*
X82933362Y-102841881D01*
X83032778Y-102764440D01*
X83146755Y-102699218D01*
X83269122Y-102651989D01*
X83407259Y-102622547D01*
X83563921Y-102612267D01*
X83720666Y-102622551D01*
G37*
G36*
X84846196Y-102659162D02*
G01*
X84846196Y-104660000D01*
X85112299Y-104660000D01*
X85112299Y-103745554D01*
X86030652Y-103745554D01*
X86030652Y-103518897D01*
X85112299Y-103518897D01*
X85112299Y-102885819D01*
X86159490Y-102885819D01*
X86159490Y-102659162D01*
X84846196Y-102659162D01*
G37*
G36*
X86452337Y-102659162D02*
G01*
X86452337Y-104660000D01*
X86718440Y-104660000D01*
X86718440Y-103745554D01*
X87636793Y-103745554D01*
X87636793Y-103518897D01*
X86718440Y-103518897D01*
X86718440Y-102885819D01*
X87765631Y-102885819D01*
X87765631Y-102659162D01*
X86452337Y-102659162D01*
G37*
G36*
X89214968Y-103247665D02*
G01*
X89466905Y-103247665D01*
X89456794Y-103138782D01*
X89435425Y-103044802D01*
X89403890Y-102963611D01*
X89335618Y-102854024D01*
X89247086Y-102765286D01*
X89140631Y-102697071D01*
X89016032Y-102649148D01*
X88881011Y-102621764D01*
X88730512Y-102612267D01*
X88594824Y-102621094D01*
X88463066Y-102647438D01*
X88338790Y-102692146D01*
X88230669Y-102754173D01*
X88138857Y-102835371D01*
X88066905Y-102936622D01*
X88033469Y-103012798D01*
X88012644Y-103099627D01*
X88005355Y-103199183D01*
X88011997Y-103289495D01*
X88030618Y-103364909D01*
X88059944Y-103428039D01*
X88123514Y-103510749D01*
X88205512Y-103576905D01*
X88301060Y-103628211D01*
X88411287Y-103669595D01*
X88645150Y-103731388D01*
X88878890Y-103783290D01*
X88990016Y-103813060D01*
X89084787Y-103849235D01*
X89168156Y-103896967D01*
X89230355Y-103954504D01*
X89259934Y-104000360D01*
X89278385Y-104055709D01*
X89284944Y-104123032D01*
X89272937Y-104225893D01*
X89240125Y-104302794D01*
X89188335Y-104365546D01*
X89122522Y-104413681D01*
X89046235Y-104448025D01*
X88958757Y-104471200D01*
X88867769Y-104483871D01*
X88778140Y-104488053D01*
X88667306Y-104481033D01*
X88559665Y-104460087D01*
X88458734Y-104423780D01*
X88373429Y-104373258D01*
X88301704Y-104306746D01*
X88244713Y-104223415D01*
X88208606Y-104126385D01*
X88195743Y-104006406D01*
X87943684Y-104006406D01*
X87951538Y-104126272D01*
X87973890Y-104230461D01*
X88009508Y-104321357D01*
X88059198Y-104405414D01*
X88118760Y-104477625D01*
X88188660Y-104539099D01*
X88309678Y-104612231D01*
X88451831Y-104665251D01*
X88604726Y-104696286D01*
X88769713Y-104706894D01*
X88906610Y-104698906D01*
X89045464Y-104674654D01*
X89178461Y-104632272D01*
X89296057Y-104571095D01*
X89397878Y-104489242D01*
X89479483Y-104386203D01*
X89518332Y-104307695D01*
X89542467Y-104217509D01*
X89550924Y-104113140D01*
X89544231Y-104015416D01*
X89525549Y-103934258D01*
X89496336Y-103866821D01*
X89432587Y-103777114D01*
X89350767Y-103704399D01*
X89254821Y-103647112D01*
X89144870Y-103602184D01*
X88911130Y-103536360D01*
X88677267Y-103484459D01*
X88566012Y-103456791D01*
X88471493Y-103424253D01*
X88387658Y-103381343D01*
X88325924Y-103330464D01*
X88296112Y-103289275D01*
X88277795Y-103240074D01*
X88271336Y-103180621D01*
X88281399Y-103087939D01*
X88309071Y-103016734D01*
X88353360Y-102957418D01*
X88409944Y-102911709D01*
X88476525Y-102878508D01*
X88554169Y-102855778D01*
X88635939Y-102843150D01*
X88719277Y-102838925D01*
X88854430Y-102850606D01*
X88966344Y-102883405D01*
X89059508Y-102935523D01*
X89116811Y-102988546D01*
X89161982Y-103056178D01*
X89195144Y-103141235D01*
X89214968Y-103247665D01*
G37*
G36*
X89871737Y-102659162D02*
G01*
X89871737Y-104660000D01*
X91260624Y-104660000D01*
X91260624Y-104433342D01*
X90137840Y-104433342D01*
X90137840Y-103745554D01*
X91176605Y-103745554D01*
X91176605Y-103518897D01*
X90137840Y-103518897D01*
X90137840Y-102885819D01*
X91252198Y-102885819D01*
X91252198Y-102659162D01*
X89871737Y-102659162D01*
G37*
G36*
X92035118Y-102885819D02*
G01*
X92035118Y-104660000D01*
X92301099Y-104660000D01*
X92301099Y-102885819D01*
X92967515Y-102885819D01*
X92967515Y-102659162D01*
X91368702Y-102659162D01*
X91368702Y-102885819D01*
X92035118Y-102885819D01*
G37*
G36*
X93374842Y-120247665D02*
G01*
X93626779Y-120247665D01*
X93616668Y-120138782D01*
X93595300Y-120044802D01*
X93563764Y-119963611D01*
X93495492Y-119854024D01*
X93406960Y-119765286D01*
X93300505Y-119697071D01*
X93175907Y-119649148D01*
X93040885Y-119621764D01*
X92890387Y-119612267D01*
X92754698Y-119621094D01*
X92622941Y-119647438D01*
X92498664Y-119692146D01*
X92390544Y-119754173D01*
X92298731Y-119835371D01*
X92226779Y-119936622D01*
X92193343Y-120012798D01*
X92172518Y-120099627D01*
X92165230Y-120199183D01*
X92171871Y-120289495D01*
X92190492Y-120364909D01*
X92219818Y-120428039D01*
X92283389Y-120510749D01*
X92365387Y-120576905D01*
X92460934Y-120628211D01*
X92571161Y-120669595D01*
X92805024Y-120731388D01*
X93038764Y-120783290D01*
X93149890Y-120813060D01*
X93244661Y-120849235D01*
X93328031Y-120896967D01*
X93390230Y-120954504D01*
X93419808Y-121000360D01*
X93438259Y-121055709D01*
X93444818Y-121123032D01*
X93432811Y-121225893D01*
X93400000Y-121302794D01*
X93348210Y-121365546D01*
X93282397Y-121413681D01*
X93206109Y-121448025D01*
X93118632Y-121471200D01*
X93027643Y-121483871D01*
X92938014Y-121488053D01*
X92827181Y-121481033D01*
X92719539Y-121460087D01*
X92618608Y-121423780D01*
X92533304Y-121373258D01*
X92461579Y-121306746D01*
X92404588Y-121223415D01*
X92368481Y-121126385D01*
X92355617Y-121006406D01*
X92103558Y-121006406D01*
X92111413Y-121126272D01*
X92133765Y-121230461D01*
X92169382Y-121321357D01*
X92219072Y-121405414D01*
X92278634Y-121477625D01*
X92348534Y-121539099D01*
X92469552Y-121612231D01*
X92611706Y-121665251D01*
X92764600Y-121696286D01*
X92929588Y-121706894D01*
X93066484Y-121698906D01*
X93205338Y-121674654D01*
X93338336Y-121632272D01*
X93455931Y-121571095D01*
X93557752Y-121489242D01*
X93639357Y-121386203D01*
X93678207Y-121307695D01*
X93702341Y-121217509D01*
X93710799Y-121113140D01*
X93704106Y-121015416D01*
X93685423Y-120934258D01*
X93656210Y-120866821D01*
X93592461Y-120777114D01*
X93510642Y-120704399D01*
X93414696Y-120647112D01*
X93304745Y-120602184D01*
X93071004Y-120536360D01*
X92837142Y-120484459D01*
X92725887Y-120456791D01*
X92631367Y-120424253D01*
X92547532Y-120381343D01*
X92485799Y-120330464D01*
X92455987Y-120289275D01*
X92437670Y-120240074D01*
X92431210Y-120180621D01*
X92441273Y-120087939D01*
X92468946Y-120016734D01*
X92513234Y-119957418D01*
X92569818Y-119911709D01*
X92636399Y-119878508D01*
X92714043Y-119855778D01*
X92795813Y-119843150D01*
X92879152Y-119838925D01*
X93014304Y-119850606D01*
X93126219Y-119883405D01*
X93219382Y-119935523D01*
X93276685Y-119988546D01*
X93321856Y-120056178D01*
X93355018Y-120141235D01*
X93374842Y-120247665D01*
G37*
G36*
X95033925Y-119622551D02*
G01*
X95172057Y-119651996D01*
X95294347Y-119699218D01*
X95408398Y-119764375D01*
X95507852Y-119841776D01*
X95594033Y-119931859D01*
X95667175Y-120033110D01*
X95727328Y-120144360D01*
X95774651Y-120266716D01*
X95819696Y-120459019D01*
X95834856Y-120660436D01*
X95826329Y-120812289D01*
X95801077Y-120957670D01*
X95759263Y-121097630D01*
X95700017Y-121230502D01*
X95624596Y-121349632D01*
X95532484Y-121456423D01*
X95795655Y-121663785D01*
X95661200Y-121831946D01*
X95356018Y-121589291D01*
X95217153Y-121653250D01*
X95058852Y-121692995D01*
X94877180Y-121706894D01*
X94720445Y-121696778D01*
X94582301Y-121667819D01*
X94460013Y-121621409D01*
X94346082Y-121556970D01*
X94246670Y-121479986D01*
X94160450Y-121389989D01*
X94087303Y-121288663D01*
X94027150Y-121177371D01*
X93979832Y-121055010D01*
X93934789Y-120862569D01*
X93919819Y-120663489D01*
X94185607Y-120663489D01*
X94195392Y-120813766D01*
X94224808Y-120962198D01*
X94275599Y-121102948D01*
X94348028Y-121227323D01*
X94409067Y-121300418D01*
X94480591Y-121363340D01*
X94563572Y-121416612D01*
X94653935Y-121455328D01*
X94757657Y-121479548D01*
X94877302Y-121488053D01*
X95017647Y-121474108D01*
X95154518Y-121431999D01*
X94933234Y-121255289D01*
X95073307Y-121092623D01*
X95339288Y-121305725D01*
X95410215Y-121222339D01*
X95467990Y-121127065D01*
X95512822Y-121018374D01*
X95554744Y-120845527D01*
X95568876Y-120663489D01*
X95559091Y-120513211D01*
X95529675Y-120364780D01*
X95478878Y-120224049D01*
X95406454Y-120099776D01*
X95345398Y-120026622D01*
X95273834Y-119963702D01*
X95190788Y-119910488D01*
X95100498Y-119871704D01*
X94996858Y-119847443D01*
X94877302Y-119838925D01*
X94757664Y-119847443D01*
X94653942Y-119871703D01*
X94563572Y-119910488D01*
X94480604Y-119963695D01*
X94409079Y-120026614D01*
X94348028Y-120099776D01*
X94275605Y-120224049D01*
X94224808Y-120364780D01*
X94195392Y-120513211D01*
X94185607Y-120663489D01*
X93919819Y-120663489D01*
X93919626Y-120660924D01*
X93934789Y-120459402D01*
X93979832Y-120267083D01*
X94027155Y-120144642D01*
X94087309Y-120033311D01*
X94160450Y-119931981D01*
X94246621Y-119841881D01*
X94346037Y-119764440D01*
X94460013Y-119699218D01*
X94582381Y-119651989D01*
X94720518Y-119622547D01*
X94877180Y-119612267D01*
X95033925Y-119622551D01*
G37*
G36*
X97243530Y-119669107D02*
G01*
X97363176Y-119696954D01*
X97463221Y-119740649D01*
X97546877Y-119799480D01*
X97616472Y-119874924D01*
X97666260Y-119962384D01*
X97697113Y-120064239D01*
X97707955Y-120183918D01*
X97698322Y-120303239D01*
X97670522Y-120409104D01*
X97625279Y-120503876D01*
X97560935Y-120584235D01*
X97474296Y-120646783D01*
X97360642Y-120691943D01*
X97360642Y-120697561D01*
X97441896Y-120720903D01*
X97502058Y-120753492D01*
X97551368Y-120796874D01*
X97588886Y-120847281D01*
X97616666Y-120904293D01*
X97636514Y-120968914D01*
X97660327Y-121108866D01*
X97668754Y-121257121D01*
X97682676Y-121405376D01*
X97714916Y-121543984D01*
X97741367Y-121606198D01*
X97777930Y-121660000D01*
X97481053Y-121660000D01*
X97458268Y-121625053D01*
X97443318Y-121576224D01*
X97430739Y-121457522D01*
X97425122Y-121316472D01*
X97408269Y-121168461D01*
X97380303Y-121030219D01*
X97358213Y-120967975D01*
X97327058Y-120915669D01*
X97285486Y-120871974D01*
X97231803Y-120837390D01*
X97167361Y-120816200D01*
X97075122Y-120808080D01*
X96425558Y-120808080D01*
X96425558Y-121660000D01*
X96159455Y-121660000D01*
X96159455Y-120581423D01*
X96425558Y-120581423D01*
X96979867Y-120581423D01*
X97156210Y-120567501D01*
X97236151Y-120546426D01*
X97303244Y-120513035D01*
X97359682Y-120465807D01*
X97403995Y-120404103D01*
X97431558Y-120329276D01*
X97441852Y-120226660D01*
X97431860Y-120129277D01*
X97403582Y-120048503D01*
X97357833Y-119980830D01*
X97295228Y-119930738D01*
X97207547Y-119898059D01*
X97086235Y-119885819D01*
X96425558Y-119885819D01*
X96425558Y-120581423D01*
X96159455Y-120581423D01*
X96159455Y-119659162D01*
X97100279Y-119659162D01*
X97243530Y-119669107D01*
G37*
X125166666Y-53199819D02*
X125166666Y-53914104D01*
X125166666Y-53914104D02*
X125119047Y-54056961D01*
X125119047Y-54056961D02*
X125023809Y-54152200D01*
X125023809Y-54152200D02*
X124880952Y-54199819D01*
X124880952Y-54199819D02*
X124785714Y-54199819D01*
X125547619Y-53199819D02*
X126166666Y-53199819D01*
X126166666Y-53199819D02*
X125833333Y-53580771D01*
X125833333Y-53580771D02*
X125976190Y-53580771D01*
X125976190Y-53580771D02*
X126071428Y-53628390D01*
X126071428Y-53628390D02*
X126119047Y-53676009D01*
X126119047Y-53676009D02*
X126166666Y-53771247D01*
X126166666Y-53771247D02*
X126166666Y-54009342D01*
X126166666Y-54009342D02*
X126119047Y-54104580D01*
X126119047Y-54104580D02*
X126071428Y-54152200D01*
X126071428Y-54152200D02*
X125976190Y-54199819D01*
X125976190Y-54199819D02*
X125690476Y-54199819D01*
X125690476Y-54199819D02*
X125595238Y-54152200D01*
X125595238Y-54152200D02*
X125547619Y-54104580D01*
X106611905Y-90454819D02*
X106611905Y-89454819D01*
X106611905Y-89454819D02*
X106850000Y-89454819D01*
X106850000Y-89454819D02*
X106992857Y-89502438D01*
X106992857Y-89502438D02*
X107088095Y-89597676D01*
X107088095Y-89597676D02*
X107135714Y-89692914D01*
X107135714Y-89692914D02*
X107183333Y-89883390D01*
X107183333Y-89883390D02*
X107183333Y-90026247D01*
X107183333Y-90026247D02*
X107135714Y-90216723D01*
X107135714Y-90216723D02*
X107088095Y-90311961D01*
X107088095Y-90311961D02*
X106992857Y-90407200D01*
X106992857Y-90407200D02*
X106850000Y-90454819D01*
X106850000Y-90454819D02*
X106611905Y-90454819D01*
X108135714Y-90454819D02*
X107564286Y-90454819D01*
X107850000Y-90454819D02*
X107850000Y-89454819D01*
X107850000Y-89454819D02*
X107754762Y-89597676D01*
X107754762Y-89597676D02*
X107659524Y-89692914D01*
X107659524Y-89692914D02*
X107564286Y-89740533D01*
X104464819Y-41083571D02*
X103988628Y-41416904D01*
X104464819Y-41654999D02*
X103464819Y-41654999D01*
X103464819Y-41654999D02*
X103464819Y-41274047D01*
X103464819Y-41274047D02*
X103512438Y-41178809D01*
X103512438Y-41178809D02*
X103560057Y-41131190D01*
X103560057Y-41131190D02*
X103655295Y-41083571D01*
X103655295Y-41083571D02*
X103798152Y-41083571D01*
X103798152Y-41083571D02*
X103893390Y-41131190D01*
X103893390Y-41131190D02*
X103941009Y-41178809D01*
X103941009Y-41178809D02*
X103988628Y-41274047D01*
X103988628Y-41274047D02*
X103988628Y-41654999D01*
X104179104Y-40702618D02*
X104179104Y-40226428D01*
X104464819Y-40797856D02*
X103464819Y-40464523D01*
X103464819Y-40464523D02*
X104464819Y-40131190D01*
X103464819Y-39940713D02*
X103464819Y-39369285D01*
X104464819Y-39654999D02*
X103464819Y-39654999D01*
X103941009Y-39035951D02*
X103941009Y-38702618D01*
X104464819Y-38559761D02*
X104464819Y-39035951D01*
X104464819Y-39035951D02*
X103464819Y-39035951D01*
X103464819Y-39035951D02*
X103464819Y-38559761D01*
X104464819Y-37607380D02*
X104464819Y-38178808D01*
X104464819Y-37893094D02*
X103464819Y-37893094D01*
X103464819Y-37893094D02*
X103607676Y-37988332D01*
X103607676Y-37988332D02*
X103702914Y-38083570D01*
X103702914Y-38083570D02*
X103750533Y-38178808D01*
X117704819Y-43754166D02*
X117228628Y-44087499D01*
X117704819Y-44325594D02*
X116704819Y-44325594D01*
X116704819Y-44325594D02*
X116704819Y-43944642D01*
X116704819Y-43944642D02*
X116752438Y-43849404D01*
X116752438Y-43849404D02*
X116800057Y-43801785D01*
X116800057Y-43801785D02*
X116895295Y-43754166D01*
X116895295Y-43754166D02*
X117038152Y-43754166D01*
X117038152Y-43754166D02*
X117133390Y-43801785D01*
X117133390Y-43801785D02*
X117181009Y-43849404D01*
X117181009Y-43849404D02*
X117228628Y-43944642D01*
X117228628Y-43944642D02*
X117228628Y-44325594D01*
X117038152Y-42897023D02*
X117704819Y-42897023D01*
X116657200Y-43135118D02*
X117371485Y-43373213D01*
X117371485Y-43373213D02*
X117371485Y-42754166D01*
X143239819Y-114657857D02*
X142763628Y-114991190D01*
X143239819Y-115229285D02*
X142239819Y-115229285D01*
X142239819Y-115229285D02*
X142239819Y-114848333D01*
X142239819Y-114848333D02*
X142287438Y-114753095D01*
X142287438Y-114753095D02*
X142335057Y-114705476D01*
X142335057Y-114705476D02*
X142430295Y-114657857D01*
X142430295Y-114657857D02*
X142573152Y-114657857D01*
X142573152Y-114657857D02*
X142668390Y-114705476D01*
X142668390Y-114705476D02*
X142716009Y-114753095D01*
X142716009Y-114753095D02*
X142763628Y-114848333D01*
X142763628Y-114848333D02*
X142763628Y-115229285D01*
X142335057Y-114276904D02*
X142287438Y-114229285D01*
X142287438Y-114229285D02*
X142239819Y-114134047D01*
X142239819Y-114134047D02*
X142239819Y-113895952D01*
X142239819Y-113895952D02*
X142287438Y-113800714D01*
X142287438Y-113800714D02*
X142335057Y-113753095D01*
X142335057Y-113753095D02*
X142430295Y-113705476D01*
X142430295Y-113705476D02*
X142525533Y-113705476D01*
X142525533Y-113705476D02*
X142668390Y-113753095D01*
X142668390Y-113753095D02*
X143239819Y-114324523D01*
X143239819Y-114324523D02*
X143239819Y-113705476D01*
X142239819Y-113372142D02*
X142239819Y-112753095D01*
X142239819Y-112753095D02*
X142620771Y-113086428D01*
X142620771Y-113086428D02*
X142620771Y-112943571D01*
X142620771Y-112943571D02*
X142668390Y-112848333D01*
X142668390Y-112848333D02*
X142716009Y-112800714D01*
X142716009Y-112800714D02*
X142811247Y-112753095D01*
X142811247Y-112753095D02*
X143049342Y-112753095D01*
X143049342Y-112753095D02*
X143144580Y-112800714D01*
X143144580Y-112800714D02*
X143192200Y-112848333D01*
X143192200Y-112848333D02*
X143239819Y-112943571D01*
X143239819Y-112943571D02*
X143239819Y-113229285D01*
X143239819Y-113229285D02*
X143192200Y-113324523D01*
X143192200Y-113324523D02*
X143144580Y-113372142D01*
X104464819Y-60846428D02*
X103988628Y-61179761D01*
X104464819Y-61417856D02*
X103464819Y-61417856D01*
X103464819Y-61417856D02*
X103464819Y-61036904D01*
X103464819Y-61036904D02*
X103512438Y-60941666D01*
X103512438Y-60941666D02*
X103560057Y-60894047D01*
X103560057Y-60894047D02*
X103655295Y-60846428D01*
X103655295Y-60846428D02*
X103798152Y-60846428D01*
X103798152Y-60846428D02*
X103893390Y-60894047D01*
X103893390Y-60894047D02*
X103941009Y-60941666D01*
X103941009Y-60941666D02*
X103988628Y-61036904D01*
X103988628Y-61036904D02*
X103988628Y-61417856D01*
X104179104Y-60465475D02*
X104179104Y-59989285D01*
X104464819Y-60560713D02*
X103464819Y-60227380D01*
X103464819Y-60227380D02*
X104464819Y-59894047D01*
X104464819Y-59560713D02*
X103464819Y-59560713D01*
X103464819Y-59560713D02*
X104464819Y-58989285D01*
X104464819Y-58989285D02*
X103464819Y-58989285D01*
X103512438Y-57989285D02*
X103464819Y-58084523D01*
X103464819Y-58084523D02*
X103464819Y-58227380D01*
X103464819Y-58227380D02*
X103512438Y-58370237D01*
X103512438Y-58370237D02*
X103607676Y-58465475D01*
X103607676Y-58465475D02*
X103702914Y-58513094D01*
X103702914Y-58513094D02*
X103893390Y-58560713D01*
X103893390Y-58560713D02*
X104036247Y-58560713D01*
X104036247Y-58560713D02*
X104226723Y-58513094D01*
X104226723Y-58513094D02*
X104321961Y-58465475D01*
X104321961Y-58465475D02*
X104417200Y-58370237D01*
X104417200Y-58370237D02*
X104464819Y-58227380D01*
X104464819Y-58227380D02*
X104464819Y-58132142D01*
X104464819Y-58132142D02*
X104417200Y-57989285D01*
X104417200Y-57989285D02*
X104369580Y-57941666D01*
X104369580Y-57941666D02*
X104036247Y-57941666D01*
X104036247Y-57941666D02*
X104036247Y-58132142D01*
X103941009Y-57513094D02*
X103941009Y-57179761D01*
X104464819Y-57036904D02*
X104464819Y-57513094D01*
X104464819Y-57513094D02*
X103464819Y-57513094D01*
X103464819Y-57513094D02*
X103464819Y-57036904D01*
X104464819Y-56084523D02*
X104464819Y-56655951D01*
X104464819Y-56370237D02*
X103464819Y-56370237D01*
X103464819Y-56370237D02*
X103607676Y-56465475D01*
X103607676Y-56465475D02*
X103702914Y-56560713D01*
X103702914Y-56560713D02*
X103750533Y-56655951D01*
X128939819Y-72245357D02*
X128463628Y-72578690D01*
X128939819Y-72816785D02*
X127939819Y-72816785D01*
X127939819Y-72816785D02*
X127939819Y-72435833D01*
X127939819Y-72435833D02*
X127987438Y-72340595D01*
X127987438Y-72340595D02*
X128035057Y-72292976D01*
X128035057Y-72292976D02*
X128130295Y-72245357D01*
X128130295Y-72245357D02*
X128273152Y-72245357D01*
X128273152Y-72245357D02*
X128368390Y-72292976D01*
X128368390Y-72292976D02*
X128416009Y-72340595D01*
X128416009Y-72340595D02*
X128463628Y-72435833D01*
X128463628Y-72435833D02*
X128463628Y-72816785D01*
X128939819Y-71292976D02*
X128939819Y-71864404D01*
X128939819Y-71578690D02*
X127939819Y-71578690D01*
X127939819Y-71578690D02*
X128082676Y-71673928D01*
X128082676Y-71673928D02*
X128177914Y-71769166D01*
X128177914Y-71769166D02*
X128225533Y-71864404D01*
X127939819Y-70959642D02*
X127939819Y-70292976D01*
X127939819Y-70292976D02*
X128939819Y-70721547D01*
X127304819Y-102782857D02*
X126828628Y-103116190D01*
X127304819Y-103354285D02*
X126304819Y-103354285D01*
X126304819Y-103354285D02*
X126304819Y-102973333D01*
X126304819Y-102973333D02*
X126352438Y-102878095D01*
X126352438Y-102878095D02*
X126400057Y-102830476D01*
X126400057Y-102830476D02*
X126495295Y-102782857D01*
X126495295Y-102782857D02*
X126638152Y-102782857D01*
X126638152Y-102782857D02*
X126733390Y-102830476D01*
X126733390Y-102830476D02*
X126781009Y-102878095D01*
X126781009Y-102878095D02*
X126828628Y-102973333D01*
X126828628Y-102973333D02*
X126828628Y-103354285D01*
X127304819Y-101830476D02*
X127304819Y-102401904D01*
X127304819Y-102116190D02*
X126304819Y-102116190D01*
X126304819Y-102116190D02*
X126447676Y-102211428D01*
X126447676Y-102211428D02*
X126542914Y-102306666D01*
X126542914Y-102306666D02*
X126590533Y-102401904D01*
X126638152Y-100973333D02*
X127304819Y-100973333D01*
X126257200Y-101211428D02*
X126971485Y-101449523D01*
X126971485Y-101449523D02*
X126971485Y-100830476D01*
X134174580Y-86181666D02*
X134222200Y-86229285D01*
X134222200Y-86229285D02*
X134269819Y-86372142D01*
X134269819Y-86372142D02*
X134269819Y-86467380D01*
X134269819Y-86467380D02*
X134222200Y-86610237D01*
X134222200Y-86610237D02*
X134126961Y-86705475D01*
X134126961Y-86705475D02*
X134031723Y-86753094D01*
X134031723Y-86753094D02*
X133841247Y-86800713D01*
X133841247Y-86800713D02*
X133698390Y-86800713D01*
X133698390Y-86800713D02*
X133507914Y-86753094D01*
X133507914Y-86753094D02*
X133412676Y-86705475D01*
X133412676Y-86705475D02*
X133317438Y-86610237D01*
X133317438Y-86610237D02*
X133269819Y-86467380D01*
X133269819Y-86467380D02*
X133269819Y-86372142D01*
X133269819Y-86372142D02*
X133317438Y-86229285D01*
X133317438Y-86229285D02*
X133365057Y-86181666D01*
X133269819Y-85324523D02*
X133269819Y-85514999D01*
X133269819Y-85514999D02*
X133317438Y-85610237D01*
X133317438Y-85610237D02*
X133365057Y-85657856D01*
X133365057Y-85657856D02*
X133507914Y-85753094D01*
X133507914Y-85753094D02*
X133698390Y-85800713D01*
X133698390Y-85800713D02*
X134079342Y-85800713D01*
X134079342Y-85800713D02*
X134174580Y-85753094D01*
X134174580Y-85753094D02*
X134222200Y-85705475D01*
X134222200Y-85705475D02*
X134269819Y-85610237D01*
X134269819Y-85610237D02*
X134269819Y-85419761D01*
X134269819Y-85419761D02*
X134222200Y-85324523D01*
X134222200Y-85324523D02*
X134174580Y-85276904D01*
X134174580Y-85276904D02*
X134079342Y-85229285D01*
X134079342Y-85229285D02*
X133841247Y-85229285D01*
X133841247Y-85229285D02*
X133746009Y-85276904D01*
X133746009Y-85276904D02*
X133698390Y-85324523D01*
X133698390Y-85324523D02*
X133650771Y-85419761D01*
X133650771Y-85419761D02*
X133650771Y-85610237D01*
X133650771Y-85610237D02*
X133698390Y-85705475D01*
X133698390Y-85705475D02*
X133746009Y-85753094D01*
X133746009Y-85753094D02*
X133841247Y-85800713D01*
X139204819Y-65292857D02*
X138728628Y-65626190D01*
X139204819Y-65864285D02*
X138204819Y-65864285D01*
X138204819Y-65864285D02*
X138204819Y-65483333D01*
X138204819Y-65483333D02*
X138252438Y-65388095D01*
X138252438Y-65388095D02*
X138300057Y-65340476D01*
X138300057Y-65340476D02*
X138395295Y-65292857D01*
X138395295Y-65292857D02*
X138538152Y-65292857D01*
X138538152Y-65292857D02*
X138633390Y-65340476D01*
X138633390Y-65340476D02*
X138681009Y-65388095D01*
X138681009Y-65388095D02*
X138728628Y-65483333D01*
X138728628Y-65483333D02*
X138728628Y-65864285D01*
X138300057Y-64911904D02*
X138252438Y-64864285D01*
X138252438Y-64864285D02*
X138204819Y-64769047D01*
X138204819Y-64769047D02*
X138204819Y-64530952D01*
X138204819Y-64530952D02*
X138252438Y-64435714D01*
X138252438Y-64435714D02*
X138300057Y-64388095D01*
X138300057Y-64388095D02*
X138395295Y-64340476D01*
X138395295Y-64340476D02*
X138490533Y-64340476D01*
X138490533Y-64340476D02*
X138633390Y-64388095D01*
X138633390Y-64388095D02*
X139204819Y-64959523D01*
X139204819Y-64959523D02*
X139204819Y-64340476D01*
X138204819Y-63721428D02*
X138204819Y-63626190D01*
X138204819Y-63626190D02*
X138252438Y-63530952D01*
X138252438Y-63530952D02*
X138300057Y-63483333D01*
X138300057Y-63483333D02*
X138395295Y-63435714D01*
X138395295Y-63435714D02*
X138585771Y-63388095D01*
X138585771Y-63388095D02*
X138823866Y-63388095D01*
X138823866Y-63388095D02*
X139014342Y-63435714D01*
X139014342Y-63435714D02*
X139109580Y-63483333D01*
X139109580Y-63483333D02*
X139157200Y-63530952D01*
X139157200Y-63530952D02*
X139204819Y-63626190D01*
X139204819Y-63626190D02*
X139204819Y-63721428D01*
X139204819Y-63721428D02*
X139157200Y-63816666D01*
X139157200Y-63816666D02*
X139109580Y-63864285D01*
X139109580Y-63864285D02*
X139014342Y-63911904D01*
X139014342Y-63911904D02*
X138823866Y-63959523D01*
X138823866Y-63959523D02*
X138585771Y-63959523D01*
X138585771Y-63959523D02*
X138395295Y-63911904D01*
X138395295Y-63911904D02*
X138300057Y-63864285D01*
X138300057Y-63864285D02*
X138252438Y-63816666D01*
X138252438Y-63816666D02*
X138204819Y-63721428D01*
X132733333Y-98089580D02*
X132685714Y-98137200D01*
X132685714Y-98137200D02*
X132542857Y-98184819D01*
X132542857Y-98184819D02*
X132447619Y-98184819D01*
X132447619Y-98184819D02*
X132304762Y-98137200D01*
X132304762Y-98137200D02*
X132209524Y-98041961D01*
X132209524Y-98041961D02*
X132161905Y-97946723D01*
X132161905Y-97946723D02*
X132114286Y-97756247D01*
X132114286Y-97756247D02*
X132114286Y-97613390D01*
X132114286Y-97613390D02*
X132161905Y-97422914D01*
X132161905Y-97422914D02*
X132209524Y-97327676D01*
X132209524Y-97327676D02*
X132304762Y-97232438D01*
X132304762Y-97232438D02*
X132447619Y-97184819D01*
X132447619Y-97184819D02*
X132542857Y-97184819D01*
X132542857Y-97184819D02*
X132685714Y-97232438D01*
X132685714Y-97232438D02*
X132733333Y-97280057D01*
X133685714Y-98184819D02*
X133114286Y-98184819D01*
X133400000Y-98184819D02*
X133400000Y-97184819D01*
X133400000Y-97184819D02*
X133304762Y-97327676D01*
X133304762Y-97327676D02*
X133209524Y-97422914D01*
X133209524Y-97422914D02*
X133114286Y-97470533D01*
X128309819Y-79581904D02*
X129119342Y-79581904D01*
X129119342Y-79581904D02*
X129214580Y-79534285D01*
X129214580Y-79534285D02*
X129262200Y-79486666D01*
X129262200Y-79486666D02*
X129309819Y-79391428D01*
X129309819Y-79391428D02*
X129309819Y-79200952D01*
X129309819Y-79200952D02*
X129262200Y-79105714D01*
X129262200Y-79105714D02*
X129214580Y-79058095D01*
X129214580Y-79058095D02*
X129119342Y-79010476D01*
X129119342Y-79010476D02*
X128309819Y-79010476D01*
X129309819Y-78010476D02*
X129309819Y-78581904D01*
X129309819Y-78296190D02*
X128309819Y-78296190D01*
X128309819Y-78296190D02*
X128452676Y-78391428D01*
X128452676Y-78391428D02*
X128547914Y-78486666D01*
X128547914Y-78486666D02*
X128595533Y-78581904D01*
X127954819Y-91016666D02*
X127478628Y-91349999D01*
X127954819Y-91588094D02*
X126954819Y-91588094D01*
X126954819Y-91588094D02*
X126954819Y-91207142D01*
X126954819Y-91207142D02*
X127002438Y-91111904D01*
X127002438Y-91111904D02*
X127050057Y-91064285D01*
X127050057Y-91064285D02*
X127145295Y-91016666D01*
X127145295Y-91016666D02*
X127288152Y-91016666D01*
X127288152Y-91016666D02*
X127383390Y-91064285D01*
X127383390Y-91064285D02*
X127431009Y-91111904D01*
X127431009Y-91111904D02*
X127478628Y-91207142D01*
X127478628Y-91207142D02*
X127478628Y-91588094D01*
X127050057Y-90635713D02*
X127002438Y-90588094D01*
X127002438Y-90588094D02*
X126954819Y-90492856D01*
X126954819Y-90492856D02*
X126954819Y-90254761D01*
X126954819Y-90254761D02*
X127002438Y-90159523D01*
X127002438Y-90159523D02*
X127050057Y-90111904D01*
X127050057Y-90111904D02*
X127145295Y-90064285D01*
X127145295Y-90064285D02*
X127240533Y-90064285D01*
X127240533Y-90064285D02*
X127383390Y-90111904D01*
X127383390Y-90111904D02*
X127954819Y-90683332D01*
X127954819Y-90683332D02*
X127954819Y-90064285D01*
X113111905Y-90454819D02*
X113111905Y-89454819D01*
X113111905Y-89454819D02*
X113350000Y-89454819D01*
X113350000Y-89454819D02*
X113492857Y-89502438D01*
X113492857Y-89502438D02*
X113588095Y-89597676D01*
X113588095Y-89597676D02*
X113635714Y-89692914D01*
X113635714Y-89692914D02*
X113683333Y-89883390D01*
X113683333Y-89883390D02*
X113683333Y-90026247D01*
X113683333Y-90026247D02*
X113635714Y-90216723D01*
X113635714Y-90216723D02*
X113588095Y-90311961D01*
X113588095Y-90311961D02*
X113492857Y-90407200D01*
X113492857Y-90407200D02*
X113350000Y-90454819D01*
X113350000Y-90454819D02*
X113111905Y-90454819D01*
X114064286Y-89550057D02*
X114111905Y-89502438D01*
X114111905Y-89502438D02*
X114207143Y-89454819D01*
X114207143Y-89454819D02*
X114445238Y-89454819D01*
X114445238Y-89454819D02*
X114540476Y-89502438D01*
X114540476Y-89502438D02*
X114588095Y-89550057D01*
X114588095Y-89550057D02*
X114635714Y-89645295D01*
X114635714Y-89645295D02*
X114635714Y-89740533D01*
X114635714Y-89740533D02*
X114588095Y-89883390D01*
X114588095Y-89883390D02*
X114016667Y-90454819D01*
X114016667Y-90454819D02*
X114635714Y-90454819D01*
X125814580Y-79131666D02*
X125862200Y-79179285D01*
X125862200Y-79179285D02*
X125909819Y-79322142D01*
X125909819Y-79322142D02*
X125909819Y-79417380D01*
X125909819Y-79417380D02*
X125862200Y-79560237D01*
X125862200Y-79560237D02*
X125766961Y-79655475D01*
X125766961Y-79655475D02*
X125671723Y-79703094D01*
X125671723Y-79703094D02*
X125481247Y-79750713D01*
X125481247Y-79750713D02*
X125338390Y-79750713D01*
X125338390Y-79750713D02*
X125147914Y-79703094D01*
X125147914Y-79703094D02*
X125052676Y-79655475D01*
X125052676Y-79655475D02*
X124957438Y-79560237D01*
X124957438Y-79560237D02*
X124909819Y-79417380D01*
X124909819Y-79417380D02*
X124909819Y-79322142D01*
X124909819Y-79322142D02*
X124957438Y-79179285D01*
X124957438Y-79179285D02*
X125005057Y-79131666D01*
X124909819Y-78798332D02*
X124909819Y-78131666D01*
X124909819Y-78131666D02*
X125909819Y-78560237D01*
X128239819Y-114745357D02*
X127763628Y-115078690D01*
X128239819Y-115316785D02*
X127239819Y-115316785D01*
X127239819Y-115316785D02*
X127239819Y-114935833D01*
X127239819Y-114935833D02*
X127287438Y-114840595D01*
X127287438Y-114840595D02*
X127335057Y-114792976D01*
X127335057Y-114792976D02*
X127430295Y-114745357D01*
X127430295Y-114745357D02*
X127573152Y-114745357D01*
X127573152Y-114745357D02*
X127668390Y-114792976D01*
X127668390Y-114792976D02*
X127716009Y-114840595D01*
X127716009Y-114840595D02*
X127763628Y-114935833D01*
X127763628Y-114935833D02*
X127763628Y-115316785D01*
X127335057Y-114364404D02*
X127287438Y-114316785D01*
X127287438Y-114316785D02*
X127239819Y-114221547D01*
X127239819Y-114221547D02*
X127239819Y-113983452D01*
X127239819Y-113983452D02*
X127287438Y-113888214D01*
X127287438Y-113888214D02*
X127335057Y-113840595D01*
X127335057Y-113840595D02*
X127430295Y-113792976D01*
X127430295Y-113792976D02*
X127525533Y-113792976D01*
X127525533Y-113792976D02*
X127668390Y-113840595D01*
X127668390Y-113840595D02*
X128239819Y-114412023D01*
X128239819Y-114412023D02*
X128239819Y-113792976D01*
X127573152Y-112935833D02*
X128239819Y-112935833D01*
X127192200Y-113173928D02*
X127906485Y-113412023D01*
X127906485Y-113412023D02*
X127906485Y-112792976D01*
X134304819Y-91166666D02*
X133828628Y-91499999D01*
X134304819Y-91738094D02*
X133304819Y-91738094D01*
X133304819Y-91738094D02*
X133304819Y-91357142D01*
X133304819Y-91357142D02*
X133352438Y-91261904D01*
X133352438Y-91261904D02*
X133400057Y-91214285D01*
X133400057Y-91214285D02*
X133495295Y-91166666D01*
X133495295Y-91166666D02*
X133638152Y-91166666D01*
X133638152Y-91166666D02*
X133733390Y-91214285D01*
X133733390Y-91214285D02*
X133781009Y-91261904D01*
X133781009Y-91261904D02*
X133828628Y-91357142D01*
X133828628Y-91357142D02*
X133828628Y-91738094D01*
X133304819Y-90309523D02*
X133304819Y-90499999D01*
X133304819Y-90499999D02*
X133352438Y-90595237D01*
X133352438Y-90595237D02*
X133400057Y-90642856D01*
X133400057Y-90642856D02*
X133542914Y-90738094D01*
X133542914Y-90738094D02*
X133733390Y-90785713D01*
X133733390Y-90785713D02*
X134114342Y-90785713D01*
X134114342Y-90785713D02*
X134209580Y-90738094D01*
X134209580Y-90738094D02*
X134257200Y-90690475D01*
X134257200Y-90690475D02*
X134304819Y-90595237D01*
X134304819Y-90595237D02*
X134304819Y-90404761D01*
X134304819Y-90404761D02*
X134257200Y-90309523D01*
X134257200Y-90309523D02*
X134209580Y-90261904D01*
X134209580Y-90261904D02*
X134114342Y-90214285D01*
X134114342Y-90214285D02*
X133876247Y-90214285D01*
X133876247Y-90214285D02*
X133781009Y-90261904D01*
X133781009Y-90261904D02*
X133733390Y-90309523D01*
X133733390Y-90309523D02*
X133685771Y-90404761D01*
X133685771Y-90404761D02*
X133685771Y-90595237D01*
X133685771Y-90595237D02*
X133733390Y-90690475D01*
X133733390Y-90690475D02*
X133781009Y-90738094D01*
X133781009Y-90738094D02*
X133876247Y-90785713D01*
X139604819Y-74542857D02*
X139128628Y-74876190D01*
X139604819Y-75114285D02*
X138604819Y-75114285D01*
X138604819Y-75114285D02*
X138604819Y-74733333D01*
X138604819Y-74733333D02*
X138652438Y-74638095D01*
X138652438Y-74638095D02*
X138700057Y-74590476D01*
X138700057Y-74590476D02*
X138795295Y-74542857D01*
X138795295Y-74542857D02*
X138938152Y-74542857D01*
X138938152Y-74542857D02*
X139033390Y-74590476D01*
X139033390Y-74590476D02*
X139081009Y-74638095D01*
X139081009Y-74638095D02*
X139128628Y-74733333D01*
X139128628Y-74733333D02*
X139128628Y-75114285D01*
X139604819Y-73590476D02*
X139604819Y-74161904D01*
X139604819Y-73876190D02*
X138604819Y-73876190D01*
X138604819Y-73876190D02*
X138747676Y-73971428D01*
X138747676Y-73971428D02*
X138842914Y-74066666D01*
X138842914Y-74066666D02*
X138890533Y-74161904D01*
X139033390Y-73019047D02*
X138985771Y-73114285D01*
X138985771Y-73114285D02*
X138938152Y-73161904D01*
X138938152Y-73161904D02*
X138842914Y-73209523D01*
X138842914Y-73209523D02*
X138795295Y-73209523D01*
X138795295Y-73209523D02*
X138700057Y-73161904D01*
X138700057Y-73161904D02*
X138652438Y-73114285D01*
X138652438Y-73114285D02*
X138604819Y-73019047D01*
X138604819Y-73019047D02*
X138604819Y-72828571D01*
X138604819Y-72828571D02*
X138652438Y-72733333D01*
X138652438Y-72733333D02*
X138700057Y-72685714D01*
X138700057Y-72685714D02*
X138795295Y-72638095D01*
X138795295Y-72638095D02*
X138842914Y-72638095D01*
X138842914Y-72638095D02*
X138938152Y-72685714D01*
X138938152Y-72685714D02*
X138985771Y-72733333D01*
X138985771Y-72733333D02*
X139033390Y-72828571D01*
X139033390Y-72828571D02*
X139033390Y-73019047D01*
X139033390Y-73019047D02*
X139081009Y-73114285D01*
X139081009Y-73114285D02*
X139128628Y-73161904D01*
X139128628Y-73161904D02*
X139223866Y-73209523D01*
X139223866Y-73209523D02*
X139414342Y-73209523D01*
X139414342Y-73209523D02*
X139509580Y-73161904D01*
X139509580Y-73161904D02*
X139557200Y-73114285D01*
X139557200Y-73114285D02*
X139604819Y-73019047D01*
X139604819Y-73019047D02*
X139604819Y-72828571D01*
X139604819Y-72828571D02*
X139557200Y-72733333D01*
X139557200Y-72733333D02*
X139509580Y-72685714D01*
X139509580Y-72685714D02*
X139414342Y-72638095D01*
X139414342Y-72638095D02*
X139223866Y-72638095D01*
X139223866Y-72638095D02*
X139128628Y-72685714D01*
X139128628Y-72685714D02*
X139081009Y-72733333D01*
X139081009Y-72733333D02*
X139033390Y-72828571D01*
X138929580Y-84616666D02*
X138977200Y-84664285D01*
X138977200Y-84664285D02*
X139024819Y-84807142D01*
X139024819Y-84807142D02*
X139024819Y-84902380D01*
X139024819Y-84902380D02*
X138977200Y-85045237D01*
X138977200Y-85045237D02*
X138881961Y-85140475D01*
X138881961Y-85140475D02*
X138786723Y-85188094D01*
X138786723Y-85188094D02*
X138596247Y-85235713D01*
X138596247Y-85235713D02*
X138453390Y-85235713D01*
X138453390Y-85235713D02*
X138262914Y-85188094D01*
X138262914Y-85188094D02*
X138167676Y-85140475D01*
X138167676Y-85140475D02*
X138072438Y-85045237D01*
X138072438Y-85045237D02*
X138024819Y-84902380D01*
X138024819Y-84902380D02*
X138024819Y-84807142D01*
X138024819Y-84807142D02*
X138072438Y-84664285D01*
X138072438Y-84664285D02*
X138120057Y-84616666D01*
X138120057Y-84235713D02*
X138072438Y-84188094D01*
X138072438Y-84188094D02*
X138024819Y-84092856D01*
X138024819Y-84092856D02*
X138024819Y-83854761D01*
X138024819Y-83854761D02*
X138072438Y-83759523D01*
X138072438Y-83759523D02*
X138120057Y-83711904D01*
X138120057Y-83711904D02*
X138215295Y-83664285D01*
X138215295Y-83664285D02*
X138310533Y-83664285D01*
X138310533Y-83664285D02*
X138453390Y-83711904D01*
X138453390Y-83711904D02*
X139024819Y-84283332D01*
X139024819Y-84283332D02*
X139024819Y-83664285D01*
X141666666Y-86434819D02*
X141666666Y-87149104D01*
X141666666Y-87149104D02*
X141619047Y-87291961D01*
X141619047Y-87291961D02*
X141523809Y-87387200D01*
X141523809Y-87387200D02*
X141380952Y-87434819D01*
X141380952Y-87434819D02*
X141285714Y-87434819D01*
X142619047Y-86434819D02*
X142142857Y-86434819D01*
X142142857Y-86434819D02*
X142095238Y-86911009D01*
X142095238Y-86911009D02*
X142142857Y-86863390D01*
X142142857Y-86863390D02*
X142238095Y-86815771D01*
X142238095Y-86815771D02*
X142476190Y-86815771D01*
X142476190Y-86815771D02*
X142571428Y-86863390D01*
X142571428Y-86863390D02*
X142619047Y-86911009D01*
X142619047Y-86911009D02*
X142666666Y-87006247D01*
X142666666Y-87006247D02*
X142666666Y-87244342D01*
X142666666Y-87244342D02*
X142619047Y-87339580D01*
X142619047Y-87339580D02*
X142571428Y-87387200D01*
X142571428Y-87387200D02*
X142476190Y-87434819D01*
X142476190Y-87434819D02*
X142238095Y-87434819D01*
X142238095Y-87434819D02*
X142142857Y-87387200D01*
X142142857Y-87387200D02*
X142095238Y-87339580D01*
X98743810Y-123924819D02*
X98743810Y-122924819D01*
X99220000Y-123924819D02*
X99220000Y-122924819D01*
X99220000Y-122924819D02*
X99791428Y-123924819D01*
X99791428Y-123924819D02*
X99791428Y-122924819D01*
X100124762Y-122924819D02*
X100458095Y-123924819D01*
X100458095Y-123924819D02*
X100791428Y-122924819D01*
X101124762Y-123543866D02*
X101886667Y-123543866D01*
X102553333Y-122924819D02*
X102743809Y-122924819D01*
X102743809Y-122924819D02*
X102839047Y-122972438D01*
X102839047Y-122972438D02*
X102934285Y-123067676D01*
X102934285Y-123067676D02*
X102981904Y-123258152D01*
X102981904Y-123258152D02*
X102981904Y-123591485D01*
X102981904Y-123591485D02*
X102934285Y-123781961D01*
X102934285Y-123781961D02*
X102839047Y-123877200D01*
X102839047Y-123877200D02*
X102743809Y-123924819D01*
X102743809Y-123924819D02*
X102553333Y-123924819D01*
X102553333Y-123924819D02*
X102458095Y-123877200D01*
X102458095Y-123877200D02*
X102362857Y-123781961D01*
X102362857Y-123781961D02*
X102315238Y-123591485D01*
X102315238Y-123591485D02*
X102315238Y-123258152D01*
X102315238Y-123258152D02*
X102362857Y-123067676D01*
X102362857Y-123067676D02*
X102458095Y-122972438D01*
X102458095Y-122972438D02*
X102553333Y-122924819D01*
X103410476Y-122924819D02*
X103410476Y-123734342D01*
X103410476Y-123734342D02*
X103458095Y-123829580D01*
X103458095Y-123829580D02*
X103505714Y-123877200D01*
X103505714Y-123877200D02*
X103600952Y-123924819D01*
X103600952Y-123924819D02*
X103791428Y-123924819D01*
X103791428Y-123924819D02*
X103886666Y-123877200D01*
X103886666Y-123877200D02*
X103934285Y-123829580D01*
X103934285Y-123829580D02*
X103981904Y-123734342D01*
X103981904Y-123734342D02*
X103981904Y-122924819D01*
X104315238Y-122924819D02*
X104886666Y-122924819D01*
X104600952Y-123924819D02*
X104600952Y-122924819D01*
X105743809Y-123924819D02*
X105172381Y-123924819D01*
X105458095Y-123924819D02*
X105458095Y-122924819D01*
X105458095Y-122924819D02*
X105362857Y-123067676D01*
X105362857Y-123067676D02*
X105267619Y-123162914D01*
X105267619Y-123162914D02*
X105172381Y-123210533D01*
X106052381Y-120104819D02*
X106623809Y-120104819D01*
X106338095Y-121104819D02*
X106338095Y-120104819D01*
X107528571Y-121104819D02*
X107195238Y-120628628D01*
X106957143Y-121104819D02*
X106957143Y-120104819D01*
X106957143Y-120104819D02*
X107338095Y-120104819D01*
X107338095Y-120104819D02*
X107433333Y-120152438D01*
X107433333Y-120152438D02*
X107480952Y-120200057D01*
X107480952Y-120200057D02*
X107528571Y-120295295D01*
X107528571Y-120295295D02*
X107528571Y-120438152D01*
X107528571Y-120438152D02*
X107480952Y-120533390D01*
X107480952Y-120533390D02*
X107433333Y-120581009D01*
X107433333Y-120581009D02*
X107338095Y-120628628D01*
X107338095Y-120628628D02*
X106957143Y-120628628D01*
X107957143Y-121104819D02*
X107957143Y-120104819D01*
X108433333Y-120723866D02*
X109195238Y-120723866D01*
X109861904Y-120104819D02*
X110052380Y-120104819D01*
X110052380Y-120104819D02*
X110147618Y-120152438D01*
X110147618Y-120152438D02*
X110242856Y-120247676D01*
X110242856Y-120247676D02*
X110290475Y-120438152D01*
X110290475Y-120438152D02*
X110290475Y-120771485D01*
X110290475Y-120771485D02*
X110242856Y-120961961D01*
X110242856Y-120961961D02*
X110147618Y-121057200D01*
X110147618Y-121057200D02*
X110052380Y-121104819D01*
X110052380Y-121104819D02*
X109861904Y-121104819D01*
X109861904Y-121104819D02*
X109766666Y-121057200D01*
X109766666Y-121057200D02*
X109671428Y-120961961D01*
X109671428Y-120961961D02*
X109623809Y-120771485D01*
X109623809Y-120771485D02*
X109623809Y-120438152D01*
X109623809Y-120438152D02*
X109671428Y-120247676D01*
X109671428Y-120247676D02*
X109766666Y-120152438D01*
X109766666Y-120152438D02*
X109861904Y-120104819D01*
X110719047Y-120104819D02*
X110719047Y-120914342D01*
X110719047Y-120914342D02*
X110766666Y-121009580D01*
X110766666Y-121009580D02*
X110814285Y-121057200D01*
X110814285Y-121057200D02*
X110909523Y-121104819D01*
X110909523Y-121104819D02*
X111099999Y-121104819D01*
X111099999Y-121104819D02*
X111195237Y-121057200D01*
X111195237Y-121057200D02*
X111242856Y-121009580D01*
X111242856Y-121009580D02*
X111290475Y-120914342D01*
X111290475Y-120914342D02*
X111290475Y-120104819D01*
X111623809Y-120104819D02*
X112195237Y-120104819D01*
X111909523Y-121104819D02*
X111909523Y-120104819D01*
X113052380Y-121104819D02*
X112480952Y-121104819D01*
X112766666Y-121104819D02*
X112766666Y-120104819D01*
X112766666Y-120104819D02*
X112671428Y-120247676D01*
X112671428Y-120247676D02*
X112576190Y-120342914D01*
X112576190Y-120342914D02*
X112480952Y-120390533D01*
X124089819Y-122753094D02*
X123089819Y-122753094D01*
X123089819Y-122753094D02*
X123089819Y-122514999D01*
X123089819Y-122514999D02*
X123137438Y-122372142D01*
X123137438Y-122372142D02*
X123232676Y-122276904D01*
X123232676Y-122276904D02*
X123327914Y-122229285D01*
X123327914Y-122229285D02*
X123518390Y-122181666D01*
X123518390Y-122181666D02*
X123661247Y-122181666D01*
X123661247Y-122181666D02*
X123851723Y-122229285D01*
X123851723Y-122229285D02*
X123946961Y-122276904D01*
X123946961Y-122276904D02*
X124042200Y-122372142D01*
X124042200Y-122372142D02*
X124089819Y-122514999D01*
X124089819Y-122514999D02*
X124089819Y-122753094D01*
X123089819Y-121276904D02*
X123089819Y-121753094D01*
X123089819Y-121753094D02*
X123566009Y-121800713D01*
X123566009Y-121800713D02*
X123518390Y-121753094D01*
X123518390Y-121753094D02*
X123470771Y-121657856D01*
X123470771Y-121657856D02*
X123470771Y-121419761D01*
X123470771Y-121419761D02*
X123518390Y-121324523D01*
X123518390Y-121324523D02*
X123566009Y-121276904D01*
X123566009Y-121276904D02*
X123661247Y-121229285D01*
X123661247Y-121229285D02*
X123899342Y-121229285D01*
X123899342Y-121229285D02*
X123994580Y-121276904D01*
X123994580Y-121276904D02*
X124042200Y-121324523D01*
X124042200Y-121324523D02*
X124089819Y-121419761D01*
X124089819Y-121419761D02*
X124089819Y-121657856D01*
X124089819Y-121657856D02*
X124042200Y-121753094D01*
X124042200Y-121753094D02*
X123994580Y-121800713D01*
X140004819Y-79755357D02*
X139528628Y-80088690D01*
X140004819Y-80326785D02*
X139004819Y-80326785D01*
X139004819Y-80326785D02*
X139004819Y-79945833D01*
X139004819Y-79945833D02*
X139052438Y-79850595D01*
X139052438Y-79850595D02*
X139100057Y-79802976D01*
X139100057Y-79802976D02*
X139195295Y-79755357D01*
X139195295Y-79755357D02*
X139338152Y-79755357D01*
X139338152Y-79755357D02*
X139433390Y-79802976D01*
X139433390Y-79802976D02*
X139481009Y-79850595D01*
X139481009Y-79850595D02*
X139528628Y-79945833D01*
X139528628Y-79945833D02*
X139528628Y-80326785D01*
X140004819Y-78802976D02*
X140004819Y-79374404D01*
X140004819Y-79088690D02*
X139004819Y-79088690D01*
X139004819Y-79088690D02*
X139147676Y-79183928D01*
X139147676Y-79183928D02*
X139242914Y-79279166D01*
X139242914Y-79279166D02*
X139290533Y-79374404D01*
X139004819Y-77945833D02*
X139004819Y-78136309D01*
X139004819Y-78136309D02*
X139052438Y-78231547D01*
X139052438Y-78231547D02*
X139100057Y-78279166D01*
X139100057Y-78279166D02*
X139242914Y-78374404D01*
X139242914Y-78374404D02*
X139433390Y-78422023D01*
X139433390Y-78422023D02*
X139814342Y-78422023D01*
X139814342Y-78422023D02*
X139909580Y-78374404D01*
X139909580Y-78374404D02*
X139957200Y-78326785D01*
X139957200Y-78326785D02*
X140004819Y-78231547D01*
X140004819Y-78231547D02*
X140004819Y-78041071D01*
X140004819Y-78041071D02*
X139957200Y-77945833D01*
X139957200Y-77945833D02*
X139909580Y-77898214D01*
X139909580Y-77898214D02*
X139814342Y-77850595D01*
X139814342Y-77850595D02*
X139576247Y-77850595D01*
X139576247Y-77850595D02*
X139481009Y-77898214D01*
X139481009Y-77898214D02*
X139433390Y-77945833D01*
X139433390Y-77945833D02*
X139385771Y-78041071D01*
X139385771Y-78041071D02*
X139385771Y-78231547D01*
X139385771Y-78231547D02*
X139433390Y-78326785D01*
X139433390Y-78326785D02*
X139481009Y-78374404D01*
X139481009Y-78374404D02*
X139576247Y-78422023D01*
X131454819Y-67292857D02*
X130978628Y-67626190D01*
X131454819Y-67864285D02*
X130454819Y-67864285D01*
X130454819Y-67864285D02*
X130454819Y-67483333D01*
X130454819Y-67483333D02*
X130502438Y-67388095D01*
X130502438Y-67388095D02*
X130550057Y-67340476D01*
X130550057Y-67340476D02*
X130645295Y-67292857D01*
X130645295Y-67292857D02*
X130788152Y-67292857D01*
X130788152Y-67292857D02*
X130883390Y-67340476D01*
X130883390Y-67340476D02*
X130931009Y-67388095D01*
X130931009Y-67388095D02*
X130978628Y-67483333D01*
X130978628Y-67483333D02*
X130978628Y-67864285D01*
X131454819Y-66340476D02*
X131454819Y-66911904D01*
X131454819Y-66626190D02*
X130454819Y-66626190D01*
X130454819Y-66626190D02*
X130597676Y-66721428D01*
X130597676Y-66721428D02*
X130692914Y-66816666D01*
X130692914Y-66816666D02*
X130740533Y-66911904D01*
X131454819Y-65864285D02*
X131454819Y-65673809D01*
X131454819Y-65673809D02*
X131407200Y-65578571D01*
X131407200Y-65578571D02*
X131359580Y-65530952D01*
X131359580Y-65530952D02*
X131216723Y-65435714D01*
X131216723Y-65435714D02*
X131026247Y-65388095D01*
X131026247Y-65388095D02*
X130645295Y-65388095D01*
X130645295Y-65388095D02*
X130550057Y-65435714D01*
X130550057Y-65435714D02*
X130502438Y-65483333D01*
X130502438Y-65483333D02*
X130454819Y-65578571D01*
X130454819Y-65578571D02*
X130454819Y-65769047D01*
X130454819Y-65769047D02*
X130502438Y-65864285D01*
X130502438Y-65864285D02*
X130550057Y-65911904D01*
X130550057Y-65911904D02*
X130645295Y-65959523D01*
X130645295Y-65959523D02*
X130883390Y-65959523D01*
X130883390Y-65959523D02*
X130978628Y-65911904D01*
X130978628Y-65911904D02*
X131026247Y-65864285D01*
X131026247Y-65864285D02*
X131073866Y-65769047D01*
X131073866Y-65769047D02*
X131073866Y-65578571D01*
X131073866Y-65578571D02*
X131026247Y-65483333D01*
X131026247Y-65483333D02*
X130978628Y-65435714D01*
X130978628Y-65435714D02*
X130883390Y-65388095D01*
X117961905Y-53514819D02*
X117961905Y-52514819D01*
X117961905Y-52514819D02*
X118200000Y-52514819D01*
X118200000Y-52514819D02*
X118342857Y-52562438D01*
X118342857Y-52562438D02*
X118438095Y-52657676D01*
X118438095Y-52657676D02*
X118485714Y-52752914D01*
X118485714Y-52752914D02*
X118533333Y-52943390D01*
X118533333Y-52943390D02*
X118533333Y-53086247D01*
X118533333Y-53086247D02*
X118485714Y-53276723D01*
X118485714Y-53276723D02*
X118438095Y-53371961D01*
X118438095Y-53371961D02*
X118342857Y-53467200D01*
X118342857Y-53467200D02*
X118200000Y-53514819D01*
X118200000Y-53514819D02*
X117961905Y-53514819D01*
X118866667Y-52514819D02*
X119485714Y-52514819D01*
X119485714Y-52514819D02*
X119152381Y-52895771D01*
X119152381Y-52895771D02*
X119295238Y-52895771D01*
X119295238Y-52895771D02*
X119390476Y-52943390D01*
X119390476Y-52943390D02*
X119438095Y-52991009D01*
X119438095Y-52991009D02*
X119485714Y-53086247D01*
X119485714Y-53086247D02*
X119485714Y-53324342D01*
X119485714Y-53324342D02*
X119438095Y-53419580D01*
X119438095Y-53419580D02*
X119390476Y-53467200D01*
X119390476Y-53467200D02*
X119295238Y-53514819D01*
X119295238Y-53514819D02*
X119009524Y-53514819D01*
X119009524Y-53514819D02*
X118914286Y-53467200D01*
X118914286Y-53467200D02*
X118866667Y-53419580D01*
X136083333Y-87492319D02*
X135750000Y-87016128D01*
X135511905Y-87492319D02*
X135511905Y-86492319D01*
X135511905Y-86492319D02*
X135892857Y-86492319D01*
X135892857Y-86492319D02*
X135988095Y-86539938D01*
X135988095Y-86539938D02*
X136035714Y-86587557D01*
X136035714Y-86587557D02*
X136083333Y-86682795D01*
X136083333Y-86682795D02*
X136083333Y-86825652D01*
X136083333Y-86825652D02*
X136035714Y-86920890D01*
X136035714Y-86920890D02*
X135988095Y-86968509D01*
X135988095Y-86968509D02*
X135892857Y-87016128D01*
X135892857Y-87016128D02*
X135511905Y-87016128D01*
X136988095Y-86492319D02*
X136511905Y-86492319D01*
X136511905Y-86492319D02*
X136464286Y-86968509D01*
X136464286Y-86968509D02*
X136511905Y-86920890D01*
X136511905Y-86920890D02*
X136607143Y-86873271D01*
X136607143Y-86873271D02*
X136845238Y-86873271D01*
X136845238Y-86873271D02*
X136940476Y-86920890D01*
X136940476Y-86920890D02*
X136988095Y-86968509D01*
X136988095Y-86968509D02*
X137035714Y-87063747D01*
X137035714Y-87063747D02*
X137035714Y-87301842D01*
X137035714Y-87301842D02*
X136988095Y-87397080D01*
X136988095Y-87397080D02*
X136940476Y-87444700D01*
X136940476Y-87444700D02*
X136845238Y-87492319D01*
X136845238Y-87492319D02*
X136607143Y-87492319D01*
X136607143Y-87492319D02*
X136511905Y-87444700D01*
X136511905Y-87444700D02*
X136464286Y-87397080D01*
X126764580Y-96256666D02*
X126812200Y-96304285D01*
X126812200Y-96304285D02*
X126859819Y-96447142D01*
X126859819Y-96447142D02*
X126859819Y-96542380D01*
X126859819Y-96542380D02*
X126812200Y-96685237D01*
X126812200Y-96685237D02*
X126716961Y-96780475D01*
X126716961Y-96780475D02*
X126621723Y-96828094D01*
X126621723Y-96828094D02*
X126431247Y-96875713D01*
X126431247Y-96875713D02*
X126288390Y-96875713D01*
X126288390Y-96875713D02*
X126097914Y-96828094D01*
X126097914Y-96828094D02*
X126002676Y-96780475D01*
X126002676Y-96780475D02*
X125907438Y-96685237D01*
X125907438Y-96685237D02*
X125859819Y-96542380D01*
X125859819Y-96542380D02*
X125859819Y-96447142D01*
X125859819Y-96447142D02*
X125907438Y-96304285D01*
X125907438Y-96304285D02*
X125955057Y-96256666D01*
X125859819Y-95923332D02*
X125859819Y-95304285D01*
X125859819Y-95304285D02*
X126240771Y-95637618D01*
X126240771Y-95637618D02*
X126240771Y-95494761D01*
X126240771Y-95494761D02*
X126288390Y-95399523D01*
X126288390Y-95399523D02*
X126336009Y-95351904D01*
X126336009Y-95351904D02*
X126431247Y-95304285D01*
X126431247Y-95304285D02*
X126669342Y-95304285D01*
X126669342Y-95304285D02*
X126764580Y-95351904D01*
X126764580Y-95351904D02*
X126812200Y-95399523D01*
X126812200Y-95399523D02*
X126859819Y-95494761D01*
X126859819Y-95494761D02*
X126859819Y-95780475D01*
X126859819Y-95780475D02*
X126812200Y-95875713D01*
X126812200Y-95875713D02*
X126764580Y-95923332D01*
X130954819Y-91016666D02*
X130478628Y-91349999D01*
X130954819Y-91588094D02*
X129954819Y-91588094D01*
X129954819Y-91588094D02*
X129954819Y-91207142D01*
X129954819Y-91207142D02*
X130002438Y-91111904D01*
X130002438Y-91111904D02*
X130050057Y-91064285D01*
X130050057Y-91064285D02*
X130145295Y-91016666D01*
X130145295Y-91016666D02*
X130288152Y-91016666D01*
X130288152Y-91016666D02*
X130383390Y-91064285D01*
X130383390Y-91064285D02*
X130431009Y-91111904D01*
X130431009Y-91111904D02*
X130478628Y-91207142D01*
X130478628Y-91207142D02*
X130478628Y-91588094D01*
X129954819Y-90683332D02*
X129954819Y-90064285D01*
X129954819Y-90064285D02*
X130335771Y-90397618D01*
X130335771Y-90397618D02*
X130335771Y-90254761D01*
X130335771Y-90254761D02*
X130383390Y-90159523D01*
X130383390Y-90159523D02*
X130431009Y-90111904D01*
X130431009Y-90111904D02*
X130526247Y-90064285D01*
X130526247Y-90064285D02*
X130764342Y-90064285D01*
X130764342Y-90064285D02*
X130859580Y-90111904D01*
X130859580Y-90111904D02*
X130907200Y-90159523D01*
X130907200Y-90159523D02*
X130954819Y-90254761D01*
X130954819Y-90254761D02*
X130954819Y-90540475D01*
X130954819Y-90540475D02*
X130907200Y-90635713D01*
X130907200Y-90635713D02*
X130859580Y-90683332D01*
X139254819Y-72042857D02*
X138778628Y-72376190D01*
X139254819Y-72614285D02*
X138254819Y-72614285D01*
X138254819Y-72614285D02*
X138254819Y-72233333D01*
X138254819Y-72233333D02*
X138302438Y-72138095D01*
X138302438Y-72138095D02*
X138350057Y-72090476D01*
X138350057Y-72090476D02*
X138445295Y-72042857D01*
X138445295Y-72042857D02*
X138588152Y-72042857D01*
X138588152Y-72042857D02*
X138683390Y-72090476D01*
X138683390Y-72090476D02*
X138731009Y-72138095D01*
X138731009Y-72138095D02*
X138778628Y-72233333D01*
X138778628Y-72233333D02*
X138778628Y-72614285D01*
X138350057Y-71661904D02*
X138302438Y-71614285D01*
X138302438Y-71614285D02*
X138254819Y-71519047D01*
X138254819Y-71519047D02*
X138254819Y-71280952D01*
X138254819Y-71280952D02*
X138302438Y-71185714D01*
X138302438Y-71185714D02*
X138350057Y-71138095D01*
X138350057Y-71138095D02*
X138445295Y-71090476D01*
X138445295Y-71090476D02*
X138540533Y-71090476D01*
X138540533Y-71090476D02*
X138683390Y-71138095D01*
X138683390Y-71138095D02*
X139254819Y-71709523D01*
X139254819Y-71709523D02*
X139254819Y-71090476D01*
X139254819Y-70138095D02*
X139254819Y-70709523D01*
X139254819Y-70423809D02*
X138254819Y-70423809D01*
X138254819Y-70423809D02*
X138397676Y-70519047D01*
X138397676Y-70519047D02*
X138492914Y-70614285D01*
X138492914Y-70614285D02*
X138540533Y-70709523D01*
X104417200Y-80561666D02*
X104464819Y-80418809D01*
X104464819Y-80418809D02*
X104464819Y-80180714D01*
X104464819Y-80180714D02*
X104417200Y-80085476D01*
X104417200Y-80085476D02*
X104369580Y-80037857D01*
X104369580Y-80037857D02*
X104274342Y-79990238D01*
X104274342Y-79990238D02*
X104179104Y-79990238D01*
X104179104Y-79990238D02*
X104083866Y-80037857D01*
X104083866Y-80037857D02*
X104036247Y-80085476D01*
X104036247Y-80085476D02*
X103988628Y-80180714D01*
X103988628Y-80180714D02*
X103941009Y-80371190D01*
X103941009Y-80371190D02*
X103893390Y-80466428D01*
X103893390Y-80466428D02*
X103845771Y-80514047D01*
X103845771Y-80514047D02*
X103750533Y-80561666D01*
X103750533Y-80561666D02*
X103655295Y-80561666D01*
X103655295Y-80561666D02*
X103560057Y-80514047D01*
X103560057Y-80514047D02*
X103512438Y-80466428D01*
X103512438Y-80466428D02*
X103464819Y-80371190D01*
X103464819Y-80371190D02*
X103464819Y-80133095D01*
X103464819Y-80133095D02*
X103512438Y-79990238D01*
X104464819Y-79561666D02*
X103464819Y-79561666D01*
X103941009Y-79561666D02*
X103941009Y-78990238D01*
X104464819Y-78990238D02*
X103464819Y-78990238D01*
X104179104Y-78561666D02*
X104179104Y-78085476D01*
X104464819Y-78656904D02*
X103464819Y-78323571D01*
X103464819Y-78323571D02*
X104464819Y-77990238D01*
X104464819Y-77656904D02*
X103464819Y-77656904D01*
X103464819Y-77656904D02*
X103464819Y-77275952D01*
X103464819Y-77275952D02*
X103512438Y-77180714D01*
X103512438Y-77180714D02*
X103560057Y-77133095D01*
X103560057Y-77133095D02*
X103655295Y-77085476D01*
X103655295Y-77085476D02*
X103798152Y-77085476D01*
X103798152Y-77085476D02*
X103893390Y-77133095D01*
X103893390Y-77133095D02*
X103941009Y-77180714D01*
X103941009Y-77180714D02*
X103988628Y-77275952D01*
X103988628Y-77275952D02*
X103988628Y-77656904D01*
X103941009Y-76656904D02*
X103941009Y-76323571D01*
X104464819Y-76180714D02*
X104464819Y-76656904D01*
X104464819Y-76656904D02*
X103464819Y-76656904D01*
X103464819Y-76656904D02*
X103464819Y-76180714D01*
X104464819Y-75228333D02*
X104464819Y-75799761D01*
X104464819Y-75514047D02*
X103464819Y-75514047D01*
X103464819Y-75514047D02*
X103607676Y-75609285D01*
X103607676Y-75609285D02*
X103702914Y-75704523D01*
X103702914Y-75704523D02*
X103750533Y-75799761D01*
X103464819Y-99753095D02*
X103464819Y-99562619D01*
X103464819Y-99562619D02*
X103512438Y-99467381D01*
X103512438Y-99467381D02*
X103607676Y-99372143D01*
X103607676Y-99372143D02*
X103798152Y-99324524D01*
X103798152Y-99324524D02*
X104131485Y-99324524D01*
X104131485Y-99324524D02*
X104321961Y-99372143D01*
X104321961Y-99372143D02*
X104417200Y-99467381D01*
X104417200Y-99467381D02*
X104464819Y-99562619D01*
X104464819Y-99562619D02*
X104464819Y-99753095D01*
X104464819Y-99753095D02*
X104417200Y-99848333D01*
X104417200Y-99848333D02*
X104321961Y-99943571D01*
X104321961Y-99943571D02*
X104131485Y-99991190D01*
X104131485Y-99991190D02*
X103798152Y-99991190D01*
X103798152Y-99991190D02*
X103607676Y-99943571D01*
X103607676Y-99943571D02*
X103512438Y-99848333D01*
X103512438Y-99848333D02*
X103464819Y-99753095D01*
X103941009Y-98562619D02*
X103941009Y-98895952D01*
X104464819Y-98895952D02*
X103464819Y-98895952D01*
X103464819Y-98895952D02*
X103464819Y-98419762D01*
X103941009Y-97705476D02*
X103941009Y-98038809D01*
X104464819Y-98038809D02*
X103464819Y-98038809D01*
X103464819Y-98038809D02*
X103464819Y-97562619D01*
X104417200Y-97229285D02*
X104464819Y-97086428D01*
X104464819Y-97086428D02*
X104464819Y-96848333D01*
X104464819Y-96848333D02*
X104417200Y-96753095D01*
X104417200Y-96753095D02*
X104369580Y-96705476D01*
X104369580Y-96705476D02*
X104274342Y-96657857D01*
X104274342Y-96657857D02*
X104179104Y-96657857D01*
X104179104Y-96657857D02*
X104083866Y-96705476D01*
X104083866Y-96705476D02*
X104036247Y-96753095D01*
X104036247Y-96753095D02*
X103988628Y-96848333D01*
X103988628Y-96848333D02*
X103941009Y-97038809D01*
X103941009Y-97038809D02*
X103893390Y-97134047D01*
X103893390Y-97134047D02*
X103845771Y-97181666D01*
X103845771Y-97181666D02*
X103750533Y-97229285D01*
X103750533Y-97229285D02*
X103655295Y-97229285D01*
X103655295Y-97229285D02*
X103560057Y-97181666D01*
X103560057Y-97181666D02*
X103512438Y-97134047D01*
X103512438Y-97134047D02*
X103464819Y-97038809D01*
X103464819Y-97038809D02*
X103464819Y-96800714D01*
X103464819Y-96800714D02*
X103512438Y-96657857D01*
X103941009Y-96229285D02*
X103941009Y-95895952D01*
X104464819Y-95753095D02*
X104464819Y-96229285D01*
X104464819Y-96229285D02*
X103464819Y-96229285D01*
X103464819Y-96229285D02*
X103464819Y-95753095D01*
X103464819Y-95467380D02*
X103464819Y-94895952D01*
X104464819Y-95181666D02*
X103464819Y-95181666D01*
X104464819Y-94038809D02*
X104464819Y-94610237D01*
X104464819Y-94324523D02*
X103464819Y-94324523D01*
X103464819Y-94324523D02*
X103607676Y-94419761D01*
X103607676Y-94419761D02*
X103702914Y-94514999D01*
X103702914Y-94514999D02*
X103750533Y-94610237D01*
X127954819Y-86216666D02*
X127478628Y-86549999D01*
X127954819Y-86788094D02*
X126954819Y-86788094D01*
X126954819Y-86788094D02*
X126954819Y-86407142D01*
X126954819Y-86407142D02*
X127002438Y-86311904D01*
X127002438Y-86311904D02*
X127050057Y-86264285D01*
X127050057Y-86264285D02*
X127145295Y-86216666D01*
X127145295Y-86216666D02*
X127288152Y-86216666D01*
X127288152Y-86216666D02*
X127383390Y-86264285D01*
X127383390Y-86264285D02*
X127431009Y-86311904D01*
X127431009Y-86311904D02*
X127478628Y-86407142D01*
X127478628Y-86407142D02*
X127478628Y-86788094D01*
X127954819Y-85264285D02*
X127954819Y-85835713D01*
X127954819Y-85549999D02*
X126954819Y-85549999D01*
X126954819Y-85549999D02*
X127097676Y-85645237D01*
X127097676Y-85645237D02*
X127192914Y-85740475D01*
X127192914Y-85740475D02*
X127240533Y-85835713D01*
X144089819Y-122753094D02*
X143089819Y-122753094D01*
X143089819Y-122753094D02*
X143089819Y-122514999D01*
X143089819Y-122514999D02*
X143137438Y-122372142D01*
X143137438Y-122372142D02*
X143232676Y-122276904D01*
X143232676Y-122276904D02*
X143327914Y-122229285D01*
X143327914Y-122229285D02*
X143518390Y-122181666D01*
X143518390Y-122181666D02*
X143661247Y-122181666D01*
X143661247Y-122181666D02*
X143851723Y-122229285D01*
X143851723Y-122229285D02*
X143946961Y-122276904D01*
X143946961Y-122276904D02*
X144042200Y-122372142D01*
X144042200Y-122372142D02*
X144089819Y-122514999D01*
X144089819Y-122514999D02*
X144089819Y-122753094D01*
X143423152Y-121324523D02*
X144089819Y-121324523D01*
X143042200Y-121562618D02*
X143756485Y-121800713D01*
X143756485Y-121800713D02*
X143756485Y-121181666D01*
X135739819Y-72157857D02*
X135263628Y-72491190D01*
X135739819Y-72729285D02*
X134739819Y-72729285D01*
X134739819Y-72729285D02*
X134739819Y-72348333D01*
X134739819Y-72348333D02*
X134787438Y-72253095D01*
X134787438Y-72253095D02*
X134835057Y-72205476D01*
X134835057Y-72205476D02*
X134930295Y-72157857D01*
X134930295Y-72157857D02*
X135073152Y-72157857D01*
X135073152Y-72157857D02*
X135168390Y-72205476D01*
X135168390Y-72205476D02*
X135216009Y-72253095D01*
X135216009Y-72253095D02*
X135263628Y-72348333D01*
X135263628Y-72348333D02*
X135263628Y-72729285D01*
X134835057Y-71776904D02*
X134787438Y-71729285D01*
X134787438Y-71729285D02*
X134739819Y-71634047D01*
X134739819Y-71634047D02*
X134739819Y-71395952D01*
X134739819Y-71395952D02*
X134787438Y-71300714D01*
X134787438Y-71300714D02*
X134835057Y-71253095D01*
X134835057Y-71253095D02*
X134930295Y-71205476D01*
X134930295Y-71205476D02*
X135025533Y-71205476D01*
X135025533Y-71205476D02*
X135168390Y-71253095D01*
X135168390Y-71253095D02*
X135739819Y-71824523D01*
X135739819Y-71824523D02*
X135739819Y-71205476D01*
X134835057Y-70824523D02*
X134787438Y-70776904D01*
X134787438Y-70776904D02*
X134739819Y-70681666D01*
X134739819Y-70681666D02*
X134739819Y-70443571D01*
X134739819Y-70443571D02*
X134787438Y-70348333D01*
X134787438Y-70348333D02*
X134835057Y-70300714D01*
X134835057Y-70300714D02*
X134930295Y-70253095D01*
X134930295Y-70253095D02*
X135025533Y-70253095D01*
X135025533Y-70253095D02*
X135168390Y-70300714D01*
X135168390Y-70300714D02*
X135739819Y-70872142D01*
X135739819Y-70872142D02*
X135739819Y-70253095D01*
X132904761Y-99227557D02*
X132809523Y-99179938D01*
X132809523Y-99179938D02*
X132714285Y-99084700D01*
X132714285Y-99084700D02*
X132571428Y-98941842D01*
X132571428Y-98941842D02*
X132476190Y-98894223D01*
X132476190Y-98894223D02*
X132380952Y-98894223D01*
X132428571Y-99132319D02*
X132333333Y-99084700D01*
X132333333Y-99084700D02*
X132238095Y-98989461D01*
X132238095Y-98989461D02*
X132190476Y-98798985D01*
X132190476Y-98798985D02*
X132190476Y-98465652D01*
X132190476Y-98465652D02*
X132238095Y-98275176D01*
X132238095Y-98275176D02*
X132333333Y-98179938D01*
X132333333Y-98179938D02*
X132428571Y-98132319D01*
X132428571Y-98132319D02*
X132619047Y-98132319D01*
X132619047Y-98132319D02*
X132714285Y-98179938D01*
X132714285Y-98179938D02*
X132809523Y-98275176D01*
X132809523Y-98275176D02*
X132857142Y-98465652D01*
X132857142Y-98465652D02*
X132857142Y-98798985D01*
X132857142Y-98798985D02*
X132809523Y-98989461D01*
X132809523Y-98989461D02*
X132714285Y-99084700D01*
X132714285Y-99084700D02*
X132619047Y-99132319D01*
X132619047Y-99132319D02*
X132428571Y-99132319D01*
X133809523Y-99132319D02*
X133238095Y-99132319D01*
X133523809Y-99132319D02*
X133523809Y-98132319D01*
X133523809Y-98132319D02*
X133428571Y-98275176D01*
X133428571Y-98275176D02*
X133333333Y-98370414D01*
X133333333Y-98370414D02*
X133238095Y-98418033D01*
X116621429Y-120754819D02*
X116621429Y-119754819D01*
X116621429Y-119754819D02*
X117002381Y-119754819D01*
X117002381Y-119754819D02*
X117097619Y-119802438D01*
X117097619Y-119802438D02*
X117145238Y-119850057D01*
X117145238Y-119850057D02*
X117192857Y-119945295D01*
X117192857Y-119945295D02*
X117192857Y-120088152D01*
X117192857Y-120088152D02*
X117145238Y-120183390D01*
X117145238Y-120183390D02*
X117097619Y-120231009D01*
X117097619Y-120231009D02*
X117002381Y-120278628D01*
X117002381Y-120278628D02*
X116621429Y-120278628D01*
X117526191Y-119754819D02*
X117764286Y-120754819D01*
X117764286Y-120754819D02*
X117954762Y-120040533D01*
X117954762Y-120040533D02*
X118145238Y-120754819D01*
X118145238Y-120754819D02*
X118383334Y-119754819D01*
X118764286Y-120754819D02*
X118764286Y-119754819D01*
X118764286Y-119754819D02*
X119097619Y-120469104D01*
X119097619Y-120469104D02*
X119430952Y-119754819D01*
X119430952Y-119754819D02*
X119430952Y-120754819D01*
X119907143Y-120373866D02*
X120669048Y-120373866D01*
X121335714Y-119754819D02*
X121526190Y-119754819D01*
X121526190Y-119754819D02*
X121621428Y-119802438D01*
X121621428Y-119802438D02*
X121716666Y-119897676D01*
X121716666Y-119897676D02*
X121764285Y-120088152D01*
X121764285Y-120088152D02*
X121764285Y-120421485D01*
X121764285Y-120421485D02*
X121716666Y-120611961D01*
X121716666Y-120611961D02*
X121621428Y-120707200D01*
X121621428Y-120707200D02*
X121526190Y-120754819D01*
X121526190Y-120754819D02*
X121335714Y-120754819D01*
X121335714Y-120754819D02*
X121240476Y-120707200D01*
X121240476Y-120707200D02*
X121145238Y-120611961D01*
X121145238Y-120611961D02*
X121097619Y-120421485D01*
X121097619Y-120421485D02*
X121097619Y-120088152D01*
X121097619Y-120088152D02*
X121145238Y-119897676D01*
X121145238Y-119897676D02*
X121240476Y-119802438D01*
X121240476Y-119802438D02*
X121335714Y-119754819D01*
X122192857Y-119754819D02*
X122192857Y-120564342D01*
X122192857Y-120564342D02*
X122240476Y-120659580D01*
X122240476Y-120659580D02*
X122288095Y-120707200D01*
X122288095Y-120707200D02*
X122383333Y-120754819D01*
X122383333Y-120754819D02*
X122573809Y-120754819D01*
X122573809Y-120754819D02*
X122669047Y-120707200D01*
X122669047Y-120707200D02*
X122716666Y-120659580D01*
X122716666Y-120659580D02*
X122764285Y-120564342D01*
X122764285Y-120564342D02*
X122764285Y-119754819D01*
X123097619Y-119754819D02*
X123669047Y-119754819D01*
X123383333Y-120754819D02*
X123383333Y-119754819D01*
X124526190Y-120754819D02*
X123954762Y-120754819D01*
X124240476Y-120754819D02*
X124240476Y-119754819D01*
X124240476Y-119754819D02*
X124145238Y-119897676D01*
X124145238Y-119897676D02*
X124050000Y-119992914D01*
X124050000Y-119992914D02*
X123954762Y-120040533D01*
%TO.C,J3*%
D16*
X124170000Y-57785000D02*
X124170000Y-73085000D01*
X124170000Y-57785000D02*
X126830000Y-57785000D01*
X124170000Y-73085000D02*
X126830000Y-73085000D01*
X125500000Y-55185000D02*
X126830000Y-55185000D01*
X126830000Y-55185000D02*
X126830000Y-56515000D01*
X126830000Y-57785000D02*
X126830000Y-73085000D01*
%TO.C,D1*%
X109710000Y-87000000D02*
X105700000Y-87000000D01*
X109710000Y-89000000D02*
X105700000Y-89000000D01*
X109710000Y-89000000D02*
X109710000Y-87000000D01*
%TO.C,RATE1*%
X106270000Y-45485000D02*
X106270000Y-40765000D01*
X106280000Y-36955000D02*
X106280000Y-33895000D01*
X107460000Y-45485000D02*
X106280000Y-45485000D01*
X110360000Y-45485000D02*
X109830000Y-45485000D01*
X112810000Y-45485000D02*
X111980000Y-45485000D01*
X116020000Y-33895000D02*
X106280000Y-33895000D01*
X116020000Y-36955000D02*
X116020000Y-33895000D01*
X116020000Y-45485000D02*
X114530000Y-45485000D01*
X116020000Y-45485000D02*
X116020000Y-40765000D01*
%TO.C,R4*%
X118165000Y-43814564D02*
X118165000Y-43360436D01*
X119635000Y-43814564D02*
X119635000Y-43360436D01*
%TO.C,R23*%
X140400000Y-113787936D02*
X140400000Y-114242064D01*
X141870000Y-113787936D02*
X141870000Y-114242064D01*
%TO.C,RANGE1*%
X106270000Y-64605000D02*
X106270000Y-59885000D01*
X106280000Y-56075000D02*
X106280000Y-53015000D01*
X107460000Y-64605000D02*
X106280000Y-64605000D01*
X110360000Y-64605000D02*
X109830000Y-64605000D01*
X112810000Y-64605000D02*
X111980000Y-64605000D01*
X116020000Y-53015000D02*
X106280000Y-53015000D01*
X116020000Y-56075000D02*
X116020000Y-53015000D01*
X116020000Y-64605000D02*
X114530000Y-64605000D01*
X116020000Y-64605000D02*
X116020000Y-59885000D01*
%TO.C,R17*%
X129400000Y-71829564D02*
X129400000Y-71375436D01*
X130870000Y-71829564D02*
X130870000Y-71375436D01*
%TO.C,R14*%
X127765000Y-102367064D02*
X127765000Y-101912936D01*
X129235000Y-102367064D02*
X129235000Y-101912936D01*
%TO.C,C6*%
X131400000Y-85753748D02*
X131400000Y-86276252D01*
X132870000Y-85753748D02*
X132870000Y-86276252D01*
%TO.C,R20*%
X136365000Y-64422936D02*
X136365000Y-64877064D01*
X137835000Y-64422936D02*
X137835000Y-64877064D01*
%TO.C,C1*%
X133161252Y-95315000D02*
X132638748Y-95315000D01*
X133161252Y-96785000D02*
X132638748Y-96785000D01*
%TO.C,U1*%
X129700000Y-76760000D02*
X129765000Y-76760000D01*
X129700000Y-80880000D02*
X129700000Y-76760000D01*
X129765000Y-80880000D02*
X129700000Y-80880000D01*
X138505000Y-76760000D02*
X138570000Y-76760000D01*
X138570000Y-76760000D02*
X138570000Y-80880000D01*
X138570000Y-80880000D02*
X138505000Y-80880000D01*
X129765000Y-81420000D02*
X129435000Y-81660000D01*
X129435000Y-81180000D01*
X129765000Y-81420000D01*
G36*
X129765000Y-81420000D02*
G01*
X129435000Y-81660000D01*
X129435000Y-81180000D01*
X129765000Y-81420000D01*
G37*
%TO.C,R2*%
X128415000Y-91077064D02*
X128415000Y-90622936D01*
X129885000Y-91077064D02*
X129885000Y-90622936D01*
%TO.C,D2*%
X116210000Y-87000000D02*
X112200000Y-87000000D01*
X116210000Y-89000000D02*
X112200000Y-89000000D01*
X116210000Y-89000000D02*
X116210000Y-87000000D01*
%TO.C,C7*%
X126400000Y-79226252D02*
X126400000Y-78703748D01*
X127870000Y-79226252D02*
X127870000Y-78703748D01*
%TO.C,R24*%
X125400000Y-113875436D02*
X125400000Y-114329564D01*
X126870000Y-113875436D02*
X126870000Y-114329564D01*
%TO.C,R6*%
X134765000Y-91227064D02*
X134765000Y-90772936D01*
X136235000Y-91227064D02*
X136235000Y-90772936D01*
%TO.C,R18*%
X140065000Y-74127064D02*
X140065000Y-73672936D01*
X141535000Y-74127064D02*
X141535000Y-73672936D01*
%TO.C,C2*%
X139515000Y-84711252D02*
X139515000Y-84188748D01*
X140985000Y-84711252D02*
X140985000Y-84188748D01*
%TO.C,J5*%
X140670000Y-91020000D02*
X140670000Y-106320000D01*
X140670000Y-91020000D02*
X143330000Y-91020000D01*
X140670000Y-106320000D02*
X143330000Y-106320000D01*
X142000000Y-88420000D02*
X143330000Y-88420000D01*
X143330000Y-88420000D02*
X143330000Y-89750000D01*
X143330000Y-91020000D02*
X143330000Y-106320000D01*
%TO.C,INV-OUT1*%
X101500000Y-124700000D02*
X101500000Y-135200000D01*
X105200000Y-135200000D02*
X101500000Y-135200000D01*
X105280000Y-124700000D02*
X101500000Y-124700000D01*
X106270000Y-121800000D02*
X106270000Y-122600000D01*
X106270000Y-121800000D02*
X107130000Y-121800000D01*
X110500000Y-124700000D02*
X106720000Y-124700000D01*
X110500000Y-124700000D02*
X110500000Y-135200000D01*
X110500000Y-135200000D02*
X106800000Y-135200000D01*
X107800000Y-129200000D02*
G75*
G02*
X104200000Y-129200000I-1800000J0D01*
G01*
X104200000Y-129200000D02*
G75*
G02*
X107800000Y-129200000I1800000J0D01*
G01*
%TO.C,TRI-OUT1*%
X101500000Y-108920000D02*
X105200000Y-108920000D01*
X101500000Y-119420000D02*
X101500000Y-108920000D01*
X101500000Y-119420000D02*
X105280000Y-119420000D01*
X105750000Y-122400000D02*
X104890000Y-122400000D01*
X105750000Y-122400000D02*
X105750000Y-121600000D01*
X106720000Y-119420000D02*
X110500000Y-119420000D01*
X106800000Y-108920000D02*
X110500000Y-108920000D01*
X110500000Y-119420000D02*
X110500000Y-108920000D01*
X107800000Y-114920000D02*
G75*
G02*
X104200000Y-114920000I-1800000J0D01*
G01*
X104200000Y-114920000D02*
G75*
G02*
X107800000Y-114920000I1800000J0D01*
G01*
%TO.C,D5*%
X124485000Y-125525000D02*
X124485000Y-120015000D01*
X124485000Y-125525000D02*
X127785000Y-125525000D01*
X127785000Y-125525000D02*
X127785000Y-120015000D01*
%TO.C,R16*%
X140465000Y-79339564D02*
X140465000Y-78885436D01*
X141935000Y-79339564D02*
X141935000Y-78885436D01*
%TO.C,R19*%
X128615000Y-66422936D02*
X128615000Y-66877064D01*
X130085000Y-66422936D02*
X130085000Y-66877064D01*
%TO.C,D3*%
X120260000Y-49020000D02*
X120260000Y-48864000D01*
X120260000Y-51336000D02*
X120260000Y-51180000D01*
X117028563Y-49020000D02*
G75*
G02*
X120260000Y-48864484I1671437J-1080000D01*
G01*
X117659039Y-49020000D02*
G75*
G02*
X119740961Y-49020000I1040961J-1080000D01*
G01*
X119740961Y-51180000D02*
G75*
G02*
X117659039Y-51180000I-1040961J1080000D01*
G01*
X120260000Y-51335516D02*
G75*
G02*
X117028563Y-51180000I-1560000J1235516D01*
G01*
%TO.C,R5*%
X136477064Y-84652500D02*
X136022936Y-84652500D01*
X136477064Y-86122500D02*
X136022936Y-86122500D01*
%TO.C,C3*%
X127350000Y-96351252D02*
X127350000Y-95828748D01*
X128820000Y-96351252D02*
X128820000Y-95828748D01*
%TO.C,R3*%
X131415000Y-91077064D02*
X131415000Y-90622936D01*
X132885000Y-91077064D02*
X132885000Y-90622936D01*
%TO.C,R21*%
X136415000Y-71172936D02*
X136415000Y-71627064D01*
X137885000Y-71172936D02*
X137885000Y-71627064D01*
%TO.C,SHAPE1*%
X106270000Y-83725000D02*
X106270000Y-79005000D01*
X106280000Y-75195000D02*
X106280000Y-72135000D01*
X107460000Y-83725000D02*
X106280000Y-83725000D01*
X110360000Y-83725000D02*
X109830000Y-83725000D01*
X112810000Y-83725000D02*
X111980000Y-83725000D01*
X116020000Y-72135000D02*
X106280000Y-72135000D01*
X116020000Y-75195000D02*
X116020000Y-72135000D01*
X116020000Y-83725000D02*
X114530000Y-83725000D01*
X116020000Y-83725000D02*
X116020000Y-79005000D01*
%TO.C,OFFSET1*%
X106270000Y-102845000D02*
X106270000Y-98125000D01*
X106280000Y-94315000D02*
X106280000Y-91255000D01*
X107460000Y-102845000D02*
X106280000Y-102845000D01*
X110360000Y-102845000D02*
X109830000Y-102845000D01*
X112810000Y-102845000D02*
X111980000Y-102845000D01*
X116020000Y-91255000D02*
X106280000Y-91255000D01*
X116020000Y-94315000D02*
X116020000Y-91255000D01*
X116020000Y-102845000D02*
X114530000Y-102845000D01*
X116020000Y-102845000D02*
X116020000Y-98125000D01*
%TO.C,R1*%
X128415000Y-86277064D02*
X128415000Y-85822936D01*
X129885000Y-86277064D02*
X129885000Y-85822936D01*
%TO.C,D4*%
X139485000Y-118505000D02*
X139485000Y-124015000D01*
X142785000Y-118505000D02*
X139485000Y-118505000D01*
X142785000Y-118505000D02*
X142785000Y-124015000D01*
%TO.C,R22*%
X132900000Y-71287936D02*
X132900000Y-71742064D01*
X134370000Y-71287936D02*
X134370000Y-71742064D01*
%TO.C,Q1*%
X132240000Y-99517500D02*
X133760000Y-99517500D01*
X132240000Y-99567500D02*
X132240000Y-99517500D01*
X132240000Y-101467500D02*
X132240000Y-100687500D01*
X132240000Y-102637500D02*
X132240000Y-102587500D01*
X133760000Y-99517500D02*
X133760000Y-100517500D01*
X133760000Y-101637500D02*
X133760000Y-102637500D01*
X133760000Y-102637500D02*
X132240000Y-102637500D01*
X131700000Y-100697500D02*
X131940000Y-101027500D01*
X131460000Y-101027500D01*
X131700000Y-100697500D01*
G36*
X131940000Y-101027500D02*
G01*
X131460000Y-101027500D01*
X131700000Y-100697500D01*
X131940000Y-101027500D01*
G37*
%TO.C,PWM-OUT1*%
X111800000Y-108900000D02*
X115500000Y-108900000D01*
X111800000Y-119400000D02*
X111800000Y-108900000D01*
X111800000Y-119400000D02*
X115580000Y-119400000D01*
X116910000Y-122550000D02*
X116050000Y-122550000D01*
X116910000Y-122550000D02*
X116910000Y-121750000D01*
X117020000Y-119400000D02*
X120800000Y-119400000D01*
X117100000Y-108900000D02*
X120800000Y-108900000D01*
X120800000Y-119400000D02*
X120800000Y-108900000D01*
X118100000Y-114900000D02*
G75*
G02*
X114500000Y-114900000I-1800000J0D01*
G01*
X114500000Y-114900000D02*
G75*
G02*
X118100000Y-114900000I1800000J0D01*
G01*
%TD*%
M02*
